<?xml version="1.0" encoding="utf-8"?>
<!-- Generator: Adobe Illustrator 27.5.0, SVG Export Plug-In . SVG Version: 6.00 Build 0)  -->
<svg version="1.1" id="Layer_1" xmlns="http://www.w3.org/2000/svg" xmlns:xlink="http://www.w3.org/1999/xlink" x="0px" y="0px"
	 viewBox="0 0 849.967 400" style="enable-background:new 0 0 849.967 400;" xml:space="preserve">
<g>
	<g>
		<path style="fill:#E0DFE5;" d="M494.667,214.039V321.09c0,2.858-2.316,5.174-5.174,5.174H318.837
			c-2.858,0-5.178-2.316-5.178-5.174V214.039c0-2.858,2.321-5.174,5.178-5.174h170.656
			C492.351,208.865,494.667,211.181,494.667,214.039z"/>
	</g>
	<g>
		<path style="fill:#C7BFCE;" d="M494.667,214.039v2.107H313.659v-2.107c0-2.858,2.321-5.174,5.178-5.174h170.656
			C492.351,208.865,494.667,211.181,494.667,214.039z"/>
	</g>
	<g>
		<path style="fill:#5C69A5;" d="M483.708,214.376c-0.108,0-0.216-0.05-0.285-0.145c-0.115-0.157-0.081-0.379,0.076-0.494
			l4.551-3.337c0.155-0.113,0.378-0.082,0.494,0.076c0.115,0.157,0.081,0.379-0.076,0.494l-4.551,3.337
			C483.855,214.354,483.781,214.376,483.708,214.376z"/>
	</g>
	<g>
		<path style="fill:#5C69A5;" d="M488.259,214.376c-0.073,0-0.147-0.023-0.209-0.068l-4.551-3.337
			c-0.157-0.115-0.191-0.337-0.076-0.494c0.116-0.159,0.338-0.19,0.494-0.076l4.551,3.337c0.157,0.115,0.191,0.337,0.076,0.494
			C488.475,214.326,488.367,214.376,488.259,214.376z"/>
	</g>
	<g>
		<path style="fill:#5C69A5;" d="M480.068,214.376h-5.915c-0.195,0-0.354-0.158-0.354-0.354v-3.337c0-0.195,0.158-0.354,0.354-0.354
			h5.915c0.195,0,0.353,0.158,0.353,0.354v3.337C480.421,214.218,480.263,214.376,480.068,214.376z M474.506,213.669h5.208v-2.63
			h-5.208V213.669z"/>
	</g>
	<g>
		<path style="fill:#5C69A5;" d="M470.816,212.707h-4.778c-0.195,0-0.354-0.158-0.354-0.354s0.158-0.354,0.354-0.354h4.778
			c0.195,0,0.354,0.158,0.354,0.354S471.011,212.707,470.816,212.707z"/>
	</g>
	<g>
		<g>
			<path style="fill:#B9B2C1;" d="M447.373,235.48v49.77c0,4.472-3.626,8.093-8.093,8.093h-93.677c-4.472,0-8.093-3.621-8.093-8.093
				v-49.77c0-4.467,3.62-8.093,8.093-8.093h93.677C443.747,227.387,447.373,231.014,447.373,235.48z"/>
		</g>
		<g>
			<g>
				<g>
					<g>
						<rect x="337.51" y="238.101" style="fill:#E0DFE5;" width="109.863" height="0.549"/>
					</g>
				</g>
				<g>
					<g>
						<path style="fill:#E0DFE5;" d="M447.373,249.457v0.549H337.692c-0.071,0-0.132-0.027-0.181-0.071v-0.407
							c0.049-0.044,0.11-0.071,0.181-0.071H447.373z"/>
					</g>
				</g>
				<g>
					<g>
						<path style="fill:#E0DFE5;" d="M447.373,260.153v0.516c-0.027,0.011-0.06,0.016-0.093,0.016H337.51v-0.549H447.28
							C447.313,260.137,447.345,260.142,447.373,260.153z"/>
					</g>
				</g>
				<g>
					<g>
						<path style="fill:#E0DFE5;" d="M447.373,271.493v0.549H337.598c-0.033,0-0.06-0.005-0.088-0.016v-0.517
							c0.027-0.011,0.055-0.016,0.088-0.016H447.373z"/>
					</g>
				</g>
				<g>
					<g>
						<path style="fill:#E0DFE5;" d="M447.373,282.86v0.516c-0.027,0.011-0.06,0.016-0.093,0.016H337.51v-0.549H447.28
							C447.313,282.844,447.345,282.849,447.373,282.86z"/>
					</g>
				</g>
			</g>
			<g>
				<g>
					<g>
						<rect x="348.443" y="227.387" style="fill:#E0DFE5;" width="0.549" height="65.955"/>
					</g>
				</g>
				<g>
					<g>
						<rect x="359.794" y="227.387" style="fill:#E0DFE5;" width="0.549" height="65.955"/>
					</g>
				</g>
				<g>
					<g>
						<rect x="370.48" y="227.387" style="fill:#E0DFE5;" width="0.549" height="65.955"/>
					</g>
				</g>
				<g>
					<g>
						<rect x="381.83" y="227.387" style="fill:#E0DFE5;" width="0.549" height="65.955"/>
					</g>
				</g>
				<g>
					<g>
						<rect x="393.186" y="227.387" style="fill:#E0DFE5;" width="0.549" height="65.955"/>
					</g>
				</g>
			</g>
			<g>
				<g>
					<rect x="404.234" y="227.387" style="fill:#E0DFE5;" width="0.549" height="65.955"/>
				</g>
			</g>
			<g>
				<g>
					<rect x="415.59" y="227.387" style="fill:#E0DFE5;" width="0.549" height="65.955"/>
				</g>
			</g>
			<g>
				<g>
					<rect x="426.271" y="227.387" style="fill:#E0DFE5;" width="0.549" height="65.955"/>
				</g>
			</g>
			<g>
				<g>
					<rect x="437.627" y="227.387" style="fill:#E0DFE5;" width="0.549" height="65.955"/>
				</g>
			</g>
		</g>
		<g>
			<g>
				<path style="fill:#C7BFCE;" d="M468.264,314.245h-79.929c-1.409,0-2.552-1.142-2.552-2.552v-44.877
					c0-1.409,1.143-2.552,2.552-2.552h79.929c1.409,0,2.552,1.142,2.552,2.552v44.877
					C470.816,313.103,469.673,314.245,468.264,314.245z"/>
			</g>
			<g>
				<g>
					<rect x="402.556" y="291.774" style="fill:#E0DFE5;" width="5.002" height="13.728"/>
				</g>
				<g>
					<rect x="448.308" y="291.774" style="fill:#E0DFE5;" width="5.002" height="13.728"/>
				</g>
				<g>
					<rect x="413.994" y="284.706" style="fill:#E0DFE5;" width="5.002" height="20.747"/>
				</g>
				<g>
					<rect x="425.432" y="278.735" style="fill:#E0DFE5;" width="5.002" height="26.717"/>
				</g>
				<g>
					<rect x="436.87" y="272.947" style="fill:#E0DFE5;" width="5.002" height="32.616"/>
				</g>
			</g>
		</g>
		<g>
			<circle style="fill:#F7B369;" cx="359.794" cy="249.731" r="2.657"/>
		</g>
		<g>
			<path style="fill:#5C69A5;" d="M373.411,272.042c0,1.467-1.189,2.657-2.657,2.657c-1.467,0-2.657-1.189-2.657-2.657
				c0-1.467,1.189-2.657,2.657-2.657C372.221,269.386,373.411,270.575,373.411,272.042z"/>
		</g>
		<g>
			<circle style="fill:#92B4EA;" cx="415.865" cy="250.006" r="2.657"/>
		</g>
	</g>
</g>
<g>
	<g>
		<path style="fill:#E0DFE5;" d="M620.865,189.009H540.94c-7.341,0-13.292-5.951-13.292-13.291V52.097
			c0-7.341,5.951-13.292,13.292-13.292h79.926c7.341,0,13.292,5.951,13.292,13.292v123.621
			C634.157,183.058,628.206,189.009,620.865,189.009z"/>
	</g>
	<g>
		<path style="fill:#5C69A5;" d="M622.414,158.719h-81.958c-0.195,0-0.354-0.158-0.354-0.354s0.158-0.354,0.354-0.354h81.958
			c0.195,0,0.353,0.158,0.353,0.354S622.61,158.719,622.414,158.719z"/>
	</g>
	<g>
		<path style="fill:#5C69A5;" d="M600.827,169.859h-60.371c-0.195,0-0.354-0.158-0.354-0.354c0-0.195,0.158-0.354,0.354-0.354
			h60.371c0.195,0,0.354,0.158,0.354,0.354C601.181,169.701,601.023,169.859,600.827,169.859z"/>
	</g>
	<g>
		<polygon style="fill:#FFAC5A;" points="580.665,130.027 583.779,136.337 590.743,137.35 585.704,142.261 586.893,149.197 
			580.665,145.923 574.436,149.197 575.625,142.261 570.586,137.35 577.55,136.337 		"/>
	</g>
	<g>
		<polygon style="fill:#FFAC5A;" points="560.358,134.712 563.817,138.85 569.186,138.347 566.32,142.915 568.457,147.867 
			563.227,146.552 559.179,150.115 558.813,144.734 554.173,141.985 559.178,139.974 		"/>
	</g>
	<g>
		<polygon style="fill:#FFAC5A;" points="600.728,134.712 597.27,138.85 591.9,138.347 594.767,142.915 592.629,147.867 
			597.86,146.552 601.908,150.115 602.274,144.734 606.914,141.985 601.909,139.974 		"/>
	</g>
	<g>
		
			<ellipse transform="matrix(0.9201 -0.3917 0.3917 0.9201 11.7632 235.0149)" style="fill:#FFFFFF;" cx="581.969" cy="88.673" rx="37.789" ry="37.789"/>
	</g>
	<g>
		<path style="fill:#5C69A5;" d="M563.649,121.728c-4.49-2.472-8.422-5.852-11.558-9.88c3.618-5.247,13.002-12.846,18.108-14.541
			C576.685,95.152,567.126,110.073,563.649,121.728z"/>
	</g>
	<g>
		<path d="M590.674,73.296c1.916-0.242,3.891,0.161,5.465,1.281c1.379,0.981,2.699,2.615,3.173,5.331
			c1.138,6.52-1.199,8.323,2.529,10.777c3.728,2.454,5.834,0.95,8.188,7.021c2.354,6.07-1.265,14.204-8.799,12.559
			c-7.535-1.645-25.807-6.627-25.807-6.627l-0.849-27.002l9.144-2.462L590.674,73.296z"/>
	</g>
	<g>
		<path style="fill:#5C69A5;" d="M602.588,120.334c-3.858,2.521-8.203,4.353-12.863,5.325c-2.513,0.527-5.106,0.802-7.773,0.802
			c-1.143,0-2.278-0.049-3.396-0.154c-1.816-0.162-3.591-0.454-5.325-0.867c-3.396-0.802-6.606-2.059-9.581-3.712
			c-3.226-1.775-6.16-4.02-8.721-6.638c1.111-3.088,2.278-5.812,3.461-7.797c5.633-9.451,13.86-10.342,13.86-10.342
			c8.811-2.586,16.332-3.048,24.324,0.843C600.164,99.535,601.899,109.643,602.588,120.334z"/>
	</g>
	<g>
		<path style="fill:#40507F;" d="M598.632,118.6l-0.235,4.101c-2.723,1.321-5.633,2.326-8.673,2.959
			c-2.513,0.527-5.106,0.802-7.773,0.802c-1.143,0-2.278-0.049-3.396-0.154c-1.816-0.162-3.591-0.454-5.325-0.867
			c-3.396-0.802-6.606-2.059-9.581-3.712c-0.162-0.089-0.324-0.178-0.478-0.276c-1.775-0.997-3.453-2.148-5.025-3.437
			c5.058-10.529,12.053-20.709,12.053-20.709l10.659-2.221l13.568,2.318L598.632,118.6z"/>
	</g>
	<g>
		<path style="fill:#5C69A5;" d="M570.198,97.307c0,0-4.239,13.787-7.027,24.146c-1.872-1.054-3.631-2.278-5.285-3.639l9.005-17.929
			L570.198,97.307z"/>
	</g>
	<g>
		<path d="M566.892,78.764c0,0-3.63-5.886-3.347-8.419c0.698-6.246,9.463-10.575,18.215-7.633
			c8.753,2.942,10.541,13.814,9.174,18.548c-3.52,12.189-14.158,7.957-14.158,7.957S560.236,86.14,566.892,78.764z"/>
	</g>
	<g>
		<g>
			<g>
				<g>
					<path style="fill:#F48462;" d="M569.816,91.773l0.017,0.227l0.492,4.26l0.372,3.341c0,0-0.231,0.799,3.651,0.272
						c5.202-0.727,6.729-3.092,6.729-3.092l-0.331-7.87l-1.563,0.414L569.816,91.773z"/>
				</g>
			</g>
		</g>
	</g>
	<g>
		<g>
			<g>
				<g>
					<path d="M569.834,91.999l0.492,4.26c2.518-0.487,7.065-1.913,8.651-6.04c0.121-0.335,0.195-0.634,0.209-0.879l-9.34,2.593
						L569.834,91.999z"/>
				</g>
			</g>
		</g>
	</g>
	<g>
		<g>
			<g>
				<g>
					<path style="fill:#F48462;" d="M566.736,71.663c0,0-4.078,11.469-1.886,17.597c2.192,6.128,7.818,4.743,11.141,3.294
						c3.323-1.449,4.757-3.65,4.757-3.65s3.259,0.855,5.18-2.255c1.921-3.11,0.37-6.417-1.502-7.068
						c-1.872-0.651-3.941,0.814-3.941,0.814l1.466-3.353C581.95,77.042,573.665,61.111,566.736,71.663z"/>
				</g>
			</g>
		</g>
	</g>
	<g>
		<path d="M568.218,85.815c-0.161,0-0.314-0.097-0.377-0.256c-0.928-2.344,0.572-4.913,0.637-5.021
			c0.115-0.192,0.363-0.254,0.556-0.142c0.191,0.114,0.256,0.363,0.142,0.555c-0.014,0.023-1.36,2.338-0.58,4.308
			c0.082,0.209-0.02,0.444-0.228,0.526C568.319,85.806,568.268,85.815,568.218,85.815z"/>
	</g>
	<g>
		<path d="M581.332,85.626c-0.09,0-0.18-0.029-0.255-0.09c-0.174-0.141-0.201-0.396-0.061-0.57l2.773-3.435
			c0.141-0.175,0.396-0.201,0.57-0.061c0.174,0.141,0.201,0.396,0.06,0.57l-2.773,3.435
			C581.568,85.575,581.45,85.626,581.332,85.626z"/>
	</g>
	<g>
		<path d="M584.463,84.521c-0.029-0.001-2.143-0.156-2.143-0.156c-0.224-0.017-0.392-0.211-0.375-0.434
			c0.017-0.223,0.213-0.387,0.434-0.375l2.113,0.155c0.224,0.017,0.392,0.211,0.375,0.434
			C584.852,84.359,584.674,84.521,584.463,84.521z"/>
	</g>
	<g>
		<path d="M571.861,88.97c-1.084,0-1.995-0.784-2.045-0.828c-0.105-0.092-0.156-0.231-0.134-0.37
			c0.022-0.138,0.114-0.254,0.243-0.309l4.237-1.781c0.14-0.06,0.299-0.035,0.415,0.061c0.116,0.096,0.17,0.249,0.139,0.396
			c-0.015,0.069-0.37,1.69-1.762,2.525C572.588,88.886,572.215,88.97,571.861,88.97z M570.945,87.915
			c0.438,0.216,1.05,0.383,1.592,0.056c0.514-0.308,0.852-0.77,1.065-1.172L570.945,87.915z"/>
	</g>
	<g>
		<path d="M574.561,77.157c-0.136,0-0.269-0.068-0.345-0.193c-0.56-0.908-1.853-0.545-1.908-0.527
			c-0.211,0.064-0.438-0.06-0.502-0.274c-0.064-0.214,0.058-0.438,0.271-0.502c0.079-0.023,1.943-0.56,2.828,0.879
			c0.118,0.19,0.059,0.44-0.132,0.558C574.707,77.138,574.634,77.157,574.561,77.157z"/>
	</g>
	<g>
		<path d="M565.896,76.538c-0.102,0-0.204-0.038-0.282-0.115c-0.16-0.156-0.164-0.412-0.009-0.572
			c0.036-0.038,0.895-0.912,1.89-0.866c0.487,0.022,0.929,0.263,1.276,0.696c0.141,0.174,0.113,0.43-0.062,0.57
			c-0.174,0.139-0.429,0.114-0.569-0.062c-0.204-0.253-0.426-0.382-0.681-0.394c-0.491-0.048-1.096,0.439-1.273,0.621
			C566.107,76.497,566.001,76.538,565.896,76.538z"/>
	</g>
	<g>
		<path d="M566.747,81.259c-0.251-0.017-0.42-0.21-0.404-0.433l0.132-1.914l-0.741-0.786c-0.153-0.163-0.146-0.42,0.017-0.573
			c0.162-0.153,0.419-0.146,0.573,0.017l0.863,0.915c0.077,0.083,0.117,0.193,0.109,0.306l-0.144,2.09
			C567.137,81.096,566.959,81.259,566.747,81.259z"/>
	</g>
	<g>
		<path d="M573.733,81.267c-0.244-0.012-0.416-0.202-0.404-0.425l0.094-1.893l-1.09-0.919c-0.171-0.144-0.192-0.4-0.048-0.571
			c0.145-0.172,0.401-0.193,0.571-0.048l1.243,1.049c0.097,0.081,0.149,0.204,0.143,0.33l-0.104,2.093
			C574.126,81.099,573.948,81.267,573.733,81.267z"/>
	</g>
	<g>
		<path d="M586.089,69.6c0,0-1.515-13.33,7.64-12.098c9.698,1.306,0.955,16.946-5.241,16.252
			C585.73,73.445,586.089,69.6,586.089,69.6z"/>
	</g>
	<g>
		<path style="fill:#F7B369;" d="M570.389,100.56c-0.3,0-0.482-0.008-0.522-0.01c-0.195-0.009-0.345-0.175-0.336-0.371
			c0.011-0.194,0.192-0.347,0.371-0.335c0.057,0.001,5.681,0.244,10.258-2.472c0.166-0.1,0.385-0.045,0.484,0.123
			c0.1,0.168,0.045,0.385-0.123,0.485C576.535,100.345,571.926,100.56,570.389,100.56z"/>
	</g>
	<g>
		<path style="fill:#5C69A5;" d="M608.651,115.422c-6.841,6.817-16.276,11.04-26.699,11.04c-1.143,0-2.278-0.049-3.396-0.154
			c0.697-3.891,1.451-6.557,1.451-6.557l9.581-24.235c0,0,9.532,0.211,15.919,9.986
			C606.883,107.617,607.986,111.159,608.651,115.422z"/>
	</g>
	<g>
		<path style="fill:#5C69A5;" d="M589.724,125.659c-2.513,0.527-5.106,0.802-7.773,0.802c-1.143,0-2.278-0.049-3.396-0.154
			c-1.816-0.162-3.591-0.454-5.325-0.867c3.396-14.355,7.848-30.344,7.848-30.344l8.508,0.419L589.724,125.659z"/>
	</g>
	<g>
		<path style="fill:#FFFFFF;" d="M590.674,73.65c-0.18,0-0.334-0.136-0.352-0.319c-0.576-5.818-4.472-7.887-4.511-7.907
			c-0.174-0.089-0.241-0.303-0.152-0.476c0.089-0.173,0.303-0.24,0.477-0.152c0.174,0.09,4.276,2.27,4.89,8.467
			c0.02,0.194-0.122,0.367-0.316,0.387C590.698,73.649,590.685,73.65,590.674,73.65z"/>
	</g>
	<g>
		<path d="M572.424,66.938c0,0-1.384,1.781-1.572,4.653c-0.188,2.872-0.188,2.872-0.188,2.872l11.89,3.465l0.241-5.754
			L572.424,66.938z"/>
	</g>
	<g>
		<path d="M571.438,68.84c0,0-1.045,0.911-1.516,2.132c-0.472,1.22-0.966,3.643-0.966,3.643l-3.442-0.386l0.392-6.009l4.643-2.843
			l2.805,0.314l-0.433,3.871L571.438,68.84z"/>
	</g>
</g>
<g>
	<g>
		<path style="fill:#E0DFE5;" d="M483.113,188.382h-79.926c-7.341,0-13.292-5.951-13.292-13.292V51.469
			c0-7.341,5.951-13.292,13.292-13.292h79.926c7.341,0,13.292,5.951,13.292,13.292V175.09
			C496.405,182.431,490.454,188.382,483.113,188.382z"/>
	</g>
	<g>
		<path style="fill:#5C69A5;" d="M484.662,158.091h-81.958c-0.195,0-0.353-0.158-0.353-0.354c0-0.195,0.158-0.354,0.353-0.354
			h81.958c0.195,0,0.353,0.158,0.353,0.354C485.016,157.933,484.858,158.091,484.662,158.091z"/>
	</g>
	<g>
		<path style="fill:#5C69A5;" d="M463.075,169.232h-60.371c-0.195,0-0.353-0.158-0.353-0.354s0.158-0.354,0.353-0.354h60.371
			c0.195,0,0.354,0.158,0.354,0.354S463.271,169.232,463.075,169.232z"/>
	</g>
	<g>
		<polygon style="fill:#FFAC5A;" points="442.912,129.4 446.027,135.71 452.991,136.722 447.951,141.634 449.141,148.57 
			442.912,145.295 436.684,148.57 437.873,141.634 432.834,136.722 439.798,135.71 		"/>
	</g>
	<g>
		<polygon style="fill:#FFAC5A;" points="422.606,134.085 426.065,138.223 431.434,137.72 428.567,142.288 430.705,147.239 
			425.475,145.924 421.426,149.488 421.061,144.107 416.421,141.358 421.425,139.347 		"/>
	</g>
	<g>
		<polygon style="fill:#FFAC5A;" points="462.976,134.085 459.518,138.223 454.148,137.72 457.015,142.288 454.877,147.239 
			460.107,145.924 464.156,149.488 464.521,144.107 469.161,141.358 464.157,139.347 		"/>
	</g>
	<g>
		<path style="fill:#FFFFFF;" d="M480.704,88.599c0,7.465-2.164,14.428-5.909,20.296c-2.699,4.231-6.217,7.887-10.334,10.748
			c-2.205,1.532-4.579,2.837-7.092,3.882c-4.45,1.84-9.329,2.861-14.452,2.861c-0.292,0-0.592,0-0.892-0.008
			c-9.094-0.211-17.394-3.631-23.806-9.175c-1.119-0.965-2.172-1.994-3.169-3.08c-6.168-6.719-9.929-15.684-9.929-25.524
			c0-20.872,16.924-37.788,37.796-37.788C463.78,50.811,480.704,67.727,480.704,88.599z"/>
	</g>
	<g>
		<path style="fill:#F7B369;" d="M464.461,119.642c-2.205,1.532-4.579,2.837-7.092,3.882c-4.45,1.84-9.329,2.861-14.452,2.861
			c-0.292,0-0.592,0-0.892-0.008c-9.094-0.211-17.394-3.631-23.806-9.175c-1.119-0.965-2.172-1.994-3.169-3.08
			c2.659-5.763,8.827-16.632,18.472-19.242c0.113-0.032,0.227-0.057,0.332-0.089c11.161-2.821,26.302-0.186,29.317,2.075
			C464.412,97.887,464.631,108.027,464.461,119.642z"/>
	</g>
	<g>
		<path d="M436.131,74.65c0,0-6.28-7.767-3.645-10.849c2.636-3.082,6.709,0,6.709,0s0.225-3.647,4.288-3.27
			c4.063,0.376,6.512,4.707,6.512,4.707s3.575-3.577,6.023,0c2.448,3.577,0.753,9.413,0.753,9.413s2.824-0.418,2.071,2.897
			c-0.753,3.315-5.194,6.733-5.194,6.733L436.131,74.65z"/>
	</g>
	<g>
		<g>
			<path style="fill:#F48462;" d="M449.877,86.879l0.118,8.759c0,0-1.546,2.539-6.664,3.025c-3.813,0.362-5.166-0.483-5.166-0.483
				l0.472-4.443l0.466-4.333l9.226-2.16L449.877,86.879z"/>
		</g>
	</g>
	<g>
		<g>
			<path d="M448.329,87.243c-0.019,0.239-0.106,0.523-0.243,0.849c-1.901,4.402-7.247,5.418-9.449,5.645l0.466-4.333L448.329,87.243
				z"/>
		</g>
	</g>
	<g>
		<g>
			<path style="fill:#F48462;" d="M436.881,69.464c0,0-4.449,11.045-2.554,17.122c1.895,6.077,7.449,4.951,10.755,3.67
				c3.306-1.281,4.797-3.375,4.797-3.375s3.151,0.967,5.153-1.994c2.003-2.962,0.621-6.256-1.182-6.968
				c-1.804-0.712-3.885,0.636-3.885,0.636l1.568-3.218C451.533,75.336,444.08,59.431,436.881,69.464z"/>
		</g>
	</g>
	<g>
		<path d="M450.348,83.335c-0.124,0-0.246-0.057-0.326-0.164c-0.133-0.18-0.095-0.434,0.085-0.567l3.3-2.441
			c0.18-0.132,0.434-0.095,0.567,0.085c0.133,0.18,0.095,0.434-0.085,0.567l-3.3,2.441
			C450.517,83.309,450.432,83.335,450.348,83.335z"/>
	</g>
	<g>
		<path d="M453.944,83.238c-0.031,0-0.064-0.003-0.096-0.011l-2.608-0.634c-0.218-0.053-0.35-0.272-0.298-0.49
			c0.054-0.217,0.268-0.349,0.489-0.298l2.607,0.634c0.218,0.053,0.351,0.272,0.298,0.49
			C454.292,83.114,454.126,83.238,453.944,83.238z"/>
	</g>
	<g>
		<path d="M443.987,74.6c-0.167,0-0.322-0.103-0.382-0.269c-0.596-1.671-2.089-1.438-2.154-1.426
			c-0.215,0.039-0.43-0.109-0.468-0.329c-0.039-0.219,0.105-0.429,0.324-0.469c0.767-0.142,2.396,0.086,3.062,1.951
			c0.075,0.211-0.035,0.443-0.246,0.518C444.078,74.592,444.032,74.6,443.987,74.6z"/>
	</g>
	<g>
		<path d="M435.775,73.744c-0.114,0-0.229-0.048-0.309-0.143c-0.146-0.17-0.124-0.426,0.046-0.571c0.389-0.33,1.424-1.21,1.89-0.678
			c0.148,0.168,0.132,0.424-0.036,0.572c-0.107,0.096-0.257,0.123-0.384,0.084c-0.089,0.027-0.361,0.144-0.944,0.64
			C435.961,73.712,435.867,73.744,435.775,73.744z"/>
	</g>
	<g>
		<path d="M437.361,82.057c-0.122,0-0.242-0.055-0.322-0.16c-1.422-1.865,1.313-4.814,1.43-4.938
			c0.151-0.163,0.409-0.171,0.572-0.018c0.163,0.153,0.171,0.41,0.019,0.573c-0.667,0.711-2.213,2.796-1.376,3.893
			c0.136,0.178,0.102,0.432-0.076,0.568C437.534,82.03,437.447,82.057,437.361,82.057z"/>
	</g>
	<g>
		<path d="M436.648,78.146c-0.02,0-0.039-0.002-0.059-0.004c-0.222-0.032-0.375-0.237-0.344-0.459l0.295-2.062
			c0.032-0.222,0.243-0.371,0.459-0.344c0.222,0.032,0.375,0.237,0.344,0.459l-0.295,2.062
			C437.019,78.001,436.846,78.146,436.648,78.146z"/>
	</g>
	<g>
		<path d="M442.684,78.155c-0.249-0.015-0.419-0.207-0.404-0.431l0.132-2.079c0.015-0.222,0.182-0.387,0.43-0.378
			c0.224,0.014,0.394,0.207,0.379,0.43l-0.132,2.079C443.074,77.99,442.897,78.155,442.684,78.155z"/>
	</g>
	<g>
		<path d="M435.992,71.951c0,0,0.927-1.774,3.112-1.818c2.185-0.044,3.482,1.477,3.482,1.477s-0.909,3.692,2.089,5.607
			c2.998,1.914,5.29,1.337,5.29,1.337l2.145-0.797l1.538-3.171l-6.325-6.635l-8.127-4.151l-4.062,3.789L435.992,71.951z"/>
	</g>
	<g>
		<path d="M439.72,85.52c-0.099,0-0.16-0.004-0.174-0.006c-0.223-0.018-0.388-0.213-0.37-0.436c0.018-0.223,0.232-0.392,0.435-0.372
			c0.077,0.003,1.764,0.113,2.462-1.428c0.092-0.204,0.334-0.295,0.536-0.202c0.204,0.092,0.295,0.332,0.202,0.536
			C442.014,85.373,440.278,85.52,439.72,85.52z"/>
	</g>
	<g>
		<path style="fill:#F7B369;" d="M474.795,108.895c-2.699,4.231-6.217,7.887-10.334,10.748c-2.205,1.532-4.579,2.837-7.092,3.882
			l5.803-26.659C463.569,97.142,469.762,101.51,474.795,108.895z"/>
	</g>
	<g>
		<path style="fill:#FFFFFF;" d="M442.038,99.064c-2.771,0-4.934-0.613-5.038-0.643c-0.188-0.054-0.296-0.25-0.242-0.438
			c0.054-0.188,0.25-0.298,0.438-0.242c0.028,0.008,2.874,0.81,6.109,0.569c3.738-0.278,7.29-2.928,7.325-2.954
			c0.155-0.118,0.378-0.087,0.495,0.069c0.118,0.156,0.087,0.377-0.069,0.495c-0.151,0.114-3.755,2.802-7.698,3.095
			C442.906,99.049,442.465,99.064,442.038,99.064z"/>
	</g>
</g>
<g>
	<g>
		<path style="fill:#E0DFE5;" d="M345.64,188.276h-79.926c-7.341,0-13.292-5.951-13.292-13.291V51.364
			c0-7.341,5.951-13.292,13.292-13.292h79.926c7.341,0,13.292,5.951,13.292,13.292v123.621
			C358.931,182.325,352.98,188.276,345.64,188.276z"/>
	</g>
	<g>
		<path style="fill:#5C69A5;" d="M347.189,157.986h-80.892c-0.195,0-0.353-0.158-0.353-0.354c0-0.195,0.158-0.354,0.353-0.354
			h80.892c0.195,0,0.354,0.158,0.354,0.354C347.543,157.828,347.384,157.986,347.189,157.986z"/>
	</g>
	<g>
		<path style="fill:#5C69A5;" d="M325.602,169.126h-60.371c-0.195,0-0.353-0.158-0.353-0.354c0-0.195,0.158-0.354,0.353-0.354
			h60.371c0.195,0,0.353,0.158,0.353,0.354C325.955,168.968,325.797,169.126,325.602,169.126z"/>
	</g>
	<g>
		<polygon style="fill:#FFAC5A;" points="305.439,129.294 308.553,135.605 315.517,136.617 310.478,141.529 311.668,148.464 
			305.439,145.19 299.21,148.464 300.4,141.529 295.361,136.617 302.325,135.605 		"/>
	</g>
	<g>
		<polygon style="fill:#FFAC5A;" points="285.133,133.979 288.591,138.117 293.961,137.614 291.094,142.182 293.232,147.134 
			288.001,145.819 283.953,149.382 283.587,144.001 278.948,141.252 283.952,139.242 		"/>
	</g>
	<g>
		<polygon style="fill:#FFAC5A;" points="325.503,133.979 322.044,138.117 316.675,137.614 319.542,142.182 317.404,147.134 
			322.634,145.819 326.683,149.382 327.048,144.001 331.688,141.252 326.684,139.242 		"/>
	</g>
	<g>
		<path style="fill:#FFFFFF;" d="M343.227,87.323c0,3.947-0.6,7.757-1.727,11.331c-1.143,3.623-2.804,7.011-4.92,10.067
			c-1.062,1.556-2.245,3.031-3.534,4.401c-0.081,0.097-0.162,0.186-0.251,0.276l-0.097,0.097c-0.081,0.089-0.17,0.178-0.251,0.259
			c-2.091,2.132-4.434,4.028-6.987,5.617c-0.097,0.057-0.186,0.113-0.268,0.162c-0.13,0.081-0.267,0.162-0.397,0.243
			c-0.17,0.105-0.349,0.211-0.527,0.308c-0.243,0.138-0.486,0.276-0.738,0.413c-0.243,0.138-0.478,0.259-0.721,0.381
			c-0.105,0.065-0.219,0.122-0.324,0.17c-0.276,0.146-0.551,0.276-0.827,0.405c-0.073,0.04-0.154,0.081-0.227,0.105
			c-0.349,0.17-0.697,0.324-1.054,0.478c-0.324,0.146-0.657,0.284-0.989,0.413c-0.097,0.041-0.194,0.081-0.3,0.114
			c-0.276,0.113-0.551,0.219-0.827,0.308c-0.105,0.041-0.211,0.081-0.316,0.114c-0.186,0.073-0.373,0.138-0.567,0.194
			c-0.284,0.097-0.567,0.187-0.851,0.276c-0.365,0.113-0.738,0.219-1.111,0.324c-0.065,0.016-0.13,0.032-0.186,0.049
			c-0.357,0.097-0.713,0.186-1.07,0.267c-1.151,0.276-2.326,0.494-3.51,0.657c-0.421,0.057-0.851,0.114-1.281,0.154
			c-0.438,0.049-0.867,0.081-1.305,0.114c-0.316,0.024-0.632,0.04-0.948,0.049c-0.559,0.024-1.119,0.04-1.678,0.04
			c-1.443,0-2.877-0.081-4.28-0.235c-0.194-0.016-0.381-0.04-0.567-0.065c-1.832-0.243-3.583-0.6-5.285-1.078
			c-2.002-0.551-3.939-1.272-5.787-2.132c-0.284-0.13-0.567-0.268-0.851-0.405c-1.824-0.9-3.558-1.945-5.188-3.121
			c-1.637-1.167-3.177-2.464-4.604-3.882c-1.532-1.508-2.934-3.161-4.182-4.912c-0.049-0.073-0.105-0.146-0.154-0.219
			c-0.259-0.365-0.511-0.729-0.754-1.11c-0.729-1.102-1.394-2.245-1.994-3.42c-2.651-5.163-4.142-11.007-4.142-17.208
			c0-20.871,16.916-37.787,37.788-37.787S343.227,66.451,343.227,87.323z"/>
	</g>
	<g>
		<g>
			<path d="M297.298,70.07c0,0-12.884,4.927-13.541,19.509c-0.95,21.076,24.309,16.19,24.309,16.19s14.306,1.484,18.263-9.062
				c3.957-10.546-8.762-16.913-8.762-16.913S302.144,66.214,297.298,70.07z"/>
		</g>
	</g>
	<g>
		<path style="fill:#68B6D8;" d="M336.58,108.721c-1.062,1.556-2.245,3.031-3.534,4.401c-0.081,0.097-0.162,0.186-0.251,0.276
			l-0.097,0.097c-0.081,0.089-0.17,0.178-0.251,0.259c-2.091,2.132-4.434,4.028-6.987,5.617c-0.097,0.057-0.186,0.113-0.268,0.162
			c-0.13,0.081-0.267,0.162-0.397,0.243c-0.17,0.105-0.349,0.211-0.527,0.308c-0.243,0.138-0.486,0.276-0.738,0.413
			c-0.243,0.138-0.478,0.259-0.721,0.381c-0.105,0.065-0.219,0.122-0.324,0.17c-0.276,0.146-0.551,0.276-0.827,0.405
			c-0.073,0.04-0.154,0.081-0.227,0.105c-0.349,0.17-0.697,0.324-1.054,0.478c-0.324,0.146-0.657,0.284-0.989,0.413
			c-0.097,0.041-0.194,0.081-0.3,0.114c-0.276,0.113-0.551,0.219-0.827,0.308c-0.105,0.041-0.211,0.081-0.316,0.114
			c-0.186,0.073-0.373,0.138-0.567,0.194c-0.284,0.097-0.567,0.187-0.851,0.276c-0.365,0.113-0.738,0.219-1.111,0.324
			c-0.065,0.016-0.13,0.032-0.186,0.049c-0.357,0.097-0.713,0.186-1.07,0.267c-1.151,0.276-2.326,0.494-3.51,0.657
			c-0.421,0.057-0.851,0.114-1.281,0.154c-0.438,0.049-0.867,0.081-1.305,0.114c-0.316,0.024-0.632,0.04-0.948,0.049
			c-0.559,0.024-1.119,0.04-1.678,0.04c-1.443,0-2.877-0.081-4.28-0.235c-0.194-0.016-0.381-0.04-0.567-0.065
			c-1.832-0.243-3.583-0.6-5.285-1.078c-2.002-0.551-3.939-1.272-5.787-2.132c-0.284-0.13-0.567-0.268-0.851-0.405
			c-1.824-0.9-3.558-1.945-5.188-3.121c-1.637-1.167-3.177-2.464-4.604-3.882c-1.532-1.508-2.934-3.161-4.182-4.912
			c-0.049-0.073-0.105-0.146-0.154-0.219c4.701-7.433,16.154-16.9,28.79-18.878c0.033,0,0.065-0.008,0.097-0.016
			c0.981-0.146,2.002-0.243,3.056-0.284C320.823,89.357,332.106,100.211,336.58,108.721z"/>
	</g>
	<g>
		<path style="fill:#68B6D8;" d="M324.795,119.78c-5.658,3.388-12.28,5.333-19.356,5.333c-1.443,0-2.877-0.081-4.28-0.235
			c-0.195-0.016-0.381-0.041-0.567-0.065c-1.832-0.243-3.583-0.6-5.285-1.078c-2.002-0.551-3.939-1.273-5.787-2.132
			c-0.284-0.13-0.567-0.267-0.851-0.405c-1.824-0.9-3.558-1.945-5.188-3.121c-0.073-5.569-0.114-9.962-0.114-9.962l14.395-10.683
			l7.068-5.244c0.089,0,0.178,0,0.267,0.008c3.891,0.081,7.173,0.875,9.759,1.832c0.413,0.162,0.811,0.316,1.191,0.478
			c3.591,1.524,5.536,3.234,5.536,3.234S323.271,108.911,324.795,119.78z"/>
	</g>
	<g>
		<g>
			<path style="fill:#F48462;" d="M314.428,94.078c0,0-1.208,0.965-4.725,0.819c-4.726-0.195-6.241-2.756-6.241-2.756l-0.235-9.062
				V82.99l1.435,0.284l9.005,1.678l0.349,4.15L314.428,94.078z"/>
		</g>
	</g>
	<g>
		<g>
			<path d="M314.015,89.101c-2.415-0.219-8.665-1.678-10.634-5.658c-0.057-0.13-0.114-0.251-0.154-0.365
				c-0.065-0.162-0.105-0.316-0.122-0.446l10.561,2.318L314.015,89.101z"/>
		</g>
	</g>
	<g>
		<g>
			<path style="fill:#F48462;" d="M314.84,65.52c0,0,4.855,10.483,3.319,16.465c-1.536,5.982-6.974,5.165-10.24,4.086
				c-3.266-1.079-4.814-3.034-4.814-3.034s-3.005,1.093-5.092-1.679c-2.087-2.771-0.91-6.032,0.802-6.81
				c1.713-0.779,3.796,0.425,3.796,0.425l-1.678-3.041C300.932,71.933,307.37,56.154,314.84,65.52z"/>
		</g>
	</g>
	<g>
		<path d="M316.407,69.877c-0.02,0-0.04-0.001-0.06-0.004l-2.073-0.308c-0.221-0.033-0.374-0.239-0.341-0.46
			c0.033-0.222,0.242-0.373,0.461-0.341l2.073,0.308c0.221,0.033,0.374,0.239,0.341,0.461
			C316.778,69.732,316.605,69.877,316.407,69.877z"/>
	</g>
	<g>
		<path d="M308.677,70.733c-0.158,0-0.309-0.093-0.374-0.248c-0.087-0.206,0.01-0.444,0.217-0.53l2.405-1.01
			c0.206-0.087,0.444,0.01,0.53,0.217c0.087,0.206-0.01,0.444-0.217,0.53l-2.405,1.01C308.783,70.723,308.73,70.733,308.677,70.733z
			"/>
	</g>
	<g>
		<path d="M314.776,78.474c-0.264-0.025-0.426-0.224-0.404-0.446c0.332-3.272-1.023-4.919-1.037-4.935
			c-0.144-0.17-0.124-0.426,0.046-0.571c0.169-0.145,0.424-0.127,0.569,0.043c0.065,0.076,1.598,1.902,1.229,5.545
			C315.157,78.318,314.982,78.474,314.776,78.474z"/>
	</g>
	<g>
		<path d="M311.47,82.017c-0.16,0-0.327-0.021-0.499-0.071c-1.339-0.383-1.489-1.918-1.495-1.983
			c-0.011-0.131,0.042-0.26,0.142-0.345c0.101-0.085,0.235-0.117,0.363-0.083l3.143,0.814c0.131,0.034,0.237,0.131,0.281,0.259
			c0.044,0.128,0.022,0.27-0.06,0.378C313.309,81.035,312.549,82.017,311.47,82.017z M310.457,80.496
			c0.13,0.274,0.354,0.562,0.737,0.671c0.38,0.107,0.739-0.035,1.011-0.218L310.457,80.496z"/>
	</g>
	<g>
		<path d="M302.625,79.347c-0.056,0-0.113-0.012-0.168-0.036l-4.267-1.94c-0.204-0.093-0.294-0.333-0.202-0.537
			c0.093-0.204,0.334-0.294,0.537-0.202l4.268,1.94c0.204,0.093,0.294,0.333,0.202,0.537
			C302.926,79.258,302.779,79.347,302.625,79.347z"/>
	</g>
	<g>
		<path d="M298.822,80.333c-0.104,0-0.209-0.04-0.288-0.121c-0.158-0.159-0.156-0.416,0.003-0.573l1.881-1.859
			c0.158-0.158,0.415-0.157,0.573,0.003c0.158,0.159,0.156,0.416-0.003,0.573l-1.881,1.859
			C299.029,80.294,298.926,80.333,298.822,80.333z"/>
	</g>
	<g>
		<path d="M308.677,66.138c0,0,2.43-0.369,4.966,1.164c2.536,1.533,3.057,3.026,3.057,3.026s1.568-3.957-1.869-7.449
			c-3.438-3.492-10.033-4.46-13.836-0.329c-3.802,4.131-3.569,7.778-3.569,7.778l5.185,4.645
			C302.61,74.974,310.617,73.432,308.677,66.138z"/>
	</g>
	<g>
		<path d="M300.07,64.323c0,0-4.892-9.29-9.85-5.364c-4.958,3.926,0.563,11.849,5.488,12.427
			C300.633,71.964,300.07,64.323,300.07,64.323z"/>
	</g>
	<g>
		<path style="fill:#68B6D8;" d="M301.16,124.878c-0.195-0.016-0.381-0.041-0.567-0.065c-1.832-0.243-3.583-0.6-5.285-1.078
			l2.456-26.302l0.081-0.835l5.487-6.411l0.065-0.073c0,0,0.008,0.016,0.032,0.057c0.138,0.219,0.705,1.094,1.67,2.026
			c1.848,1.791,5.171,3.81,9.743,1.84c0.754-0.324,1.127-0.13,1.208,0.47C316.471,97.814,307.733,113.579,301.16,124.878z"/>
	</g>
	<g>
		<g>
			<path style="fill:#FFFFFF;" d="M325.192,119.537c-0.13,0.081-0.267,0.162-0.397,0.243c-0.17,0.105-0.349,0.211-0.527,0.308
				c1.759-9.183-1.84-14.444-1.88-14.501c-0.13-0.186-0.097-0.454,0.081-0.592c0.186-0.138,0.438-0.097,0.567,0.089
				C323.198,105.312,326.716,110.418,325.192,119.537z"/>
		</g>
	</g>
	<g>
		<path style="fill:#FFFFFF;" d="M311.07,95.196c-5.257,0-7.949-4.851-7.981-4.911c-0.093-0.172-0.029-0.386,0.143-0.479
			c0.171-0.093,0.386-0.029,0.479,0.143c0.15,0.277,3.767,6.755,10.999,3.758c0.18-0.073,0.387,0.011,0.462,0.191
			c0.075,0.18-0.011,0.387-0.191,0.462C313.549,94.954,312.245,95.196,311.07,95.196z"/>
	</g>
	<g>
		<path style="fill:#5C69A5;" d="M303.288,82.631c0,0.623-0.505,1.128-1.128,1.128c-0.623,0-1.128-0.505-1.128-1.128
			s0.505-1.128,1.128-1.128C302.783,81.503,303.288,82.008,303.288,82.631z"/>
	</g>
	<g>
		<path d="M309.88,75.096c-0.224,0-0.405-0.182-0.405-0.405v-1.861c0-0.106,0.042-0.209,0.117-0.285l0.824-0.836
			c0.156-0.159,0.413-0.162,0.573-0.004c0.159,0.157,0.161,0.414,0.004,0.573l-0.707,0.717v1.695
			C310.285,74.914,310.104,75.096,309.88,75.096z"/>
	</g>
	<g>
		<path d="M315.995,75.096c-0.224,0-0.405-0.182-0.405-0.405v-1.861c0-0.106,0.042-0.209,0.117-0.285l0.824-0.836
			c0.157-0.16,0.414-0.161,0.573-0.004c0.159,0.157,0.161,0.414,0.004,0.573l-0.708,0.717v1.695
			C316.4,74.914,316.219,75.096,315.995,75.096z"/>
	</g>
</g>
<g>
	<ellipse style="fill:#E0DFE5;" cx="428.868" cy="367.586" rx="394.641" ry="7.761"/>
</g>
<g>
	<g>
		<path style="fill:#F7B369;" d="M494.596,295.7c-10.883-11.037-11.448-28.414-1.719-40.093c0.611-0.755,1.281-1.488,1.996-2.2
			c5.605-5.525,12.826-8.39,20.124-8.593c0.918-0.023,1.832-0.015,2.755,0.056c0.124-0.002,0.264-0.002,0.387,0.012
			c0.354,0.024,0.722,0.064,1.09,0.105c0.613,0.068,1.224,0.151,1.817,0.263c0.594,0.097,1.17,0.222,1.746,0.348
			c0.075,0.024,0.136,0.031,0.211,0.054c0.468,0.114,0.935,0.243,1.4,0.387c0.031,0.003,0.061,0.007,0.075,0.024
			c0.271,0.076,0.54,0.168,0.809,0.26c0.123,0.014,0.227,0.056,0.329,0.114c0.644,0.211,1.283,0.467,1.92,0.739
			c0.4,0.168,0.785,0.335,1.184,0.519c0.252,0.105,0.503,0.226,0.736,0.361c0.235,0.119,0.486,0.24,0.719,0.374
			c0.468,0.253,0.935,0.522,1.385,0.804c0.537,0.339,1.072,0.692,1.605,1.062c1.411,0.993,2.745,2.118,4.001,3.389
			c9.084,9.21,10.964,22.822,5.713,33.847c-1.44,3.068-3.448,5.934-5.99,8.446C525.138,307.573,506.207,307.454,494.596,295.7z"/>
	</g>
	<g>
		<path style="fill:#A37B90;" d="M542.883,287.539l-27.003-12.847l5.504-23.115l6.157-4.409c1.957,0.82,3.848,1.857,5.617,3.123
			c1.411,0.991,2.745,2.122,4.002,3.396C546.25,262.894,548.135,276.505,542.883,287.539z"/>
	</g>
	<g>
		<path style="fill:#40507F;" d="M515.875,274.683l-22.997-19.077c0.611-0.755,1.281-1.488,1.996-2.2
			c5.605-5.525,12.826-8.39,20.124-8.593c0.918-0.023,1.832-0.015,2.755,0.056L515.875,274.683z"/>
	</g>
	<g>
		<path style="fill:#92B4EA;" d="M515.875,274.683l-0.877-29.869c0.918-0.023,1.832-0.015,2.755,0.056
			c0.124-0.002,0.249-0.004,0.387,0.012c0.354,0.024,0.722,0.064,1.09,0.105c0.613,0.068,1.224,0.151,1.817,0.263
			c0.594,0.097,1.17,0.222,1.746,0.348c0.075,0.024,0.136,0.031,0.211,0.054c0.468,0.114,0.935,0.243,1.4,0.387
			c0.031,0.003,0.061,0.007,0.075,0.024c0.271,0.076,0.54,0.168,0.809,0.26c0.123,0.014,0.227,0.056,0.329,0.114
			c1.063,0.35,2.087,0.773,3.104,1.258c0.252,0.105,0.503,0.226,0.736,0.361c0.235,0.119,0.486,0.24,0.719,0.374
			c0.468,0.253,0.935,0.522,1.385,0.804c0.537,0.339,1.072,0.692,1.605,1.062L515.875,274.683z"/>
	</g>
</g>
<g>
	<g>
		<path style="fill:#5C69A5;" d="M581.581,170.984c0,0-18.802-23.747-19.973-22.164c-1.172,1.583,16.977,23.683,16.977,23.683
			L581.581,170.984z"/>
	</g>
	<g>
		<path style="fill:#F48462;" d="M596.053,184.515c0,0-6.853,0.111-9.87-2.571c-3.017-2.682,3.309-8.878,3.309-8.878l6.561,4.454
			V184.515z"/>
	</g>
	<g>
		<path style="fill:#F48462;" d="M586.709,169.848c-0.823-0.575-1.797-0.886-2.792-1.016c-3.369-0.441-13.027-0.007-14.212,3.386
			c-1.135,3.25,4.237,3.175,4.237,3.175s-4.317,0.926-2.68,3.652c1.367,2.276,4.182,1.81,4.182,1.81s-4.398,1.393-1.191,4.011
			c3.207,2.618,13.114,1.313,16.143-0.366c3.029-1.679-1.23-4.592-1.23-4.592s3.027-2.241,2.083-4.072
			c-0.999-1.939-3.977-1.337-3.977-1.337S589.67,171.919,586.709,169.848z"/>
	</g>
	<g>
		<path style="fill:#F48462;" d="M598.578,168.577c0,0-12.306-6.014-14.601-5.67c-2.295,0.344-10.86,7.603-8.764,9.597
			s8.764-3.149,8.764-3.149s6.844,11.486,11.335,10.189C599.802,178.246,598.578,168.577,598.578,168.577z"/>
	</g>
	<g>
		<path d="M573.942,175.744c-0.187,0-0.342-0.146-0.351-0.333c-0.011-0.194,0.139-0.359,0.332-0.369l12.241-0.63
			c0.222-0.011,0.36,0.14,0.369,0.333c0.011,0.194-0.139,0.359-0.332,0.369l-12.241,0.63
			C573.953,175.744,573.948,175.744,573.942,175.744z"/>
	</g>
	<g>
		<path d="M575.444,181.206c-0.185,0-0.339-0.143-0.351-0.329c-0.013-0.194,0.135-0.361,0.328-0.373l12.274-0.783
			c0.209-0.012,0.36,0.135,0.373,0.328c0.013,0.194-0.135,0.361-0.328,0.373l-12.274,0.783
			C575.458,181.206,575.45,181.206,575.444,181.206z"/>
	</g>
	<g>
		<path d="M593.076,179.997c-0.032,0-0.065-0.004-0.099-0.014c-0.076-0.022-7.573-2.31-9.345-10.555
			c-0.041-0.189,0.08-0.376,0.27-0.418c0.195-0.039,0.378,0.08,0.418,0.27c1.682,7.826,8.783,10.006,8.856,10.027
			c0.185,0.055,0.292,0.25,0.237,0.436C593.368,179.898,593.229,179.997,593.076,179.997z"/>
	</g>
	<g>
		<polygon style="fill:#F7B369;" points="632.612,334.821 632.612,347.008 610.465,346.148 610.465,334.821 		"/>
	</g>
	<g>
		<polygon style="fill:#F7B369;" points="683.75,333.448 683.75,345.635 663.248,344.775 663.248,333.448 		"/>
	</g>
	<g>
		<path style="fill:#A37B90;" d="M636.717,200.78c0,0-13.478,24.551-22.95,66.529c-8.639,38.288-10.501,69.956-10.501,69.956h37.369
			c0,0,4.157-31.218,5.265-43.571c1.107-12.352,4.792-28.887,4.792-28.887s5.128,71.252,6.351,72.458
			c1.223,1.206,36.995,0.267,36.612-1.37c-0.383-1.637-13.583-120.682-14.551-128.473
			C676.126,183.473,636.717,200.78,636.717,200.78z"/>
	</g>
	<g>
		<g>
			<g>
				<g>
					<path style="fill:#92B4EA;" d="M658.159,363.668c0,2.151,0.698,4.611,2.126,5.23c1.428,0.619,12.989,1.91,23.105,0.998
						c9.684-0.877,11.694-1.617,12.408-2.529c0.349-0.465-0.332-2.615-1.113-4.697c-0.05-0.103-0.083-0.224-0.133-0.327
						c-0.399-1.05-0.814-2.065-1.113-2.787c-0.299-0.688-0.664-1.342-1.096-1.979c-1.047-1.497-3.123-4.594-3.654-6.194
						c-0.698-2.134-1.761-6.745-2.475-8.913c-0.714-2.133-2.458-2.581-2.458-2.581s-19.916-1.411-21.344-0.172
						c-1.412,1.222-2.126,11.373-2.126,12.904v1.531c0,1.428-0.947,4.25-1.561,6.59c-0.166,0.585-0.299,1.135-0.399,1.634
						C658.226,362.877,658.159,363.307,658.159,363.668z"/>
				</g>
			</g>
		</g>
	</g>
	<g>
		<path style="fill:#92B4EA;" d="M576.319,368.056c1.263,0.568,54.993,2.168,56.241,0c0.379-0.654,0.647-2.873,0.821-5.661
			c0.442-6.572,0.442-16.345,0.442-16.345s0.395-3.338,0.316-4.886c-0.063-1.531-25.91-0.946-25.91-0.946l-16.8,14.435
			c0,0-4.61-0.895-9.647,0c-2.668,0.465-4.389,4.026-5.242,7.381C575.782,365.01,575.719,367.78,576.319,368.056z"/>
	</g>
	<g>
		<path style="fill:#F7B369;" d="M650.692,265.158c-0.183,0-0.336-0.141-0.351-0.325c-0.012-0.154-1.178-15.504-1.516-22.312
			c-0.29-5.811-0.343-9.041-0.352-9.886l-11.904-5.488c-0.176-0.081-0.253-0.29-0.172-0.467c0.082-0.176,0.291-0.249,0.467-0.172
			l12.106,5.582c0.124,0.058,0.203,0.182,0.204,0.318c0,0.032,0.014,3.285,0.352,10.077c0.338,6.799,1.504,22.14,1.516,22.294
			c0.015,0.193-0.13,0.362-0.324,0.377C650.709,265.158,650.7,265.158,650.692,265.158z"/>
	</g>
	<g>
		<path style="fill:#A37B90;" d="M683.242,350.469c-0.031,0-0.063-0.004-0.094-0.013c-0.078-0.021-7.857-2.163-11.765-1.468
			l-4.033,0.717c-0.153,0.029-0.31-0.052-0.378-0.193c-0.068-0.142-0.034-0.311,0.084-0.416c0.296-0.261,7.285-6.378,11.479-4.521
			c0.178,0.078,0.258,0.286,0.179,0.464c-0.078,0.178-0.283,0.258-0.464,0.179c-2.893-1.279-7.607,1.949-9.688,3.559l2.698-0.479
			c4.068-0.726,11.75,1.392,12.075,1.481c0.188,0.052,0.297,0.246,0.245,0.433C683.538,350.367,683.397,350.469,683.242,350.469z"/>
	</g>
	<g>
		<path style="fill:#A37B90;" d="M594.96,351.543c-0.178,0-0.33-0.134-0.35-0.315c-0.021-0.192,0.119-0.366,0.313-0.387l9.424-1.005
			l-3.1-3.78c-0.123-0.149-0.102-0.371,0.049-0.494c0.15-0.124,0.372-0.102,0.494,0.049l3.513,4.283
			c0.082,0.1,0.103,0.236,0.054,0.355c-0.049,0.12-0.159,0.203-0.288,0.217l-10.071,1.074
			C594.985,351.542,594.972,351.543,594.96,351.543z"/>
	</g>
	<g>
		<path style="fill:#F7B369;" d="M679.104,227.655c-0.071,0-0.143-0.021-0.206-0.066c-6.448-4.657-9.078-12.781-9.104-12.862
			c-0.059-0.186,0.044-0.383,0.229-0.441c0.183-0.064,0.382,0.044,0.441,0.229c0.025,0.08,2.59,7.987,8.846,12.505
			c0.157,0.114,0.192,0.334,0.079,0.491C679.319,227.605,679.212,227.655,679.104,227.655z"/>
	</g>
	<g>
		<path style="fill:#F7B369;" d="M659.355,143.128c0,0,11.065,0.593,19.938,8.232c8.874,7.639,17.932,32.966,12.941,40.916
			c-4.992,7.949-11.344,8.504-11.344,8.504l0.37,9.243l-48.5,0.452c0,0,3.997-58.834,5.946-63.197
			C640.656,142.915,659.355,143.128,659.355,143.128z"/>
	</g>
	<g>
		<path d="M646.197,116.285c0,0-3.969,4.365-1.89,9.267c2.079,4.903,4.576-8.789,4.576-8.789L646.197,116.285z"/>
	</g>
	<g>
		<g>
			<path style="fill:#F48462;" d="M659.058,136.328l0.026,8.769c0,0-1.574,2.525-6.703,2.957c-3.82,0.322-5.165-0.538-5.165-0.538
				l0.52-4.443l0.513-4.332l9.257-2.065L659.058,136.328z"/>
		</g>
	</g>
	<g>
		<g>
			<path d="M657.505,136.676c-0.021,0.24,1.397,1.013,1.256,1.338c-1.949,4.386-9.013,6.505-11.219,6.709l0.706-5.982
				L657.505,136.676z"/>
		</g>
	</g>
	<g>
		<g>
			<path style="fill:#F48462;" d="M647.856,116.746c-1.217,0.963-2.078,2.299-2.597,3.762c-1.193,3.368-3.616,11.235-2.169,16.1
				c1.88,6.322,7.572,5.223,10.965,3.936c3.393-1.287,4.938-3.438,4.938-3.438s3.213,1.042,5.289-2.003
				c2.076-3.045,0.694-6.476-1.144-7.236s-3.979,0.611-3.979,0.611l1.635-3.315C660.793,125.162,654.595,111.415,647.856,116.746z"
				/>
		</g>
	</g>
	<g>
		<path d="M659.57,132.732c-0.108,0-0.216-0.05-0.285-0.146c-0.113-0.157-0.078-0.377,0.079-0.491l3.942-2.853
			c0.158-0.113,0.376-0.079,0.491,0.079c0.113,0.157,0.078,0.377-0.079,0.491l-3.942,2.852
			C659.714,132.71,659.642,132.732,659.57,132.732z"/>
	</g>
	<g>
		<path d="M663.171,132.672c-0.028,0-0.058-0.003-0.087-0.011l-2.603-0.662c-0.188-0.048-0.302-0.239-0.254-0.427
			c0.048-0.188,0.238-0.302,0.428-0.254l2.604,0.662c0.188,0.048,0.302,0.239,0.254,0.427
			C663.471,132.566,663.328,132.672,663.171,132.672z"/>
	</g>
	<g>
		<path d="M646.586,131.315c-0.131,0-0.256-0.073-0.316-0.199c-1.254-2.596,0.641-5.283,0.723-5.396
			c0.112-0.158,0.332-0.193,0.49-0.081c0.157,0.113,0.193,0.333,0.081,0.49c-0.018,0.024-1.732,2.465-0.661,4.681
			c0.085,0.175,0.012,0.385-0.163,0.469C646.69,131.304,646.638,131.315,646.586,131.315z"/>
	</g>
	<g>
		<path d="M645.137,126.911c-0.03,0-0.061-0.004-0.092-0.012c-0.188-0.051-0.298-0.244-0.248-0.431l0.544-2.013
			c0.05-0.188,0.237-0.3,0.431-0.248c0.188,0.051,0.298,0.244,0.248,0.431l-0.544,2.013
			C645.434,126.808,645.292,126.911,645.137,126.911z"/>
	</g>
	<g>
		<path style="fill:#F7B369;" d="M645.118,152.92l-1.346,58.968h-13.111l1.556-25.78c0,0-9.333,1.826-21.111,1.914
			c-11.778,0.088-16.599-1.116-16.599-1.116l2.034-20.671c0,0,14.378-0.718,26.344-7.977c11.966-7.259,16.418-14.733,23.987-14.551
			C654.438,143.888,645.118,152.92,645.118,152.92z"/>
	</g>
	<g>
		<path d="M650.687,127.283c-0.03,0-0.061-0.004-0.092-0.012c-0.188-0.051-0.298-0.244-0.248-0.431l0.544-2.013
			c0.05-0.188,0.239-0.301,0.431-0.248c0.188,0.051,0.298,0.244,0.248,0.431l-0.544,2.013
			C650.984,127.18,650.842,127.283,650.687,127.283z"/>
	</g>
	<g>
		<path d="M645.137,122.96c-0.18,0-0.333-0.137-0.35-0.319c-0.018-0.193,0.123-0.364,0.316-0.383l1.666-0.157
			c0.207-0.018,0.365,0.124,0.383,0.317c0.018,0.193-0.123,0.364-0.317,0.383l-1.666,0.157
			C645.158,122.96,645.148,122.96,645.137,122.96z"/>
	</g>
	<g>
		<path d="M652.407,123.938c-0.047,0-0.095-0.009-0.141-0.029l-2.249-0.979c-0.178-0.078-0.259-0.285-0.182-0.462
			c0.077-0.178,0.283-0.26,0.463-0.182l2.249,0.979c0.178,0.078,0.259,0.285,0.182,0.462
			C652.672,123.859,652.543,123.938,652.407,123.938z"/>
	</g>
	<g>
		<path d="M659.159,128.478c0,0-0.96,3.636-1.653,3.181c-0.693-0.455-1.274-5.725-0.719-8.072c0.555-2.347,0.952-3.526,0.952-3.526
			s-9.565-0.986-12.057-3.297c-2.492-2.311,2.861-3.705,8.3-2.596c5.44,1.109,7.561,3.189,7.561,3.189s3.424-0.462,4.672,1.641
			c1.248,2.103-1.77,9.982-1.77,9.982S663.611,126.981,659.159,128.478z"/>
	</g>
	<g>
		<path d="M648.883,134.996c-0.112,0-0.223-0.054-0.291-0.154c-0.108-0.161-0.066-0.379,0.094-0.488l2.347-1.59
			c0.16-0.108,0.379-0.067,0.488,0.094c0.108,0.161,0.066,0.379-0.094,0.488l-2.347,1.59
			C649.02,134.977,648.951,134.996,648.883,134.996z"/>
	</g>
	<g>
		<path style="fill:#5C69A5;" d="M643.177,191.993c-0.142,0-0.274-0.086-0.328-0.226c-2.411-6.294-6.432-16.955-6.263-17.63
			c0.161-0.648,3.052-4.111,4.258-5.535c-1.449-1.198-4.93-4.146-5.096-4.975c-0.173-0.866,4.922-10.246,7.121-14.238
			c0.093-0.17,0.308-0.232,0.477-0.139c0.17,0.094,0.231,0.308,0.138,0.477c-2.697,4.899-6.995,12.978-7.043,13.801
			c0.138,0.447,2.715,2.783,5.124,4.758c0.073,0.06,0.119,0.146,0.127,0.241c0.009,0.094-0.021,0.187-0.082,0.259
			c-2.032,2.39-4.213,5.109-4.344,5.525c0.035,0.746,3.749,10.706,6.238,17.205c0.069,0.182-0.021,0.385-0.202,0.454
			C643.261,191.986,643.219,191.993,643.177,191.993z"/>
	</g>
	<g>
		<polygon style="fill:#40507F;" points="643.726,210.475 660.602,210.475 656.358,154.419 644.694,154.419 		"/>
	</g>
	<g>
		<path style="fill:#F7B369;" d="M656.358,161.807c0,0,3.962,50.303,4.21,50.081c0.248-0.222,21.137-0.58,21.137-0.58l-0.695-14.667
			L656.358,161.807z"/>
	</g>
	<g>
		<path style="fill:#5C69A5;" d="M660.568,191.993c-0.042,0-0.084-0.007-0.126-0.023c-0.181-0.069-0.271-0.272-0.202-0.454
			c2.489-6.498,6.203-16.458,6.229-17.261c-0.122-0.36-2.303-3.08-4.335-5.469c-0.061-0.072-0.091-0.165-0.082-0.259
			c0.008-0.094,0.054-0.181,0.127-0.241c2.409-1.975,4.986-4.311,5.129-4.801c-0.053-0.78-4.351-8.858-7.048-13.757
			c-0.094-0.17-0.032-0.384,0.138-0.477c0.169-0.093,0.385-0.031,0.477,0.139c2.199,3.993,7.294,13.372,7.121,14.238
			c-0.166,0.829-3.646,3.778-5.096,4.975c1.206,1.424,4.097,4.887,4.258,5.535c0.169,0.675-3.852,11.335-6.263,17.63
			C660.842,191.907,660.709,191.993,660.568,191.993z"/>
	</g>
	<g>
		<path style="fill:#F48462;" d="M653.733,144.66c0,0-13.332-8.345-14.825-7.378c-1.493,0.967,5.786,7.059,5.786,7.059
			s-3.312,2.796-3.489,3.329c-0.177,0.533-0.968,1.84-1.577,3.268c-0.609,1.427-0.34,2.378,1.042,3.866
			c1.382,1.488,10.37,5.824,12.358,5.962c1.988,0.138,1.988,0.138,1.988,0.138l5.922-10.157c0,0,0.327-8.894-1.582-9.969
			c-1.91-1.075-2.824,5.852-2.824,5.852L653.733,144.66z"/>
	</g>
	<g>
		<path d="M656.531,146.982c-0.065,0-0.13-0.018-0.188-0.054l-5.573-3.502c-0.164-0.103-0.214-0.32-0.11-0.484
			c0.105-0.166,0.32-0.212,0.485-0.11l5.134,3.227c0.103-0.524,0.302-1.479,0.661-3.01c0.662-2.829,2.387-2.626,2.463-2.617
			c0.191,0.026,0.326,0.203,0.301,0.396c-0.026,0.19-0.203,0.322-0.391,0.302c-0.068-0.007-1.184-0.08-1.689,2.081
			c-0.587,2.502-0.744,3.468-0.746,3.478c-0.019,0.116-0.094,0.216-0.201,0.265C656.63,146.972,656.58,146.982,656.531,146.982z"/>
	</g>
	<g>
		<path d="M646.198,145.994c-0.082,0-0.163-0.028-0.231-0.086l-1.503-1.301c-0.147-0.127-0.162-0.349-0.035-0.496
			c0.127-0.147,0.349-0.163,0.496-0.036l1.503,1.301c0.147,0.127,0.162,0.349,0.035,0.496
			C646.394,145.953,646.296,145.994,646.198,145.994z"/>
	</g>
	<g>
		<path style="fill:#5C69A5;" d="M620.851,167.663c-0.313,0-0.601-0.118-0.858-0.352c-1.396-1.268-1.494-5.879-1.501-6.401
			c-0.002-0.156,0.1-0.295,0.249-0.34c0.151-0.047,0.311,0.013,0.397,0.144c0.548,0.837,3.248,5.081,2.578,6.454
			c-0.141,0.288-0.41,0.462-0.759,0.491C620.921,167.661,620.885,167.663,620.851,167.663z M619.26,162.242
			c0.126,1.634,0.459,3.872,1.205,4.549c0.14,0.127,0.283,0.179,0.433,0.167c0.143-0.012,0.168-0.064,0.185-0.099
			C621.382,166.247,620.344,164.075,619.26,162.242z"/>
	</g>
	<g>
		<path style="fill:#5C69A5;" d="M632.216,186.459c-0.017,0-0.034-0.001-0.052-0.004c-0.192-0.029-0.324-0.207-0.296-0.399
			l0.544-3.649c0.029-0.191,0.201-0.32,0.399-0.296c0.192,0.029,0.324,0.208,0.296,0.4l-0.544,3.649
			C632.537,186.333,632.388,186.459,632.216,186.459z"/>
	</g>
	<g>
		<path style="fill:#F7B369;" d="M661.87,149.558l-8.72,13.667c0,0,7.62,33.309,25.954,37.142
			c18.333,3.833,14.42-17.242,14.42-17.242L661.87,149.558z"/>
	</g>
	<g>
		<path style="fill:#5C69A5;" d="M684.177,171.743c-0.112,0-0.223-0.054-0.291-0.154c-4.311-6.364-16.497-18.076-16.619-18.193
			c-0.141-0.135-0.145-0.357-0.011-0.497c0.136-0.141,0.356-0.144,0.497-0.011c0.123,0.118,12.362,11.881,16.715,18.307
			c0.108,0.161,0.066,0.379-0.094,0.488C684.314,171.724,684.245,171.743,684.177,171.743z"/>
	</g>
	<g>
		<path style="fill:#5C69A5;" d="M684.071,167.896c-2.017,0-6.1-3.664-6.942-4.441c-0.118-0.109-0.147-0.286-0.07-0.427
			c0.078-0.141,0.242-0.212,0.398-0.171c0.678,0.178,6.644,1.784,7.602,3.426c0.148,0.254,0.19,0.508,0.124,0.756
			c-0.14,0.529-0.482,0.732-0.745,0.809C684.325,167.881,684.203,167.896,684.071,167.896z M678.776,163.966
			c1.973,1.661,4.533,3.48,5.465,3.207c0.097-0.028,0.203-0.087,0.263-0.314c0.006-0.023,0.024-0.092-0.052-0.223
			C683.913,165.714,680.904,164.62,678.776,163.966z"/>
	</g>
</g>
<g>
	<g>
		<path style="fill:#68B6D8;" d="M217.928,342.024c0,0,18.352,9.422,23.707,14.767c5.355,5.345,5.537,8.888,4.856,10.609
			c-0.681,1.721-39.103-1.067-39.103-1.067s-0.125-10.578-4.242-10.009c-4.117,0.569-2.14,10.097-2.14,10.097l-11.628-0.431
			c0,0-0.246-10.52,0.712-14.621c1.034-4.424,3.769-11.279,3.769-11.279L217.928,342.024z"/>
	</g>
	<g>
		<path style="fill:#ED785D;" d="M214.042,338.842c0,0,15.755,9.471,12.808,10.328c-2.947,0.857-19.444,0.56-24.23-1.333
			c-4.786-1.893-8.761-7.747-8.761-7.747l11.187-4.163L214.042,338.842z"/>
	</g>
	<g>
		<path style="fill:#ED785D;" d="M214.042,338.842c0,0,11.414-66.482,4.019-75.898c-7.395-9.417-24.313,14.349-24.313,14.349
			l0.111,62.796C193.858,340.09,208.898,345.237,214.042,338.842z"/>
	</g>
	<g>
		<path style="fill:#F48462;" d="M195.623,270.888c0,0-2.266,63.126-5.305,69.802c-3.038,6.677-19.643,0-19.643,0l-3.923-68.401
			L195.623,270.888z"/>
	</g>
	<g>
		<path style="fill:#F7B369;" d="M212.761,205.575c0,0,6.088,18.974,8.353,34.845c2.264,15.871,2.814,41.417,0.858,42.237
			c-1.956,0.82-24.476,0.509-24.476,0.509s-7.667,1.656-20.735,0.534c-5.395-0.463-8.955-1.05-11.022-1.47
			c-1.325-0.269-2.254-1.448-2.212-2.799c0.329-10.768,2.689-61.332,9.408-70.397C178.9,200.985,212.761,205.575,212.761,205.575z"
			/>
	</g>
	<g>
		<path style="fill:#81CEEA;" d="M190.919,338.61c0,0,5.915,20.406,4.703,24.666c-1.212,4.26-13.655,9.192-17.803,8.968
			c-4.148-0.224-11.506-7.37-12.515-9.948c-1.009-2.578,4.108-27.186,9.937-25.621S190.919,338.61,190.919,338.61z"/>
	</g>
	<g>
		<path style="fill:#F48462;" d="M190.919,338.61c0,0-2.889,13.456-9.732,13.456c-6.843,0-10.512-11.375-10.512-11.375l2.773-12.727
			L190.919,338.61z"/>
	</g>
	<g>
		<g>
			<path style="fill:#92B4EA;" d="M231.484,188.214c0,0-13.305-30.393-28.142-34.661c-14.837-4.268,1.133,38.118,1.133,38.118
				L231.484,188.214z"/>
		</g>
		<g>
			<path style="fill:#92B4EA;" d="M176.367,151.855c0,0-28.907,6.031-32.7,29.62c-5.221,32.476,34.604,35.036,34.604,35.036
				L176.367,151.855z"/>
		</g>
		<g>
			<path d="M184.789,146.935c0,0-13.389,1.78-9.053-15.543c4.336-17.323,16.735-7.491,16.735-7.491L184.789,146.935z"/>
		</g>
		<g>
			<g>
				<path style="fill:#92B4EA;" d="M215.454,213.897c0,0,0.199-54.699-10.696-59.857c-13.659-6.467-33.431-3.488-37.038,3.093
					c-4.12,7.518,1.762,52.88,1.762,52.88S189.936,221.531,215.454,213.897z"/>
			</g>
		</g>
		<g>
			<g>
				<g>
					<g>
						<g>
							<path style="fill:#F48462;" d="M182.218,142.32l-0.769,9.311c0,0,0.767,3.079,6.178,3.972
								c4.031,0.665,6.223-0.399,6.223-0.399l-0.176-4.763l-0.178-4.645l-9.658-2.976L182.218,142.32z"/>
						</g>
					</g>
				</g>
			</g>
		</g>
		<g>
			<g>
				<g>
					<g>
						<g>
							<path d="M183.838,142.821c0.003,0.256,0.074,0.564,0.196,0.921c1.7,4.823,7.313,6.296,9.639,6.7l-0.178-4.645
								L183.838,142.821z"/>
						</g>
					</g>
				</g>
			</g>
		</g>
		<g>
			<g>
				<g>
					<g>
						<g>
							<path style="fill:#F48462;" d="M197.324,124.744c0,0,3.923,12.078,1.461,18.406c-2.462,6.327-8.289,4.721-11.713,3.115
								c-3.423-1.606-4.856-3.943-4.856-3.943s-3.423,0.798-5.337-2.5c-1.914-3.299-0.202-6.703,1.77-7.328
								c1.971-0.625,4.087,0.962,4.087,0.962l-1.433-3.539C181.303,129.917,190.4,113.541,197.324,124.744z"/>
						</g>
					</g>
				</g>
			</g>
		</g>
		<g>
			<path d="M222.725,171.204c0,0,9.456-19.651,8.062-19.912c-1.394-0.26-9.99,18.45-9.99,18.45L222.725,171.204z"/>
		</g>
		<g>
			<path style="fill:#FFFFFF;" d="M213.299,186.663c-0.234-0.025-0.372-0.2-0.35-0.393c0.523-4.415-3.079-18.359-3.115-18.499
				c-0.049-0.188,0.064-0.38,0.252-0.429c0.188-0.047,0.38,0.064,0.429,0.252c0.15,0.578,3.671,14.212,3.133,18.759
				C213.627,186.532,213.475,186.663,213.299,186.663z"/>
		</g>
		<g>
			<path style="fill:#F48462;" d="M232.404,180.972c0,0-6.055-12.734-9.521-14.517c-3.466-1.783-12.448-1.057-12.577-0.007
				c-0.128,1.05,7.841,3.301,7.841,3.301s-5.521,7.432-5.809,9.216c-0.288,1.784,3.204,7.5,4.047,8.13
				c0.842,0.63,3.461-2.01,3.461-2.01s2.145,3.335,5.568,4.694c3.423,1.358,8.122-3.517,8.122-3.517L232.404,180.972z"/>
		</g>
		<g>
			<path d="M197.187,135.755c-0.182,0-0.336-0.141-0.35-0.325l-0.172-2.282c-0.012-0.161,0.087-0.309,0.24-0.36l1.121-0.372
				c0.188-0.061,0.384,0.039,0.444,0.223c0.061,0.184-0.039,0.383-0.223,0.444l-0.86,0.285l0.152,2.009
				c0.015,0.193-0.13,0.362-0.324,0.377C197.205,135.755,197.195,135.755,197.187,135.755z"/>
		</g>
		<g>
			<path style="fill:#FF9C85;" d="M221.737,190.275c0,0-3.36-3.615-3.377-6.521c-0.017-2.907,6.346-2.504,6.346-2.504l0.776,5.657
				L221.737,190.275z"/>
		</g>
		<g>
			<path d="M230.547,213.016h-42.094c-1.491,0-2.7-1.209-2.7-2.7v-28.485c0-1.491,1.209-2.7,2.7-2.7h42.094
				c1.491,0,2.7,1.209,2.7,2.7v28.485C233.248,211.807,232.039,213.016,230.547,213.016z"/>
		</g>
		<g>
			<path style="fill:#40507F;" d="M227.419,213.016h-41.916c-1.488,0-2.695-1.207-2.695-2.695v-28.495
				c0-1.488,1.207-2.695,2.695-2.695h41.916c1.488,0,2.695,1.207,2.695,2.695v28.495
				C230.114,211.809,228.908,213.016,227.419,213.016z"/>
		</g>
		<g>
			<circle style="fill:#FFFFFF;" cx="208.306" cy="196.073" r="3.987"/>
		</g>
		<g>
			<path d="M190.531,135.334c-0.19,0-0.346-0.151-0.352-0.342l-0.057-2.044c-0.004-0.141,0.077-0.27,0.204-0.329l1.101-0.506
				c0.176-0.081,0.385-0.003,0.466,0.172c0.081,0.177,0.004,0.385-0.172,0.466l-0.89,0.409l0.05,1.812
				c0.005,0.194-0.148,0.356-0.342,0.361C190.538,135.334,190.534,135.334,190.531,135.334z"/>
		</g>
		<g>
			<path style="fill:#F48462;" d="M173.347,194.56c0,0,8.356-2.721,9.461-3.074c0,0,0.119,3.009-0.248,3.539
				c-0.367,0.53,16.089,3.067,16.046,4.657c-0.043,1.59-1.571,1.943-1.571,1.943s3.294,0.706,2.411,2.296s-2.411,1.654-2.411,1.654
				s3.241,1.574,0,3.58c-3.241,2.007-19.14,3.243-24.237-1.843C169.052,203.574,173.347,194.56,173.347,194.56z"/>
		</g>
		<g>
			<path d="M182.736,133.456c0,0,5.536-0.462,8.186-3.753c2.424-3.011,3.518-6.627,3.518-6.627s1.123,1.013,2.44,3.262
				c1.032,1.764,1.843,3.896,1.843,3.896s2.506-7.561-4.272-10.67c-6.777-3.109-13.019,1.12-15.092,5.342
				C177.287,129.127,182.736,133.456,182.736,133.456z"/>
		</g>
		<g>
			<path style="fill:#92B4EA;" d="M178.296,189.682l-0.422,21.137c0,0-7.918,1.284-18.838-6.01
				c-15.176-10.138-9.923-13.322-9.923-13.322l14.699-8.551L178.296,189.682z"/>
		</g>
		<g>
			<path d="M197.036,201.976c-0.041-0.002-9.45-1.09-9.45-1.09c-0.193-0.022-0.331-0.197-0.309-0.39
				c0.022-0.192,0.198-0.328,0.39-0.309l9.409,1.087c0.193,0.023,0.331,0.197,0.309,0.39
				C197.365,201.844,197.212,201.976,197.036,201.976z"/>
		</g>
		<g>
			<path d="M197.036,205.926h-9.409c-0.194,0-0.352-0.157-0.352-0.352c0-0.194,0.157-0.352,0.352-0.352h9.409
				c0.194,0,0.352,0.157,0.352,0.352C197.387,205.769,197.23,205.926,197.036,205.926z"/>
		</g>
		<g>
			<path style="fill:#FFFFFF;" d="M181.246,189.365c-0.053,0-0.106-0.012-0.157-0.038c-0.13-0.065-13.123-6.562-19.571-7.022
				c-0.194-0.014-0.339-0.182-0.326-0.375c0.014-0.193,0.18-0.336,0.376-0.326c6.588,0.47,19.299,6.825,19.837,7.095
				c0.173,0.087,0.244,0.298,0.156,0.472C181.499,189.294,181.375,189.365,181.246,189.365z"/>
		</g>
		<g>
			<path style="fill:#FFFFFF;" d="M172.9,185.606c-0.078,0-0.155-0.025-0.219-0.077c-1.754-1.395-7.44-6.069-6.929-7.623
				c0.08-0.243,0.311-0.538,0.958-0.562c3.376-0.167,6.391,7.458,6.518,7.782c0.058,0.148,0.009,0.316-0.119,0.411
				C173.047,185.583,172.973,185.606,172.9,185.606z M166.795,178.046c-0.02,0-0.039,0.001-0.059,0.001
				c-0.242,0.009-0.312,0.065-0.316,0.079c-0.212,0.646,2.556,3.422,5.588,5.949C170.882,181.664,168.769,178.046,166.795,178.046z"
				/>
		</g>
		<g>
			<path d="M181.257,125.423c0,0,1.597-10.081-7.006-11.1c-8.603-1.019-7.523,16.02,3.55,15.803
				C188.873,129.91,181.257,125.423,181.257,125.423z"/>
		</g>
		<g>
			<path style="fill:#FFFFFF;" d="M176.134,130.303c-0.025,0-0.05-0.002-0.075-0.008c-0.19-0.041-0.31-0.229-0.268-0.418
				c1.084-4.974,3.614-6.746,3.721-6.818c0.16-0.108,0.378-0.068,0.487,0.092c0.109,0.16,0.068,0.378-0.091,0.488
				c-0.024,0.017-2.412,1.71-3.431,6.387C176.441,130.191,176.296,130.303,176.134,130.303z"/>
		</g>
		<g>
			<path d="M189.569,130.567c-0.171,0-0.321-0.125-0.347-0.3c-0.028-0.192,0.104-0.371,0.296-0.399l3.06-0.453
				c0.189-0.025,0.371,0.104,0.399,0.296c0.028,0.192-0.104,0.371-0.296,0.399l-3.06,0.453
				C189.604,130.565,189.586,130.567,189.569,130.567z"/>
		</g>
		<g>
			<path d="M198.723,130.585c-0.023,0-0.046-0.003-0.07-0.007l-2.048-0.412c-0.19-0.039-0.314-0.224-0.275-0.414
				c0.039-0.19,0.223-0.308,0.414-0.275l2.048,0.412c0.19,0.039,0.314,0.224,0.275,0.414
				C199.034,130.469,198.887,130.585,198.723,130.585z"/>
		</g>
		<g>
			<path d="M194.488,139.329c-0.095,0-0.189-0.038-0.258-0.113c-0.132-0.143-0.123-0.365,0.02-0.497
				c1.34-1.238-0.007-4.362-0.021-4.394c-0.078-0.178,0.003-0.385,0.181-0.463c0.177-0.078,0.384,0.003,0.463,0.18
				c0.064,0.147,1.562,3.616-0.146,5.193C194.659,139.298,194.574,139.329,194.488,139.329z"/>
		</g>
		<g>
			<path d="M191.699,141.939c-0.034,0-0.067-0.005-0.101-0.015c-0.073-0.022-1.792-0.561-2.14-2.525
				c-0.034-0.191,0.094-0.374,0.285-0.408c0.191-0.031,0.374,0.093,0.408,0.285c0.271,1.53,1.595,1.958,1.651,1.976
				c0.185,0.057,0.29,0.253,0.233,0.438C191.987,141.841,191.849,141.939,191.699,141.939z"/>
		</g>
		<g>
			<path d="M181.863,138.275c-0.088,0-0.176-0.033-0.244-0.099l-3.55-3.431c-0.14-0.135-0.143-0.357-0.009-0.497
				c0.136-0.139,0.358-0.143,0.497-0.009l3.55,3.431c0.14,0.135,0.144,0.357,0.009,0.497
				C182.047,138.239,181.955,138.275,181.863,138.275z"/>
		</g>
		<g>
			<path d="M178.272,137.395c-0.173,0-0.323-0.127-0.348-0.304c-0.026-0.192,0.108-0.37,0.3-0.396l2.346-0.324
				c0.185-0.034,0.369,0.107,0.396,0.3c0.026,0.192-0.108,0.37-0.3,0.396l-2.346,0.324
				C178.304,137.394,178.288,137.395,178.272,137.395z"/>
		</g>
		<g>
			<path style="fill:#FFFFFF;" d="M189.242,156.135c-2.755,0-5.878-0.724-8.255-3.307c-0.131-0.143-0.122-0.365,0.021-0.497
				c0.142-0.132,0.364-0.123,0.497,0.021c5.047,5.487,13.814,1.989,13.902,1.953c0.18-0.076,0.385,0.013,0.459,0.192
				c0.074,0.18-0.012,0.385-0.192,0.458C195.622,154.977,192.726,156.135,189.242,156.135z"/>
		</g>
		<g>
			<path d="M222.725,171.555c-0.086,0-0.172-0.031-0.24-0.094c-0.862-0.804-3.453-1.256-4.378-1.363
				c-0.193-0.022-0.331-0.196-0.309-0.389c0.022-0.193,0.204-0.325,0.389-0.309c0.145,0.017,3.569,0.421,4.777,1.547
				c0.142,0.132,0.15,0.355,0.018,0.497C222.913,171.518,222.819,171.555,222.725,171.555z"/>
		</g>
	</g>
	<g>
		<path style="fill:#40507F;" d="M172.935,283.672c-0.152,0-0.293-0.1-0.337-0.253l-2.888-9.864l-2.027,9.054
			c-0.042,0.19-0.23,0.31-0.419,0.266c-0.189-0.042-0.309-0.23-0.266-0.42l2.325-10.383c0.035-0.156,0.171-0.269,0.331-0.274
			c0.169,0,0.304,0.099,0.349,0.253l3.271,11.172c0.055,0.186-0.052,0.382-0.239,0.435
			C173.001,283.667,172.967,283.672,172.935,283.672z"/>
	</g>
</g>
<g>
	<g>
		<path style="fill:#B8B0BF;" d="M186.708,370.534c1.413,0,2.558-1.145,2.558-2.558V245.102h-5.117v122.874
			C184.15,369.389,185.295,370.534,186.708,370.534z"/>
	</g>
	<g>
		
			<rect x="94.249" y="284.615" transform="matrix(-1 -1.224647e-16 1.224647e-16 -1 198.4386 637.0277)" style="fill:#C7BFCE;" width="9.94" height="67.797"/>
	</g>
	<g>
		<path style="fill:#C7BFCE;" d="M78.275,356.474h41.709c1.725,0,3.124-1.399,3.124-3.124s-1.399-3.124-3.124-3.124H78.275
			c-1.726,0-3.124,1.399-3.124,3.124S76.549,356.474,78.275,356.474z"/>
	</g>
	<g>
		<path style="fill:#C7BFCE;" d="M114.401,361.262c0,3.711,3.008,6.719,6.719,6.719c3.711,0,6.719-3.008,6.719-6.719
			c0-3.711-3.008-6.719-6.719-6.719C117.409,354.543,114.401,357.552,114.401,361.262z"/>
	</g>
	<g>
		<path style="fill:#C7BFCE;" d="M92.5,361.262c0,3.711,3.008,6.719,6.719,6.719c3.711,0,6.719-3.008,6.719-6.719
			c0-3.711-3.008-6.719-6.719-6.719C95.508,354.543,92.5,357.552,92.5,361.262z"/>
	</g>
	<g>
		<circle style="fill:#C7BFCE;" cx="77.409" cy="361.262" r="6.719"/>
	</g>
	<g>
		<path style="fill:#E0DFE5;" d="M70.053,221.4c0,0-21.053,12.591-16.371,40.214c5.387,31.78,37.071,42.083,64.555,34.575
			c27.484-7.508,22.903-29.162,22.903-29.162L70.053,221.4z"/>
	</g>
	<g>
		<path style="fill:#FFFFFF;" d="M65.876,279.129c-0.086,0-0.171-0.031-0.239-0.094c-7.006-6.48-8.307-18.723-8.359-19.24
			c-0.02-0.193,0.122-0.365,0.314-0.385c0.195-0.021,0.365,0.121,0.385,0.314c0.013,0.124,1.329,12.497,8.137,18.795
			c0.143,0.132,0.151,0.353,0.019,0.496C66.065,279.091,65.97,279.129,65.876,279.129z"/>
	</g>
	<g>
		<path style="fill:#5C69A5;" d="M108.017,183.709c0,0,14.338,1.27,19.723,8.193c5.384,6.923-1.731,50.326-2.115,50.931
			c-0.385,0.605-10.371,5.028-27.781,4.643s-21.64-3.709-22.217-4.643c-0.577-0.934-4.231-49.934,0-54.086
			C79.857,184.594,97.524,182.439,108.017,183.709z"/>
	</g>
	<g>
		<polygon style="fill:#F48462;" points="127.276,328.882 127.276,347.352 113.211,352.673 104.349,342.735 102.891,325.65 		"/>
	</g>
	<g>
		<polygon style="fill:#F48462;" points="153.601,325.053 153.601,343.523 138.614,348.844 129.171,338.905 127.618,321.821 		"/>
	</g>
	<g>
		<path style="fill:#68B6D8;" d="M122.931,239.469c0,0,35.827,18.024,40.225,25.347c4.398,7.323-0.446,66.99-0.446,66.99
			l-31.767,0.424l-4.399-33.345l-24.145-56.169L122.931,239.469z"/>
	</g>
	<g>
		<path style="fill:#68B6D8;" d="M79.398,243.265c0,0-1.447,16.011-0.931,21.265c0.517,5.254,17.095,17.634,17.095,17.634
			l0.82,51.254l36.73,1.642c0,0,0.799-58.57,0.186-64.087c-0.613-5.517-25.051-25.577-25.051-25.577L79.398,243.265z"/>
	</g>
	<g>
		<g>
			<g>
				<g>
					<path style="fill:#F48462;" d="M99.475,176.221l0.207,9.327c0,0,1.742,2.644,7.208,2.966c4.072,0.24,5.48-0.71,5.48-0.71
						l-0.672-4.711l-0.661-4.594l-9.901-1.948L99.475,176.221z"/>
				</g>
			</g>
		</g>
	</g>
	<g>
		<g>
			<g>
				<g>
					<path d="M101.136,176.55c0.029,0.254,0.133,0.553,0.291,0.894c2.191,4.613,7.919,5.491,10.271,5.649l-0.661-4.594
						L101.136,176.55z"/>
				</g>
			</g>
		</g>
	</g>
	<g>
		<g>
			<g>
				<g>
					<path style="fill:#F48462;" d="M112.645,157.191c0,0,5.155,11.586,3.369,18.126c-1.785,6.54-7.74,5.553-11.307,4.315
						s-5.234-3.409-5.234-3.409s-3.316,1.149-5.561-1.927c-2.244-3.076-0.899-6.635,0.994-7.461
						c1.893-0.826,4.159,0.529,4.159,0.529l-1.792-3.365C97.274,163.999,104.602,146.787,112.645,157.191z"/>
				</g>
			</g>
		</g>
	</g>
	<g>
		<path d="M112.208,171.941c-0.034,0-0.069-0.005-0.104-0.016c-0.185-0.058-0.289-0.254-0.232-0.44
			c0.663-2.143-0.941-4.467-0.957-4.49c-0.111-0.159-0.073-0.378,0.085-0.49c0.158-0.112,0.377-0.073,0.49,0.085
			c0.074,0.106,1.82,2.626,1.054,5.102C112.497,171.844,112.358,171.941,112.208,171.941z"/>
	</g>
	<g>
		<path d="M98.572,172.795c-0.093,0-0.187-0.037-0.255-0.11l-3.157-3.345c-0.133-0.141-0.127-0.364,0.014-0.497
			c0.141-0.133,0.364-0.127,0.497,0.015l3.157,3.345c0.133,0.141,0.127,0.364-0.015,0.497
			C98.745,172.763,98.658,172.795,98.572,172.795z"/>
	</g>
	<g>
		<path d="M95.23,171.899c-0.171,0-0.321-0.125-0.347-0.299c-0.029-0.192,0.103-0.371,0.295-0.4l2.183-0.331
			c0.19-0.027,0.371,0.103,0.4,0.295c0.029,0.192-0.103,0.371-0.295,0.4l-2.183,0.331C95.265,171.898,95.248,171.899,95.23,171.899z
			"/>
	</g>
	<g>
		<path d="M106.942,167.606c-0.174,0-0.326-0.13-0.348-0.307l-0.276-2.165c-0.024-0.192,0.112-0.369,0.304-0.393
			c0.193-0.025,0.369,0.112,0.393,0.304l0.276,2.165c0.024,0.192-0.112,0.369-0.304,0.393
			C106.972,167.605,106.957,167.606,106.942,167.606z"/>
	</g>
	<g>
		<path d="M113.37,167.09c-0.171,0-0.322-0.126-0.347-0.3l-0.318-2.16c-0.028-0.192,0.104-0.371,0.296-0.399
			c0.191-0.028,0.371,0.104,0.399,0.296l0.318,2.16c0.028,0.192-0.105,0.371-0.296,0.399
			C113.404,167.089,113.387,167.09,113.37,167.09z"/>
	</g>
	<g>
		<path d="M105.46,163.644c-0.057,0-0.115-0.014-0.169-0.043c-0.17-0.094-0.232-0.308-0.139-0.478
			c0.823-1.496,2.737-1.046,2.82-1.025c0.188,0.046,0.303,0.236,0.257,0.424c-0.046,0.188-0.235,0.302-0.424,0.259
			c-0.06-0.015-1.475-0.34-2.037,0.681C105.705,163.578,105.584,163.644,105.46,163.644z"/>
	</g>
	<g>
		<path d="M113.838,162.765c-0.105,0-0.21-0.047-0.279-0.137c-0.004-0.006-0.436-0.555-0.974-0.608
			c-0.249-0.02-0.492,0.065-0.733,0.276c-0.146,0.128-0.368,0.112-0.496-0.034c-0.128-0.146-0.112-0.368,0.034-0.496
			c0.391-0.341,0.815-0.489,1.27-0.445c0.843,0.085,1.433,0.847,1.457,0.879c0.118,0.154,0.088,0.374-0.065,0.492
			C113.987,162.741,113.912,162.765,113.838,162.765z"/>
	</g>
	<g>
		<path d="M100.183,168.146c0,0,3.15-2.131,2.961-5.363c-0.189-3.232-0.899-4.057-0.899-4.057s3.678-0.191,6.718-1.181
			c1.98-0.645,2.831-1.355,2.831-1.355l0.852,1.001c0.929-0.042,3.05-5.67,1.652-6.67c-1.397-1-8.88,1.608-8.88,1.608
			s-7.881-1.854-12.484,3.75c-4.603,5.604,0.555,12.205,0.555,12.205S94.85,165.195,100.183,168.146z"/>
	</g>
	<g>
		<path d="M109.251,175.811c-0.218,0-0.448-0.029-0.687-0.099c-0.442-0.13-0.76-0.376-0.946-0.733
			c-0.331-0.634-0.089-1.374-0.079-1.405c0.03-0.091,0.096-0.165,0.182-0.206s0.186-0.046,0.274-0.012l3.014,1.127
			c0.114,0.042,0.198,0.141,0.222,0.26c0.024,0.119-0.016,0.242-0.104,0.326C111.088,175.105,110.319,175.811,109.251,175.811z
			 M108.147,174.163c-0.006,0.155,0.013,0.335,0.096,0.493c0.096,0.182,0.266,0.307,0.519,0.381c0.525,0.155,1.005,0.024,1.35-0.138
			L108.147,174.163z"/>
	</g>
	<g>
		<path style="fill:#F48462;" d="M169.088,208.439l0.33-2.082c0,0,7.987-6.08,12.902-8.087c2.068-0.844,4.965-0.14,2.521,2.597
			c-1.319,1.477-1.977,3.234-1.977,3.234s3.947-1.247,6.655-3.041c1.734-1.149,4.269-5.769,5.755-4.768
			c2.365,1.593-0.353,6.102-0.353,6.102s1.229-5.712,3.563-3.483c2.325,2.221-4.026,13.439-7.051,16.118
			c-3.025,2.679-18.983,5.798-18.983,5.798L169.088,208.439z"/>
	</g>
	<g>
		<path d="M185.904,206.547c-0.179,0-0.331-0.136-0.349-0.317c-0.019-0.193,0.122-0.365,0.315-0.384
			c3.474-0.343,6.786-3.428,6.819-3.459c0.141-0.132,0.364-0.126,0.497,0.015c0.133,0.142,0.127,0.363-0.015,0.497
			c-0.142,0.134-3.517,3.28-7.232,3.646C185.928,206.546,185.916,206.547,185.904,206.547z"/>
	</g>
	<g>
		<path d="M190.042,209.139c-0.063,0-0.126-0.017-0.182-0.051l-6.997-4.246c-0.166-0.101-0.219-0.317-0.118-0.483
			c0.1-0.164,0.318-0.218,0.482-0.118l6.794,4.123l3.146-2.357c0.156-0.119,0.376-0.084,0.492,0.07
			c0.116,0.155,0.085,0.376-0.07,0.492l-3.337,2.5C190.19,209.115,190.116,209.139,190.042,209.139z"/>
	</g>
	<g>
		<path d="M176.584,209.007c-0.149,0-0.288-0.096-0.335-0.246c-0.058-0.184,0.044-0.382,0.23-0.44
			c3.8-1.198,6.277-3.983,6.302-4.011c0.128-0.146,0.35-0.159,0.496-0.033c0.145,0.129,0.16,0.351,0.032,0.496
			c-0.105,0.12-2.624,2.959-6.619,4.218C176.654,209.002,176.619,209.007,176.584,209.007z"/>
	</g>
	<g>
		<path style="fill:#5C69A5;" d="M125.951,190.053c0,0,16.256,14.366,29.378,15.205c6.327,0.405,14.816-2.615,14.816-2.615
			l7.541,19.732c0,0-26.514,25.124-53.527,5.326C116.397,222.012,125.951,190.053,125.951,190.053z"/>
	</g>
	<g>
		<path style="fill:#F7B369;" d="M127.87,214.827c-0.194,0-0.352-0.157-0.352-0.352c0-2.363-4.284-15.355-4.327-15.486
			c-0.061-0.185,0.039-0.383,0.223-0.444c0.186-0.057,0.384,0.04,0.444,0.224c0.178,0.539,4.363,13.231,4.363,15.707
			C128.222,214.67,128.065,214.827,127.87,214.827z"/>
	</g>
	<g>
		<path style="fill:#F2A253;" d="M125.104,364.417c0,0,0.659-29.694,5.273-29.075c4.614,0.619,9.228,4.949,9.228,4.949
			s10.547-5.568,15.161-2.474s7.266,9.898,7.266,9.898l25.693,16.703c0,0,3.107,4.949,2.213,7.424
			c-0.698,1.931-39.775,0.849-56.917,0.28C128.6,371.974,125.104,368.569,125.104,364.417L125.104,364.417z"/>
	</g>
	<g>
		<path style="fill:#F7B369;" d="M138.358,357.193c0,0-6.441-15.766-10.602-18.488c-4.16-2.722-14.566,5.918-14.566,5.918
			s-8.714-9.174-10.858-4.361c-2.144,4.813-3.183,22.049-1.559,25.854c1.624,3.805,13.578,10.139,29.283,10.096
			c7.4-0.021,18.072-2.306,18.079-4.848C148.146,367.366,140.881,359.827,138.358,357.193z"/>
	</g>
	<g>
		<path style="fill:#FFFFFF;" d="M131.894,352.09h-12.051c-0.194,0-0.352-0.157-0.352-0.352c0-0.194,0.157-0.352,0.352-0.352h12.051
			c0.194,0,0.352,0.157,0.352,0.352C132.245,351.933,132.088,352.09,131.894,352.09z"/>
	</g>
	<g>
		<polygon style="fill:#40507F;" points="108.435,189.196 113.709,224.151 109.341,224.151 105.461,188.476 		"/>
	</g>
	<g>
		<path style="fill:#40507F;" d="M173.512,225.842l3.836-1.28c0.499-0.167,0.768-0.706,0.602-1.205l-6.98-20.916
			c-0.166-0.499-0.706-0.768-1.205-0.602l-3.836,1.28c-0.499,0.166-0.768,0.706-0.602,1.205l6.98,20.916
			C172.473,225.74,173.013,226.009,173.512,225.842z"/>
	</g>
	<g>
		<path style="fill:#FFFFFF;" d="M133.886,357.545H121.12c-0.194,0-0.352-0.157-0.352-0.352c0-0.194,0.157-0.352,0.352-0.352h12.766
			c0.194,0,0.352,0.157,0.352,0.352C134.238,357.388,134.08,357.545,133.886,357.545z"/>
	</g>
	<g>
		<path style="fill:#FFFFFF;" d="M155.673,350.243c-0.173,0-0.324-0.128-0.348-0.304c-0.026-0.192,0.108-0.37,0.301-0.397
			l7.681-1.048c0.192-0.025,0.37,0.109,0.395,0.301c0.026,0.192-0.108,0.37-0.301,0.397l-7.681,1.048
			C155.705,350.242,155.689,350.243,155.673,350.243z"/>
	</g>
	<g>
		<path style="fill:#FFFFFF;" d="M157.601,355.554c-0.171,0-0.32-0.125-0.347-0.299c-0.029-0.191,0.103-0.371,0.295-0.4
			l12.925-1.966c0.185-0.031,0.371,0.103,0.4,0.295c0.029,0.191-0.103,0.371-0.295,0.4l-12.925,1.966
			C157.637,355.553,157.619,355.554,157.601,355.554z"/>
	</g>
	<g>
		<path style="fill:#40507F;" d="M134.73,330.737c-0.203-0.005-0.356-0.166-0.352-0.36c0.014-0.546,1.35-54.685,0.008-61.036
			c-0.915-4.326-14.651-17.819-14.79-17.955c-0.086-0.084-0.123-0.207-0.098-0.325c0.025-0.117,0.109-0.214,0.223-0.256l9.903-3.636
			c0.184-0.066,0.384,0.026,0.451,0.209c0.067,0.183-0.027,0.384-0.209,0.451l-9.383,3.444c2.328,2.309,13.712,13.766,14.59,17.923
			c1.359,6.431,0.063,58.965,0.008,61.198C135.077,330.586,134.921,330.737,134.73,330.737z"/>
	</g>
	<g>
		<path style="fill:#F48462;" d="M102.193,236.533c0,0,8.621,3.481,10.323,3.249c1.702-0.232,7.841-0.919,8.091-2.213l-2.31-3.956
			c0,0,3.434,1.439,5.76,0.233c2.326-1.206,5.118-3.628,5.686-5.482c0.568-1.854-2.112-1.48-2.112-1.48s3.032-1.887-0.82-3.502
			c-3.852-1.615-20.495-4.012-27.425,0.334C92.455,228.063,102.193,236.533,102.193,236.533z"/>
	</g>
	<g>
		<path d="M127.631,227.235c-0.038,0-0.076-0.006-0.113-0.019c-3.997-1.359-8.27-0.776-8.313-0.77
			c-0.19,0.032-0.37-0.105-0.397-0.298c-0.027-0.192,0.106-0.37,0.298-0.397c0.181-0.026,4.477-0.614,8.639,0.8
			c0.184,0.063,0.282,0.263,0.22,0.446C127.914,227.144,127.777,227.235,127.631,227.235z"/>
	</g>
	<g>
		<path style="fill:#40507F;" d="M95.832,285.26c-0.067,0-0.134-0.02-0.192-0.057c-0.11-0.072-0.171-0.198-0.158-0.329
			c0.021-0.214,0.536-5.263,3.025-6.932c0.829-0.556,1.777-0.677,2.818-0.363c0.891,0.27,1.378,0.723,1.446,1.346
			c0.25,2.275-6.048,5.886-6.767,6.29C95.95,285.245,95.891,285.26,95.832,285.26z M100.236,278.111
			c-0.481,0-0.923,0.138-1.337,0.415c-1.705,1.143-2.393,4.305-2.621,5.718c2.536-1.506,5.933-3.98,5.794-5.243
			c-0.035-0.316-0.354-0.568-0.95-0.748C100.811,278.158,100.517,278.111,100.236,278.111z"/>
	</g>
	<g>
		<path style="fill:#FFFFFF;" d="M119.073,238.493h44.403l12.682-28.685h-42.652c-1.064,0-2.028,0.628-2.459,1.601L119.073,238.493z
			"/>
	</g>
	<g>
		<path style="fill:#7C576C;" d="M122.931,238.493h44.403l11.318-25.6c0.642-1.452-0.421-3.085-2.009-3.085h-41.03L122.931,238.493z
			"/>
	</g>
	<g>
		<path d="M104.189,242.117h62.692c1.001,0,1.812-0.811,1.812-1.812c0-1.001-0.811-1.812-1.812-1.812h-62.692
			c-1,0-1.812,0.811-1.812,1.812C102.377,241.306,103.188,242.117,104.189,242.117z"/>
	</g>
	<g>
		<path style="fill:#5C69A5;" d="M75.627,188.746c0,0-24.831,27.031-20.793,44.627c4.038,17.595,53.054,6.097,53.054,6.097
			l-0.534-20.564l-25.478-3.99L75.627,188.746z"/>
	</g>
	<g>
		<path style="fill:#F7B369;" d="M73.424,216.13c-1.626,0-2.932-0.208-3.263-0.818c-0.218-0.401-0.079-0.872,0.413-1.398
			c3.042-3.263,10.36,0.57,10.67,0.735c0.132,0.07,0.206,0.218,0.182,0.366c-0.023,0.147-0.139,0.265-0.287,0.291
			C79.674,215.561,76.113,216.13,73.424,216.13z M74.102,213.305c-1.182,0-2.269,0.289-3.014,1.087
			c-0.291,0.313-0.349,0.511-0.309,0.585c0.402,0.738,4.854,0.487,9.135-0.181C78.596,214.214,76.199,213.305,74.102,213.305z"/>
	</g>
	<g>
		<path style="fill:#FFBA57;" d="M79.197,244.91c-0.232,0-0.463-0.001-0.697-0.003c-0.227-0.001-0.409-0.186-0.407-0.413
			c0.002-0.225,0.186-0.407,0.411-0.407c12.308,0.057,22.517-2.462,22.619-2.488c0.22-0.058,0.443,0.076,0.5,0.296
			c0.056,0.22-0.077,0.443-0.296,0.499C101.224,242.42,91.31,244.91,79.197,244.91z"/>
	</g>
	<g>
		<path style="fill:#F7B369;" d="M81.08,215.311c-0.112,0-0.221-0.053-0.29-0.151c-0.11-0.16-0.07-0.379,0.089-0.489
			c2.252-1.558,0.291-6.794,0.271-6.847c-0.069-0.182,0.022-0.385,0.204-0.453c0.183-0.068,0.385,0.021,0.454,0.203
			c0.09,0.236,2.174,5.805-0.528,7.675C81.219,215.29,81.149,215.311,81.08,215.311z"/>
	</g>
	<g>
		<path style="fill:#B8B0BF;" d="M56.364,248.062h139.359c1.801,0,3.261-1.46,3.261-3.261s-1.46-3.261-3.261-3.261H56.364
			c-1.801,0-3.261,1.46-3.261,3.261S54.563,248.062,56.364,248.062z"/>
	</g>
	<g>
		<path style="fill:#40507F;" d="M125.868,326.002c-0.019-0.001-28.893-1.514-28.893-1.514c-0.194-0.01-0.343-0.175-0.333-0.369
			c0.01-0.194,0.177-0.372,0.37-0.332l28.874,1.513c0.194,0.01,0.343,0.175,0.333,0.369
			C126.209,325.856,126.054,326.002,125.868,326.002z"/>
	</g>
	<g>
		<path style="fill:#40507F;" d="M160.64,324.489h-25.768c-0.194,0-0.352-0.157-0.352-0.352s0.157-0.352,0.352-0.352h25.768
			c0.194,0,0.352,0.157,0.352,0.352S160.835,324.489,160.64,324.489z"/>
	</g>
	<g>
		<path style="fill:#40507F;" d="M103.439,240.822h4.044c0.526,0,0.952-0.426,0.952-0.952v-22.05c0-0.526-0.426-0.952-0.952-0.952
			h-4.044c-0.526,0-0.952,0.426-0.952,0.952v22.05C102.487,240.396,102.913,240.822,103.439,240.822z"/>
	</g>
	<g>
		<path style="fill:#FFFFFF;" d="M147.115,224.151c0,2.083,1.688,3.771,3.771,3.771c2.083,0,3.771-1.688,3.771-3.771
			c0-2.083-1.688-3.771-3.771-3.771C148.803,220.38,147.115,222.068,147.115,224.151z"/>
	</g>
	<g>
		<path style="fill:#40507F;" d="M111.868,184.283c0,0,2.968,9.961,1.969,9.766c-0.999-0.195-6.947-5.535-6.947-5.535
			s-4.334,5.501-5.754,5.538c-1.42,0.037-1.917-10.678-1.917-10.678s1.467,3.352,6.723,4.105
			C111.199,188.231,111.868,184.283,111.868,184.283z"/>
	</g>
	<g>
		<path style="fill:#B8B0BF;" d="M65.38,370.25c1.413,0,2.558-1.145,2.558-2.558V244.818h-5.116v122.874
			C62.821,369.104,63.967,370.25,65.38,370.25z"/>
	</g>
</g>
<g>
	<g>
		<path style="fill:#A37B90;" d="M205.574,100.467H134.7c-4.699,0-8.522-3.823-8.522-8.522V60.668c0-4.699,3.823-8.522,8.522-8.522
			h70.874c4.699,0,8.522,3.823,8.522,8.522v31.276C214.096,96.644,210.274,100.467,205.574,100.467z M134.7,53.146
			c-4.147,0-7.522,3.375-7.522,7.522v31.276c0,4.147,3.375,7.522,7.522,7.522h70.874c4.147,0,7.522-3.374,7.522-7.522V60.668
			c0-4.148-3.374-7.522-7.522-7.522H134.7z"/>
	</g>
	<g>
		<path style="fill:#A37B90;" d="M213.596,63.498h-86.918c-0.276,0-0.5-0.224-0.5-0.5c0-0.276,0.224-0.5,0.5-0.5h86.918
			c0.276,0,0.5,0.224,0.5,0.5C214.096,63.274,213.873,63.498,213.596,63.498z"/>
	</g>
	<g>
		<path style="fill:#A37B90;" d="M133.196,60.831c-0.133,0-0.267-0.053-0.365-0.159c-0.188-0.202-0.178-0.518,0.024-0.707l4.279-4
			c0.201-0.188,0.518-0.179,0.706,0.024c0.189,0.202,0.178,0.518-0.024,0.707l-4.279,4
			C133.441,60.787,133.319,60.831,133.196,60.831z"/>
	</g>
	<g>
		<path style="fill:#A37B90;" d="M137.475,60.831c-0.122,0-0.245-0.045-0.341-0.135l-4.279-4c-0.202-0.188-0.212-0.505-0.024-0.707
			c0.189-0.204,0.505-0.213,0.706-0.024l4.279,4c0.202,0.188,0.212,0.505,0.024,0.707C137.742,60.778,137.609,60.831,137.475,60.831
			z"/>
	</g>
</g>
<g>
	<g>
		<path style="fill:#F48462;" d="M360.689,156.071c0,0,2.296-10.254,5.115-10.462c2.819-0.208,0.609,8.251,0.609,8.251l7.634-2.919
			c0,0,8.687-2.422,10.415-1.666c1.728,0.756-1.117,3.573-1.117,3.573s6.186-1.857,5.318,1.159s-5.1,4.75-5.1,4.75
			s6.047-2.143,4.681,1.391c-0.738,1.911-14.035,9.962-22.996,9.675c-8.961-0.287-5.384-7.198-5.384-7.198L360.689,156.071z"/>
	</g>
	<g>
		<path d="M380.23,160.703c-0.083,0-0.167-0.029-0.235-0.087l-7.693-6.573c-0.152-0.13-0.17-0.359-0.041-0.511
			c0.13-0.153,0.359-0.169,0.511-0.04l7.693,6.573c0.152,0.13,0.171,0.359,0.041,0.511
			C380.434,160.659,380.332,160.703,380.23,160.703z"/>
	</g>
	<g>
		<path d="M364.059,164.449c-0.187,0-0.345-0.144-0.36-0.333c-0.017-0.199,0.132-0.374,0.332-0.391
			c0.023-0.002,2.333-0.214,3.348-2.011c0.874-1.547,0.585-3.813-0.86-6.733c-0.088-0.179-0.015-0.397,0.164-0.486
			c0.18-0.09,0.396-0.015,0.486,0.165c1.56,3.153,1.841,5.648,0.838,7.418c-1.209,2.131-3.808,2.361-3.918,2.37
			C364.078,164.449,364.069,164.449,364.059,164.449z"/>
	</g>
	<g>
		<path d="M301.802,113.812c0,0-10.25-7.946-19-2.535c-8.749,5.41-5.375,16.741-5.375,16.741s-10.864,2.969-12.431,16.771
			c-1.567,13.801,11.555,16.415,11.555,16.415l18.859-11.171L301.802,113.812z"/>
	</g>
	<g>
		<path style="fill:#F27A5F;" d="M271.559,328.628c0,0,42.1-9.875,47.008-41.699c6.037-39.148-4.66-58.329-4.66-58.329
			l-27.505,32.826l-8.255,39.668l-10.877,7.869l-6.053,12.827L271.559,328.628z"/>
	</g>
	<g>
		<g>
			<path style="fill:#40507F;" d="M248.962,305.604c0.098-1.551,1.473-2.753,3.134-2.733c6.559,0.079,21.272-0.547,21.258,0.649
				c-0.019,1.526-4.389,16.801-4.389,16.801s9.083,0.548,7.374,6.853c-1.312,4.837-7.161,10.389-9.812,12.711
				c-0.842,0.737-1.433,1.678-1.708,2.726c-1.185,4.507-5.048,16.897-11.722,16.993c-8.159,0.117-7.186-3.142-7.167-4.669
				C245.945,353.625,248.296,316.182,248.962,305.604z"/>
		</g>
	</g>
	<g>
		<path style="fill:#F48462;" d="M300.542,261.425c0,0-2.411,76.259-5.644,84.324c-3.233,8.066-20.902,0-20.902,0l-4.174-82.632
			L300.542,261.425z"/>
	</g>
	<g>
		<path style="fill:#5C69A5;" d="M318.567,205.975c0,0,2.99,16.894,2.99,29.489c0,12.596,1.475,26.421,0,27.649
			c-1.475,1.229-16.121,5.354-33.827,4.433c-17.705-0.922-23.017-5.056-22.722-6.522c0.295-1.466,2.361-2.702,2.361-2.702
			s-1.18-36.413,3.541-46.16c4.721-9.747,24.849-11.874,24.849-11.874h21.646L318.567,205.975z"/>
	</g>
	<g>
		<path style="fill:#A37B90;" d="M288.191,204.364c0,0,21.031,1.288,29.47-2.822l-0.499-25.274c0,0-4.584-32.368-11.16-33.058
			c-6.576-0.69-12.381,0.182-12.381,0.182l-23.188,30.229L288.191,204.364z"/>
	</g>
	<g>
		<g>
			<path style="fill:#40507F;" d="M275.76,367.189c-1.554-0.015-2.827-1.325-2.896-2.984c-0.27-6.554-1.679-21.213-0.483-21.262
				c1.525-0.062,17.011,3.489,17.011,3.489s0.064-9.099,6.45-7.728c4.9,1.052,10.756,6.598,13.215,9.121
				c0.781,0.801,1.752,1.341,2.813,1.561c4.563,0.943,17.142,4.141,17.593,10.801c0.552,8.141-2.755,7.344-4.281,7.406
				C323.873,367.646,286.359,367.291,275.76,367.189z"/>
		</g>
	</g>
	<g>
		<g>
			<path style="fill:#F48462;" d="M291.494,200.346c0,0,15.945,2.636,19.096,5.538c3.15,2.901-4.492,14.034-6.455,15.839
				c-1.964,1.805-15.958-7.357-15.958-7.357l-2.024-7.999L291.494,200.346z"/>
		</g>
	</g>
	<g>
		<g>
			<path style="fill:#F48462;" d="M310.59,205.884c0,0,6.663,9.525,5.562,13.456c-1.101,3.931-9.129-8.221-9.129-8.221
				L310.59,205.884z"/>
		</g>
	</g>
	<g>
		<g>
			<path style="fill:#F48462;" d="M298.851,219.081c0,0-8.256-1.166-6.627,1.827c1.629,2.993,10.451,2.473,11.911,0.816
				c1.459-1.657-3.146-6.179-3.146-6.179L298.851,219.081z"/>
		</g>
	</g>
	<g>
		<path d="M297.783,220.014c-0.043,0-0.086-0.007-0.129-0.023l-2.372-0.903c-0.124-0.047-0.212-0.158-0.23-0.289
			c-0.018-0.132,0.037-0.263,0.143-0.341l1.89-1.398c0.161-0.121,0.389-0.085,0.507,0.075c0.119,0.161,0.085,0.388-0.076,0.507
			l-1.357,1.005l1.752,0.667c0.187,0.071,0.281,0.281,0.21,0.468C298.067,219.925,297.929,220.014,297.783,220.014z"/>
	</g>
	<g>
		<path d="M309.632,214.213c-0.146,0-0.283-0.088-0.338-0.232c-0.548-1.42-1.608-3.833-2.12-4.268
			c-0.152-0.13-0.171-0.358-0.042-0.511c0.13-0.154,0.359-0.171,0.511-0.042c0.818,0.696,2.174,4.165,2.327,4.559
			c0.072,0.187-0.021,0.396-0.207,0.469C309.719,214.205,309.675,214.213,309.632,214.213z"/>
	</g>
	<g>
		<path d="M307.11,218.236c-0.132,0-0.26-0.072-0.324-0.198l-2.865-5.658c-0.091-0.179-0.019-0.397,0.16-0.487
			c0.178-0.091,0.397-0.019,0.487,0.159l2.865,5.658c0.091,0.179,0.019,0.397-0.16,0.487
			C307.221,218.224,307.165,218.236,307.11,218.236z"/>
	</g>
	<g>
		<path d="M310.096,129.855c0,0,3.025-3.438,2.066-8.686c-0.65-3.558-2.253-4.69-2.253-4.69s2.35-4.902-4.843-4.507
			c-7.193,0.396-11.378,3.988-11.378,3.988s-3.312-1.57-4.734,2.287s0.133,9.494,0.133,9.494L310.096,129.855z"/>
	</g>
	<g>
		<g>
			<g>
				<g>
					<path style="fill:#F48462;" d="M294.38,136.006l0.343,8.782c0,0,1.682,2.463,6.836,2.679c3.839,0.161,4.974-1.851,4.974-1.851
						l-1.227-7.649l-9.357-1.678L294.38,136.006z"/>
				</g>
			</g>
		</g>
	</g>
	<g>
		<g>
			<g>
				<g>
					<path d="M294.372,135.47c0.032,0.239,0.134,0.518,0.288,0.837c2.137,4.31,9.123,5.865,11.341,5.977l-0.695-4.317
						L294.372,135.47z"/>
				</g>
			</g>
		</g>
	</g>
	<g>
		<g>
			<g>
				<g>
					<path style="fill:#F48462;" d="M306.482,117.873c0,0,5.039,10.831,3.461,17.019c-1.578,6.189-7.202,5.353-10.581,4.243
						c-3.379-1.109-4.984-3.128-4.984-3.128s-3.106,1.135-5.268-1.727s-0.952-6.235,0.817-7.044c1.77-0.808,3.926,0.432,3.926,0.432
						l-1.741-3.141C292.113,124.529,298.741,108.202,306.482,117.873z"/>
				</g>
			</g>
		</g>
	</g>
	<g>
		<g>
			<g>
				<g>
					<path d="M293.854,127.67c0,0,4.72,0.884,7.916-4.399c3.196-5.283,2.866-7.43,2.866-7.43l3.333,5.362
						c0,0,0.676-3.759-0.857-6.128c-1.533-2.369-3.083-1.852-3.083-1.852l-10.341,2.738l-2.616,8.356L293.854,127.67z"/>
				</g>
			</g>
		</g>
	</g>
	<g>
		<path d="M306.299,131.804c-0.033,0-0.067-0.005-0.101-0.015c-0.192-0.056-0.303-0.257-0.247-0.449
			c0.588-2.021-0.953-4.165-0.969-4.186c-0.118-0.162-0.082-0.389,0.079-0.507c0.163-0.118,0.389-0.082,0.507,0.079
			c0.072,0.099,1.766,2.457,1.079,4.816C306.601,131.701,306.456,131.804,306.299,131.804z"/>
	</g>
	<g>
		<path d="M293.469,132.825c-0.094,0-0.189-0.037-0.259-0.109l-3.026-3.1c-0.14-0.144-0.137-0.373,0.006-0.513
			c0.143-0.14,0.373-0.138,0.513,0.006l3.026,3.1c0.14,0.143,0.137,0.373-0.006,0.513
			C293.652,132.79,293.56,132.825,293.469,132.825z"/>
	</g>
	<g>
		<path d="M290.307,132.034c-0.174,0-0.327-0.125-0.357-0.302c-0.033-0.198,0.1-0.385,0.297-0.418l2.051-0.346
			c0.198-0.03,0.385,0.1,0.418,0.297c0.033,0.198-0.1,0.385-0.297,0.418l-2.051,0.346
			C290.348,132.032,290.327,132.034,290.307,132.034z"/>
	</g>
	<g>
		<path d="M308.281,122.811c-0.019,0-0.038-0.001-0.058-0.005l-1.949-0.311c-0.198-0.031-0.332-0.217-0.301-0.415
			c0.031-0.198,0.214-0.336,0.415-0.301l1.949,0.311c0.198,0.031,0.332,0.217,0.301,0.415
			C308.611,122.684,308.456,122.811,308.281,122.811z"/>
	</g>
	<g>
		<path d="M300.22,124.2c-0.131,0-0.257-0.071-0.322-0.194c-0.093-0.178-0.025-0.396,0.153-0.49l3.165-1.659
			c0.177-0.093,0.397-0.024,0.49,0.153c0.093,0.178,0.024,0.396-0.153,0.49l-3.165,1.659
			C300.334,124.187,300.277,124.2,300.22,124.2z"/>
	</g>
	<g>
		<path d="M308.344,127.304c-0.153,0-0.295-0.098-0.345-0.252l-0.635-1.967c-0.037-0.115-0.014-0.242,0.061-0.337l0.597-0.751
			c0.124-0.156,0.352-0.184,0.509-0.058c0.157,0.124,0.183,0.352,0.058,0.509l-0.476,0.599l0.575,1.783
			c0.062,0.19-0.043,0.395-0.234,0.457C308.418,127.298,308.381,127.304,308.344,127.304z"/>
	</g>
	<g>
		<path d="M302.822,127.912c-0.153,0-0.295-0.098-0.345-0.252l-0.634-1.967c-0.038-0.118-0.013-0.248,0.066-0.343l0.824-0.99
			c0.128-0.154,0.357-0.175,0.511-0.047c0.154,0.128,0.175,0.357,0.047,0.511l-0.697,0.837l0.573,1.777
			c0.061,0.19-0.044,0.395-0.234,0.456C302.896,127.906,302.859,127.912,302.822,127.912z"/>
	</g>
	<g>
		<path style="fill:#A37B90;" d="M293.622,143.391c0,0-41.316,4.85-40.763,45.705c0.339,25.045,34.098,32.541,34.098,32.541
			l10.424-25.801l-17.417-9.958L293.622,143.391z"/>
	</g>
	<g>
		<path style="fill:#F7B369;" d="M296.813,349.126c-0.035,0-0.071-0.005-0.106-0.017l-7.421-2.341
			c-0.186-0.059-0.29-0.257-0.231-0.443c0.06-0.186,0.257-0.291,0.444-0.23l7.421,2.341c0.186,0.059,0.29,0.257,0.231,0.443
			C297.103,349.029,296.964,349.126,296.813,349.126z"/>
	</g>
	<g>
		<path style="fill:#F7B369;" d="M264.996,327.37c-0.061,0-0.123-0.016-0.18-0.049c-0.168-0.1-0.224-0.317-0.124-0.485l3.967-6.695
			c0.099-0.168,0.315-0.225,0.484-0.124c0.168,0.1,0.224,0.317,0.124,0.485l-3.967,6.695
			C265.235,327.309,265.117,327.37,264.996,327.37z"/>
	</g>
	<g>
		<path style="fill:#FFFFFF;" d="M292.52,193.411c-0.074,0-0.15-0.023-0.214-0.072c-0.108-0.082-10.888-8.271-14.997-9.725
			c-0.184-0.066-0.28-0.267-0.215-0.452c0.065-0.185,0.265-0.281,0.452-0.215c4.213,1.491,14.743,9.489,15.19,9.829
			c0.155,0.118,0.185,0.34,0.067,0.496C292.733,193.363,292.627,193.411,292.52,193.411z"/>
	</g>
	<g>
		<path style="fill:#FFFFFF;" d="M282.8,186.387c-0.093,0-0.185-0.037-0.253-0.106c-0.42-0.431-4.094-4.272-3.688-6.565
			c0.102-0.574,0.454-1.02,1.018-1.29c0.699-0.335,1.217-0.165,1.529,0.036c1.834,1.184,1.761,6.928,1.746,7.58
			c-0.003,0.143-0.091,0.269-0.224,0.321C282.887,186.379,282.844,186.387,282.8,186.387z M280.649,178.942
			c-0.125,0-0.278,0.032-0.465,0.122c-0.366,0.175-0.565,0.422-0.628,0.776c-0.245,1.383,1.647,3.881,2.89,5.289
			c-0.04-2.006-0.335-5.371-1.422-6.073C280.937,179,280.818,178.942,280.649,178.942z"/>
	</g>
	<g>
		<path style="fill:#FFFFFF;" d="M302.336,147.857c-0.257,0-0.526-0.012-0.809-0.038c-3.441-0.317-6.86-2.642-7.004-2.74
			c-0.161-0.11-0.202-0.331-0.091-0.492c0.109-0.16,0.331-0.203,0.492-0.091c0.034,0.023,3.414,2.319,6.668,2.619
			c3.423,0.317,4.588-1.595,4.636-1.677c0.098-0.168,0.314-0.226,0.483-0.127c0.168,0.098,0.226,0.312,0.129,0.48
			C306.788,145.882,305.615,147.857,302.336,147.857z"/>
	</g>
	<g>
		<path style="fill:#A37B90;" d="M367.74,171.889c0,0-9.097,12.521-26.017,14.418c-16.92,1.897-27.382-7.365-27.382-7.365
			l-7.319-35.551c0,0,16.738,8.386,30.817,13.756c8.292,3.163,21.898-3.529,21.898-3.529L367.74,171.889z"/>
	</g>
	<g>
		<path style="fill:#FFFFFF;" d="M336.902,166.901c-0.118,0-0.239-0.011-0.364-0.034c-0.608-0.11-1.064-0.45-1.32-0.981
			c-1.166-2.427,2.168-8.645,2.311-8.909c0.07-0.13,0.214-0.205,0.359-0.182c0.146,0.02,0.264,0.129,0.297,0.272
			c0.171,0.764,1.625,7.512-0.135,9.348C337.743,166.737,337.351,166.901,336.902,166.901z M337.694,158.208
			c-1.031,2.114-2.559,5.874-1.839,7.373c0.16,0.332,0.417,0.52,0.809,0.591c0.373,0.068,0.651-0.01,0.876-0.244
			C338.635,164.785,338.136,160.6,337.694,158.208z"/>
	</g>
	<g>
		<path d="M304.262,134.472c-0.448,0-1.585-0.179-2.569-1.824c-0.103-0.172-0.047-0.395,0.125-0.497
			c0.171-0.105,0.394-0.047,0.497,0.125c0.958,1.602,1.976,1.473,2.02,1.467c0.197-0.027,0.382,0.105,0.413,0.301
			c0.031,0.195-0.097,0.379-0.292,0.414C304.444,134.461,304.375,134.472,304.262,134.472z"/>
	</g>
</g>
<g>
	<g>
		<g>
			<polygon style="fill:#F48462;" points="720.227,342.354 725.413,334.817 707.386,322.66 699.484,329.468 711.584,343.57 			"/>
		</g>
	</g>
	<g>
		<g>
			<polygon style="fill:#F48462;" points="755.293,336.033 755.046,349.162 778.259,348.919 777.271,334.817 			"/>
		</g>
	</g>
	<g>
		<g>
			<path style="fill:#5C69A5;" d="M723.346,368.07c-0.507-0.068-0.848-0.567-0.758-1.096c0.423-2.502,1.927-9.495,5.885-12.462
				c4.864-3.647,15.056-5.106,18.762-7.538c3.706-2.431,7.853-8.301,10.065-7.19c2.212,1.111,6.381,6.217,12.403,5.488
				c6.022-0.729,8.802-2.188,10.423-0.729c1.621,1.459,2.548,21.883,1.853,23.099c-0.695,1.216-9.177,0.093-9.916,0.29
				c-0.739,0.197-2.823-4.666-4.213-3.937c-1.39,0.729-3.085,3.011-5.133,4.058C760.806,369.03,729.418,368.884,723.346,368.07z"/>
		</g>
	</g>
	<g>
		<g>
			<path style="fill:#F7B369;" d="M740.301,262.603l2.833-55.68l34.704-0.243c0,0,4.25,14.346,5.43,28.205
				c1.18,13.859,4.25,101.877,3.777,103.093c-0.472,1.216-38.954,2.675-41.315,1.216
				C743.37,337.735,740.301,262.603,740.301,262.603z"/>
		</g>
	</g>
	<g>
		<g>
			<path style="fill:#5C69A5;" d="M661.835,329.759c-0.385-0.339-0.386-0.942-0.011-1.33c1.778-1.837,7.016-6.79,12.016-7.042
				c6.144-0.31,15.498,4.161,19.981,4.212c4.483,0.051,11.292-2.499,12.51-0.346c1.217,2.153,1.798,8.705,7.249,11.457
				c5.452,2.752,8.607,3.092,9.132,5.204c0.526,2.112-10.325,19.543-11.598,20.163c-1.273,0.62-7.728-5.037-8.458-5.286
				c-0.73-0.249,0.295-5.438-1.283-5.608c-1.577-0.17-4.294,0.774-6.603,0.501C692.616,351.428,666.45,333.817,661.835,329.759z"/>
		</g>
	</g>
	<g>
		<g>
			<path style="fill:#F7B369;" d="M736.996,206.437c0,0-40.842,110.631-40.37,113.062c0.472,2.431,31.635,19.695,33.524,19.695
				c1.889,0,15.581-25.044,15.581-25.044l1.653-107.47L736.996,206.437z"/>
		</g>
	</g>
	<g>
		<path style="fill:#FFFFFF;" d="M755.046,349.514c-0.069,0-0.139-0.021-0.2-0.063l-5.637-3.903
			c-0.159-0.11-0.199-0.329-0.089-0.489c0.111-0.159,0.329-0.197,0.489-0.089l5.637,3.903c0.159,0.11,0.199,0.329,0.089,0.489
			C755.267,349.461,755.157,349.514,755.046,349.514z"/>
	</g>
	<g>
		<path style="fill:#FFFFFF;" d="M749.409,351.797c-0.074,0-0.148-0.023-0.212-0.071l-4.429-3.356
			c-0.155-0.117-0.186-0.338-0.068-0.492c0.118-0.156,0.337-0.185,0.492-0.068l4.429,3.356c0.155,0.117,0.186,0.338,0.068,0.492
			C749.62,351.749,749.516,351.797,749.409,351.797z"/>
	</g>
	<g>
		<path style="fill:#FFFFFF;" d="M698.892,331.864c-0.114,0-0.227-0.057-0.295-0.16l-3.736-5.749
			c-0.106-0.163-0.06-0.38,0.104-0.486c0.16-0.104,0.38-0.06,0.486,0.103l3.736,5.749c0.105,0.163,0.06,0.38-0.104,0.486
			C699.025,331.846,698.958,331.864,698.892,331.864z"/>
	</g>
	<g>
		<path style="fill:#FFFFFF;" d="M691.397,330.199c-0.12,0-0.237-0.061-0.303-0.173l-2.826-4.784
			c-0.099-0.167-0.043-0.383,0.124-0.481c0.164-0.099,0.383-0.045,0.482,0.124l2.826,4.784c0.099,0.167,0.043,0.383-0.124,0.481
			C691.52,330.184,691.458,330.199,691.397,330.199z"/>
	</g>
	<g>
		<path style="fill:#40507F;" d="M776.517,222.96c-6.295,0-10.14-7.818-10.181-7.905c-0.085-0.175-0.011-0.385,0.164-0.469
			c0.172-0.083,0.385-0.012,0.469,0.164c0.044,0.09,4.384,8.926,11.209,7.31c0.193-0.047,0.379,0.073,0.423,0.261
			c0.045,0.189-0.072,0.379-0.261,0.423C777.712,222.892,777.104,222.96,776.517,222.96z"/>
	</g>
	<g>
		<path style="fill:#40507F;" d="M743.332,318.94c-0.211-0.01-0.36-0.175-0.352-0.368l4.297-90.349l-9.406-6.21
			c-0.162-0.107-0.207-0.324-0.1-0.486c0.107-0.162,0.325-0.207,0.486-0.1l9.573,6.319c0.103,0.068,0.164,0.186,0.158,0.309
			l-4.306,90.549C743.674,318.794,743.519,318.94,743.332,318.94z"/>
	</g>
	<g>
		<path style="fill:#68B6D8;" d="M754.673,147.607c0,0-9.509,0.432-13.279,8.049c-3.77,7.618-6.619,53.024-6.619,53.024
			s10.543,4.659,25.929,4.458c15.386-0.201,20.59-4.188,20.59-4.188l2.96-28c0,0-1.236-29.511-5.071-31.581
			C775.346,147.299,761.041,145.97,754.673,147.607z"/>
	</g>
	<g>
		<path d="M754.749,123.247c0,0-4.834-9.359-0.268-11.04c4.566-1.681,9.584,3.595,9.584,3.595s9.898,1.469,13.363,7.02
			c3.466,5.552-6.379,14.338-6.379,14.338L754.749,123.247z"/>
	</g>
	<g>
		<g>
			<path style="fill:#F48462;" d="M769.165,139.078l0.027,9.2c0,0-1.651,2.65-7.032,3.103c-4.008,0.338-5.42-0.565-5.42-0.565
				l0.545-4.661l0.538-4.546l9.712-2.166L769.165,139.078z"/>
		</g>
	</g>
	<g>
		<g>
			<path d="M767.535,139.443c-0.023,0.251-0.117,0.548-0.265,0.889c-2.045,4.602-7.67,5.609-9.985,5.823l0.538-4.546
				L767.535,139.443z"/>
		</g>
	</g>
	<g>
		<g>
			<path style="fill:#F48462;" d="M755.711,120.644c0,0-4.795,11.549-2.873,17.952c1.922,6.403,7.768,5.282,11.254,3.973
				c3.486-1.309,5.075-3.491,5.075-3.491s3.298,1.051,5.434-2.037c2.136-3.088,0.722-6.563-1.164-7.331
				c-1.886-0.768-4.087,0.625-4.087,0.625l1.683-3.362C771.032,126.974,763.382,110.189,755.711,120.644z"/>
		</g>
	</g>
	<g>
		<path d="M769.702,135.287c-0.108,0-0.216-0.05-0.285-0.145c-0.113-0.157-0.078-0.377,0.079-0.491l4.137-2.993
			c0.157-0.114,0.377-0.079,0.491,0.079c0.113,0.157,0.078,0.377-0.079,0.491l-4.137,2.993
			C769.846,135.265,769.774,135.287,769.702,135.287z"/>
	</g>
	<g>
		<path d="M773.481,135.225c-0.028,0-0.058-0.003-0.087-0.011l-2.732-0.695c-0.188-0.048-0.302-0.239-0.254-0.427
			c0.049-0.188,0.236-0.301,0.428-0.254l2.732,0.695c0.188,0.048,0.302,0.239,0.254,0.427
			C773.78,135.119,773.638,135.225,773.481,135.225z"/>
	</g>
	<g>
		<path d="M756.079,133.801c-0.171,0-0.32-0.124-0.348-0.297c-0.493-3.161,1.56-4.877,1.646-4.948c0.15-0.123,0.37-0.101,0.494,0.05
			c0.123,0.149,0.101,0.371-0.049,0.494c-0.074,0.062-1.826,1.545-1.396,4.296c0.029,0.192-0.102,0.372-0.294,0.401
			C756.115,133.8,756.097,133.801,756.079,133.801z"/>
	</g>
	<g>
		<path d="M754.559,129.18c-0.03,0-0.06-0.004-0.092-0.012c-0.188-0.051-0.298-0.244-0.247-0.431l0.57-2.112
			c0.05-0.188,0.236-0.3,0.431-0.247c0.188,0.051,0.298,0.244,0.247,0.431l-0.57,2.112
			C754.856,129.077,754.714,129.18,754.559,129.18z"/>
	</g>
	<g>
		<path d="M760.382,129.57c-0.03,0-0.061-0.004-0.092-0.012c-0.188-0.05-0.298-0.244-0.248-0.431l0.569-2.112
			c0.051-0.188,0.239-0.302,0.432-0.248c0.188,0.05,0.298,0.244,0.248,0.431l-0.569,2.112
			C760.679,129.467,760.537,129.57,760.382,129.57z"/>
	</g>
	<g>
		<path d="M754.749,123.247c0,0,0.994-1.852,3.289-1.875s3.64,1.59,3.64,1.59s-0.995,3.868,2.131,5.912
			c3.127,2.044,5.54,1.463,5.54,1.463l2.261-0.813l1.651-3.313l-6.569-7.038l-8.489-4.449l-4.308,3.934L754.749,123.247z"/>
	</g>
	<g>
		<path d="M764.065,115.802c0,0,0.284-5.092,5.638-2.855c5.354,2.237,4.938,9.184,4.938,9.184L764.065,115.802z"/>
	</g>
	<g>
		<path d="M754.325,123.681c-0.18,0-0.333-0.137-0.35-0.318c-0.019-0.193,0.123-0.365,0.316-0.383l1.747-0.165
			c0.21-0.021,0.365,0.125,0.383,0.317c0.018,0.193-0.123,0.364-0.316,0.383l-1.747,0.165
			C754.347,123.681,754.336,123.681,754.325,123.681z"/>
	</g>
	<g>
		<path d="M762.187,126.061c-0.047,0-0.095-0.009-0.141-0.029l-2.359-1.026c-0.178-0.077-0.259-0.285-0.182-0.462
			c0.077-0.179,0.283-0.259,0.463-0.182l2.359,1.026c0.178,0.077,0.259,0.285,0.182,0.462
			C762.451,125.982,762.323,126.061,762.187,126.061z"/>
	</g>
	<g>
		<path d="M755.198,136.919c-0.115,0-0.229-0.058-0.296-0.163l-1.303-2.042c-0.104-0.163-0.057-0.381,0.107-0.485
			c0.162-0.102,0.381-0.058,0.485,0.107l1.303,2.042c0.104,0.164,0.057,0.381-0.107,0.485
			C755.329,136.901,755.264,136.919,755.198,136.919z"/>
	</g>
	<g>
		<path style="fill:#F48462;" d="M738.022,149.549c0,0,5.911-19.392,8.374-19.098c2.463,0.294,7.361,5.219,8.359,7.025
			c0.998,1.806,0,4.104,0,4.104s0.972,1.219,0,2.005c-0.972,0.786-3.763-0.883-3.763-0.883s2.463,12.34-4.761,13.817
			C739.008,157.997,738.022,149.549,738.022,149.549z"/>
	</g>
	<g>
		<path style="fill:#68B6D8;" d="M741.699,184.856c0,0,2.93-5.807,4.322-12.298c1.392-6.491,3.329-16.182,3.329-16.182
			l-12.773-9.502c0,0-10.665,16.31-14.383,31.882c-3.718,15.571-0.96,20.33,6.977,19.369
			C738.574,196.984,741.699,184.856,741.699,184.856z"/>
	</g>
	<g>
		<path style="fill:#F48462;" d="M742.852,186.553l-3.984,15.428c-3.171,0-11.715-0.113-14.412-1.354
			c-3.341-1.535-3.781-3.623-3.781-3.623s-2.291-2.178-2.156-3.352c0.124-1.185,1.433-6.501,1.433-6.501s-1.851-4.379-0.158-4.616
			c1.682-0.226,4.605-0.632,4.605-0.632s5.462-2.393,7.821-1.727c2.359,0.666,8.634,6.444,8.634,6.444L742.852,186.553z"/>
	</g>
	<g>
		<path style="fill:#5C69A5;" d="M761.209,151.706c-3.567,0-4.95-0.834-5.016-0.875c-0.164-0.103-0.215-0.319-0.111-0.484
			c0.102-0.166,0.316-0.217,0.484-0.112c0.014,0.008,1.744,1.018,6.375,0.706c4.599-0.315,6.729-3.365,6.749-3.395
			c0.11-0.161,0.329-0.2,0.488-0.093c0.16,0.109,0.202,0.327,0.094,0.487c-0.093,0.137-2.329,3.363-7.282,3.703
			C762.344,151.688,761.751,151.706,761.209,151.706z"/>
	</g>
	<g>
		<path d="M732.267,183.275c-0.033,0-0.066-0.005-0.1-0.015l-5.962-1.76c-0.186-0.055-0.292-0.25-0.237-0.437
			c0.055-0.186,0.251-0.292,0.436-0.237l5.962,1.76c0.186,0.055,0.292,0.25,0.237,0.437
			C732.559,183.176,732.419,183.275,732.267,183.275z"/>
	</g>
	<g>
		<path d="M721.595,187.38c-0.057,0-0.114-0.014-0.168-0.043l-2.099-1.142c-0.171-0.093-0.233-0.306-0.141-0.476
			c0.093-0.171,0.306-0.233,0.477-0.141l2.099,1.142c0.171,0.093,0.233,0.306,0.141,0.477
			C721.84,187.314,721.719,187.38,721.595,187.38z"/>
	</g>
	<g>
		<path d="M754.755,140.925c-0.076,0-0.152-0.024-0.217-0.075l-5.404-4.235c-0.152-0.12-0.18-0.341-0.06-0.494
			c0.12-0.153,0.341-0.18,0.493-0.06l5.404,4.235c0.152,0.12,0.18,0.341,0.06,0.494C754.962,140.879,754.86,140.925,754.755,140.925
			z"/>
	</g>
	<g>
		<path d="M753.948,136.69c-0.065,0-0.132-0.018-0.19-0.057l-4.598-2.973c-0.163-0.105-0.21-0.323-0.104-0.486
			c0.106-0.163,0.324-0.21,0.485-0.104l4.598,2.973c0.163,0.105,0.21,0.323,0.105,0.486
			C754.176,136.634,754.064,136.69,753.948,136.69z"/>
	</g>
	<g>
		<path style="fill:#68B6D8;" d="M740.8,185.184l-2.778,18.778c0,0,41,11.889,49.667-9c8.7-20.968-1.235-42.074-8.506-45.592
			c-7.271-3.519-14.479,29.592-14.479,29.592L740.8,185.184z"/>
	</g>
	<g>
		<path style="fill:#E6F4FF;" d="M743.374,206.209l-5.026-0.567c-0.881-0.1-1.515-0.894-1.415-1.775l2.229-19.737
			c0.099-0.881,0.894-1.515,1.775-1.415l5.025,0.567c0.881,0.1,1.515,0.894,1.415,1.775l-2.229,19.738
			C745.05,205.674,744.255,206.308,743.374,206.209z"/>
	</g>
	<g>
		<path style="fill:#E6F4FF;" d="M752.049,158.279l-2.924,4.339c-0.469,0.695-1.412,0.879-2.107,0.411l-14.437-9.727
			c-0.695-0.469-0.879-1.412-0.411-2.107l2.924-4.339c0.468-0.695,1.412-0.879,2.107-0.411l14.437,9.727
			C752.334,156.64,752.518,157.583,752.049,158.279z"/>
	</g>
	<g>
		<path style="fill:#5C69A5;" d="M753.948,183.275c-0.13,0-0.255-0.073-0.316-0.198c-0.085-0.174-0.012-0.385,0.162-0.47
			c0.094-0.045,9.44-4.555,18.632-5.33c0.189-0.026,0.363,0.128,0.38,0.321c0.016,0.193-0.128,0.363-0.321,0.379
			c-9.061,0.764-18.29,5.216-18.382,5.261C754.053,183.264,754,183.275,753.948,183.275z"/>
	</g>
	<g>
		<path style="fill:#5C69A5;" d="M764.702,179.314c-0.11,0-0.217-0.052-0.284-0.145c-0.089-0.122-0.09-0.286-0.003-0.409
			c0.322-0.46,3.216-4.493,5.352-4.693c0.487-0.048,0.893,0.097,1.227,0.42c0.408,0.397,0.416,0.805,0.352,1.077
			c-0.42,1.752-5.521,3.417-6.539,3.733C764.773,179.308,764.737,179.314,764.702,179.314z M769.938,174.762
			c-0.033,0-0.068,0.001-0.104,0.005c-1.231,0.115-3.064,2.11-4.171,3.504c2.144-0.763,4.784-1.971,5-2.871
			c0.022-0.096,0.025-0.23-0.158-0.409C770.344,174.836,770.162,174.762,769.938,174.762z"/>
	</g>
	<g>
		<path style="fill:#40507F;" d="M744.346,331.864c-0.188,0-0.344-0.148-0.352-0.338c-0.007-0.194,0.143-0.357,0.338-0.365
			l42.749-1.665c0.216-0.012,0.357,0.145,0.365,0.338c0.007,0.194-0.144,0.357-0.338,0.365l-42.749,1.665
			C744.355,331.864,744.35,331.864,744.346,331.864z"/>
	</g>
	<g>
		<path style="fill:#40507F;" d="M734.956,331.864c-0.057,0-0.113-0.014-0.166-0.042l-36.065-19.396
			c-0.172-0.092-0.235-0.305-0.144-0.476c0.092-0.172,0.307-0.234,0.476-0.144l36.064,19.396c0.172,0.092,0.235,0.305,0.144,0.476
			C735.202,331.797,735.081,331.864,734.956,331.864z"/>
	</g>
</g>
<g>
	<g>
		<path style="fill:#40507F;" d="M684.216,67.425h-57.791c-3.883,0-7.042-3.159-7.042-7.041V34.88c0-3.883,3.159-7.042,7.042-7.042
			h57.791c3.883,0,7.041,3.159,7.041,7.042v25.503C691.257,64.266,688.099,67.425,684.216,67.425z M626.425,28.839
			c-3.332,0-6.042,2.71-6.042,6.042v25.503c0,3.331,2.71,6.041,6.042,6.041h57.791c3.331,0,6.041-2.71,6.041-6.041V34.88
			c0-3.331-2.71-6.042-6.041-6.042H626.425z"/>
	</g>
	<g>
		<path style="fill:#40507F;" d="M690.757,37.28h-70.874c-0.276,0-0.5-0.224-0.5-0.5c0-0.276,0.224-0.5,0.5-0.5h70.874
			c0.276,0,0.5,0.224,0.5,0.5C691.257,37.056,691.033,37.28,690.757,37.28z"/>
	</g>
	<g>
		<path style="fill:#40507F;" d="M674.079,32.297c0,0.798-0.647,1.444-1.444,1.444s-1.444-0.647-1.444-1.444
			c0-0.798,0.647-1.444,1.444-1.444S674.079,31.5,674.079,32.297z"/>
	</g>
	<g>
		<path style="fill:#40507F;" d="M679.574,32.297c0,0.798-0.647,1.444-1.444,1.444c-0.798,0-1.445-0.647-1.445-1.444
			c0-0.798,0.647-1.444,1.445-1.444C678.928,30.853,679.574,31.5,679.574,32.297z"/>
	</g>
	<g>
		<path style="fill:#40507F;" d="M685.31,32.297c0,0.798-0.647,1.444-1.444,1.444c-0.798,0-1.444-0.647-1.444-1.444
			c0-0.798,0.647-1.444,1.444-1.444C684.663,30.853,685.31,31.5,685.31,32.297z"/>
	</g>
</g>
</svg>
