<?xml version="1.0" encoding="utf-8"?>
<!-- Generator: Adobe Illustrator 27.5.0, SVG Export Plug-In . SVG Version: 6.00 Build 0)  -->
<svg version="1.1" xmlns="http://www.w3.org/2000/svg" xmlns:xlink="http://www.w3.org/1999/xlink" x="0px" y="0px"
	 viewBox="0 0 750 500" style="enable-background:new 0 0 750 500;" xml:space="preserve">
<g id="BACKGROUND">
	<rect style="fill:#FFFFFF;" width="750" height="500"/>
</g>
<g id="OBJECTS">
	<g>
		<path style="fill:#F5F8FF;" d="M88.844,408.25c0,0-35.511-32.852-2.837-108.725c32.674-75.872,120.422-65.33,171.711-129.18
			c51.289-63.85,138.958-75.586,218.959-51.716c80.001,23.869,211.878,106.724,195.766,291.606L88.844,408.25z"/>
		<rect x="34.972" y="408.251" style="fill:#7295DD;" width="679.698" height="3.969"/>
	</g>
	<g>
		<g>
			<path style="fill:#35A7BA;" d="M679.708,378.852c-0.569,3.276-1.932,6.187-4.694,8.576
				c-13.681,11.787-14.456,15.996-14.475,22.473v0.317l-12.291-0.047h-0.924l-37.6-0.14h-0.952l-2.548-0.009
				c0,0,0.009-0.037,0.037-0.121c0.317-1.129,3.005-10.219,9.164-18.814c2.034-2.856,4.461-5.646,7.298-8.082
				c4.097-3.518,9.062-6.281,15.035-7.382c1.68-0.308,3.229-0.635,4.657-0.97c18.497-4.33,16.761-10.779,18.46-20.653
				c1.829-10.648,7.345-23.742,13.308-25.095c6.243-1.419,7.643,7.793,5.32,21.595C677.842,360.355,681.174,370.705,679.708,378.852
				z"/>
			<path style="fill:#44B9CC;" d="M578.056,409.904c0,0,6.972-27.53,23.987-37.732c17.014-10.201,13.993-11.778,21.006-28.829
				c7.013-17.051,20.656-37.646,29.843-33.903c9.187,3.743-16.037,32.68-5.865,42.162c10.172,9.482-18.666,34.384-14.226,58.301
				L578.056,409.904z"/>
			<path style="fill:#58D3E0;" d="M711.084,360.981c-1.325,14.195,1.783,22.519-6.43,28.781c-8.203,6.262-1.325,13.299-6.43,20.139
				h-43.275c0,0-1.521-19.701,18.441-28.1c2.324-0.98,4.414-1.96,6.318-2.949c14.475-7.503,17.676-15.445,21.399-25.627
				C705.326,341.691,712.419,346.786,711.084,360.981z"/>
			<path style="fill:#58D3E0;" d="M644.927,321.654c-0.159,0.205-15.903,20.905-15.557,43.088
				c0.168,10.49-2.818,14.017-6.645,18.264c-0.075,0.084-0.149,0.168-0.224,0.252c-4.153,4.601-9.23,10.238-12.748,26.644
				c-0.009,0.037-0.019,0.084-0.028,0.131h-0.952c0.009-0.047,0.019-0.093,0.028-0.131c1.885-8.847,4.218-14.633,6.626-18.814
				c2.156-3.761,4.377-6.234,6.383-8.455c3.938-4.386,6.794-7.55,6.626-17.872c-0.345-22.519,15.594-43.471,15.753-43.676
				c0.159-0.205,0.448-0.243,0.653-0.084C645.048,321.159,645.085,321.448,644.927,321.654z"/>
			<path style="fill:#44B9CC;" d="M675.136,337.472c-0.075,0.131-6.803,13.373-5.935,28.361c0.597,10.331-1.559,11.824-5.861,14.801
				c-2.165,1.503-4.862,3.369-8.073,7.046c-6.253,7.167-7.121,16.91-7.018,22.491h-0.924c-0.103-5.73,0.803-15.716,7.242-23.107
				c3.276-3.761,6.029-5.665,8.241-7.195c4.144-2.865,6.029-4.181,5.459-13.98c-0.887-15.249,5.973-28.716,6.038-28.847
				c0.121-0.233,0.401-0.317,0.625-0.205C675.164,336.959,675.257,337.239,675.136,337.472z"/>
			<path style="fill:#7FEEF4;" d="M693.073,384.48c-10.956,8.082-15.884,13.943-14.307,25.422h-0.933
				c-1.549-11.806,3.658-18.04,14.68-26.177c12.963-9.556,12.627-26.215,12.617-26.383c0-0.261,0.196-0.476,0.457-0.485
				c0.261,0.019,0.476,0.196,0.476,0.457C706.073,357.481,706.418,374.634,693.073,384.48z"/>
		</g>
		<g>
			<path style="fill:#35A7BA;" d="M61.495,378.852c0.569,3.276,1.932,6.187,4.694,8.576c13.681,11.787,14.456,15.996,14.475,22.473
				v0.317l12.291-0.047h0.924l37.6-0.14h0.952l2.548-0.009c0,0-0.009-0.037-0.037-0.121c-0.317-1.129-3.005-10.219-9.165-18.814
				c-2.035-2.856-4.461-5.646-7.298-8.082c-4.097-3.518-9.062-6.281-15.035-7.382c-1.68-0.308-3.229-0.635-4.657-0.97
				c-18.497-4.33-16.761-10.779-18.46-20.653c-1.829-10.648-7.345-23.742-13.308-25.095c-6.243-1.419-7.643,7.793-5.32,21.595
				C63.362,360.355,60.03,370.705,61.495,378.852z"/>
			<path style="fill:#44B9CC;" d="M163.148,409.904c0,0-6.972-27.53-23.987-37.732c-17.014-10.201-13.993-11.778-21.006-28.829
				c-7.014-17.051-20.657-37.646-29.843-33.903c-9.187,3.743,16.037,32.68,5.865,42.162c-10.173,9.482,18.666,34.384,14.226,58.301
				L163.148,409.904z"/>
			<path style="fill:#58D3E0;" d="M30.12,360.981c1.325,14.195-1.782,22.519,6.43,28.781c8.203,6.262,1.325,13.299,6.43,20.139
				h43.275c0,0,1.521-19.701-18.441-28.1c-2.324-0.98-4.414-1.96-6.318-2.949c-14.475-7.503-17.676-15.445-21.399-25.627
				C35.878,341.691,28.785,346.786,30.12,360.981z"/>
			<path style="fill:#58D3E0;" d="M96.277,321.654c0.159,0.205,15.902,20.905,15.557,43.088c-0.168,10.49,2.818,14.017,6.645,18.264
				c0.075,0.084,0.149,0.168,0.224,0.252c4.153,4.601,9.23,10.238,12.748,26.644c0.009,0.037,0.019,0.084,0.028,0.131h0.952
				c-0.009-0.047-0.019-0.093-0.028-0.131c-1.885-8.847-4.218-14.633-6.626-18.814c-2.156-3.761-4.377-6.234-6.383-8.455
				c-3.938-4.386-6.794-7.55-6.626-17.872c0.345-22.519-15.595-43.471-15.753-43.676c-0.159-0.205-0.448-0.243-0.653-0.084
				C96.156,321.159,96.119,321.448,96.277,321.654z"/>
			<path style="fill:#44B9CC;" d="M66.068,337.472c0.075,0.131,6.803,13.373,5.935,28.361c-0.597,10.331,1.559,11.824,5.861,14.801
				c2.165,1.503,4.862,3.369,8.073,7.046c6.253,7.167,7.121,16.91,7.018,22.491h0.924c0.103-5.73-0.803-15.716-7.242-23.107
				c-3.276-3.761-6.029-5.665-8.241-7.195c-4.144-2.865-6.029-4.181-5.459-13.98c0.887-15.249-5.973-28.716-6.038-28.847
				c-0.121-0.233-0.401-0.317-0.625-0.205C66.04,336.959,65.947,337.239,66.068,337.472z"/>
			<path style="fill:#7FEEF4;" d="M48.131,384.48c10.956,8.082,15.884,13.943,14.307,25.422h0.933
				c1.549-11.806-3.658-18.04-14.68-26.177c-12.963-9.556-12.627-26.215-12.618-26.383c0-0.261-0.196-0.476-0.457-0.485
				c-0.261,0.019-0.476,0.196-0.476,0.457C35.131,357.481,34.786,374.634,48.131,384.48z"/>
		</g>
		<g>
			<g>
				<path style="fill:#44B9CC;" d="M348.065,408.25H328.99c0,0-10.331-35.846-4.162-41.333c5.161-4.601,15.968,12.767,21.026,30.9
					C346.833,401.315,347.599,404.843,348.065,408.25z"/>
				<path style="fill:#58D3E0;" d="M339.088,408.25h-0.98l-9.342-31.329c-0.075-0.252,0.065-0.513,0.308-0.588
					c0.252-0.065,0.513,0.065,0.588,0.317L339.088,408.25z"/>
			</g>
			<g>
				<path style="fill:#58D3E0;" d="M360.039,408.25h-19.495c0.7-1.139,2.716-5.796,5.31-10.434
					c3.07-5.478,6.934-10.938,10.415-10.611C362.699,387.821,360.039,408.25,360.039,408.25z"/>
				<path style="fill:#7FEEF4;" d="M355.279,395.184l-3.005,13.065h-0.961l3.061-13.271c0.056-0.252,0.308-0.411,0.56-0.355
					C355.177,394.68,355.335,394.932,355.279,395.184z"/>
			</g>
		</g>
	</g>
	<g>
		<polygon style="opacity:0.27;fill:#5D74B5;" points="115.822,278.251 88.844,408.25 123.255,408.25 		"/>
		<polygon style="fill:#6D87C6;" points="95.492,322.453 95.492,325.679 119.399,349.189 119.399,336.759 		"/>
		<polygon style="fill:#2D2B52;" points="131.684,349.189 85.966,315.416 85.966,313.699 131.684,340.918 		"/>
		<polygon style="fill:#C9D7F4;" points="284.698,347.633 284.698,408.25 242.397,408.25 242.397,339.211 275.059,339.211 		"/>
		<polygon style="fill:#6D87C6;" points="284.698,347.633 242.397,347.633 242.397,339.211 275.059,339.211 		"/>
		<rect x="115.822" y="278.251" style="fill:#2D2B52;" width="109.784" height="129.999"/>
		<rect x="140.08" y="278.251" style="fill:#6D87C6;" width="109.784" height="129.999"/>
		<rect x="115.822" y="278.251" style="fill:#B5C8EA;" width="24.258" height="12.44"/>
		<rect x="139.77" y="278.251" style="fill:#C9D7F4;" width="110.095" height="12.44"/>
		<g>
			<rect x="140.08" y="387.754" style="fill:#2D2B52;" width="109.784" height="3.11"/>
			<rect x="140.08" y="366.916" style="fill:#2D2B52;" width="109.784" height="3.11"/>
			<rect x="140.08" y="347.634" style="fill:#2D2B52;" width="109.784" height="3.11"/>
		</g>
		<rect x="249.865" y="281.828" style="fill:#B5C8EA;" width="7.853" height="51.808"/>
		<g>
			<path style="fill:#5D74B5;" d="M177.245,254.304l6.065,17.027h48.827v6.92h-81.249v-19.243c0-2.598,2.106-4.704,4.704-4.704
				H177.245z"/>
			<path style="fill:#D9E4F9;" d="M238.941,255.471h-71.025c-3.221,0-5.831,2.611-5.831,5.831v16.95h81.25v-18.388
				C243.334,257.437,241.367,255.471,238.941,255.471z"/>
			<path style="fill:#B5C8EA;" d="M188.441,254.304l6.065,17.027h48.827v6.92h-81.25v-20.41c0-1.954,1.584-3.538,3.538-3.538
				H188.441z"/>
			<polygon style="fill:#6D87C6;" points="243.334,262.701 200.882,262.701 199.871,260.835 195.439,260.835 197.655,266.861 
				243.334,266.861 			"/>
		</g>
		<g>
			<polygon style="fill:#2D2B52;" points="155.067,259.635 105.773,259.946 101.376,231.042 103.13,228.768 151.646,228.768 
				155.96,257.125 			"/>
			<polygon style="fill:#6D87C6;" points="155.999,257.38 107.482,257.38 103.13,228.768 151.646,228.768 			"/>
			<polygon style="fill:#8DDCFF;" points="129.089,244.551 110.118,244.551 108.297,232.578 127.268,232.578 			"/>
			<g>
				<g>
					<path style="fill:#B5C8EA;" d="M137.209,236.465h-2.682c-0.333,0-0.644-0.27-0.694-0.603l-0.408-2.682
						c-0.051-0.333,0.178-0.603,0.511-0.603h2.682c0.333,0,0.644,0.27,0.694,0.603l0.408,2.682
						C137.77,236.195,137.542,236.465,137.209,236.465z"/>
					<path style="fill:#B5C8EA;" d="M143.196,236.465h-2.682c-0.333,0-0.644-0.27-0.694-0.603l-0.408-2.682
						c-0.051-0.333,0.178-0.603,0.511-0.603h2.682c0.333,0,0.644,0.27,0.694,0.603l0.408,2.682
						C143.757,236.195,143.528,236.465,143.196,236.465z"/>
					<path style="fill:#B5C8EA;" d="M148.949,236.465h-2.682c-0.333,0-0.644-0.27-0.694-0.603l-0.408-2.682
						c-0.051-0.333,0.178-0.603,0.511-0.603h2.682c0.333,0,0.644,0.27,0.694,0.603l0.408,2.682
						C149.511,236.195,149.282,236.465,148.949,236.465z"/>
				</g>
			</g>
			<g>
				<g>
					<path style="fill:#B5C8EA;" d="M138.119,242.452h-2.682c-0.333,0-0.644-0.27-0.694-0.603l-0.408-2.682
						c-0.051-0.333,0.178-0.603,0.511-0.603h2.682c0.333,0,0.644,0.27,0.694,0.603l0.408,2.682
						C138.681,242.182,138.452,242.452,138.119,242.452z"/>
					<path style="fill:#B5C8EA;" d="M144.106,242.452h-2.682c-0.333,0-0.644-0.27-0.694-0.603l-0.408-2.682
						c-0.051-0.333,0.178-0.603,0.511-0.603h2.682c0.333,0,0.644,0.27,0.694,0.603l0.408,2.682
						C144.668,242.182,144.439,242.452,144.106,242.452z"/>
					<path style="fill:#B5C8EA;" d="M149.86,242.452h-2.682c-0.333,0-0.644-0.27-0.694-0.603l-0.408-2.682
						c-0.051-0.333,0.178-0.603,0.511-0.603h2.682c0.333,0,0.644,0.27,0.694,0.603l0.408,2.682
						C150.421,242.182,150.193,242.452,149.86,242.452z"/>
				</g>
			</g>
			<g>
				<g>
					<path style="fill:#B5C8EA;" d="M139.03,248.439h-2.682c-0.333,0-0.644-0.27-0.694-0.603l-0.408-2.682
						c-0.051-0.333,0.178-0.603,0.511-0.603h2.682c0.333,0,0.644,0.27,0.694,0.603l0.408,2.682
						C139.592,248.169,139.363,248.439,139.03,248.439z"/>
					<path style="fill:#B5C8EA;" d="M145.017,248.439h-2.682c-0.333,0-0.644-0.27-0.694-0.603l-0.408-2.682
						c-0.051-0.333,0.178-0.603,0.511-0.603h2.682c0.333,0,0.644,0.27,0.694,0.603l0.408,2.682
						C145.579,248.169,145.35,248.439,145.017,248.439z"/>
					<path style="fill:#B5C8EA;" d="M150.771,248.439h-2.682c-0.333,0-0.644-0.27-0.694-0.603l-0.408-2.682
						c-0.051-0.333,0.178-0.603,0.511-0.603h2.682c0.333,0,0.644,0.27,0.694,0.603l0.408,2.682
						C151.332,248.169,151.103,248.439,150.771,248.439z"/>
				</g>
			</g>
			<path style="fill:#8DDCFF;" d="M149.032,253.94h-9.038c-0.757,0-1.464-0.613-1.579-1.37l0,0c-0.115-0.757,0.405-1.37,1.162-1.37
				h9.039c0.757,0,1.464,0.614,1.579,1.37l0,0C150.309,253.326,149.789,253.94,149.032,253.94z"/>
			<polygon style="fill:#B5C8EA;" points="128.754,252.569 111.338,252.569 110.851,249.372 128.268,249.372 			"/>
		</g>
		<rect x="128.668" y="259.802" style="fill:#2D2B52;" width="7.814" height="18.45"/>
	</g>
	<g>
		<polygon style="opacity:0.27;fill:#5D74B5;" points="283.24,345.386 396.172,390.864 396.172,324.639 282.476,324.639 		"/>
		<g>
			<g>
				<g>
					<polygon style="fill:#B5C7F7;" points="369.22,299.526 368.939,302.901 368.628,299.526 					"/>
					<path style="fill:#363660;" d="M368.939,300.473L368.939,300.473c0.491,0,0.888-0.398,0.888-0.888v-4.056h-1.777v4.056
						C368.05,300.076,368.448,300.473,368.939,300.473z"/>
				</g>
				<g>
					<polygon style="fill:#B5C7F7;" points="361.966,299.526 361.685,302.901 361.374,299.526 					"/>
					<path style="fill:#363660;" d="M361.685,300.473L361.685,300.473c0.491,0,0.888-0.398,0.888-0.888v-4.056h-1.776v4.056
						C360.796,300.076,361.194,300.473,361.685,300.473z"/>
				</g>
			</g>
			<polygon style="fill:#363660;" points="324.824,296.504 324.824,313.914 356.268,313.914 356.268,285.315 333.706,285.315 			"/>
			<polygon style="fill:#181E47;" points="336.636,296.504 336.636,313.914 356.268,313.914 356.268,285.315 345.518,285.315 			"/>
			<g>
				
					<rect x="273.66" y="306.099" transform="matrix(-1 -1.224647e-16 1.224647e-16 -1 638.6312 620.0141)" style="fill:#363660;" width="91.311" height="7.817"/>
				
					<rect x="319.493" y="306.099" transform="matrix(-1 -1.224647e-16 1.224647e-16 -1 726.034 620.0141)" style="fill:#181E47;" width="87.047" height="7.817"/>
			</g>
			<path style="fill:#B5C7F7;" d="M348.939,294.729h44.724c1.374,0,2.487-1.113,2.487-2.487l0,0c0-1.374-1.113-2.487-2.487-2.487
				h-44.724c-1.374,0-2.487,1.114-2.487,2.487l0,0C346.452,293.616,347.566,294.729,348.939,294.729z"/>
			<g>
				<polygon style="fill:#5D74B5;" points="358.132,297.305 378.028,297.305 378.028,286.025 360.088,286.025 358.132,290.954 				
					"/>
				<rect x="358.132" y="290.954" style="fill:#6D87C6;" width="14.256" height="6.351"/>
				<path style="fill:#87A4DD;" d="M372.388,290.954l5.64-4.93h-17.94c0,0-2.041,5.144-1.956,4.93
					C358.217,290.74,372.388,290.954,372.388,290.954z"/>
			</g>
			<polygon style="fill:#363660;" points="380.428,296.504 380.428,313.914 411.872,313.914 411.872,285.315 389.309,285.315 			"/>
			<polygon style="fill:#181E47;" points="392.24,296.504 392.24,313.914 411.872,313.914 411.872,285.315 401.122,285.315 			"/>
			<g>
				<rect x="279.522" y="289.756" style="fill:#5D74B5;" width="31.09" height="24.157"/>
				<rect x="279.522" y="289.756" style="fill:#87A4DD;" width="24.696" height="24.157"/>
				<g>
					
						<rect x="281.832" y="292.479" transform="matrix(-1 -1.224647e-16 1.224647e-16 -1 583.5012 594.314)" style="fill:#8DDCFF;" width="19.837" height="9.356"/>
					<g>
						
							<rect x="298.649" y="304.322" transform="matrix(-1 -1.224647e-16 1.224647e-16 -1 599.8449 611.1909)" style="fill:#B5C7F7;" width="2.546" height="2.546"/>
						
							<rect x="295.067" y="304.322" transform="matrix(-1 -1.224647e-16 1.224647e-16 -1 592.6801 611.1909)" style="fill:#B5C7F7;" width="2.546" height="2.546"/>
						
							<rect x="291.425" y="304.322" transform="matrix(-1 -1.224647e-16 1.224647e-16 -1 585.3965 611.1909)" style="fill:#B5C7F7;" width="2.546" height="2.546"/>
						
							<rect x="298.649" y="308.142" transform="matrix(-1 -1.224647e-16 1.224647e-16 -1 599.8449 618.8297)" style="fill:#B5C7F7;" width="2.546" height="2.546"/>
						
							<rect x="295.067" y="308.142" transform="matrix(-1 -1.224647e-16 1.224647e-16 -1 592.6801 618.8297)" style="fill:#B5C7F7;" width="2.546" height="2.546"/>
						
							<rect x="291.425" y="308.142" transform="matrix(-1 -1.224647e-16 1.224647e-16 -1 585.3965 618.8297)" style="fill:#B5C7F7;" width="2.546" height="2.546"/>
					</g>
					
						<rect x="281.343" y="304.322" transform="matrix(-1 -1.224647e-16 1.224647e-16 -1 570.148 616.1058)" style="fill:#5D74B5;" width="7.461" height="7.461"/>
				</g>
			</g>
			<g>
				<path style="fill:#5D74B5;" d="M397.895,299.526c0,2.584,2.094,4.678,4.678,4.678c2.584,0,4.678-2.094,4.678-4.678
					c0-2.584-2.094-4.678-4.678-4.678C399.99,294.848,397.895,296.942,397.895,299.526z"/>
				<path style="fill:#6D87C6;" d="M399.257,299.526c0,2.584,2.094,4.678,4.678,4.678c2.584,0,4.678-2.094,4.678-4.678
					c0-2.584-2.094-4.678-4.678-4.678C401.352,294.848,399.257,296.942,399.257,299.526z"/>
				<path style="fill:#363660;" d="M401.3,299.526c0,1.455,1.18,2.635,2.635,2.635c1.455,0,2.635-1.18,2.635-2.635
					c0-1.455-1.18-2.635-2.635-2.635C402.48,296.891,401.3,298.07,401.3,299.526z"/>
			</g>
		</g>
		<g>
			<g>
				<rect x="271.466" y="313.91" style="fill:#5D74B5;" width="142.286" height="13.577"/>
				<rect x="271.466" y="313.91" style="fill:#6D87C6;" width="120.413" height="13.577"/>
			</g>
			<g>
				<g>
					<rect x="279.522" y="327.484" style="fill:#181E47;" width="6.619" height="80.766"/>
					<rect x="275.857" y="327.484" style="fill:#494977;" width="6.619" height="80.766"/>
				</g>
				<g>
					<rect x="399.837" y="327.484" style="fill:#181E47;" width="6.619" height="80.766"/>
					<rect x="396.172" y="327.484" style="fill:#494977;" width="6.62" height="80.766"/>
				</g>
			</g>
		</g>
	</g>
	<g>
		<polygon style="opacity:0.27;fill:#5D74B5;" points="445.152,333.636 624.607,403.343 624.607,320.699 446.014,324.639 		"/>
		<g>
			<g>
				<g>
					<rect x="603.56" y="333.173" style="fill:#5D74B5;" width="8.521" height="70.171"/>
					<rect x="624.607" y="333.173" style="fill:#5D74B5;" width="8.521" height="70.171"/>
					<rect x="609.383" y="333.173" style="fill:#181E47;" width="2.699" height="70.171"/>
					<rect x="630.423" y="333.173" style="fill:#181E47;" width="2.705" height="70.171"/>
				</g>
				<rect x="585.272" y="403.343" style="fill:#181E47;" width="63.403" height="4.907"/>
				<rect x="585.272" y="403.343" style="fill:#363660;" width="47.855" height="4.907"/>
			</g>
			<g>
				<g>
					<rect x="442.783" y="333.173" style="fill:#5D74B5;" width="8.521" height="70.171"/>
					<rect x="463.829" y="333.173" style="fill:#5D74B5;" width="8.521" height="70.171"/>
					<rect x="448.605" y="333.173" style="fill:#181E47;" width="2.699" height="70.171"/>
					<rect x="469.646" y="333.173" style="fill:#181E47;" width="2.705" height="70.171"/>
				</g>
				<rect x="424.495" y="403.343" style="fill:#181E47;" width="63.403" height="4.907"/>
				<rect x="424.495" y="403.343" style="fill:#363660;" width="47.855" height="4.907"/>
			</g>
			<g>
				<path style="fill:#131935;" d="M636.365,277.286c-6.63,14.242-9.826,30.178-10.52,47.353h-173.44
					c0,0-1.233-34.984,24.272-47.353H636.365z"/>
				<rect x="449.133" y="318.097" style="fill:#494977;" width="129.532" height="6.542"/>
				<path style="fill:#363660;" d="M476.677,277.286c-10.329,5.009-16.271,13.728-19.682,22.327
					c-5.027,12.639-4.59,25.026-4.59,25.026h-27.91c0.323-9.024,2.513-17.576,5.739-25.026c4.231-9.808,10.239-17.725,16.056-22.327
					H476.677z"/>
				<path style="fill:#494977;" d="M452.405,324.639h-27.91c0.323-9.024,2.513-17.576,5.739-25.026h26.761
					C451.968,312.252,452.405,324.639,452.405,324.639z"/>
				<path style="fill:#181E47;" d="M446.014,324.639h-17.959c0.323-9.024,2.513-17.576,5.739-25.026h16.81
					C445.577,312.252,446.014,324.639,446.014,324.639z"/>
				<polygon style="fill:#494977;" points="599.254,277.284 599.254,302.03 595.109,299.526 583.36,292.407 572.851,302.03 
					445.152,302.03 460.592,292.292 465.361,283.516 466.355,281.69 468.751,277.284 				"/>
				<polygon style="fill:#363660;" points="598.044,281.69 598.044,283.516 465.361,283.516 466.355,281.69 				"/>
				<path style="fill:#363660;" d="M636.365,277.286c-3.991,1.939-7.331,4.428-10.125,7.253c-5.099,5.17-8.366,11.448-10.46,17.492
					c-4.069,11.753-3.686,22.608-3.686,22.608h-37.114c0,0-0.383-10.855,3.686-22.608c2.095-6.044,5.362-12.322,10.46-17.492
					c2.795-2.825,6.134-5.314,10.125-7.253H636.365z"/>
				<path style="fill:#181E47;" d="M649.351,277.286v47.353h-37.258c0,0-1.233-34.984,24.272-47.353H649.351z"/>
				<path style="fill:#494977;" d="M626.24,284.539c-5.099,5.17-8.366,11.448-10.46,17.492h-37.114
					c2.095-6.044,5.362-12.322,10.46-17.492H626.24z"/>
				<g>
					<polygon style="fill:#8DDCFF;" points="604.66,289.924 591.916,289.924 592.95,287.364 605.694,287.364 					"/>
					<polygon style="fill:#6D87C6;" points="613.512,289.924 606.874,289.924 607.907,287.364 614.546,287.364 					"/>
					<polygon style="fill:#6F6FA3;" points="592.955,294.35 590.128,294.35 591.27,291.523 594.096,291.523 					"/>
					<polygon style="fill:#6F6FA3;" points="596.981,294.35 594.154,294.35 595.296,291.523 598.122,291.523 					"/>
					<polygon style="fill:#6F6FA3;" points="600.873,294.35 598.047,294.35 599.189,291.523 602.015,291.523 					"/>
					<polygon style="fill:#6F6FA3;" points="591.297,298.456 588.47,298.456 589.612,295.629 592.438,295.629 					"/>
					<polygon style="fill:#6F6FA3;" points="595.323,298.456 592.496,298.456 593.638,295.629 596.464,295.629 					"/>
					<polygon style="fill:#6F6FA3;" points="599.215,298.456 596.389,298.456 597.53,295.629 600.357,295.629 					"/>
				</g>
				<polygon style="fill:#5E5E8E;" points="583.357,292.408 572.849,302.031 445.152,302.031 460.592,292.289 				"/>
				<polygon style="fill:#181E47;" points="577.112,307.787 449.205,307.787 445.152,302.031 573.06,302.031 				"/>
				<polygon style="fill:#5D74B5;" points="642.81,324.639 636.365,333.173 434.626,333.173 430.934,324.639 				"/>
				<polygon style="fill:#6D87C6;" points="612.081,324.639 605.643,333.173 434.626,333.173 430.934,324.639 				"/>
				<g>
					<path style="fill:#FFFFFF;" d="M470.047,318.446l90.822-0.299c-8.252,0.598-14.757,7.474-14.757,15.876v63.385
						c0,0.73-0.072,1.442-0.209,2.124c-0.987,4.973-5.374,8.719-10.634,8.719h-80.164l-1.945-72.397
						C452.902,326.339,460.532,318.475,470.047,318.446z"/>
					<path style="fill:#8DDCFF;" d="M478.995,318.097L478.995,318.097c-8.376,0-15.166,6.79-15.166,15.166v48.539h70.623v-49.77
						c0-7.696,6.239-13.935,13.935-13.935l0,0H478.995z"/>
					<path style="fill:#C9D7F4;" d="M545.902,399.531c-0.987,4.973-5.374,8.719-10.634,8.719h-25.271l13.309-18.485
						C523.994,389.598,535.927,394.96,545.902,399.531z"/>
					<path style="fill:#E8EEF9;" d="M536.102,408.251H449.22c-10.21,0-18.486-8.276-18.486-18.486l0,0h92.57l-0.158,5.125
						C522.921,402.201,528.787,408.25,536.102,408.251L536.102,408.251z"/>
				</g>
			</g>
		</g>
	</g>
	<g>
		<g>
			<rect x="355.438" y="189.917" style="opacity:0.27;fill:#5D74B5;" width="120.875" height="62.977"/>
			<rect x="352.561" y="187.04" style="fill:#FFFFFF;" width="120.875" height="62.977"/>
			<rect x="360.09" y="195.095" style="fill:#6D87C6;" width="31.855" height="38.445"/>
			<g>
				<rect x="401.694" y="195.095" style="fill:#F66A35;" width="8.101" height="8.101"/>
				<rect x="415.905" y="195.095" style="fill:#F3845B;" width="8.101" height="8.101"/>
				<rect x="430.116" y="195.095" style="fill:#EF9F81;" width="8.101" height="8.101"/>
				<rect x="444.327" y="195.095" style="fill:#ECB9A7;" width="8.101" height="8.101"/>
				<rect x="458.538" y="195.095" style="fill:#E8D3CD;" width="8.101" height="8.101"/>
			</g>
			<g>
				<rect x="401.694" y="208.551" style="fill:#71BCEA;" width="8.101" height="8.101"/>
				<rect x="415.905" y="208.551" style="fill:#8ECBEF;" width="8.101" height="8.101"/>
				<rect x="430.116" y="208.551" style="fill:#AAD9F4;" width="8.101" height="8.101"/>
				<rect x="444.327" y="208.551" style="fill:#C6E8FA;" width="8.101" height="8.101"/>
				<rect x="458.538" y="208.551" style="fill:#E3F6FF;" width="8.101" height="8.101"/>
			</g>
			<g>
				<rect x="401.694" y="222.007" style="fill:#5D7AB5;" width="8.101" height="8.101"/>
				<rect x="415.905" y="222.007" style="fill:#7C94C4;" width="8.101" height="8.101"/>
				<rect x="430.116" y="222.007" style="fill:#9CAED3;" width="8.101" height="8.101"/>
				<rect x="444.327" y="222.007" style="fill:#BBC7E2;" width="8.101" height="8.101"/>
				<rect x="458.538" y="222.007" style="fill:#DBE1F1;" width="8.101" height="8.101"/>
			</g>
			<g>
				<rect x="401.694" y="236.191" style="fill:#181E47;" width="8.101" height="8.101"/>
				<rect x="415.905" y="236.191" style="fill:#43486A;" width="8.101" height="8.101"/>
				<rect x="430.116" y="236.191" style="fill:#6F738C;" width="8.101" height="8.101"/>
				<rect x="444.327" y="236.191" style="fill:#9A9DAF;" width="8.101" height="8.101"/>
				<rect x="458.538" y="236.191" style="fill:#C5C7D1;" width="8.101" height="8.101"/>
			</g>
		</g>
		<g>
			<rect x="250.315" y="189.106" style="opacity:0.27;fill:#5D74B5;" width="65.174" height="84.946"/>
			<rect x="252.553" y="186.295" style="fill:#FFFFFF;" width="65.174" height="84.946"/>
			<rect x="252.553" y="193.71" style="fill:#6D87C6;" width="65.174" height="10.939"/>
			<g>
				<g>
					<rect x="259.51" y="211.742" style="fill:#9CAED3;" width="4.394" height="4.394"/>
					<rect x="267.245" y="212.703" style="fill:#9CAED3;" width="43.937" height="2.38"/>
				</g>
			</g>
			<g>
				<g>
					<rect x="259.51" y="222.498" style="fill:#9CAED3;" width="4.394" height="4.394"/>
					<rect x="267.245" y="223.459" style="fill:#9CAED3;" width="43.937" height="2.38"/>
				</g>
			</g>
			<g>
				<g>
					<rect x="259.51" y="233.253" style="fill:#9CAED3;" width="4.394" height="4.394"/>
					<rect x="267.245" y="234.214" style="fill:#9CAED3;" width="43.937" height="2.38"/>
				</g>
			</g>
			<g>
				<g>
					<rect x="259.51" y="244.009" style="fill:#9CAED3;" width="4.394" height="4.394"/>
					<rect x="267.245" y="244.97" style="fill:#9CAED3;" width="43.937" height="2.38"/>
				</g>
			</g>
			<g>
				<g>
					<rect x="259.51" y="254.764" style="fill:#9CAED3;" width="4.394" height="4.394"/>
					<rect x="267.245" y="255.725" style="fill:#9CAED3;" width="43.937" height="2.38"/>
				</g>
			</g>
		</g>
		<g>
			<g>
				<path style="fill:#C9D7F4;" d="M529.826,228.768h-19.99v-17.944c0-3.048,2.471-5.52,5.52-5.52h8.951
					c3.049,0,5.52,2.471,5.52,5.52V228.768z"/>
				<path style="fill:#E7028D;" d="M521.77,199.536h-3.382c-1.291,0-2.337,1.046-2.337,2.337v3.431h8.056v-3.431
					C524.107,200.582,523.061,199.536,521.77,199.536z"/>
				<rect x="509.835" y="213.061" style="fill:#E7028D;" width="19.99" height="10.691"/>
			</g>
			<g>
				<path style="fill:#C9D7F4;" d="M554.292,228.768h-19.99v-17.944c0-3.048,2.471-5.52,5.52-5.52h8.951
					c3.048,0,5.52,2.471,5.52,5.52V228.768z"/>
				<path style="fill:#FAF103;" d="M546.236,199.536h-3.381c-1.291,0-2.337,1.046-2.337,2.337v3.431h8.056v-3.431
					C548.573,200.582,547.527,199.536,546.236,199.536z"/>
				<rect x="534.301" y="213.061" style="fill:#FAF103;" width="19.99" height="10.691"/>
			</g>
			<g>
				<path style="fill:#C9D7F4;" d="M579.951,228.768h-19.99v-17.944c0-3.048,2.471-5.52,5.52-5.52h8.951
					c3.048,0,5.52,2.471,5.52,5.52V228.768z"/>
				<path style="fill:#02ADF0;" d="M571.895,199.536h-3.381c-1.291,0-2.337,1.046-2.337,2.337v3.431h8.056v-3.431
					C574.232,200.582,573.186,199.536,571.895,199.536z"/>
				<rect x="559.961" y="213.061" style="fill:#02ADF0;" width="19.99" height="10.691"/>
			</g>
			<g>
				<path style="fill:#C9D7F4;" d="M607.821,228.768h-19.99v-17.944c0-3.048,2.471-5.52,5.52-5.52h8.951
					c3.048,0,5.52,2.471,5.52,5.52V228.768z"/>
				<path style="fill:#181E47;" d="M599.765,199.536h-3.382c-1.291,0-2.337,1.046-2.337,2.337v3.431h8.056v-3.431
					C602.102,200.582,601.056,199.536,599.765,199.536z"/>
				<rect x="587.83" y="213.061" style="fill:#181E47;" width="19.99" height="10.691"/>
			</g>
			<rect x="517.578" y="228.768" style="fill:#5567AA;" width="112.522" height="4.773"/>
			<polygon style="opacity:0.27;fill:#5D74B5;" points="500.745,233.541 628.584,244.292 628.584,233.541 			"/>
			<rect x="495.812" y="228.768" style="fill:#6D87C6;" width="98.234" height="4.773"/>
		</g>
	</g>
	<g>
		<g>
			<g>
				<g>
					<path style="fill:#2D6E9E;" d="M415.033,397.001c0,0-1.58,3.742-6.653,7.152c-5.073,3.41-4.491,4.269-4.491,4.269h22.037
						c0,0,0.538-8.098-1.247-11.421C422.895,393.678,415.033,397.001,415.033,397.001z"/>
					<path style="fill:#F8A59C;" d="M415.948,389.85l-0.915,7.152c3.021,1.055,6.257,0.94,9.647,0l1.746-8.649L415.948,389.85z"/>
				</g>
				<path style="fill:#F66A35;" d="M457.46,285.761l-2.837,7.914l-13.877,38.795l-5.991,28.408l-6.766,32.132
					c-8.129,3.798-14.241-1.251-14.241-1.251l13.924-115.89l18.861-5.348l0.327,0.457l0.924,1.279L457.46,285.761z"/>
				<polygon style="fill:#494977;" points="454.623,293.675 440.746,332.47 434.754,360.878 441.427,277.782 446.859,270.979 
					447.223,270.521 447.783,272.257 				"/>
			</g>
			<g>
				<g>
					<path style="fill:#3585B7;" d="M453.703,397.001c0,0-1.58,3.742-6.653,7.152c-5.073,3.41-4.491,4.269-4.491,4.269h22.038
						c0,0,0.538-8.098-1.247-11.421C461.564,393.678,453.703,397.001,453.703,397.001z"/>
					<path style="fill:#F8A59C;" d="M452.871,390.099l0.832,6.902c3.021,1.055,6.257,0.94,9.647,0l0-8.399L452.871,390.099z"/>
				</g>
				<path style="fill:#F66A35;" d="M440.746,272.205l10.25,120.367c0,0,5.729,3.137,15.043,0l1.552-102.93l-4.44-13.769
					L440.746,272.205z"/>
			</g>
		</g>
		<g>
			<g>
				<path style="fill:#F8A59C;" d="M422.688,249.243c0,0-0.597,1.073-1.643,2.632c-2.734,4.134-8.511,11.693-14.129,11.703
					c-1.605,0-3.77-0.196-6.215-0.504c-9.314-1.176-22.51-4.041-22.51-4.041v-7.158l26.915-0.485l2.324-0.037l3.276-4.246
					l2.184-2.818l4.34,2.193l3.08,1.559L422.688,249.243z"/>
				<path style="fill:#494977;" d="M421.045,251.875c-2.734,4.134-8.511,11.693-14.129,11.703c-1.605,0-3.77-0.196-6.215-0.504
					l4.405-11.684l2.324-0.037l3.276-4.246l6.523-0.625l2.725-0.261l0.355,1.82L421.045,251.875z"/>
				<path style="fill:#F8A59C;" d="M378.187,251.876c0,0-5.214-4.235-6.838-4.544c-1.624-0.309,2.629,4.544,2.629,4.544
					s-4.329,2.027-9.741,1.1c-5.412-0.928-3.634,2.319,0,4.793c3.634,2.474,8.496,3.685,13.95,1.263
					C378.187,259.032,380.232,255.802,378.187,251.876z"/>
			</g>
			<path style="fill:#3585B7;" d="M438.114,217.585c0,0-7.447,1.204-12.159,3.2c-4.712,1.996-17.192,24.796-17.192,24.796
				s3.322,8.963,11.932,10.464l6.463-7.699l0.516,27.527c10.201,2.857,23.985,2.223,35.477,0v-28.892l4.607,7.343
				c0,0,9.896-2.606,14.303-7.595c0,0-12.05-22.285-16.873-25.195c-4.823-2.911-16.303-4.294-16.303-4.294L438.114,217.585z"/>
			<g>
				<path style="fill:#494977;" d="M443.9,261.522h-32.393c-1.428,0-2.669-0.989-2.977-2.389l-5.114-23.145h34.847L443.9,261.522z"
					/>
				<path style="fill:#D9E4F9;" d="M442.407,261.522h-30.9c-1.428,0-2.669-0.989-2.977-2.389l-5.114-23.145h33.345L442.407,261.522z
					"/>
				
					<ellipse transform="matrix(0.6656 -0.7463 0.7463 0.6656 -44.2399 399.4776)" style="fill:#FFFFFF;" cx="423.66" cy="249.106" rx="2.217" ry="2.787"/>
			</g>
			<g>
				<g>
					<path style="fill:#F8A59C;" d="M481.006,267.358c-6.766,3.322-35.697-2.1-35.697-2.1v-6.327h26.047l-1.605-3.341l-0.775-1.624
						c5.609-1.643,10.574-5.002,10.574-5.002s1.111,2.035,2.184,4.778C483.572,258.454,485.28,265.249,481.006,267.358z"/>
					<path style="fill:#494977;" d="M481.734,253.742l-11.983,1.848l-0.775-1.624c5.609-1.643,10.574-5.002,10.574-5.002
						S480.661,250.998,481.734,253.742z"/>
					<path style="fill:#F8A59C;" d="M445.313,258.927c0,0-5.498-5.507-6.329-5.11c-0.832,0.397,1.177,5.47,1.177,5.47
						s-9.029,1.746-13.003,1.58c-3.974-0.166-0.398,3.538,5.173,4.388c5.572,0.851,12.982,0,12.982,0V258.927z"/>
				</g>
			</g>
			<path style="fill:#494977;" d="M463.15,246.981l-5.692-8.544c0,0,0.272,14.744,5.692,19.51V246.981z"/>
		</g>
		<g>
			<g>
				<path style="fill:#F8A59C;" d="M448.884,217.239c0,0-1.083,5.207-6.738,5.207c-3.098,0-4.013-1.456-4.2-2.781
					c-0.168-1.092,0.168-2.081,0.168-2.081s0.756-2.23,0.429-5.338c-0.336-3.108,10.34-8.576,10.34-8.576s-0.009,0.065-0.019,0.187
					C448.781,205.116,448.296,212.48,448.884,217.239z"/>
				<path style="fill:#494977;" d="M448.884,203.67c0,0-0.009,0.065-0.019,0.187c-0.177,1.633-1.782,13.672-10.919,15.809
					c-0.168-1.092,0.168-2.081,0.168-2.081s0.756-2.23,0.429-5.338C438.207,209.139,448.884,203.67,448.884,203.67z"/>
			</g>
			<g>
				<path style="fill:#131935;" d="M429.197,199.887c0,0-4.351-3.967-2.106-9.955c0,0-2.618-3.992-0.643-7.318
					c1.974-3.327,6.461-3.618,11.451-1.123c2.062,1.031,6.114-0.113,7.513,0.097c1.986,0.299,2.997,2.717,2.997,2.717
					s3.02-1.893,4.297,1.22c1.857,4.53-2.495,14.362-2.495,14.362H429.197z"/>
				<path style="fill:#F8A59C;" d="M429.03,191.742c0,0-0.816,10.415,2.303,15.945c3.118,5.53,5.24,6.985,9.19,5.322
					c3.949-1.663,7.775-5.827,8.357-9.338c0,0,2.688-1.195,2.287-4.093c-0.401-2.897-3.202-3.41-3.493-0.166h-3.096
					c0,0-2.004-3.021-0.882-6.348C443.696,193.064,431.832,196.613,429.03,191.742z"/>
			</g>
		</g>
	</g>
</g>
</svg>
