<svg xmlns="http://www.w3.org/2000/svg" xml:space="preserve" width="1in" height="1in" version="1.1" style="shape-rendering:geometricPrecision; text-rendering:geometricPrecision; image-rendering:optimizeQuality; fill-rule:evenodd; clip-rule:evenodd" viewBox="-600 -600 3000 3000" xmlns:xlink="http://www.w3.org/1999/xlink">
 <defs>
  <style type="text/css">
   
    .fil0 {fill:#666666}
    .fil1 {fill:#E6F7DB}
   
  </style>
 </defs>
 <g id="Layer_x0020_1">
  <metadata id="CorelCorpID_0Corel-Layer"></metadata>
  <path class="fil0" d="M1007 1244c0,-4 1,-8 3,-12l151 -292 -221 0 0 519 714 0 0 -1414 -778 0 0 733c77,0 64,-8 64,116 31,0 256,-3 267,2l12 11c20,37 164,312 170,329l1 8c0,105 -86,190 -191,190 -106,0 -191,-85 -192,-190zm273 463l-853 0c-12,0 -23,-11 -23,-23l0 -131c0,-13 11,-23 23,-23l340 0 0 -26 -737 0c-12,0 -23,-10 -23,-23l0 -1458c0,-13 11,-23 23,-23l1647 0c12,0 22,10 22,23l0 1458c0,13 -10,23 -22,23l-737 0 0 26 340 0c12,0 22,10 22,23l0 131c0,12 -10,23 -22,23zm-830 -46l807 0 0 -85 -807 0 0 85zm362 -131l82 0 0 -706 -82 0 0 706zm-759 -71l714 0 0 -519 -222 0c21,39 146,276 153,295l0 0 1 5c0,1 0,2 0,4 0,105 -86,190 -191,190 -106,0 -197,-92 -191,-194l2 -8 169 -325c4,-8 12,-13 21,-13l258 0 0 -93c0,-13 10,-23 23,-23l41 0 0 -733 -778 0 0 1414zm1392 -1274l-360 0c-30,0 -30,-46 0,-46l360 0c30,0 30,46 0,46zm107 144l-574 0c-30,0 -30,-46 0,-46l574 0c30,0 30,46 0,46zm0 143l-574 0c-30,0 -30,-45 0,-45l574 0c30,0 30,45 0,45zm0 144l-574 0c-30,0 -30,-45 0,-45l574 0c30,0 30,45 0,45zm0 144l-574 0c-30,0 -30,-45 0,-45l574 0c30,0 30,45 0,45zm0 144l-255 0c-30,0 -30,-45 0,-45l255 0c30,0 30,45 0,45zm-930 -719l-361 0c-29,0 -29,-46 0,-46l361 0c29,0 29,46 0,46zm107 144l-575 0c-29,0 -29,-46 0,-46l575 0c29,0 29,46 0,46zm0 143l-575 0c-29,0 -29,-45 0,-45l575 0c29,0 29,45 0,45zm0 144l-575 0c-29,0 -29,-45 0,-45l575 0c29,0 29,45 0,45zm0 144l-575 0c-29,0 -29,-45 0,-45l575 0c29,0 29,45 0,45zm-319 144l-256 0c-29,0 -29,-45 0,-45l256 0c29,0 29,45 0,45zm98 62l-131 254 262 0 -131 -254zm-144 300c11,69 71,123 144,123 73,0 133,-54 144,-123l-288 0zm835 -300l-132 254 263 0 -131 -254zm-145 300c11,69 72,123 145,123 72,0 133,-54 144,-123l-289 0z" id="id_119" style="fill: rgb(112, 112, 112);"></path>
  <path class="fil1" d="M1219 907c20,37 164,312 170,329l1 8c0,105 -86,190 -191,190 -106,0 -191,-85 -192,-190 0,-4 1,-8 3,-12l151 -292 -221 0 0 519 714 0 0 -1414 -778 0 0 733c77,0 64,-8 64,116 31,0 256,-3 267,2l12 11zm333 -3l-255 0c-30,0 -30,-45 0,-45l255 0c30,0 30,45 0,45zm0 -144l-574 0c-30,0 -30,-45 0,-45l574 0c30,0 30,45 0,45zm0 -144l-574 0c-30,0 -30,-45 0,-45l574 0c30,0 30,45 0,45zm0 -144l-574 0c-30,0 -30,-45 0,-45l574 0c30,0 30,45 0,45zm0 -143l-574 0c-30,0 -30,-46 0,-46l574 0c30,0 30,46 0,46zm-107 -144l-360 0c-30,0 -30,-46 0,-46l360 0c30,0 30,46 0,46z" id="id_120"></path>
  <polygon class="fil1" points="1257,1576 450,1576 450,1661 1257,1661 " id="id_121"></polygon>
  <polygon class="fil1" points="894,1530 894,824 812,824 812,1530 " id="id_122"></polygon>
  <path class="fil1" d="M508 1389c73,0 133,-54 144,-123l-288 0c11,69 71,123 144,123z" id="id_123"></path>
  <polygon class="fil1" points="377,1220 639,1220 508,966 " id="id_124"></polygon>
 </g>
</svg>