<svg width="817" height="810" viewBox="0 0 817 810" fill="none" xmlns="http://www.w3.org/2000/svg">
<path d="M0 404L403 0V60.7558L60.6054 404H0Z" fill="#404040"/>
<path d="M399 802L-1.70037e-05 413L60.0038 413L399 743.5L399 802Z" fill="#404040"/>
<path d="M814.864 420.945L418 801.919L419.195 743.431L756.376 419.75L814.864 420.945Z" fill="#404040" stroke="#404040"/>
<path d="M424.832 3.99999L806.94 399.772L748.449 398.744L423.804 62.491L424.832 3.99999Z" fill="#404040" stroke="#404040"/>
<rect x="92.6066" y="400.261" width="304.981" height="130.747" transform="rotate(-45 92.6066 400.261)" stroke="#404040" stroke-width="15"/>
<rect x="287.059" y="409.607" width="304.981" height="130.747" transform="rotate(45 287.059 409.607)" stroke="#404040" stroke-width="15"/>
<rect x="420.607" y="523.261" width="304.981" height="130.747" transform="rotate(-45 420.607 523.261)" stroke="#404040" stroke-width="15"/>
<rect x="411.058" y="81.6066" width="304.981" height="130.747" transform="rotate(45 411.058 81.6066)" stroke="#404040" stroke-width="15"/>
<rect x="296.321" y="401.167" width="162.379" height="164.36" transform="rotate(-45.8436 296.321 401.167)" stroke="#404040" stroke-width="15"/>
</svg>
