<?xml version="1.0" encoding="utf-8"?>
<!-- Generator: Adobe Illustrator 27.5.0, SVG Export Plug-In . SVG Version: 6.00 Build 0)  -->
<svg version="1.1" xmlns="http://www.w3.org/2000/svg" xmlns:xlink="http://www.w3.org/1999/xlink" x="0px" y="0px"
	 viewBox="0 0 500 500" style="enable-background:new 0 0 500 500;" xml:space="preserve">
<g id="BACKGROUND">
	<g>
		<!-- <rect style="fill:#E8EAF6;" width="500" height="500"/> -->
	</g>
	<polygon style="opacity:0.42;fill:#D1C4E9;" points="500,257.581 500,148.087 458.987,148.087 458.987,118.859 402.255,118.859 
		402.255,173.245 384.09,173.245 384.09,204.255 345.755,204.255 345.755,156.9 312.868,156.9 312.868,213.355 297.347,213.355 
		297.347,194.359 275.36,194.359 275.36,230.687 217.117,230.687 217.117,130.563 149.424,98.253 149.424,190.365 116.825,190.365 
		116.825,103.245 75.398,103.245 75.398,182.345 62.703,182.345 62.703,152.485 0,152.485 0,456.368 500,456.368 	"/>
</g>
<g id="OBJECTS">
	<g>
		<g>
			<g>
				<g>
					<g>
						<path style="fill:#0097A7;" d="M397.174,421.526c-9.511-9.062-23.706-17.373-22.761-32.428
							c0.047-0.698-0.854-0.825-1.156-0.355c-0.096-0.03-0.218-0.005-0.29,0.087c-0.011,0.006-0.021,0.011-0.026,0.027
							c-1.003,1.81-1.717,3.709-2.154,5.649c-0.005,0.016,0.001,0.027-0.01,0.032c-2.085,8.975,1.294,18.897,6.53,26.26
							c3.975,5.57,9.065,10.2,14.437,14.397c3.021,2.351,6.172,4.539,9.193,6.89c2.853,2.212,5.27,4.843,7.921,7.229
							c0.109,0.104,0.223,0.218,0.342,0.316c0.026,0.659,0.047,1.307,0.047,1.966c-0.004,0.5,0.735,0.524,0.761,0.04
							c0.008-0.112,0.01-0.234,0.008-0.34c0,0,0.01-0.005,0.005-0.016c0.008-0.314,0.022-0.617,0.02-0.925
							c0.119,0.098,0.228,0.202,0.342,0.289c0.336,0.279,0.871-0.032,0.653-0.468c-0.301-0.567-0.638-1.127-1.002-1.661
							c-0.022-0.473-0.01-0.882-0.054-1.343c-0.001-0.027-0.012-0.048-0.023-0.069C409.268,437.234,404.434,428.447,397.174,421.526
							z"/>
					</g>
					<path style="fill:#0097A7;" d="M480.453,359.48c-11.189,8.87-22.424,17.779-32.329,28.106
						c-7.588,7.928-14.471,16.88-20.409,26.245c-0.496,0.384-0.975,0.773-1.459,1.178c-0.151,0.121-0.313,0.247-0.458,0.378
						c-0.287,0.22-0.552,0.454-0.834,0.685c0.11-0.502,0.194-1.004,0.277-1.506c0.214,0.074,0.469,0.047,0.652-0.064
						c0.204-0.122,0.326-0.348,0.212-0.664c-0.04-0.127-0.096-0.258-0.137-0.385l-0.005-0.01c-0.154-0.416-0.306-0.806-0.481-1.211
						c0.076-1.251,0.067-2.511-0.022-3.768c-0.025-0.579-0.081-1.167-0.169-1.739c0.004-0.043-0.002-0.08-0.019-0.111
						c-1-8.225-5.072-16.233-9.172-23.459c-8.31-14.582-15.778-29.934-16.873-46.959c-0.03-0.589-0.571-0.975-1.057-0.878
						l-0.011,0.006c-0.101,0.013-0.201,0.053-0.294,0.129c-0.089,0.061-0.166,0.142-0.244,0.25
						c-7.029,10.832-8.923,24.655-4.342,36.818c2.729,7.227,7.44,13.524,12.732,19.068c6.372,6.693,14.313,12.337,18.134,20.962
						c0.225,0.526,0.434,1.047,0.639,1.585c0.022,0.042,0.055,0.078,0.072,0.11c-0.073,0.725-0.183,1.455-0.309,2.181l-0.672,0.558
						c-0.442,0.383-0.11,0.959,0.339,1.044c-0.236,1-0.536,2.006-0.9,3.02c-0.025,0.054,0.066,0.073,0.08,0.025
						c0.01-0.032,0.015-0.048,0.03-0.07c0.039,0.073,0.14,0.087,0.197,0.017c0.33-0.444,0.654-0.871,0.994-1.294
						c0.01-0.006,0.005-0.016,0.015-0.022l0.015-0.048c0.86-1.142,1.708-2.306,2.547-3.463c0.221-0.292,0.443-0.585,0.659-0.888
						c1.365-1.101,2.753-2.161,4.157-3.215c0.01-0.006,0.01-0.006,0.01-0.006c8.512-6.387,17.54-12.08,25.286-19.405
						c4.525-4.271,8.273-9.018,11.369-14.413c2.952-5.158,6.087-9.794,9.718-14.331l0.005-0.016
						c0.934-1.181,1.909-2.358,2.917-3.525c0.217-0.25,0.221-0.521,0.104-0.741l-0.006-0.01
						C481.252,359.339,480.828,359.173,480.453,359.48z M425.387,417.555c-0.005,0.016-0.005,0.016-0.015,0.021l-0.005,0.016
						l-0.005,0.016c0.006,0.01-0.005,0.016-0.005,0.016c0.006,0.01-0.005,0.016-0.005,0.016c-0.618,1.041-1.236,2.081-1.837,3.127
						c0.377-0.913,0.7-1.824,0.965-2.745c0.085-0.018,0.169-0.063,0.252-0.133c0.25-0.213,0.5-0.427,0.755-0.63
						c0.062-0.06,0.135-0.125,0.203-0.175C425.582,417.263,425.517,417.419,425.387,417.555z"/>
					<path style="fill:#0097A7;" d="M440.736,292.969c-0.17,0.211-0.341,0.423-0.5,0.629c-5.019,6.255-9.505,12.146-12.274,19.857
						c-2.733,7.624-3.849,15.789-3.151,23.852c0.781,8.853,3.966,17.318,5.895,25.951c1.215,5.461,1.924,10.829,1.981,16.286
						l0.006,0.01c0.023,2.275-0.066,4.541-0.276,6.858c1.315-3.885,2.645-7.792,3.943-11.683c0.005-0.016,0.005-0.016,0.01-0.032
						c3.6-10.909,6.853-21.916,8.501-33.336c2.263-15.714,0.776-30.891-3.25-46.065c-0.006-0.011-0.006-0.011-0.006-0.011
						c-0.224-0.904-0.468-1.796-0.729-2.693C440.873,292.721,440.844,292.844,440.736,292.969z"/>
					<path style="fill:#0097A7;" d="M478.665,329.762c-18.984,15.213-34.205,34.508-44.411,56.59
						c-0.032,0.017-0.063,0.033-0.089,0.061l-0.01,0.005c-1.026,0.625-2.047,1.261-3.084,1.892
						c-0.099,0.066-0.183,0.137-0.244,0.224c-0.16,0.206-0.201,0.457-0.159,0.689l0.005,0.01c0.114,0.518,0.628,0.931,1.199,0.588
						c0.592-0.354,1.178-0.72,1.764-1.084c9.686-5.974,19.126-12.41,25.65-21.965c7.437-10.874,13.448-22.968,19.612-34.619
						c0.005-0.016,0.015-0.021,0.02-0.038c0.259-0.501,0.528-1.007,0.787-1.507c0.02-0.038,0.03-0.07,0.04-0.102
						C479.995,329.863,479.243,329.307,478.665,329.762z"/>
					<path style="fill:#0097A7;" d="M406.174,404.039c-7.807-12.67-21.229-21.297-23.76-36.848
						c-0.076-0.498-0.643-0.452-0.858-0.123c-0.046,0.065-0.092,0.13-0.112,0.221c-0.362,2.156-0.609,4.278-0.702,6.358
						c-0.122,1.975-0.118,3.91,0.018,5.815c0.537,8.189,3.318,15.792,8.968,22.72c8.222,10.055,19.411,17.514,25.901,28.892
						c0.212,1.084,0.323,2.182,0.242,3.221c0,0,0.005,0.01-0.005,0.016c0,0,0.006,0.011-0.005,0.016
						c-0.057,0.932-0.249,1.787-0.66,2.61c-0.228,0.484,0.458,0.94,0.723,0.45c0.682-1.223,0.954-2.537,0.98-3.883l0.095,0.178
						c0.022,0.042,0.05,0.094,0.083,0.131c0.077,0.094,0.179,0.16,0.286,0.185c0.46,0.132,1.059-0.361,0.785-0.928
						c-0.313-0.641-0.631-1.266-0.964-1.869c-0.217-0.409-0.455-0.807-0.677-1.201c-0.53-2.368-1.469-4.722-2.114-6.827
						C412.346,416.541,409.828,409.968,406.174,404.039z"/>
					<path style="fill:#0097A7;" d="M475.654,390.569c-0.053,0.001-0.111,0.018-0.168,0.063
						c-12.617,8.256-24.787,17.176-36.355,26.853c-7.386,6.153-14.966,12.395-21.359,19.634c-0.052,0.055-0.098,0.119-0.15,0.174
						c-0.01,0.006-0.01,0.006-0.015,0.022c-0.011,0.005-0.005,0.016-0.005,0.016c-0.973,1.081-1.903,2.193-2.799,3.342
						c-0.105,0.056-0.21,0.111-0.32,0.183c-0.545,1.204-1.096,2.37-1.642,3.521c0.662-0.553,1.361-1.059,2.094-1.528
						c0.078-0.055,0.157-0.11,0.241-0.155c0.623-0.397,1.267-0.78,1.928-1.131l0.619-0.329c0.042-0.022,0.094-0.05,0.142-0.062
						c4.503-2.309,9.635-3.863,13.899-5.991c6.117-3.045,12.022-6.69,17.004-11.418c8.832-8.345,14.734-19.172,22.931-28.055
						c0.016-0.022,0.031-0.043,0.052-0.054c1.357-1.473,2.778-2.9,4.297-4.244C476.389,391.093,476.056,390.49,475.654,390.569z"/>
					<g>
						<path style="fill:#22475C;" d="M405.642,461.259c1.539-2.733,3.14-5.687,4.772-8.856l-0.006-0.011
							c0.33-0.619,0.65-1.259,0.98-1.905c0.898-1.781,1.804-3.621,2.71-5.514c0.192-0.398,0.374-0.79,0.561-1.199
							c0.177-0.35,0.344-0.721,0.516-1.081c0.04-0.102,0.096-0.199,0.141-0.317l0.01-0.006c0.147-0.307,0.293-0.613,0.435-0.93
							c0.611-1.333,1.221-2.692,1.846-4.1l-0.005-0.011c0,0-0.006-0.01,0.005-0.016c0.005-0.016,0.005-0.016,0.015-0.022
							c0.04-0.102,0.091-0.209,0.141-0.317c2.282-5.206,4.613-10.976,6.853-17.249c0.01-0.006,0.005-0.016,0.015-0.022l0.015-0.048
							c0.239-0.665,0.478-1.33,0.706-2.016c0,0,0.011-0.006,0.005-0.016c0,0,0.011-0.006,0.005-0.016l0.005-0.016l0.005-0.016
							c0.01-0.005,0.01-0.005,0.015-0.021c0.03-0.096,0.07-0.198,0.099-0.295c0.264-0.745,0.517-1.485,0.769-2.251
							c2.728-8.065,5.279-16.871,7.38-26.271c0.107-0.433,0.203-0.861,0.293-1.299l0.01-0.005c0.027-0.176,0.071-0.347,0.109-0.529
							c0.033-0.166,0.066-0.331,0.105-0.486l0.01-0.005c0.807-3.804,1.552-7.697,2.195-11.683c0.005-0.016,0.005-0.016,0.01-0.032
							c1.844-11.259,2.965-23.221,3.008-35.674c0.003-0.773-0.629-1.404-1.402-1.402c-0.77,0.001-1.389,0.626-1.39,1.396
							c-0.007,3.723-0.119,7.405-0.325,11.03c-0.005,0.016,0.001,0.027,0.006,0.037c-0.566,10.267-1.832,20.126-3.579,29.459
							l0.006,0.01c-0.575,3.049-1.194,6.04-1.867,8.98c-0.043,0.224-0.106,0.459-0.159,0.689l0.005,0.01
							c-1.515,6.601-3.244,12.899-5.088,18.828l-0.123,0.402c-0.242,0.76-0.479,1.505-0.716,2.25
							c-0.208,0.622-0.406,1.238-0.599,1.838c-2.234,6.741-4.597,12.985-6.958,18.65c-0.08,0.204-0.171,0.413-0.256,0.607
							c-0.065,0.156-0.131,0.311-0.196,0.467c-0.291,0.693-0.578,1.369-0.865,2.02c0,0,0.005,0.01-0.005,0.016
							c0,0,0.006,0.01-0.005,0.016c-0.891,2.073-1.773,4.061-2.641,5.948c-0.551,1.194-1.091,2.355-1.643,3.495
							c-0.541,1.134-1.077,2.253-1.62,3.335c-0.304,0.618-0.608,1.237-0.912,1.829c-0.066,0.129-0.121,0.253-0.187,0.382
							c-2.213,4.379-4.38,8.372-6.421,11.944H405.642z"/>
					</g>
					<path style="fill:#22475C;" d="M462.546,351.366c-8.545,13.033-18.743,24.821-30.414,35.149
						c-1.266,1.12,0.47,3.085,1.734,1.967c11.833-10.472,22.198-22.447,30.862-35.661
						C465.654,351.409,463.472,349.955,462.546,351.366z"/>
					<path style="fill:#22475C;" d="M456.568,384.823c-11.15,10.679-22.299,21.357-33.448,32.036
						c-1.218,1.167,0.514,3.135,1.734,1.967c11.149-10.679,22.299-21.357,33.448-32.036
						C459.52,385.624,457.788,383.655,456.568,384.823z"/>
					<path style="fill:#22475C;" d="M453.952,410.218c-14.332,9.681-28.019,20.262-40.997,31.694
						c-1.269,1.117,0.467,3.082,1.734,1.967c12.979-11.432,26.665-22.013,40.997-31.694
						C457.083,411.241,455.332,409.286,453.952,410.218z"/>
					<path style="fill:#22475C;" d="M426.265,414.758c-0.829-9.491-5.905-17.582-11.243-25.204
						c-6.429-9.181-12.198-17.98-14.032-29.258c-0.271-1.666-2.835-1.119-2.565,0.546c1.633,10.042,6.234,18.479,12.005,26.723
						c5.941,8.486,12.338,17.074,13.27,27.739C423.847,416.98,426.41,416.422,426.265,414.758z"/>
					<path style="fill:#22475C;" d="M418.464,433.776c-3.037-8.549-7.902-16.171-13.138-23.524
						c-5.841-8.202-11.853-16.285-17.788-24.418c-0.996-1.365-2.954,0.382-1.967,1.734c5.712,7.827,11.475,15.618,17.124,23.49
						c5.357,7.465,10.335,15.194,13.427,23.896C416.686,436.542,419.022,435.347,418.464,433.776z"/>
					<path style="fill:#22475C;" d="M410.818,449.63c-3.898-9.064-10.172-16.032-17.258-22.751
						c-7.087-6.721-14.359-13.533-17.722-22.957c-0.566-1.587-2.903-0.393-2.342,1.179c3.153,8.835,9.699,15.547,16.372,21.88
						c7.509,7.127,14.456,14.171,18.609,23.828C409.145,452.362,411.483,451.176,410.818,449.63z"/>
				</g>
				<g>
					<g>
						<path style="fill:#0097A7;" d="M92.225,434.292c-14.761-1.568-33.202,0.763-42.724-13.374
							c-0.438-0.657-1.333-0.151-1.28,0.478c-0.107,0.04-0.199,0.145-0.2,0.277c-0.006,0.012-0.011,0.025-0.004,0.042
							c0.348,2.312,1.016,4.505,1.961,6.544c0.007,0.018,0.019,0.023,0.013,0.035c4.314,9.476,14.174,16.037,23.936,19.028
							c7.398,2.252,15.146,2.894,22.849,2.954c4.326,0.025,8.655-0.184,12.981-0.159c4.079,0.016,8.057,0.709,12.075,1.021
							c0.169,0.018,0.35,0.042,0.524,0.047c0.477,0.572,0.942,1.138,1.396,1.728c0.341,0.45,1.02-0.037,0.709-0.488
							c-0.07-0.106-0.152-0.217-0.228-0.31c0,0,0.006-0.012-0.007-0.018c-0.209-0.287-0.405-0.568-0.619-0.843
							c0.174,0.006,0.343,0.024,0.505,0.024c0.493,0.018,0.758-0.628,0.263-0.869c-0.66-0.301-1.348-0.57-2.041-0.798
							c-0.345-0.408-0.617-0.783-0.973-1.167c-0.019-0.023-0.043-0.034-0.068-0.046C113.877,440.035,103.495,435.492,92.225,434.292
							z"/>
					</g>
					<path style="fill:#0097A7;" d="M124.097,321.352c-3.914,15.652-7.844,31.371-9.604,47.445
						c-1.338,12.328-1.338,25.088-0.207,37.568c-0.179,0.685-0.341,1.364-0.496,2.061c-0.052,0.212-0.11,0.437-0.15,0.654
						c-0.106,0.394-0.182,0.788-0.275,1.188c-0.247-0.526-0.518-1.033-0.789-1.54c0.243-0.081,0.452-0.281,0.54-0.506
						c0.099-0.25,0.053-0.537-0.267-0.741c-0.123-0.086-0.264-0.165-0.388-0.251l-0.012-0.006c-0.424-0.267-0.829-0.511-1.265-0.754
						c-0.793-1.173-1.669-2.295-2.615-3.361c-0.421-0.502-0.877-0.99-1.35-1.442c-0.026-0.041-0.057-0.07-0.093-0.087
						c-6.561-6.68-15.724-11.049-24.373-14.699c-17.487-7.34-34.75-15.949-47.457-30.447c-0.433-0.507-1.183-0.48-1.552-0.059
						l-0.006,0.012c-0.081,0.081-0.143,0.186-0.175,0.319c-0.038,0.116-0.051,0.242-0.046,0.392
						c1.163,14.545,8.988,28.233,21.468,35.974c7.423,4.594,15.979,6.991,24.539,8.313c10.318,1.607,21.319,1.195,30.682,6.29
						c0.564,0.316,1.11,0.639,1.663,0.98c0.049,0.022,0.103,0.032,0.14,0.049c0.434,0.699,0.839,1.43,1.226,2.167l-0.217,0.963
						c-0.133,0.648,0.562,0.935,1.023,0.702c0.477,1.058,0.901,2.167,1.274,3.325c0.015,0.065,0.109,0.02,0.089-0.033
						c-0.013-0.035-0.02-0.053-0.021-0.083c0.086,0.039,0.186-0.019,0.188-0.121c-0.011-0.625-0.015-1.231-0.001-1.844
						c0.006-0.012-0.007-0.018-0.001-0.03l-0.02-0.053c-0.016-1.616-0.057-3.242-0.104-4.857c-0.003-0.415-0.006-0.829-0.021-1.249
						c0.465-1.927,0.978-3.832,1.51-5.743c0.006-0.012,0.006-0.012,0.006-0.012c3.227-11.585,7.394-22.902,9.288-34.799
						c1.112-6.943,1.201-13.777,0.258-20.742c-0.908-6.654-1.293-12.966-1.164-19.531l-0.007-0.018
						c0.022-1.701,0.086-3.428,0.185-5.167c0.022-0.373-0.161-0.619-0.417-0.736l-0.012-0.006
						C124.715,320.675,124.222,320.819,124.097,321.352z M114.765,411.304c0.007,0.018,0.007,0.018,0.001,0.03l0.007,0.018
						l0.007,0.018c0.012,0.005,0.007,0.018,0.007,0.018c0.012,0.006,0.007,0.018,0.007,0.018c0.163,1.358,0.327,2.716,0.508,4.067
						c-0.291-1.077-0.629-2.116-1.026-3.123c0.063-0.074,0.108-0.172,0.134-0.293c0.077-0.363,0.154-0.727,0.243-1.084
						c0.015-0.097,0.035-0.205,0.061-0.296C114.738,410.909,114.787,411.093,114.765,411.304z"/>
					<path style="fill:#0097A7;" d="M42.709,289.123c-0.007,0.307-0.014,0.613-0.015,0.908c-0.188,9.06-0.15,17.428,2.68,26.242
						c2.802,8.713,7.426,16.796,13.605,23.538c6.797,7.392,15.48,12.783,23.154,19.188c4.85,4.056,9.181,8.376,12.991,13.226
						l0.012,0.006c1.587,2.022,3.068,4.114,4.476,6.334c-1.498-4.386-2.998-8.802-4.514-13.182
						c-0.007-0.018-0.007-0.018-0.013-0.035c-4.288-12.252-8.955-24.353-15.344-35.719c-8.796-15.635-20.58-28.208-34.637-39.029
						c-0.012-0.006-0.012-0.006-0.012-0.006c-0.823-0.655-1.656-1.286-2.508-1.911C42.661,288.807,42.72,288.937,42.709,289.123z"/>
					<path style="fill:#0097A7;" d="M102.028,295.961c-6.529,26.704-6.875,54.472-0.81,81.284c-0.017,0.037-0.033,0.073-0.038,0.116
						l-0.005,0.012c-0.489,1.267-0.965,2.54-1.46,3.819c-0.043,0.128-0.069,0.249-0.064,0.369c-0.001,0.294,0.134,0.548,0.333,0.727
						l0.012,0.005c0.459,0.386,1.204,0.401,1.479-0.299c0.286-0.725,0.56-1.456,0.834-2.186c4.562-12.023,8.587-24.291,7.85-37.343
						c-0.827-14.863-3.772-29.837-6.274-44.521c-0.007-0.018-0.001-0.03-0.008-0.048c-0.113-0.627-0.22-1.266-0.333-1.892
						c-0.008-0.048-0.021-0.083-0.034-0.119C103.289,295.135,102.233,295.155,102.028,295.961z"/>
					<path style="fill:#0097A7;" d="M88.243,412.428c-15.72-5.973-33.686-4.458-46.663-16.646c-0.411-0.394-0.888,0.038-0.854,0.481
						c0.003,0.09,0.007,0.18,0.052,0.274c1.16,2.181,2.401,4.252,3.75,6.18c1.25,1.853,2.587,3.584,4.021,5.197
						c6.121,6.966,13.849,11.862,23.682,14.177c14.291,3.345,29.451,2.321,43.102,8.044c0.937,0.826,1.793,1.732,2.435,2.718
						c0,0,0.012,0.005,0.007,0.018c0,0,0.012,0.006,0.007,0.018c0.59,0.874,1.007,1.772,1.206,2.792
						c0.129,0.59,1.058,0.527,0.958-0.094c-0.231-1.566-0.893-2.93-1.796-4.153l0.208,0.095c0.049,0.022,0.11,0.05,0.164,0.06
						c0.133,0.031,0.271,0.02,0.383-0.032c0.503-0.198,0.701-1.052,0.064-1.372c-0.722-0.359-1.437-0.699-2.151-1.01
						c-0.476-0.217-0.964-0.41-1.434-0.61c-2.106-1.757-4.568-3.219-6.596-4.66C102.383,419.378,95.601,415.223,88.243,412.428z"/>
					<path style="fill:#0097A7;" d="M141.21,352.508c-0.047,0.037-0.087,0.093-0.108,0.172
						c-5.616,16.085-10.375,32.459-14.074,49.095c-2.379,10.599-4.871,21.412-5.612,32.3c-0.009,0.085-0.006,0.174-0.015,0.259
						c-0.006,0.012-0.006,0.012,0.001,0.03c-0.006,0.012,0.007,0.018,0.007,0.018c-0.127,1.639-0.194,3.275-0.206,4.922
						c-0.056,0.122-0.111,0.244-0.16,0.384c0.341,1.454,0.651,2.878,0.954,4.285c0.212-0.951,0.49-1.886,0.823-2.811
						c0.032-0.103,0.064-0.207,0.109-0.304c0.284-0.785,0.598-1.572,0.948-2.341l0.328-0.721c0.022-0.049,0.05-0.11,0.084-0.153
						c2.444-5.17,5.972-10.097,8.325-14.939c3.383-6.94,6.163-14.273,7.368-21.94c2.164-13.559-0.005-27.323,1.221-40.926
						c-0.001-0.03-0.002-0.06,0.009-0.084c0.201-2.254,0.491-4.511,0.926-6.762C142.23,352.472,141.516,352.161,141.21,352.508z"/>
					<g>
						<path style="fill:#22475C;" d="M78.01,343.34c0.007,0.018,0.019,0.023,0.031,0.029c6.564,9.587,12.22,19.292,17.083,28.856
							l0.012,0.006c1.585,3.127,3.091,6.233,4.513,9.331c0.116,0.23,0.222,0.485,0.333,0.727l0.012,0.005
							c3.189,6.957,5.978,13.79,8.409,20.371l0.166,0.444c0.307,0.848,0.607,1.678,0.908,2.509c0.242,0.701,0.489,1.388,0.729,2.059
							c2.641,7.577,4.825,14.798,6.611,21.499c0.069,0.238,0.132,0.488,0.188,0.72c0.049,0.184,0.097,0.369,0.146,0.553
							c0.216,0.821,0.425,1.625,0.616,2.405c0,0,0.012,0.005,0.007,0.018c0,0,0.012,0.006,0.007,0.018
							c0.63,2.471,1.209,4.859,1.73,7.147c0.329,1.448,0.644,2.861,0.935,4.262c0.297,1.389,0.586,2.761,0.845,4.103
							c0.154,0.763,0.308,1.527,0.443,2.267c0.03,0.161,0.065,0.31,0.095,0.471c0.672,3.542,1.246,6.919,1.742,10.119h3.19
							c-0.411-2.685-0.878-5.496-1.411-8.424l-0.012-0.006c-0.13-0.782-0.285-1.576-0.435-2.382
							c-0.422-2.214-0.877-4.486-1.37-6.806c-0.102-0.489-0.209-0.966-0.323-1.46c-0.082-0.436-0.188-0.883-0.282-1.324
							c-0.035-0.119-0.051-0.245-0.092-0.381l0.006-0.012c-0.08-0.376-0.159-0.751-0.251-1.132c-0.371-1.615-0.76-3.253-1.17-4.944
							l-0.012-0.006c0,0-0.012-0.005-0.007-0.018c-0.007-0.018-0.007-0.018-0.001-0.03c-0.034-0.119-0.063-0.25-0.092-0.381
							c-1.541-6.235-3.426-13.01-5.74-20.172c0.006-0.012-0.007-0.018-0.001-0.03l-0.02-0.053c-0.244-0.76-0.488-1.521-0.756-2.292
							c0,0,0.006-0.012-0.007-0.018c0,0,0.006-0.012-0.007-0.018l-0.007-0.018l-0.007-0.018c0.006-0.012,0.006-0.012-0.001-0.03
							c-0.04-0.107-0.074-0.226-0.114-0.332c-0.277-0.849-0.56-1.686-0.861-2.546c-3.111-9.104-6.89-18.75-11.482-28.618
							c-0.203-0.461-0.411-0.911-0.632-1.365l0.006-0.012c-0.097-0.177-0.175-0.36-0.266-0.549
							c-0.084-0.171-0.169-0.342-0.241-0.508l0.005-0.012c-1.897-3.963-3.91-7.964-6.08-11.978
							c-0.007-0.018-0.007-0.018-0.013-0.035c-6.102-11.356-13.337-22.845-21.876-34.03c-0.53-0.695-1.53-0.824-2.222-0.291
							c-0.689,0.531-0.813,1.517-0.284,2.208C73.262,336.575,75.698,339.95,78.01,343.34z"/>
					</g>
					<path style="fill:#22475C;" d="M102.467,326.417c1.321,17.561,0.304,35.144-3.038,52.435c-0.363,1.876,2.546,2.441,2.908,0.567
						c3.388-17.53,4.426-35.397,3.087-53.202C105.281,324.315,102.324,324.515,102.467,326.417z"/>
					<path style="fill:#22475C;" d="M120.155,360.506c-2.634,17.245-5.267,34.491-7.901,51.736c-0.288,1.884,2.62,2.455,2.908,0.567
						c2.633-17.245,5.267-34.491,7.901-51.736C123.35,359.19,120.443,358.619,120.155,360.506z"/>
					<path style="fill:#22475C;" d="M135.301,385.058c-6.172,18.544-11.145,37.449-14.899,56.629
						c-0.367,1.875,2.542,2.439,2.908,0.567c3.753-19.18,8.727-38.085,14.898-56.63
						C138.811,383.818,135.895,383.273,135.301,385.058z"/>
					<path style="fill:#22475C;" d="M113.625,408.194c-7.279-7.931-17.399-11.684-27.431-14.836
						c-12.082-3.796-23.311-7.706-32.721-16.546c-1.39-1.306-3.311,0.95-1.921,2.255c8.379,7.872,18.312,12.262,29.16,15.672
						c11.167,3.51,22.812,6.798,30.992,15.711C112.989,411.85,114.901,409.585,113.625,408.194z"/>
					<path style="fill:#22475C;" d="M119.734,430.604c-8.609-5.566-18.217-9.045-27.971-12.025
						c-10.881-3.325-21.834-6.425-32.753-9.624c-1.833-0.537-2.383,2.376-0.567,2.908c10.507,3.078,21.037,6.088,31.519,9.249
						c9.939,2.998,19.722,6.493,28.486,12.16C120.047,434.306,121.316,431.627,119.734,430.604z"/>
					<path style="fill:#22475C;" d="M123.804,450.072c-9.734-5.435-20.154-7.356-31.13-8.496c-10.977-1.14-22.184-2.234-31.688-8.36
						c-1.601-1.032-2.871,1.647-1.286,2.669c8.909,5.743,19.396,7.248,29.736,8.326c11.636,1.213,22.71,2.739,33.082,8.53
						C124.186,453.672,125.464,450.999,123.804,450.072z"/>
				</g>
				<g>
					<g>
						<path style="fill:#0097A7;" d="M209.558,442.856c3.032,3.085,6.233,6.008,9.265,9.093c2.865,2.904,5.178,6.213,7.79,9.283
							c0.007,0.009,0.015,0.018,0.022,0.027h1.763c-0.113-0.25-0.226-0.502-0.349-0.746c0.046-0.533,0.12-0.99,0.141-1.513
							c0.003-0.03-0.006-0.055-0.015-0.08c0.705-11.158-3.394-21.723-10.489-30.561c-9.296-11.573-23.951-23.007-20.64-39.727
							c0.157-0.774-0.833-1.051-1.242-0.57c-0.103-0.047-0.243-0.039-0.338,0.054c-0.013,0.005-0.025,0.009-0.033,0.027
							c-1.394,1.877-2.479,3.897-3.258,6.005c-0.008,0.017-0.003,0.03-0.016,0.034c-3.678,9.74-1.379,21.359,3.383,30.39
							C199.162,431.404,204.17,437.351,209.558,442.856z"/>
					</g>
					<path style="fill:#0097A7;" d="M320.248,371.329c-13.859,8.26-27.777,16.557-40.416,26.641
						c-9.685,7.743-18.734,16.74-26.787,26.341c-0.613,0.356-1.208,0.72-1.811,1.101c-0.187,0.112-0.387,0.23-0.57,0.355
						c-0.354,0.203-0.687,0.426-1.036,0.642c0.199-0.546,0.367-1.095,0.536-1.645c0.229,0.116,0.518,0.123,0.74,0.026
						c0.247-0.106,0.418-0.341,0.337-0.712c-0.026-0.148-0.069-0.304-0.096-0.452l-0.005-0.013c-0.11-0.489-0.223-0.948-0.357-1.428
						c0.273-1.39,0.451-2.802,0.54-4.224c0.059-0.652,0.084-1.32,0.071-1.974c0.011-0.047,0.01-0.09-0.004-0.127
						c0.111-9.362-3.251-18.941-6.762-27.648c-7.125-17.576-13.192-35.888-11.87-55.121c0.054-0.665-0.493-1.177-1.053-1.142
						l-0.013,0.005c-0.115,0-0.233,0.029-0.349,0.101c-0.109,0.055-0.208,0.134-0.31,0.244c-9.494,11.08-13.684,26.28-10.374,40.588
						c1.976,8.503,6.309,16.261,11.407,23.262c6.135,8.45,14.185,15.961,17.173,26.193c0.173,0.623,0.33,1.238,0.478,1.87
						c0.019,0.05,0.05,0.096,0.064,0.134c-0.19,0.801-0.423,1.603-0.672,2.397l-0.836,0.525c-0.553,0.363-0.267,1.058,0.223,1.221
						c-0.414,1.084-0.901,2.167-1.46,3.247c-0.036,0.056,0.063,0.091,0.086,0.04c0.016-0.035,0.024-0.052,0.044-0.074
						c0.033,0.088,0.144,0.118,0.218,0.048c0.435-0.448,0.863-0.878,1.307-1.301c0.013-0.005,0.008-0.017,0.021-0.022l0.024-0.052
						c1.134-1.151,2.259-2.327,3.371-3.498c0.292-0.294,0.584-0.589,0.871-0.896c1.694-1.029,3.407-2.008,5.137-2.979
						c0.013-0.005,0.013-0.005,0.013-0.005c10.49-5.88,21.454-10.905,31.226-17.95c5.707-4.107,10.616-8.862,14.891-14.442
						c4.079-5.335,8.284-10.059,13.03-14.596l0.008-0.017c1.222-1.183,2.491-2.356,3.795-3.512c0.281-0.247,0.326-0.55,0.228-0.815
						l-0.005-0.013C321.164,371.29,320.714,371.042,320.248,371.329z M249.88,428.134c-0.008,0.017-0.008,0.017-0.02,0.022
						l-0.008,0.017l-0.008,0.017c0.005,0.012-0.008,0.017-0.008,0.017c0.005,0.013-0.008,0.017-0.008,0.017
						c-0.848,1.073-1.696,2.146-2.526,3.228c0.558-0.966,1.057-1.938,1.491-2.93c0.098-0.007,0.198-0.045,0.302-0.112
						c0.312-0.202,0.624-0.403,0.94-0.592c0.079-0.058,0.17-0.12,0.253-0.165C250.142,427.837,250.046,428.001,249.88,428.134z"/>
					<path style="fill:#0097A7;" d="M285.718,290.89c-0.222,0.211-0.445,0.423-0.654,0.629
						c-6.558,6.255-12.464,12.182-16.719,20.403c-4.203,8.131-6.675,17.108-7.099,26.243c-0.45,10.032,1.85,19.99,2.719,29.949
						c0.544,6.299,0.534,12.417-0.219,18.538l0.005,0.013c-0.315,2.551-0.754,5.076-1.336,7.64
						c2.054-4.155,4.128-8.332,6.165-12.495c0.008-0.017,0.008-0.017,0.016-0.035c5.665-11.68,10.955-23.521,14.511-36.065
						c4.886-17.261,5.493-34.482,3.255-52.081c-0.005-0.013-0.005-0.013-0.005-0.013c-0.115-1.046-0.256-2.082-0.414-3.126
						C285.909,290.633,285.858,290.767,285.718,290.89z"/>
					<path style="fill:#0097A7;" d="M322.693,337.776c-23.54,14.198-43.475,33.532-58.212,56.737
						c-0.038,0.014-0.076,0.028-0.109,0.055l-0.012,0.005c-1.243,0.547-2.482,1.106-3.737,1.658
						c-0.121,0.059-0.225,0.126-0.307,0.214c-0.21,0.207-0.294,0.481-0.281,0.749l0.005,0.012c0.049,0.597,0.564,1.137,1.255,0.838
						c0.716-0.308,1.427-0.629,2.138-0.95c11.742-5.242,23.28-11.037,32.016-20.763c9.957-11.066,18.499-23.712,27.148-35.84
						c0.008-0.017,0.02-0.022,0.028-0.039c0.365-0.522,0.743-1.048,1.108-1.57c0.029-0.039,0.044-0.074,0.06-0.108
						C324.168,338.089,323.409,337.353,322.693,337.776z"/>
					<path style="fill:#0097A7;" d="M230.383,410.12c-6.848-15.359-20.589-27.031-21.097-44.827
						c-0.01-0.569-0.653-0.603-0.943-0.266c-0.061,0.066-0.123,0.131-0.158,0.23c-0.729,2.361-1.322,4.7-1.738,7.016
						c-0.433,2.194-0.718,4.361-0.85,6.515c-0.624,9.252,1.353,18.184,6.644,26.789c7.704,12.493,19.119,22.522,24.686,36.237
						c0.075,1.246,0.036,2.493-0.211,3.644c0,0,0.005,0.012-0.008,0.017c0,0,0.005,0.013-0.008,0.017
						c-0.204,1.035-0.546,1.964-1.13,2.824c-0.327,0.508,0.372,1.122,0.742,0.613c0.947-1.268,1.448-2.699,1.678-4.202l0.079,0.214
						c0.019,0.05,0.042,0.113,0.073,0.159c0.072,0.116,0.177,0.206,0.293,0.249c0.495,0.217,1.241-0.245,1.018-0.922
						c-0.255-0.765-0.517-1.512-0.8-2.238c-0.182-0.491-0.389-0.973-0.578-1.447c-0.239-2.732-0.938-5.508-1.346-7.963
						C235.425,425.046,233.589,417.307,230.383,410.12z"/>
					<path style="fill:#0097A7;" d="M310.22,405.432c-0.059-0.007-0.127,0.004-0.198,0.045
						c-15.367,7.359-30.333,15.529-44.738,24.635c-9.194,5.786-18.618,11.643-26.862,18.795c-0.066,0.053-0.128,0.119-0.194,0.172
						c-0.013,0.005-0.013,0.005-0.02,0.022c-0.013,0.005-0.008,0.017-0.008,0.017c-1.251,1.065-2.459,2.172-3.636,3.324
						c-0.126,0.047-0.252,0.093-0.385,0.157c-0.791,1.267-1.582,2.491-2.366,3.698c0.824-0.52,1.683-0.982,2.574-1.398
						c0.096-0.05,0.192-0.1,0.293-0.137c0.757-0.352,1.536-0.684,2.329-0.978l0.743-0.275c0.05-0.019,0.113-0.042,0.168-0.048
						c5.389-1.912,11.37-2.884,16.464-4.63c7.306-2.494,14.466-5.693,20.754-10.244c11.141-8.025,19.372-19.268,29.883-27.99
						c0.021-0.022,0.041-0.044,0.066-0.053c1.74-1.447,3.546-2.832,5.448-4.111C310.965,406.129,310.682,405.404,310.22,405.432z"/>
					<g>
						<path style="fill:#22475C;" d="M230.398,461.259c0.906-1.341,1.817-2.703,2.734-4.105c0.275-0.417,0.537-0.829,0.808-1.259
							c0.251-0.365,0.493-0.756,0.74-1.133c0.06-0.108,0.137-0.208,0.205-0.334l0.013-0.005c0.21-0.321,0.42-0.643,0.626-0.977
							c0.883-1.402,1.77-2.833,2.681-4.316l-0.005-0.013c0,0-0.005-0.013,0.008-0.017c0.008-0.017,0.008-0.017,0.02-0.022
							c0.06-0.108,0.133-0.221,0.206-0.334c3.335-5.489,6.81-11.603,10.258-18.294c0.013-0.005,0.008-0.017,0.021-0.022l0.024-0.052
							c0.367-0.709,0.735-1.418,1.092-2.152c0,0,0.013-0.005,0.008-0.017c0,0,0.013-0.005,0.008-0.017l0.008-0.017l0.008-0.017
							c0.012-0.005,0.012-0.005,0.02-0.022c0.048-0.103,0.108-0.212,0.155-0.315c0.407-0.795,0.801-1.586,1.199-2.406
							c4.263-8.625,8.438-18.106,12.198-28.32c0.184-0.469,0.356-0.934,0.523-1.411l0.012-0.005
							c0.057-0.193,0.132-0.378,0.202-0.576c0.062-0.181,0.124-0.361,0.191-0.529l0.012-0.005c1.473-4.14,2.891-8.389,4.207-12.757
							c0.008-0.017,0.008-0.017,0.016-0.035c3.751-12.335,6.797-25.565,8.708-39.506c0.119-0.866-0.494-1.666-1.361-1.781
							c-0.862-0.114-1.649,0.493-1.766,1.355c-0.565,4.169-1.242,8.276-2.015,12.306c-0.008,0.017-0.003,0.03,0.001,0.042
							c-2.17,11.415-5.064,22.268-8.417,32.46l0.005,0.013c-1.1,3.329-2.241,6.587-3.435,9.779
							c-0.081,0.245-0.188,0.499-0.281,0.749l0.005,0.012c-2.685,7.167-5.564,13.962-8.517,20.326l-0.198,0.431
							c-0.385,0.816-0.762,1.614-1.139,2.413c-0.326,0.665-0.64,1.325-0.946,1.969c-3.511,7.215-7.092,13.855-10.584,19.847
							c-0.12,0.216-0.253,0.438-0.378,0.641c-0.096,0.165-0.193,0.329-0.289,0.494c-0.43,0.732-0.852,1.447-1.271,2.133
							c0,0,0.005,0.012-0.008,0.017c0,0,0.005,0.013-0.008,0.017c-1.308,2.189-2.593,4.283-3.848,6.267
							c-0.795,1.254-1.575,2.474-2.363,3.668c-0.776,1.19-1.544,2.362-2.314,3.492c-0.433,0.647-0.866,1.295-1.295,1.912
							c-0.093,0.135-0.174,0.265-0.267,0.4c-0.006,0.009-0.013,0.018-0.019,0.027H230.398z"/>
					</g>
					<path style="fill:#22475C;" d="M301.406,359.562c-11.522,13.319-24.708,24.995-39.326,34.816
						c-1.586,1.065,0.065,3.526,1.648,2.462c14.82-9.958,28.222-21.819,39.904-35.323
						C304.88,360.074,302.654,358.119,301.406,359.562z"/>
					<path style="fill:#22475C;" d="M289.703,396.14c-14.086,10.292-28.172,20.583-42.258,30.875
						c-1.539,1.124,0.106,3.589,1.648,2.462c14.086-10.292,28.172-20.583,42.258-30.875
						C292.89,397.478,291.245,395.013,289.703,396.14z"/>
					<path style="fill:#22475C;" d="M282.972,424.192c-17.502,8.698-34.415,18.501-50.662,29.363
						c-1.588,1.062,0.062,3.522,1.648,2.462c16.248-10.862,33.161-20.665,50.662-29.363
						C286.326,425.806,284.657,423.354,282.972,424.192z"/>
					<path style="fill:#22475C;" d="M251.282,425.133c0.492-10.754-3.982-20.576-8.82-29.913
						c-5.827-11.245-10.971-21.965-11.337-34.87c-0.054-1.906-3.008-1.678-2.954,0.228c0.326,11.492,4.216,21.631,9.447,31.728
						c5.385,10.394,11.263,20.97,10.711,33.055C248.241,427.259,251.196,427.019,251.282,425.133z"/>
					<path style="fill:#22475C;" d="M239.698,445.265c-2.122-10.03-6.43-19.295-11.194-28.314
						c-5.314-10.06-10.838-20.014-16.269-30.012c-0.912-1.678-3.365-0.014-2.462,1.648c5.226,9.621,10.515,19.21,15.664,28.873
						c4.882,9.162,9.301,18.564,11.462,28.774C237.293,448.098,240.088,447.109,239.698,445.265z"/>
					<path style="fill:#22475C;" d="M208.687,433.374c6.999,8.679,13.43,17.203,16.794,27.885h3.095
						c-3.063-10.451-8.942-19.026-15.738-27.446c-6.932-8.588-14.057-17.307-16.414-28.365c-0.397-1.863-3.192-0.874-2.799,0.97
						C195.834,416.784,202.161,425.282,208.687,433.374z"/>
				</g>
				<g>
					<path style="fill:#3B474E;" d="M127.274,457.154h104.221c7.955,0,12.703-6.449,10.605-14.404L162.88,142.438
						c-2.099-7.955-10.249-14.404-18.204-14.404H40.454c-7.955,0-12.703,6.449-10.605,14.404L109.07,442.75
						C111.169,450.705,119.319,457.154,127.274,457.154z"/>
					<path style="fill:#667A84;" d="M128.252,445.077H228.31c7.955,0,12.703-6.449,10.605-14.405L162.88,142.438
						c-2.099-7.955-10.249-14.404-18.204-14.404H44.618c-7.955,0-12.703,6.449-10.605,14.405l76.035,288.235
						C112.146,438.628,120.297,445.077,128.252,445.077z"/>
					<path style="fill:#EAEDEF;" d="M47.132,133.714h103.283c4.548,0,9.208,3.687,10.408,8.235l79.478,301.288
						c1.2,4.548-1.515,8.235-6.063,8.235H130.955c-4.548,0-9.208-3.687-10.408-8.235L41.069,141.949
						C39.869,137.401,42.584,133.714,47.132,133.714z"/>
					<path style="fill:#3B474E;" d="M107.532,136.511c-4.033,0.074-1.024,8.635,3.01,8.561
						C114.575,144.997,111.567,136.437,107.532,136.511z"/>
					
						<text transform="matrix(0.8926 -0.0026 0.3134 0.9496 95.5372 165.6483)" style="fill:#00CFA1; font-family:'Montserrat-SemiBold'; font-size:16.13px;">C O D</text>
				</g>
			</g>
			<rect y="456.368" style="fill:#3B474E;" width="500" height="5.791"/>
		</g>
		<g>
			<g>
				<g>
					<g>
						<g>
							<path style="fill:#FFC9B9;" d="M374.944,249.49l-7,18.911l-26.56-5.311l-1.219,4.66l-0.374,1.43l28.374,12.346
								c5.636,2.452,11.747-2.32,10.733-8.382L374.944,249.49z"/>
							<path style="fill:#FDA98F;" d="M378.898,273.145l-3.954-23.654l-3.398,9.18c1.842,6.092,3.17,12.2,1.937,18.731
								c0.621-0.091,1.246-0.201,1.877-0.346c-0.631,0.146-1.255,0.255-1.877,0.346c-0.041,0.218-0.077,0.435-0.123,0.654
								c0.047-0.219,0.082-0.436,0.123-0.654c-11.869,1.738-22.248-5.722-33.319-9.65l0,0l-0.374,1.43l28.374,12.346
								C373.801,283.979,379.911,279.207,378.898,273.145z"/>
							<polygon style="fill:#FDA98F;" points="330.423,257.757 325.282,261.013 330.423,267.706 334.661,269.619 339.791,269.181 
								341.383,263.091 							"/>
						</g>
						<path style="fill:#FFC9B9;" d="M340.164,267.751l-3.005-1.333c-1.951-1.032-3.441-2.762-4.171-4.845l-0.584-1.665
							l-5.803-2.692c-0.378-0.175-0.575-0.597-0.468-1l0,0c0.125-0.466,0.609-0.738,1.072-0.601l7.691,1.052
							c1.878,0.257,3.533,1.363,4.489,3l1.999,3.425L340.164,267.751z"/>
					</g>
					<g>
						<path style="fill:#BF360C;" d="M352.434,183.247c-0.585,6.824,3.903,13.765,10.366,16.031
							c3.233,1.134,7.119,1.376,9.251,4.058c2.006,2.523,1.572,6.113,1.37,9.329c-0.203,3.216,0.289,7.067,3.144,8.563
							c3.608,1.89,8.032-1.453,11.986-0.476c3.904,0.964,5.595,5.612,5.783,9.629c0.188,4.016-0.431,8.29,1.417,11.861
							c1.803,3.486,5.692,5.527,9.587,6.014c3.895,0.487,7.828-0.364,11.61-1.413c4.623-1.283,9.234-2.908,13.133-5.703
							c3.9-2.795,7.051-6.905,7.812-11.643c0.761-4.737-1.268-10.037-5.474-12.345c-2.461-1.351-5.657-1.799-7.178-4.159
							c-1.611-2.5-0.482-5.782,0.628-8.541c1.11-2.759,2.097-6.137,0.295-8.503c-3.273-4.299-11.619-0.374-14.888-4.676
							c-1.268-1.669-1.189-3.952-1.308-6.044c-0.577-10.144-7.718-19.608-17.314-22.946c-6.362-2.213-13.548-1.642-19.622,1.195
							c-3.101,1.449-5.197,4.021-8.056,5.658c-2.744,1.57-5.446,2.039-7.83,4.387C354.531,176.099,352.749,179.568,352.434,183.247z
							"/>
						<path style="fill:#92360C;" d="M432.42,217.152c-2.461-1.351-5.657-1.799-7.178-4.159c-1.611-2.5-0.482-5.782,0.628-8.541
							c1.11-2.759,2.097-6.137,0.295-8.503c-3.273-4.299-11.619-0.374-14.888-4.676c-1.268-1.669-1.189-3.952-1.308-6.044
							c-0.574-10.089-7.643-19.501-17.162-22.886c6.276,4.037,11.048,10.639,12.731,17.886c0.574,2.471,0.713,5.006,0.656,7.537
							c-0.081,3.548-2.322,8.023,2.223,9.679c3.197,1.164,6.685,0.739,9.137,3.626c1.436,1.69,1.406,3.731,0.779,5.752
							c-0.612,1.974-0.998,3.682-0.285,5.703c0.688,1.951,2.065,3.697,3.445,5.209c1.265,1.385,2.525,2.829,2.583,4.806
							c0.057,1.925-0.954,3.888-2.249,5.257c-2.455,2.595-6.37,3.845-9.816,4.365c-3.236,0.488-6.458,0.135-8.997-2.089
							c-2.374-2.08-3.585-5.255-4.707-8.114c-0.639-1.628-1.204-3.226-2.545-4.423c-1.16-1.036-2.641-1.58-4.128-1.952
							c-3.498-0.875-7.558-0.478-10.81-2.134c-2.906-1.48-3.42-4.597-3.285-7.556c0.129-2.833,0.79-6.291-1.773-8.28
							c-1.361-1.056-3.097-1.478-4.745-1.834c-1.719-0.373-3.435-0.782-5.11-1.324c-3.657-1.184-7.142-3.016-9.467-6.164
							c-2.058-2.787-2.685-6.211-2.44-9.618c0.025-0.342,0.063-0.689,0.104-1.034c-0.909,1.742-1.507,3.642-1.676,5.608
							c-0.585,6.824,3.903,13.765,10.366,16.031c3.233,1.134,7.119,1.376,9.251,4.058c2.006,2.522,1.573,6.113,1.37,9.329
							c-0.203,3.216,0.289,7.067,3.144,8.563c3.608,1.89,8.032-1.453,11.986-0.476c3.904,0.964,5.595,5.612,5.783,9.629
							c0.188,4.016-0.431,8.29,1.417,11.861c1.803,3.486,5.692,5.527,9.587,6.014c3.895,0.487,7.828-0.364,11.61-1.413
							c4.623-1.283,9.234-2.908,13.133-5.703s7.051-6.905,7.812-11.643C438.655,224.76,436.626,219.46,432.42,217.152z"/>
					</g>
					<g>
						<g>
							<polygon style="fill:#FFC9B9;" points="414.951,447.496 408.087,448.838 405.299,429.248 416.95,427.544 							"/>
							<polygon style="fill:#263238;" points="384.07,302.445 413.695,300.953 415.82,324.651 412.094,367.074 418.707,381.075 
								416.95,427.544 405.299,429.248 396.35,375.728 							"/>
							<polygon style="fill:#FFFFFF;" points="415.564,445.677 418.888,455.753 385.309,456.252 385.614,454.019 406.609,444.497 
								409.442,446.71 							"/>
						</g>
						<g>
							<polygon style="fill:#FFC9B9;" points="432.724,446.944 425.427,448.37 422.129,427.544 434.217,426.492 							"/>
							<path style="fill:#37474F;" d="M429.469,301.431c-9.246,0.745-18.469,1.783-27.649,3.115l10.89,66.733l9.418,56.265
								l12.088-1.052l1.494-33.854c0.497-10.141-2.508-20.145-8.51-28.334l0,0l7.333-24.358c1.474-2.499,4.036-17.66,2.369-32.371
								C436.48,303.85,433.207,301.129,429.469,301.431z"/>
							<polygon style="fill:#FFFFFF;" points="433.375,445.009 436.91,455.721 401.212,456.252 401.536,453.878 423.855,443.755 
								426.868,446.108 							"/>
							<path style="fill:#263238;" d="M428.997,351.543c-2.758,7.508-5.517,15.015-8.275,22.523
								c-0.456,1.242,1.476,1.599,1.928,0.368c2.758-7.508,5.517-15.015,8.275-22.523
								C431.382,350.669,429.449,350.312,428.997,351.543z"/>
							<path style="fill:#263238;" d="M428.202,368.181c-0.547-0.145-1.056,0.139-1.303,0.661l-2.872,6.053
								c-0.231,0.487,0.077,1.122,0.562,1.251c0.547,0.145,1.055-0.139,1.303-0.661c0.957-2.018,1.914-4.036,2.872-6.053
								C428.995,368.945,428.687,368.31,428.202,368.181z"/>
						</g>
					</g>
					<path style="fill:#CFD8DC;" d="M432.193,308.487c-12.493,9.559-29.141,13.25-44.503,9.859c-1.246-0.275-1.855,1.632-0.594,1.91
						c16.093,3.552,33.344-0.265,46.433-10.28C434.553,309.193,433.209,307.71,432.193,308.487z"/>
					<path style="fill:#CFD8DC;" d="M394.716,260.165c-0.823-2.363-2.18-4.509-4.051-6.184c-0.388-0.348-0.998-0.483-1.412-0.077
						c-0.352,0.345-0.493,1.039-0.077,1.413c0.421,0.377,0.819,0.776,1.191,1.201c0.186,0.212,0.365,0.431,0.537,0.654
						c0.086,0.112,0.17,0.225,0.253,0.339c0.037,0.051,0.072,0.103,0.109,0.153c0.01,0.014,0.006,0.007,0.01,0.013
						c0.01,0.015,0.01,0.015,0.029,0.045c0.302,0.458,0.581,0.931,0.828,1.421c0.127,0.252,0.247,0.508,0.358,0.767
						c0.056,0.13,0.109,0.26,0.161,0.391c0.023,0.058,0.045,0.117,0.067,0.176c0.011,0.029,0.018,0.046,0.024,0.061
						c0.005,0.015,0.009,0.027,0.018,0.052c0.172,0.493,0.625,0.913,1.19,0.764C394.424,261.231,394.899,260.693,394.716,260.165z"
						/>
					<g>
						<path style="fill:#FFFFFF;" d="M384.686,217.063c3.27,0.854,13.073-7.343,16.516-7.257c3.443,0.086,12.48-0.449,15.08,8.029
							c2.203,7.186-1.963,16.123-4.19,23.454c-1.177,3.873-2.629,7.728-2.96,11.695c-0.5,6.098,1.746,11.954,5.117,16.767
							c3.372,4.804,18.187,18.645,23.558,38.061c-11.936,13.947-37.105,18.118-53.737,13.349
							c-1.022-13.151-8.143-50.173-8.402-63.607c-0.016-0.804-0.326-1.35-0.821-1.794c-4.353-3.896-6.688-9.572-5.225-15.228
							C371.954,231.515,375.948,226.709,384.686,217.063z"/>
						<path style="opacity:0.63;fill:#CFD8DC;" d="M374.846,255.761c0.495,0.443,0.805,0.99,0.821,1.794
							c0.092,4.762,0.811,10.532,1.739,16.574c1.329,0.375,2.697,0.708,4.086,1.012c2.01-0.936,3.997-1.93,5.925-2.964
							c3.763-2.017,7.301-4.442,10.505-7.265c3.286-2.896,5.845-6.21,8.227-9.868c1.148-1.762,2.278-3.537,3.474-5.264
							c0.61-2.854,1.609-5.668,2.467-8.491l0.037-0.121c0.889-2.941-2.71-5.154-4.975-3.078
							c-9.677,8.866-22.933,13.732-36.749,11.593C371.385,251.954,372.916,254.033,374.846,255.761z"/>
						<path style="fill:#CFD8DC;" d="M399.694,214.881c-0.99,2.365-2.878,4.326-5.266,5.297c-2.683,1.09-5.75,0.874-8.286-0.501
							c-0.567-0.307-1.037,0.576-0.471,0.882c2.753,1.493,6.142,1.758,9.059,0.572c2.621-1.066,4.753-3.17,5.846-5.78
							C400.824,214.762,399.943,214.288,399.694,214.881z"/>
					</g>
					<g>
						
							<rect x="316.654" y="231.2" transform="matrix(0.458 0.889 -0.889 0.458 390.1774 -163.8367)" style="fill:#7CB342;" width="25.577" height="13.69"/>
						
							<rect x="318.508" y="232.566" transform="matrix(0.458 0.889 -0.889 0.458 390.1754 -163.8369)" style="fill:none;stroke:#F2E0BE;stroke-miterlimit:10;" width="21.868" height="10.958"/>
						<path style="fill:#F2E0BE;" d="M326.456,239.428L326.456,239.428c-0.86-1.669-0.204-3.719,1.465-4.579l0,0
							c1.669-0.86,3.719-0.204,4.579,1.465l0,0c0.86,1.669,0.204,3.719-1.465,4.579l0,0
							C329.366,241.753,327.316,241.097,326.456,239.428z"/>
						<g>
							<g>
								<g>
									<path style="fill:#FFC9B9;" d="M342.909,241.723l-0.213-0.1c0,0-2.456-1.154-4.398-2.067
										c-0.999-0.469-2.176,0.105-2.42,1.181c-0.22,0.973-0.503,1.949-0.541,2.226c-0.388,2.805-0.29,5.655,0.361,8.413
										c0.353,1.497,0.687,3.487,2.264,4.172c0.252,0.109,3.189,1.309,3.17,1.378c0-0.001,0.515-1.804,0.515-1.804l1.296-4.542
										L342.909,241.723z"/>
								</g>
							</g>
						</g>
						<polygon style="fill:#FFC9B9;" points="363.43,252.845 341.968,249.315 341.132,256.928 377.922,269.181 379.072,261.388 
							379.932,255.559 						"/>
						<path style="fill:#FFC9B9;" d="M379.932,255.559l-16.501-2.714l-21.462-3.53l-0.662,6.022
							c12.169,3.589,24.358,9.235,37.218,9.759l0.547-3.708L379.932,255.559z"/>
						<path style="fill:#FFC9B9;" d="M382.329,265.091c8.589-8.527,17.109-16.281,23.827-26.727
							c-3.04-1.889-5.587-4.761-8.631-6.641l-17.594,23.836l-1.407,9.537C379.786,265.148,381.055,265.142,382.329,265.091z"/>
						<path style="fill:#FDA98F;" d="M398.606,230.26l-1.08,1.464c3.044,1.88,5.592,4.752,8.631,6.641
							c-6.718,10.446-15.238,18.2-23.827,26.727c-1.274,0.05-2.543,0.057-3.805,0.005c-12.86-0.524-23.413-4.095-35.582-7.684
							l-1.81-0.485l36.79,12.253c11.999,3.996,32.227-31.136,32.227-31.136L398.606,230.26z"/>
						<path style="fill:#CFD8DC;" d="M410.91,237.373c-4.01-2.661-8.02-5.321-12.03-7.981c-0.45-0.299-1.116-0.032-1.353,0.412
							c-0.275,0.515-0.04,1.054,0.412,1.353l12.03,7.981c0.45,0.299,1.116,0.032,1.353-0.412
							C411.596,238.211,411.361,237.673,410.91,237.373z"/>
					</g>
					<g>
						<g>
							<path style="fill:#FFC9B9;" d="M373.385,182.356c5.671,2.795,13.584,7.215,19.593,3.206c1.084-0.723,1.872-1.59,2.42-2.53
								c0.678-0.058,1.368,0.091,2.076,0.593c1.893,1.342,2.695,4.038,1.947,6.217c-0.798,2.322-2.662,3.122-5.097,3.446
								c0.456,6.679,2.344,11.703,4.356,18.451c-0.743,3.443-1.992,5.435-4.733,6.735c-2.741,1.3-3.4,1.258-6.254,0.231
								c-0.624-3.371-1.377-7.947-2.529-11.175c-2.136,1.424-7.213,2.98-9.516,2.914c-0.869-0.025-10.075-14.145-10.174-33.609
								C367.77,179.056,370.444,180.906,373.385,182.356z"/>
							<path style="fill:#FDA98F;" d="M380.215,209.62c1.909-0.566,3.832-1.345,4.949-2.09c1.002,2.808,1.701,6.633,2.277,9.8
								l-0.269-12.15L380.215,209.62z"/>
							<path style="fill:#FDA98F;" d="M393.392,186.357c0.638-0.807,1.448-1.397,2.345-1.774c0.488-0.205,0.74,0.653,0.261,0.865
								c-0.796,0.354-1.482,0.907-2.033,1.644c-0.261,0.349-0.48,0.732-0.658,1.142c-0.161,0.373-0.209,0.675-0.508,0.927
								c-0.16,0.135-0.422,0.025-0.479-0.189C392.092,188.104,392.906,186.973,393.392,186.357z"/>
						</g>
						<path style="fill:#472C1F;" d="M378.051,188.628c-0.076-0.379-0.185-0.76-0.08-1.142c0.151-0.549,0.812-0.755,1.242-0.375
							c0.296,0.261,0.416,0.639,0.559,0.997c0.131,0.328,0.23,0.641,0.296,0.989c0.218,1.139-1.281,1.601-1.725,0.52
							C378.208,189.289,378.121,188.976,378.051,188.628z"/>
						<path style="fill:#472C1F;" d="M368.411,189.786c-0.063-0.381-0.16-0.766-0.042-1.144c0.169-0.544,0.837-0.728,1.254-0.333
							c0.287,0.271,0.395,0.653,0.526,1.016c0.12,0.332,0.208,0.648,0.263,0.998c0.18,1.145-1.334,1.557-1.741,0.462
							C368.547,190.451,368.469,190.136,368.411,189.786z"/>
						<g>
							<path style="fill:#FFFFFF;" d="M375.562,201.988c2.395-0.841,4.657-2.055,6.688-3.578c-1.538,2.115-3.851,3.279-6.267,4.073
								C375.852,202.31,375.714,202.143,375.562,201.988z"/>
							<path style="fill:#B51C1C;" d="M382.25,198.41c0.102-0.076,0.206-0.15,0.306-0.228c0.034,0.473,0.017,0.956-0.044,1.433
								c-0.138,1.082-0.523,2.132-1.219,2.951c-1.002,1.18-2.47,1.957-4.012,2.097c-0.263-0.477-0.517-0.972-0.802-1.444
								c-0.154-0.255-0.318-0.501-0.496-0.736C378.399,201.688,380.712,200.525,382.25,198.41z"/>
						</g>
						<path style="fill:#BF360C;" d="M374.928,181.415c2.473-0.707,4.983-0.486,7.296,0.643c0.551,0.269,0.107,1.113-0.445,0.843
							c-2.081-1.016-4.331-1.215-6.558-0.579C374.632,182.491,374.338,181.584,374.928,181.415z"/>
						<path style="fill:#BF360C;" d="M366.497,184.798c0.477-0.962,1.299-1.673,2.311-2.023c0.581-0.201,0.872,0.706,0.293,0.907
							c-0.785,0.272-1.393,0.819-1.761,1.561C367.068,185.793,366.224,185.349,366.497,184.798z"/>
						<path style="fill:#472C1F;" d="M374.152,199.187c-0.563-0.34-1.268-0.272-1.897-0.355c-0.359-0.048-0.884-0.19-1.036-0.557
							c-0.098-0.238,0.046-0.516,0.134-0.737c0.132-0.332,0.267-0.663,0.398-0.996c0.263-0.666,0.544-1.324,0.73-2.017
							c0.126-0.467-0.546-0.738-0.783-0.317c-0.401,0.712-0.697,1.481-1.012,2.234c-0.287,0.688-0.741,1.461-0.421,2.214
							c0.249,0.586,0.837,0.943,1.433,1.1c0.348,0.091,0.716,0.106,1.073,0.134c0.353,0.027,0.676,0.103,1.019,0.188
							C374.33,200.212,374.622,199.471,374.152,199.187z"/>
					</g>
				</g>
				<path style="fill:#FFC9B9;" d="M342.372,240.941c-3.515-2.38-7.468-4.08-11.607-5.019c-1.257-0.285-1.712,1.663-0.456,1.948
					c3.984,0.904,7.739,2.546,11.121,4.837c0.448,0.303,1.118,0.029,1.353-0.412C343.061,241.775,342.821,241.245,342.372,240.941z"
					/>
				<path style="fill:#FFC9B9;" d="M337.453,241.735c-1.89-1.684-4.281-2.803-6.798-3.11c-0.517-0.063-1.095,0.176-1.202,0.746
					c-0.091,0.485,0.191,1.134,0.746,1.202c0.56,0.068,1.113,0.173,1.657,0.321c0.613,0.167,0.95,0.288,1.495,0.534
					c1.079,0.488,1.909,1.031,2.744,1.775c0.391,0.348,1.059,0.362,1.413-0.055C337.853,242.741,337.87,242.107,337.453,241.735z"/>
				<path style="fill:#FFC9B9;" d="M336.728,244.551c-1.638-1.563-3.679-2.677-5.875-3.222c-0.508-0.126-1.104,0.22-1.202,0.746
					c-0.101,0.539,0.202,1.067,0.746,1.202c0.25,0.062,0.497,0.13,0.743,0.208c0.115,0.036,0.23,0.074,0.344,0.114
					c0.057,0.02,0.114,0.041,0.171,0.061c0.002,0.001,0.001,0,0.002,0.001c0.006,0.002,0.001,0.001,0.01,0.004
					c0.475,0.201,0.943,0.406,1.396,0.655c0.212,0.117,0.421,0.24,0.625,0.369c0.102,0.065,0.204,0.131,0.304,0.198
					c0.053,0.036,0.106,0.072,0.158,0.109c0.011,0.008,0.02,0.015,0.041,0.03c0.413,0.308,0.806,0.638,1.179,0.993
					c0.379,0.362,1.067,0.353,1.413-0.055C337.138,245.546,337.132,244.937,336.728,244.551z"/>
				<path style="fill:#FFC9B9;" d="M337.328,249.031c-1.679-2.023-3.798-3.52-6.267-4.424c-0.493-0.18-1.111,0.259-1.202,0.746
					c-0.11,0.587,0.218,1.009,0.746,1.202c0.03,0.011,0.036,0.013,0.047,0.017c0.005,0.002,0.001,0.001,0.013,0.006
					c0.057,0.023,0.114,0.045,0.171,0.068c0.128,0.052,0.255,0.106,0.381,0.162c0.252,0.112,0.501,0.233,0.746,0.361
					c0.504,0.264,0.986,0.563,1.455,0.885c0.004,0.003,0.002,0.001,0.005,0.003c0.006,0.004,0.002,0.002,0.011,0.009
					c0.061,0.047,0.124,0.091,0.185,0.138c0.11,0.084,0.219,0.169,0.326,0.256c0.215,0.174,0.424,0.354,0.628,0.542
					c0.203,0.187,0.401,0.38,0.592,0.58c0.096,0.1,0.19,0.201,0.282,0.304c0.041,0.046,0.082,0.092,0.122,0.138
					c0.008,0.009,0.2,0.236,0.074,0.085c0.333,0.401,0.901,0.642,1.381,0.305C337.421,250.133,337.685,249.461,337.328,249.031z"/>
			</g>
			<g>
				<g>
					<polygon style="fill:#FDA98F;" points="296.786,266.686 309.538,267.511 317.197,261.6 319.3,261.6 314.705,256.254 
						308.693,255.24 296.786,263.487 					"/>
					<path style="fill:#FFC9B9;" d="M296.786,263.487l4.391-1.005c2.934-0.672,5.506-2.425,7.203-4.911l1.357-1.988l8.594-1.5
						c0.56-0.098,0.969-0.584,0.969-1.152l0,0c0-0.658-0.543-1.187-1.201-1.169l-10.501-1.326c-2.564-0.324-5.135,0.55-6.97,2.369
						l-3.841,3.806V263.487z"/>
				</g>
				<polygon style="fill:#FFC9B9;" points="240.736,442.379 227.783,442.379 227.702,437.686 240.837,437.686 				"/>
				<polygon style="fill:#FF1744;" points="263.215,452.163 241.081,442.379 226.776,442.379 224.432,454.461 264.512,454.461 				
					"/>
				<polygon style="fill:#FFFFFF;" points="224.432,454.461 224.061,456.368 265.589,456.368 264.512,454.461 				"/>
				<path style="fill:#263238;" d="M178.119,349.868v-52.217l6.901,2.649c4.216,1.619,6.337,6.336,4.749,10.563l0,0
					c-1.091,2.904-0.182,6.181,2.25,8.107l52.555,41.638c2.402,1.903,3.727,4.857,3.552,7.917l-3.977,69.161h-21.236l-2.249-59.299
					L178.119,349.868z"/>
				<path style="fill:#37474F;" d="M180.03,300.953l0.179,18.153l33.399,37.404c2.508,2.809,3.866,6.458,3.804,10.223l0,0
					c-0.13,7.911-4.972,14.98-12.302,17.958L152.84,405.93l-7.19-22.803l44.014-16.91l-23.624-9.659
					c-18.351-7.503-30.341-25.359-30.341-45.184v0L180.03,300.953z"/>
				<path style="fill:#263238;" d="M202.948,367.075c-7.509-0.558-14.837-2.713-21.484-6.239c-1.14-0.605-2.048,1.178-0.911,1.781
					c6.982,3.703,14.631,5.87,22.507,6.455C204.34,369.167,204.216,367.169,202.948,367.075z"/>
				<path style="fill:#263238;" d="M195.737,370.349l-5.012-3.076c-0.446-0.274-1.11-0.155-1.378,0.317
					c-0.266,0.468-0.159,1.086,0.317,1.378l5.012,3.076c0.446,0.274,1.11,0.155,1.378-0.317
					C196.32,371.259,196.214,370.641,195.737,370.349z"/>
				<g>
					<path style="fill:#FF1744;" d="M216.863,243.976c2.677-4.576,5.372-8.893,9.968-6.105c7.15,4.337,13.754,7.327,22.215,10.496
						l-8.4,18.349c-8.426-2.237-18.224-3.522-25.883-8.168C210.188,255.772,214.128,248.651,216.863,243.976z"/>
					<g>
						<path style="fill:#FFC9B9;" d="M258.382,253.655l-8.96-4.164c-1.983,6.059-4.904,11.595-9.016,16.351l17.076,5.331
							l39.305-4.486V256.61L258.382,253.655z"/>
						<path style="fill:#FFC9B9;" d="M255.818,267.79l40.969-3.912v-7.268l-38.405-2.955l-8.088-3.759
							c-0.281,5.361-1.789,10.109-4.536,14.236L255.818,267.79z"/>
						<path style="fill:#FDA98F;" d="M255.818,267.79l-10.061-3.659c2.747-4.128,4.256-8.875,4.536-14.236l-1.248-0.58l-0.394-0.17
							c-1.376,5.97-3.739,11.893-8.123,16.734l16.954,5.293l39.305-4.486v-2.808L255.818,267.79z"/>
					</g>
					<path style="fill:#D50000;" d="M248.354,248.43c-1.85,6.142-4.665,11.923-8.353,17.172c-0.741,1.054,0.944,2.132,1.683,1.08
						c3.782-5.383,6.683-11.358,8.58-17.658C250.635,247.794,248.726,247.193,248.354,248.43z"/>
				</g>
				<g>
					<path style="fill:#FF1744;" d="M190.84,306.019c0.561-4.003,1.851-7.88,3.336-11.626c5.981-15.087,14.517-29.733,25.607-41.63
						c3.595-3.856,7.52-7.372,11.758-10.464c-11.329-11.664-29.622-21.925-47.517-25.786c-7.436-1.604-14.916,2.522-17.574,9.649
						l-13.611,16.833c-19.373,23.96-25.034,56.211-14.978,85.337l0,0c22.962-15.62,47.691-17.676,52.964-15.883
						C190.455,310.342,190.541,308.147,190.84,306.019z"/>
					<path style="fill:#D31744;" d="M169.35,301.14c-8.232,0.919-16.317,2.942-23.924,6.4c-6.874-30.934,9.878-58.911,29.322-82.034
						c2.777-3.302-1.991-7.732-4.982-4.622c-1.419,1.475-2.561,3.255-3.315,5.277l-13.611,16.833
						c-19.373,23.96-25.034,56.211-14.978,85.337l0,0c2.04-1.387,4.093-2.663,6.146-3.843c0.436-2.382,1.196-4.707,2.418-6.948
						c4.287-9.288,14.189-10.919,23.506-13.282C171.845,303.773,171.312,300.921,169.35,301.14z"/>
					<path style="fill:#D31744;" d="M187.141,305.596c-6.25-0.318-12.458,0.754-18.263,3.08c-1.192,0.477-0.228,2.231,0.957,1.757
						c5.468-2.191,11.368-3.137,17.245-2.838C188.367,307.66,188.427,305.661,187.141,305.596z"/>
					<path style="fill:#D50000;" d="M214.237,257.977c-10.568,11.493-18.365,25.437-22.572,40.479
						c-1.197,4.279-2.087,8.636-2.703,13.035c-0.178,1.273,1.821,1.35,1.999,0.083c2.104-15.038,7.818-29.509,16.485-41.972
						c2.476-3.56,5.191-6.945,8.126-10.137C216.438,258.525,215.108,257.029,214.237,257.977z"/>
				</g>
				<g>
					<path style="fill:#FFC9B9;" d="M150.078,287.682c0,0,6.626,2.953,11.073,5.358c1.385,4.973-2.294,9.686-6.393,11.81
						c-3.322,1.721-7.557,1.523-10.704-0.5c-3.147-2.023-5.085-5.794-4.898-9.53L150.078,287.682z"/>
					<path style="fill:#FFC9B9;" d="M170.017,306.412c-0.901-5.793-4.428-10.775-9.51-13.667c-2.075-1.18-3.957,2.011-1.882,3.191
						c4.328,2.463,7.053,6.541,7.816,11.446C166.806,309.732,170.38,308.75,170.017,306.412z"/>
					<path style="fill:#FFC9B9;" d="M165.794,309.238c-0.901-5.793-4.428-10.775-9.51-13.667c-2.075-1.18-3.957,2.011-1.882,3.191
						c4.329,2.463,7.053,6.541,7.816,11.446C162.584,312.557,166.158,311.575,165.794,309.238z"/>
					<path style="fill:#FFC9B9;" d="M160.438,310.733c-0.901-5.792-4.428-10.775-9.509-13.667c-2.075-1.18-3.957,2.011-1.882,3.191
						c4.328,2.463,7.053,6.541,7.816,11.446C157.227,314.053,160.801,313.071,160.438,310.733z"/>
					<path style="fill:#FFC9B9;" d="M154.861,310.711c-0.901-5.793-4.427-10.775-9.509-13.667c-2.075-1.18-3.957,2.011-1.882,3.191
						c4.328,2.463,7.053,6.541,7.816,11.446C151.65,314.03,155.224,313.048,154.861,310.711z"/>
					<g>
						<path style="fill:#FFC9B9;" d="M150.078,287.682l-13.511-38.708l38.78-13.807l-8.147-17.329l-50.119,16.497
							c-3.109,1.023-4.613,4.543-3.203,7.497l25.28,52.987L150.078,287.682z"/>
						<path style="fill:#FDA98F;" d="M175.347,235.168l-8.147-17.329l-14.02,4.615c-0.404,5.522-0.587,10.99,0.958,16.028
							c-7.033,3.899-15.455,6.855-22.989,9.026c3.028,2.06,5.402,4.486,7.419,7.201l-2.001-5.734L175.347,235.168z"/>
						<path style="fill:#FFC9B9;" d="M131.149,247.508c7.534-2.171,15.955-5.127,22.989-9.026
							c-1.545-5.038-1.362-10.506-0.958-16.028l-36.1,11.882c-3.109,1.023-4.613,4.543-3.203,7.497l25.28,52.987l10.922-7.137
							l-11.51-32.974C136.552,251.994,134.177,249.568,131.149,247.508z"/>
					</g>
					<path style="fill:#FF1744;" d="M147.765,245.111c8.876-3.433,17.223-5.692,26.899-7.586c5.301-1.038,9.696-6.279,8.439-12.097
						c-1.183-5.477,3.071-8.82-2.702-9.261c-14.619-1.116-29.337,4.775-38.91,8.337
						C142.066,231.509,144.222,238.719,147.765,245.111z"/>
					<path style="fill:#D50000;" d="M141.13,224.913c0.72,7.106,2.955,13.956,6.567,20.118c0.652,1.113,2.335,0.032,1.685-1.078
						c-3.435-5.859-5.57-12.389-6.255-19.146C142.998,223.533,140.999,223.628,141.13,224.913z"/>
				</g>
				<g>
					<path style="fill:#3F2500;" d="M224.201,197.734c3.721-1.684,5.786-5.764,5.4-9.576c-0.386-3.812-2.934-7.259-6.289-9.506
						c-3.354-2.247-7.446-3.397-11.551-3.915c-3.459-0.437-7.021-0.447-10.397,0.373c-1.714,0.416-3.491,1.14-4.365,2.564
						c-0.874,1.424-0.281,3.65,1.447,4.012c-1.445-0.233-3.01,0.511-3.643,1.734c-0.633,1.222-0.279,2.816,0.824,3.709
						c-1.668-0.162-3.394,0.759-4.076,2.175c-0.682,1.416-0.266,3.218,0.981,4.254c-1.704,0.562-2.402,2.558-2.02,4.192
						c0.382,1.634,1.547,2.999,2.607,4.353c2.683,3.425,4.896,7.164,6.57,11.099c2.473-0.882,4.799-2.112,6.874-3.635"/>
					<path style="fill:#FFC9B9;" d="M225.764,188.516c-2.164-0.42-4.329-0.275-6.519-0.017c-1.862,0.22-7.56,1.448-7.56,1.448
						c-1.356,3.963-2.02,6.596-5.217,9.303c-0.303,0.257-0.642,0.524-1.04,0.535c-0.533,0.014-1.119-0.394-1.626-0.545
						c-0.718-0.213-1.418-0.475-2.116-0.745c-2.19-0.847-4.571-2.036-6.713-0.439c-1.782,1.328-2.255,4.026-1.247,6.007
						c1.007,1.981,3.267,3.172,5.489,3.156c0.886,6.311,0.71,8.632-0.245,14.933c1.098,2.992,3.923,6.726,6.543,7.547
						c2.62,0.821,5.583,0.844,8.012-0.436c0.135-3.1,0.431-6.126,1.058-9.164c2.057,0.346,4.266,0.451,6.322,0.102
						c0.78-0.132,1.606-0.345,2.127-0.94c0.392-0.447,0.553-1.045,0.703-1.62C226.126,208.453,226.724,198.201,225.764,188.516z"/>
					<path style="fill:#FDA98F;" d="M213.525,229.263c0.135-3.1,0.431-6.126,1.058-9.164c1.15,0.193,2.348,0.307,3.541,0.313
						c-2.677-0.487-4.537-1.515-6.722-2.138C211.77,222.293,212.944,229.569,213.525,229.263z"/>
					<path style="fill:#FDA98F;" d="M198.773,200.985c-0.673-0.644-1.473-1.07-2.325-1.295c-0.463-0.122-0.581,0.678-0.125,0.809
						c0.758,0.217,1.443,0.627,2.029,1.218c0.277,0.28,0.522,0.595,0.733,0.941c0.192,0.314,0.272,0.579,0.572,0.767
						c0.161,0.101,0.382-0.031,0.405-0.23C200.157,202.387,199.286,201.476,198.773,200.985z"/>
					<path style="fill:#472C1F;" d="M215.239,197.928c0.02-0.349,0.071-0.705-0.072-1.033c-0.205-0.473-0.823-0.575-1.161-0.18
						c-0.232,0.271-0.292,0.625-0.376,0.964c-0.076,0.311-0.125,0.603-0.141,0.923c-0.052,1.048,1.35,1.273,1.611,0.249
						C215.181,198.54,215.22,198.249,215.239,197.928z"/>
					<path style="fill:#472C1F;" d="M225.24,197.102c-0.069-0.343-0.109-0.7-0.33-0.982c-0.317-0.407-0.941-0.348-1.169,0.119
						c-0.156,0.321-0.125,0.679-0.12,1.028c0.005,0.32,0.031,0.615,0.096,0.929c0.214,1.027,1.627,0.892,1.622-0.165
						C225.339,197.709,225.303,197.417,225.24,197.102z"/>
					<path style="fill:#FDA98F;" d="M214.238,213.856c1.744,0.149,3.344,0.75,4.769,1.762c0.378,0.269-0.077,0.828-0.455,0.56
						c-1.325-0.941-2.807-1.47-4.425-1.609C213.665,214.529,213.778,213.817,214.238,213.856z"/>
					<path style="fill:#3F2500;" d="M222.692,190.546c1.238-0.812,3.485,0.422,4.11,1.579c0.219,0.405-0.249,1.002-0.696,0.871
						c-0.599-0.175-1.117-0.52-1.706-0.726c-0.567-0.199-1.288-0.202-1.736-0.629C222.36,191.351,222.294,190.807,222.692,190.546z"
						/>
					<path style="fill:#3F2500;" d="M211.913,191.871c1.193-1.426,3.849-1.815,5.599-1.692c0.833,0.059,0.732,1.288-0.027,1.411
						c-0.921,0.15-1.812,0.259-2.707,0.546c-0.761,0.244-1.53,0.634-2.327,0.714C211.936,192.902,211.57,192.282,211.913,191.871z"
						/>
					<path style="fill:#F3F3F3;" d="M212.831,205.752c2.904,1.661,6.076,2.852,9.355,3.511c-0.379,0.516-0.67,1.093-0.925,1.689
						c-2.939-0.582-5.758-1.689-8.126-3.427C212.976,206.943,212.871,206.346,212.831,205.752z"/>
					<path style="fill:#B51C1C;" d="M221.261,210.952c-0.272,0.636-0.502,1.295-0.745,1.934c-1.941,0.095-3.901-0.615-5.352-1.907
						c-1.007-0.896-1.67-2.134-2.029-3.455C215.503,209.264,218.322,210.371,221.261,210.952z"/>
					<path style="fill:#D50000;" d="M199.042,221.499c1.19,6.76,7.858,10.317,14.169,7.661c1.06-0.446,1.522,1.285,0.476,1.725
						c-7.178,3.021-15.02-1.247-16.369-8.91C197.118,220.848,198.842,220.365,199.042,221.499z"/>
					<path style="fill:#FF1744;" d="M230.266,172.37c-2.43,1.29-4.84,2.63-7.21,4.04c-0.13-0.12-0.26-0.24-0.39-0.37
						c-4.7-4.51-11.68-6.5-18.05-5.13c-6.36,1.36-11.92,6.03-14.36,12.07c-2.19,5.43-2.11,12.4,1.19,17.12
						c-0.12,0.1-0.23,0.21-0.35,0.32c-0.94,0.89,0.43,2.35,1.37,1.46c5.89-5.56,12.15-10.71,18.73-15.39
						c4.31-3.08,8.75-5.95,13.32-8.62c2.21-1.3,4.44-2.54,6.71-3.74C232.366,173.53,231.406,171.77,230.266,172.37z"/>
					<path style="fill:#472C1F;" d="M223.927,205.847c-0.82-2.926-1.64-5.852-2.46-8.778c-0.173-0.618-1.151-0.408-0.977,0.213
						c0.774,2.763,1.549,5.526,2.323,8.288c-0.728,0.148-1.456,0.297-2.184,0.445c-0.632,0.129-0.418,1.106,0.213,0.977
						c0.901-0.184,1.802-0.367,2.703-0.551C223.798,206.39,223.999,206.105,223.927,205.847z"/>
					<path style="fill:#D50000;" d="M219.766,176.21c-9.178,7.054-18.356,14.108-27.534,21.161
						c-1.022,0.786,0.321,2.269,1.336,1.489c9.178-7.054,18.356-14.108,27.534-21.162
						C222.125,176.913,220.781,175.43,219.766,176.21z"/>
				</g>
			</g>
			<g>
				<polygon style="fill:#D31744;" points="279.786,274.458 358.814,274.458 356.071,321.712 282.528,321.712 				"/>
				<polygon style="fill:#FF1744;" points="356.071,321.712 358.814,335.303 279.786,335.303 282.528,321.712 				"/>
				<g>
					<path style="fill:#263238;" d="M330.495,280.911v-10.147c0-5.826-4.315-10.926-10.116-11.473
						c-6.656-0.627-12.275,4.615-12.275,11.144v10.475c0,0.505-0.409,0.914-0.914,0.914l0,0c-0.505,0-0.914-0.409-0.914-0.914
						v-10.098c0-7.004,5.372-13.04,12.368-13.384c7.478-0.368,13.679,5.609,13.679,13.007v10.475c0,0.505-0.409,0.914-0.914,0.914
						l0,0C330.904,281.825,330.495,281.416,330.495,280.911z"/>
				</g>
			</g>
			<g>
				<path style="fill:#FFC9B9;" d="M324.353,262.319L324.353,262.319c-0.328-0.486-0.2-1.146,0.286-1.474l4.128-2.787
					c0.486-0.328,1.146-0.2,1.475,0.286l0,0c0.328,0.486,0.2,1.146-0.286,1.474l-4.128,2.787
					C325.342,262.933,324.682,262.805,324.353,262.319z"/>
				<path style="fill:#FFC9B9;" d="M325.693,264.23L325.693,264.23c-0.328-0.486-0.2-1.146,0.286-1.474l4.128-2.787
					c0.486-0.328,1.146-0.2,1.474,0.286l0,0c0.328,0.486,0.2,1.146-0.286,1.475l-4.128,2.787
					C326.681,264.845,326.021,264.717,325.693,264.23z"/>
				<path style="fill:#FFC9B9;" d="M327.479,266.326L327.479,266.326c-0.328-0.486-0.2-1.146,0.286-1.474l4.128-2.787
					c0.486-0.328,1.146-0.2,1.475,0.286l0,0c0.328,0.486,0.2,1.146-0.286,1.475l-4.128,2.787
					C328.468,266.94,327.807,266.812,327.479,266.326z"/>
				<path style="fill:#FFC9B9;" d="M328.808,268.11L328.808,268.11c-0.328-0.486-0.2-1.146,0.286-1.474l3.594-2.427
					c0.486-0.328,1.146-0.2,1.474,0.286l0,0c0.328,0.486,0.2,1.146-0.286,1.474l-3.594,2.427
					C329.797,268.724,329.137,268.596,328.808,268.11z"/>
			</g>
			<g>
				<path style="fill:#00CFA1;" d="M160.322,421.41c-6.14-18.941-12.279-37.882-18.419-56.823c-0.788-2.431-4.684-1.511-3.887,0.946
					c6.14,18.941,12.279,37.882,18.419,56.823C157.223,424.787,161.119,423.868,160.322,421.41z"/>
				<path style="fill:#00CFA1;" d="M139.205,354.587c-0.857-2.38-1.715-4.76-2.572-7.141c-0.183-0.507-0.409-0.926-0.882-1.223
					c-0.421-0.264-1.049-0.389-1.534-0.248c-0.949,0.276-1.851,1.363-1.471,2.417c0.857,2.38,1.715,4.76,2.572,7.141
					c0.183,0.507,0.409,0.926,0.882,1.223c0.421,0.264,1.049,0.389,1.534,0.248C138.683,356.728,139.584,355.641,139.205,354.587z"
					/>
				<path style="fill:#00CFA1;" d="M120.773,295.382c-2.402-7.993-4.803-15.986-7.205-23.978c-0.737-2.453-4.631-1.529-3.887,0.946
					c2.402,7.993,4.803,15.986,7.205,23.978C117.622,298.781,121.517,297.857,120.773,295.382z"/>
			</g>
			<g>
				<path style="fill:#FFC9B9;" d="M320.729,261.762L320.729,261.762c0.604-0.525,0.668-1.439,0.143-2.043l-4.455-5.127
					c-0.525-0.604-1.439-0.668-2.043-0.143l0,0c-0.604,0.525-0.668,1.439-0.143,2.043l4.455,5.126
					C319.21,262.222,320.125,262.286,320.729,261.762z"/>
				<path style="fill:#FFC9B9;" d="M317.053,263.643L317.053,263.643c0.604-0.525,0.668-1.439,0.143-2.043l-4.455-5.127
					c-0.525-0.604-1.439-0.668-2.043-0.143l0,0c-0.604,0.525-0.668,1.439-0.143,2.043l4.455,5.127
					C315.535,264.104,316.45,264.168,317.053,263.643z"/>
				<path style="fill:#FFC9B9;" d="M313.961,265.773L313.961,265.773c0.604-0.525,0.668-1.439,0.143-2.043l-4.455-5.126
					c-0.524-0.604-1.439-0.668-2.043-0.143l0,0c-0.604,0.525-0.668,1.439-0.143,2.043l4.455,5.127
					C312.443,266.234,313.357,266.298,313.961,265.773z"/>
				<path style="fill:#FFC9B9;" d="M311.582,267.655L311.582,267.655c0.604-0.525,0.668-1.439,0.143-2.043l-3.878-4.463
					c-0.525-0.604-1.439-0.668-2.043-0.143l0,0c-0.604,0.525-0.668,1.439-0.143,2.043l3.878,4.463
					C310.063,268.115,310.978,268.179,311.582,267.655z"/>
			</g>
		</g>
	</g>
</g>
</svg>
