<?xml version="1.0" encoding="utf-8"?>
<!-- Generator: Adobe Illustrator 27.5.0, SVG Export Plug-In . SVG Version: 6.00 Build 0)  -->
<svg version="1.1" id="Capa_1" xmlns="http://www.w3.org/2000/svg" xmlns:xlink="http://www.w3.org/1999/xlink" x="0px" y="0px"
	 viewBox="0 0 481.89 396.85" style="enable-background:new 0 0 481.89 396.85;" xml:space="preserve">
<rect x="0" style="fill:#FFFFFF;" width="481.89" height="396.85"/>
<g>
	<g>
		
			<line style="fill:none;stroke:#00B6EA;stroke-width:3;stroke-miterlimit:10;" x1="17.685" y1="225.825" x2="57.949" y2="225.825"/>
		<g>
			<path style="fill:none;stroke:#00B6EA;stroke-width:3;stroke-miterlimit:10;" d="M453.93,298.287c3.688,0,7.378,0,11.066,0"/>
			<path style="fill:none;stroke:#00B6EA;stroke-width:3;stroke-miterlimit:10;" d="M433.937,298.287c4.598,0,9.196,0,13.795,0"/>
		</g>
		<g>
			<path style="fill:none;stroke:#00B6EA;stroke-width:3;stroke-miterlimit:10;" d="M422.284,184.615c5.234,0,10.469,0,15.703,0"/>
			<path style="fill:none;stroke:#00B6EA;stroke-width:3;stroke-miterlimit:10;" d="M391.097,184.615c7.64,0,15.28,0,22.921,0"/>
		</g>
		<g>
			<path style="fill:none;stroke:#00B6EA;stroke-width:3;stroke-miterlimit:10;" d="M193.043,61.81c9.025,0,18.053,0,27.078,0"/>
			<path style="fill:none;stroke:#00B6EA;stroke-width:3;stroke-miterlimit:10;" d="M171.406,61.81c4.427,0,8.854,0,13.281,0"/>
		</g>
		<g>
			<path style="fill:none;stroke:#00B6EA;stroke-width:3;stroke-miterlimit:10;" d="M131.45,107.36c3.784,0,14.475,0,18.26,0"/>
			<path style="fill:none;stroke:#00B6EA;stroke-width:3;stroke-miterlimit:10;" d="M106.411,107.36c5.534,0,11.069,0,16.604,0"/>
			<path style="fill:none;stroke:#00B6EA;stroke-width:3;stroke-miterlimit:10;" d="M51.981,107.36c16.092,0,32.184,0,48.274,0"/>
		</g>
		<g>
			<path style="fill:none;stroke:#00B6EA;stroke-width:3;stroke-miterlimit:10;" d="M387.132,111.694c1.494,0,5.715,0,7.21,0"/>
			<path style="fill:none;stroke:#00B6EA;stroke-width:3;stroke-miterlimit:10;" d="M377.245,111.694c2.186,0,4.371,0,6.556,0"/>
			<path style="fill:none;stroke:#00B6EA;stroke-width:3;stroke-miterlimit:10;" d="M355.753,111.694c6.354,0,12.708,0,19.061,0"/>
		</g>
		<path style="fill:none;stroke:#00B6EA;stroke-width:3;stroke-miterlimit:10;" d="M351.18,61.809c0,3.148-2.552,5.699-5.698,5.699
			c-3.147,0-5.698-2.551-5.698-5.699c0-3.146,2.552-5.697,5.698-5.697C348.628,56.111,351.18,58.662,351.18,61.809z"/>
		<path style="fill:none;stroke:#00B6EA;stroke-width:3;stroke-miterlimit:10;" d="M243.477,103.641
			c0,3.146-2.552,5.699-5.698,5.699c-3.146,0-5.698-2.553-5.698-5.699s2.552-5.697,5.698-5.697
			C240.925,97.943,243.477,100.494,243.477,103.641z"/>
		<path style="fill:none;stroke:#00B6EA;stroke-width:3;stroke-miterlimit:10;" d="M69.346,310.103c0,3.147-2.552,5.697-5.698,5.697
			c-3.146,0-5.698-2.551-5.698-5.697c0-3.146,2.552-5.699,5.698-5.699C66.794,304.404,69.346,306.957,69.346,310.103z"/>
		<path style="fill:none;stroke:#00B6EA;stroke-width:3;stroke-miterlimit:10;" d="M459.628,230.02c0,3.148-2.552,5.699-5.698,5.699
			c-3.147,0-5.698-2.551-5.698-5.699c0-3.146,2.552-5.697,5.698-5.697C457.077,224.322,459.628,226.873,459.628,230.02z"/>
		<path style="fill:none;stroke:#00B6EA;stroke-width:3;stroke-miterlimit:10;" d="M343.328,165.503
			c0,3.148-2.552,5.699-5.698,5.699c-3.146,0-5.698-2.551-5.698-5.699c0-3.146,2.552-5.697,5.698-5.697
			C340.776,159.806,343.328,162.356,343.328,165.503z"/>
	</g>
	<g>
		<g>
			<g>
				<g>
					<g>
						<path style="fill:#00B6EA;" d="M298.689,286.465c0,4.206-3.408,7.616-7.618,7.616H51.419c-4.208,0-7.616-3.41-7.616-7.616
							V133.979c0-4.205,3.408-7.618,7.616-7.618h239.652c4.21,0,7.618,3.413,7.618,7.618V286.465z"/>
						<rect x="52.995" y="135.75" style="fill:#5859A7;" width="236.5" height="148.939"/>
						<polygon style="fill:#D1D3D4;" points="52.995,135.75 52.995,284.689 289.495,284.689 						"/>
					</g>
				</g>
				<g>
					<rect x="102.041" y="167.494" style="fill:#BCBEC0;" width="152.29" height="95.911"/>
					<rect x="97.433" y="155.779" style="fill:#CBE9FA;" width="152.29" height="101.896"/>
					<rect x="97.433" y="155.779" style="fill:#00B6EA;" width="152.29" height="9.725"/>
					<g>
						<rect x="151.87" y="231.314" style="fill:#00B6EA;" width="43.415" height="16.297"/>
						<rect x="151.87" y="239.462" style="fill:#2391C9;" width="43.415" height="8.149"/>
						<g>
							<path style="fill:#FFFFFF;" d="M158.92,235.927h0.91l0.654,4.627l0.778-4.627h0.852l-1.308,6.257h-0.645L158.92,235.927z"/>
							<path style="fill:#FFFFFF;" d="M162.569,235.927h0.786v6.257h-0.786V235.927z"/>
							<path style="fill:#FFFFFF;" d="M164.39,235.927h2.284v0.786h-1.44v1.821h1.241v0.72h-1.241v2.151h1.44v0.778h-2.284V235.927z
								"/>
							<path style="fill:#FFFFFF;" d="M168.561,242.184h-0.72l-1.109-6.257h0.844l0.654,4.692l0.654-4.692h0.654l0.712,4.627
								l0.587-4.627h0.853l-1.109,6.257h-0.72l-0.654-4.626L168.561,242.184z"/>
							<path style="fill:#FFFFFF;" d="M174.04,235.927h0.712l0.919,4.561l0.778-4.561h0.786l0.58,6.257h-0.844l-0.199-4.304
								l-0.778,4.304h-0.587l-0.844-4.304l-0.199,4.304h-0.844L174.04,235.927z"/>
							<path style="fill:#FFFFFF;" d="M179.898,235.927c0.557,0.006,0.968,0.274,1.233,0.808c0.265,0.532,0.397,1.352,0.397,2.462
								c0,0.91-0.102,1.658-0.306,2.242c-0.204,0.585-0.602,0.878-1.191,0.878c-0.519,0-0.931-0.226-1.237-0.675
								c-0.306-0.449-0.46-1.243-0.46-2.379c0-0.982,0.106-1.782,0.319-2.4c0.212-0.618,0.627-0.927,1.245-0.927V235.927z
								 M179.898,236.713c-0.292,0.006-0.484,0.236-0.575,0.691c-0.091,0.455-0.136,1.009-0.136,1.659
								c0,0.943,0.073,1.602,0.219,1.979c0.146,0.375,0.332,0.563,0.559,0.563c0.259,0,0.444-0.211,0.555-0.634
								c0.11-0.422,0.165-1.058,0.165-1.907c0-0.85-0.066-1.452-0.199-1.809c-0.132-0.355-0.329-0.533-0.588-0.533V236.713z"/>
							<path style="fill:#FFFFFF;" d="M182.373,235.927h1.109c0.557,0.006,0.946,0.133,1.167,0.381
								c0.221,0.248,0.331,0.668,0.331,1.258c0,0.42-0.076,0.769-0.227,1.047c-0.152,0.279-0.357,0.451-0.617,0.518l1.167,3.054
								h-0.91l-1.175-3.194v3.194h-0.844V235.927z M183.913,238.427c0.104-0.177,0.157-0.441,0.157-0.795
								c0-0.331-0.042-0.578-0.125-0.74c-0.082-0.163-0.268-0.244-0.554-0.244c-0.028,0-0.057,0-0.087,0
								c-0.03,0-0.059,0.002-0.087,0.008v2.077C183.576,238.705,183.808,238.602,183.913,238.427z"/>
							<path style="fill:#FFFFFF;" d="M185.824,235.927h2.284v0.786h-1.44v1.821h1.241v0.72h-1.241v2.151h1.44v0.778h-2.284V235.927
								z"/>
						</g>
					</g>
					<g>
						<path style="fill:#CBE9FA;" d="M230.705,160.639c0,1.563-1.264,2.82-2.821,2.82c-1.557,0-2.819-1.258-2.819-2.82
							c0-1.555,1.263-2.82,2.819-2.82C229.441,157.818,230.705,159.084,230.705,160.639z"/>
						<path style="fill:#CBE9FA;" d="M238.286,160.639c0,1.559-1.264,2.82-2.82,2.82c-1.559,0-2.821-1.262-2.821-2.82
							c0-1.557,1.263-2.82,2.821-2.82C237.023,157.818,238.286,159.082,238.286,160.639z"/>
						<path style="fill:#CBE9FA;" d="M245.865,160.639c0,1.559-1.262,2.82-2.818,2.82c-1.559,0-2.82-1.262-2.82-2.82
							c0-1.557,1.262-2.82,2.82-2.82C244.604,157.818,245.865,159.082,245.865,160.639z"/>
					</g>
					<g>
						<g>
							<rect x="109.367" y="184.615" style="fill:#FFFFFF;" width="41.651" height="42.647"/>
							<g>
								<g>
									<path style="fill:#B3D8F3;" d="M142.245,213.733c-0.091-1.421-1.608-1.87-1.608-1.87l-4.699-1.594l-1.991-0.74
										c-1.526,1.025-3.203,1.403-3.752,1.508c-0.551-0.104-2.232-0.482-3.755-1.508l-1.995,0.74l-4.699,1.594
										c0,0-1.511,0.449-1.602,1.87l-1.483,8.085h13.346h0.374h13.349L142.245,213.733z"/>
									<path style="fill:#B3D8F3;" d="M137.346,198.975c-0.093,4.853-3.367,8.725-7.315,8.652
										c-3.948-0.074-7.075-4.068-6.986-8.921c0.089-4.852,3.365-8.72,7.314-8.645
										C134.306,190.135,137.437,194.121,137.346,198.975z"/>
								</g>
							</g>
						</g>
						<g>
							<path style="fill:#A1D5F3;" d="M237.788,190.688c0,0.895-0.724,1.618-1.616,1.618h-75.605c-0.894,0-1.618-0.724-1.618-1.618
								l0,0c0-0.892,0.725-1.614,1.618-1.614h75.605C237.064,189.073,237.788,189.796,237.788,190.688L237.788,190.688z"/>
							<path style="fill:#A1D5F3;" d="M237.788,200.855c0,0.895-0.724,1.617-1.616,1.617h-75.605c-0.894,0-1.618-0.723-1.618-1.617
								l0,0c0-0.892,0.725-1.618,1.618-1.618h75.605C237.064,199.237,237.788,199.964,237.788,200.855L237.788,200.855z"/>
							<path style="fill:#A1D5F3;" d="M237.788,211.02c0,0.896-0.724,1.62-1.616,1.62h-75.605c-0.894,0-1.618-0.725-1.618-1.62l0,0
								c0-0.893,0.725-1.616,1.618-1.616h75.605C237.064,209.404,237.788,210.128,237.788,211.02L237.788,211.02z"/>
							<path style="fill:#A1D5F3;" d="M237.788,221.188c0,0.893-0.724,1.617-1.616,1.617h-75.605c-0.894,0-1.618-0.724-1.618-1.617
								l0,0c0-0.892,0.725-1.615,1.618-1.615h75.605C237.064,219.572,237.788,220.296,237.788,221.188L237.788,221.188z"/>
						</g>
					</g>
				</g>
			</g>
			<rect x="150.12" y="294.081" style="fill:#2578BD;" width="42.251" height="26.12"/>
			<rect x="139.105" y="320.201" style="fill:#00B6EA;" width="64.281" height="10.011"/>
		</g>
		<g>
			<path style="fill:none;stroke:#00B6EA;stroke-width:8;stroke-miterlimit:10;" d="M320.442,215.899v-17.744
				c0-2.421-1.965-4.386-4.388-4.386h-35.626c-2.423,0-4.388,1.965-4.388,4.386v17.744H320.442z"/>
			<path style="fill:#5859A7;" d="M374.929,323.332c0,3.799-3.08,6.88-6.879,6.88H228.436c-3.801,0-6.882-3.081-6.882-6.88v-99.87
				c0-3.799,3.081-6.88,6.882-6.88H368.05c3.799,0,6.879,3.081,6.879,6.88V323.332z"/>
			<path style="fill:#D1D3D4;" d="M239.579,321.739c-3.801,0-6.881-3.08-6.881-6.88v-20.75c0-3.799,3.08-6.88,6.881-6.88h135.35
				v-63.768c0-3.799-3.08-6.88-6.879-6.88H228.436c-3.801,0-6.882,3.081-6.882,6.88v99.87c0,3.799,3.081,6.88,6.882,6.88H368.05
				c3.799,0,6.879-3.081,6.879-6.88v-1.593H239.579z"/>
			<path style="fill:#5859A7;" d="M378.214,274.841c0,3.962-3.213,7.173-7.175,7.173H225.445c-3.964,0-7.176-3.211-7.176-7.173
				v-57.443c0-3.962,3.212-7.174,7.176-7.174h145.594c3.962,0,7.175,3.212,7.175,7.174V274.841z"/>
			<path style="fill:#D1D3D4;" d="M375.966,268.817c-5.074,6.253-11.478,6.149-19.141,6.127c-29.539-0.089-27.845-0.18-53.17-0.089
				c-15.037,0.055-24.358,0.047-38.459-5.93c-14.191-6.014-19.466-19.508-19.296-34.231c0.094-8.167,1.535-16.235,5.09-23.639
				c0.137-0.282,0.288-0.553,0.428-0.833h-25.973c-3.964,0-7.176,3.212-7.176,7.174v57.443c0,3.962,3.212,7.173,7.176,7.173h145.594
				c3.962,0,7.175-3.211,7.175-7.173v-9.212C377.516,266.731,376.783,267.807,375.966,268.817z"/>
			<rect x="288.339" y="279.47" style="fill:#00B6EA;" width="19.806" height="16.697"/>
		</g>
		<g>
			<rect x="403.152" y="278.451" style="fill:#2578BD;" width="7.472" height="11.101"/>
			<g>
				<path style="opacity:0.5;fill:#CBE9FA;" d="M430.867,249.176c0,13.242-10.735,23.977-23.978,23.977
					s-23.979-10.735-23.979-23.977c0-13.244,10.735-23.979,23.979-23.979S430.867,235.932,430.867,249.176z"/>
				<path style="opacity:0.5;fill:#CBE9FA;" d="M391.999,230.387c-5.535,4.392-9.089,11.173-9.089,18.789
					c0,13.242,10.735,23.977,23.979,23.977c5.661,0,10.861-1.966,14.963-5.247C411.722,255.551,401.986,242.863,391.999,230.387z"/>
				<path style="fill:#00B6EA;" d="M406.889,217.977c-17.23,0-31.198,13.969-31.198,31.199c0,17.23,13.968,31.197,31.198,31.197
					c17.229,0,31.198-13.967,31.198-31.197C438.087,231.945,424.118,217.977,406.889,217.977z M406.889,273.153
					c-13.243,0-23.979-10.735-23.979-23.977c0-13.244,10.735-23.979,23.979-23.979s23.978,10.735,23.978,23.979
					C430.867,262.418,420.132,273.153,406.889,273.153z"/>
			</g>
			<path style="opacity:0.3;fill:#00B6EA;" d="M406.889,217.977c-17.23,0-31.198,13.969-31.198,31.199
				c0,17.23,13.968,31.197,31.198,31.197c17.229,0,31.198-13.967,31.198-31.197C438.087,231.945,424.118,217.977,406.889,217.977z
				 M406.889,276.975c-15.354,0-27.8-12.445-27.8-27.799s12.446-27.801,27.8-27.801c15.352,0,27.799,12.447,27.799,27.801
				S422.241,276.975,406.889,276.975z"/>
			<rect x="399.086" y="288.178" style="fill:#5859A7;" width="15.604" height="42.034"/>
			<polygon style="fill:#BCBEC0;" points="404.849,326.035 404.849,288.178 399.086,288.178 399.086,330.212 414.691,330.212 
				414.691,326.035 			"/>
			<g>
				<path style="fill:none;stroke:#FFFFFF;stroke-width:3;stroke-miterlimit:10;" d="M425.596,252.802
					c-0.199,1.433-0.548,2.819-1.032,4.138"/>
				<path style="fill:none;stroke:#FFFFFF;stroke-width:3;stroke-miterlimit:10;" d="M405.766,230.02
					c11.056,0,20.018,8.962,20.018,20.019"/>
			</g>
		</g>
	</g>
	
		<line style="fill:none;stroke:#00B6EA;stroke-width:3;stroke-miterlimit:10;" x1="25.945" y1="330.212" x2="455.945" y2="330.212"/>
	<g>
		
			<line style="fill:none;stroke:#00B6EA;stroke-width:3;stroke-miterlimit:10;" x1="9.807" y1="340.738" x2="241.286" y2="340.738"/>
		
			<line style="fill:none;stroke:#00B6EA;stroke-width:3;stroke-miterlimit:10;" x1="259.416" y1="340.738" x2="335.026" y2="340.738"/>
		
			<line style="fill:none;stroke:#00B6EA;stroke-width:3;stroke-miterlimit:10;" x1="396.473" y1="340.738" x2="472.083" y2="340.738"/>
	</g>
</g>
</svg>
