<?xml version="1.0" encoding="utf-8"?>
<!-- Generator: Adobe Illustrator 27.5.0, SVG Export Plug-In . SVG Version: 6.00 Build 0)  -->
<svg version="1.1" xmlns="http://www.w3.org/2000/svg" xmlns:xlink="http://www.w3.org/1999/xlink" x="0px" y="0px"
	 viewBox="0 0 500 500" style="enable-background:new 0 0 500 500;" xml:space="preserve">
<g id="Background_complete">
	<g>
		<path style="fill:#E0E0E0;" d="M443.92,330.198H263.174c-3.232,0-5.862-2.63-5.862-5.862V61.062c0-3.232,2.63-5.862,5.862-5.862
			H443.92c3.232,0,5.862,2.629,5.862,5.862v263.273C449.783,327.568,447.153,330.198,443.92,330.198z M263.174,55.45
			c-3.095,0-5.612,2.518-5.612,5.612v263.273c0,3.095,2.518,5.612,5.612,5.612H443.92c3.095,0,5.612-2.518,5.612-5.612V61.062
			c0-3.094-2.518-5.612-5.612-5.612H263.174z M235.493,330.198H54.746c-3.232,0-5.862-2.63-5.862-5.862V61.062
			c0-3.232,2.629-5.862,5.862-5.862h180.747c3.232,0,5.862,2.629,5.862,5.862v263.273
			C241.355,327.568,238.725,330.198,235.493,330.198z M54.746,55.45c-3.094,0-5.612,2.518-5.612,5.612v263.273
			c0,3.095,2.518,5.612,5.612,5.612h180.747c3.095,0,5.612-2.518,5.612-5.612V61.062c0-3.094-2.518-5.612-5.612-5.612H54.746z
			 M500,391.267H0v0.25h500V391.267z M51.672,405.781h16.06v-0.25h-16.06V405.781z M170.352,403.071h53.53v-0.25h-53.53V403.071z
			 M68.732,415.071h36.25v-0.25h-36.25V415.071z M378.352,402.941h43.19v-0.25h-43.19V402.941z M430.452,402.941h6.33v-0.25h-6.33
			V402.941z M316.212,409.171h53.89v-0.25h-53.89V409.171z"/>
		<rect x="75.906" y="104.365" style="fill:#E6E6E6;" width="48.582" height="62.332"/>
		<rect x="65.036" y="104.365" style="fill:#F0F0F0;" width="57.068" height="62.332"/>
		<rect x="70.298" y="109.902" style="fill:#FFFFFF;" width="46.297" height="51.259"/>
		<rect x="85.506" y="126.28" style="fill:#F0F0F0;" width="16.712" height="18.503"/>
		<path style="fill:#EBEBEB;" d="M219.595,405.423c0.213-1.377,0.238-2.949,0.009-4.759c-0.119-0.943-0.222-1.857-0.318-2.759
			c-2.563,0.592-4.829,0.1-5.649-1.439c-1.123-2.107,0.884-5.37,4.483-7.287c0.174-0.093,0.349-0.177,0.524-0.26
			c-0.493-14.602,2.129-21.616,2.129-21.616c-6.298,0.202-14.302,3.261-21.536,7.802c0.274,0.667,0.48,1.416,0.573,2.233
			c0.33,2.894-0.776,5.396-2.471,5.59c-1.519,0.173-2.987-1.574-3.514-4.022c-6.143,4.807-11.079,10.569-12.884,16.222
			c-2.318-0.831-4.919-1.406-7.614-1.728c0.569,1.646,0.327,3.215-0.639,3.659c-1.077,0.496-2.638-0.593-3.485-2.433
			c-0.239-0.519-0.387-1.039-0.465-1.535c-5.939-0.093-11.802,0.975-15.621,3.126c0,0,4.088,3.226,9.061,12.088
			c0.134-0.014,0.268-0.027,0.405-0.034c2.832-0.157,5.202,1.06,5.294,2.718c0.067,1.211-1.103,2.32-2.84,2.893
			c0.268,0.571,0.537,1.152,0.806,1.755c4.905,11,15.482,2.121,14.876-5.588c0,0,5.042-1.32,7.514-3.97
			c4.38,0.154,8.917-1.194,8.917-1.194c1.039,2.063,2.714,3.822,4.689,5.17c-0.81,0.598-1.523,1.25-2.101,1.961
			c-5.428,6.69,6.743,9.028,6.743,9.028c-0.088,6.768,9.659,13.916,13.313,4.028c0.201-0.543,0.402-1.065,0.603-1.579
			c-1.551-0.4-2.636-1.302-2.646-2.364c-0.015-1.453,1.986-2.652,4.468-2.677c0.12-0.001,0.238,0.003,0.356,0.007
			c3.835-8.025,7.221-11.077,7.221-11.077C227.147,406.11,223.489,405.468,219.595,405.423z"/>
		<path style="fill:#E0E0E0;" d="M218.856,412.438c-7.482,4.793-22.581,15.702-24.662,17.208c0.161,2.117,0.417,4.227,0.794,6.319
			l-0.738,0.133c-0.378-2.099-0.634-4.216-0.798-6.34c-0.03-0.036-0.059-0.073-0.075-0.118c-2.316-6.79-10.141-21.419-23.171-28.185
			c-0.184-0.096-0.255-0.322-0.16-0.506c0.096-0.185,0.322-0.253,0.506-0.16c12.065,6.265,19.727,19.139,22.771,26.59
			c-0.623-15.604,4.369-31.436,14.066-43.695l0.588,0.465c-9.881,12.492-14.835,28.737-13.846,44.619
			c3.102-2.242,17.172-12.38,24.321-16.96c0.174-0.111,0.405-0.062,0.518,0.113C219.081,412.094,219.031,412.326,218.856,412.438z"
			/>
		<path style="fill:#E0E0E0;" d="M211.908,441.836l-5.224,24.371h-23.757l-5.859-24.371h-3.584l0.016-7.563h41.232l0.042,7.563
			H211.908z M179.71,432.721c0-0.138-0.112-0.25-0.25-0.25h-3.673c-0.138,0-0.25,0.112-0.25,0.25s0.112,0.25,0.25,0.25h3.673
			C179.598,432.971,179.71,432.858,179.71,432.721z M191.449,432.721c0-0.138-0.112-0.25-0.25-0.25h-10.052
			c-0.138,0-0.25,0.112-0.25,0.25s0.112,0.25,0.25,0.25h10.052C191.337,432.971,191.449,432.858,191.449,432.721z"/>
		<rect x="128.952" y="273.671" style="fill:#E0E0E0;" width="32.503" height="13.497"/>
		<rect x="147.014" y="260.276" style="fill:#E6E6E6;" width="32.503" height="13.497"/>
		<rect x="148.091" y="286.915" style="fill:#F5F5F5;" width="32.503" height="13.497"/>
		<rect x="264.701" y="363.991" style="fill:#E6E6E6;" width="32.503" height="13.497"/>
		<rect x="280.952" y="377.488" style="fill:#F5F5F5;" width="32.503" height="13.497"/>
		<rect x="430.055" y="240.175" style="fill:#E6E6E6;" width="32.503" height="13.497"/>
		<rect x="446.307" y="253.672" style="fill:#F5F5F5;" width="32.503" height="13.497"/>
		<rect x="264.701" y="47.885" style="fill:#E6E6E6;" width="32.503" height="13.497"/>
		<rect x="280.952" y="61.381" style="fill:#F5F5F5;" width="32.503" height="13.497"/>
	</g>
</g>
<g id="Background_simple" style="display:none;">
	<g style="display:inline;">
		<path style="fill:#407BFF;" d="M52.831,237.851c5.099,18.911,15.956,37.146,32.984,53.32
			c20.07,19.062,51.337,38.539,92.234,32.786c75.502-10.62,76.877-61.568,127.643-51.396
			c57.503,11.522,124.955,3.795,143.712-47.908C485.032,126.45,276.573,7.737,162.026,41.079
			C90.714,61.836,25.757,137.439,52.831,237.851z"/>
		<path style="opacity:0.9;fill:#FFFFFF;" d="M52.831,237.851c5.099,18.911,15.956,37.146,32.984,53.32
			c20.07,19.062,51.337,38.539,92.234,32.786c75.502-10.62,76.877-61.568,127.643-51.396
			c57.503,11.522,124.955,3.795,143.712-47.908C485.032,126.45,276.573,7.737,162.026,41.079
			C90.714,61.836,25.757,137.439,52.831,237.851z"/>
	</g>
</g>
<g id="Shadow">
	<path style="fill:#F5F5F5;" d="M458.875,468.406c0,3.387-93.517,6.132-208.875,6.132s-208.875-2.746-208.875-6.132
		c0-3.387,93.516-6.132,208.875-6.132S458.875,465.019,458.875,468.406z"/>
</g>
<g id="Waterfall">
	<g>
		<path style="fill:#407BFF;" d="M277.243,356.859H166.699c-4.973,0-9.005-4.031-9.005-9.005V237.31
			c0-4.973,4.031-9.005,9.005-9.005h110.544c4.973,0,9.005,4.031,9.005,9.005v110.544
			C286.248,352.828,282.216,356.859,277.243,356.859z M179.974,361.837c16.79,0,33.58,0,50.37,0c0.965,0,0.967-1.5,0-1.5
			c-16.79,0-33.58,0-50.37,0C179.008,360.337,179.007,361.837,179.974,361.837L179.974,361.837z M233.777,361.837
			c1.288,0,2.576,0,3.864,0c0.392,0,0.768-0.345,0.75-0.75c-0.018-0.406-0.33-0.75-0.75-0.75c-1.288,0-2.576,0-3.864,0
			c-0.392,0-0.768,0.345-0.75,0.75C233.045,361.493,233.356,361.837,233.777,361.837L233.777,361.837z"/>
		<path style="fill:#FFFFFF;" d="M247.436,306.928v1.975h-8.194c-0.076-3.561-0.101-7.219-0.021-8.067h15.486v-8.254h-24.368v2.208
			c-0.03-0.003-0.056-0.017-0.086-0.017h-8.306c-0.08-3.745-0.104-7.604-0.008-8.183c0.009-0.034,0.001-0.067,0.006-0.101h15.666
			v-8.254h-24.368v2.221c-0.098-0.032-0.197-0.062-0.306-0.062h-8.306c-0.08-3.744-0.104-7.603-0.008-8.182
			c0.006-0.023,0-0.046,0.004-0.069h15.887v-8.254h-24.368v2.337h0h-8.306c-0.08-3.744-0.104-7.603-0.008-8.182
			c0.021-0.083,0.014-0.165,0.014-0.247h15.571v-8.254h-24.368v8.254h6.807c-0.15,1.28-0.082,5.751,0.007,9.454
			c0.013,0.542,0.457,0.975,0.999,0.975h9.283h0v3.917h6.482c-0.125,1.487-0.059,5.736,0.026,9.275c0.013,0.542,0.457,0.976,1,0.976
			h9.283c0.108,0,0.208-0.03,0.306-0.062v4.156h6.705c-0.129,1.454-0.063,5.739,0.023,9.308c0.013,0.542,0.457,0.975,0.999,0.975
			h9.283c0.031,0,0.057-0.015,0.086-0.017v4.08h6.888c-0.107,1.622-0.044,5.682,0.038,9.092c0.013,0.542,0.457,0.976,0.999,0.976
			h9.171v4.279h24.368v-8.254H247.436z"/>
		<path style="fill:#FFFFFF;" d="M202.429,333.606l-2.408,7.359h-1.829l-1.619-4.983l-1.671,4.983h-1.819l-2.418-7.359h1.766
			l1.661,5.173l1.734-5.173h1.577l1.682,5.215l1.713-5.215H202.429z M207.979,339.389h-3.417l-0.652,1.577h-1.745l3.28-7.359h1.682
			l3.291,7.359h-1.787L207.979,339.389z M207.443,338.096l-1.167-2.817l-1.167,2.817H207.443z M212.342,334.994h-2.355v-1.388h6.413
			v1.388h-2.355v5.972h-1.703V334.994z M223.013,339.599v1.367h-5.698v-7.359h5.562v1.367h-3.869v1.598h3.417v1.324h-3.417v1.703
			H223.013z M229.058,340.966l-1.419-2.05h-0.084h-1.482v2.05h-1.703v-7.359h3.186c0.652,0,1.218,0.109,1.698,0.326
			c0.48,0.217,0.85,0.525,1.109,0.925c0.259,0.399,0.389,0.873,0.389,1.42c0,0.546-0.131,1.018-0.394,1.414
			c-0.263,0.396-0.636,0.698-1.12,0.909l1.65,2.365H229.058z M228.627,335.325c-0.267-0.221-0.655-0.331-1.167-0.331h-1.388v2.565
			h1.388c0.512,0,0.9-0.112,1.167-0.336c0.266-0.225,0.399-0.54,0.399-0.946C229.026,335.863,228.893,335.546,228.627,335.325z
			 M233.799,334.974v1.944h3.406v1.367h-3.406v2.681h-1.703v-7.359h5.562v1.367H233.799z M243.355,339.389h-3.417l-0.652,1.577
			h-1.745l3.28-7.359h1.682l3.29,7.359h-1.787L243.355,339.389z M242.819,338.096l-1.167-2.817l-1.167,2.817H242.819z
			 M246.561,333.606h1.703v5.972h3.691v1.388h-5.394V333.606z M252.912,333.606h1.703v5.972h3.689v1.388h-5.393V333.606z"/>
	</g>
</g>
<g id="Kanban">
	<g>
		<path style="fill:#407BFF;" d="M418.846,355.824h-114.43c-3.9,0-7.062-3.162-7.062-7.062v-114.43c0-3.9,3.162-7.062,7.062-7.062
			h114.43c3.9,0,7.062,3.162,7.062,7.062v114.43C425.908,352.663,422.746,355.824,418.846,355.824z"/>
		<path style="opacity:0.3;" d="M418.846,355.824h-114.43c-3.9,0-7.062-3.162-7.062-7.062v-114.43c0-3.9,3.162-7.062,7.062-7.062
			h114.43c3.9,0,7.062,3.162,7.062,7.062v114.43C425.908,352.663,422.746,355.824,418.846,355.824z"/>
		<path style="fill:#FFFFFF;" d="M337.847,339.315l-0.988,1.03v1.86h-1.692v-7.359h1.692v3.438l3.259-3.438h1.893l-3.049,3.28
			l3.228,4.079h-1.987L337.847,339.315z M347.465,340.628h-3.416l-0.652,1.577h-1.745l3.28-7.359h1.682l3.291,7.359h-1.787
			L347.465,340.628z M346.929,339.335l-1.167-2.817l-1.167,2.817H346.929z M357.421,334.846v7.359h-1.398l-3.669-4.468v4.468h-1.682
			v-7.359h1.408l3.658,4.469v-4.469H357.421z M365.558,339.046c0.238,0.311,0.357,0.695,0.357,1.151
			c0,0.645-0.251,1.141-0.752,1.487s-1.232,0.521-2.191,0.521h-3.806v-7.359h3.595c0.898,0,1.586,0.172,2.066,0.516
			c0.479,0.343,0.72,0.81,0.72,1.398c0,0.357-0.086,0.676-0.258,0.956c-0.172,0.28-0.411,0.501-0.72,0.662
			C364.99,338.512,365.319,338.734,365.558,339.046z M360.858,336.129v1.734h1.692c0.421,0,0.739-0.073,0.957-0.221
			c0.217-0.148,0.325-0.364,0.325-0.652c0-0.287-0.108-0.503-0.325-0.646c-0.218-0.144-0.536-0.215-0.957-0.215H360.858z
			 M363.859,340.702c0.227-0.147,0.342-0.375,0.342-0.684c0-0.61-0.452-0.915-1.357-0.915h-1.986v1.819h1.986
			C363.294,340.923,363.632,340.849,363.859,340.702z M372.055,340.628h-3.416l-0.652,1.577h-1.745l3.28-7.359h1.682l3.291,7.359
			h-1.787L372.055,340.628z M371.519,339.335l-1.167-2.817l-1.167,2.817H371.519z M382.011,334.846v7.359h-1.398l-3.669-4.468v4.468
			h-1.682v-7.359h1.408l3.658,4.469v-4.469H382.011z"/>
		<path style="fill:#FFFFFF;" d="M336.038,263.704h-9.812v-9.812h9.812V263.704z M350.363,253.892h-9.812v9.812h9.812V253.892z
			 M364.689,253.892h-9.812v9.812h9.812V253.892z M336.038,267.498h-9.812v9.812h9.812V267.498z M350.363,267.498h-9.812v9.812
			h9.812V267.498z M364.689,267.498h-9.812v9.812h9.812V267.498z M336.038,281.104h-9.812v9.812h9.812V281.104z M350.363,281.104
			h-9.812v9.812h9.812V281.104z M336.038,295.757h-9.812v9.812h9.812V295.757z M379.015,253.892h-9.812v9.812h9.812V253.892z
			 M393.34,253.892h-9.812v9.812h9.812V253.892z"/>
		<path style="fill:#FFFFFF;" d="M391.116,313.363l-3.81-3.223c-0.421-0.357-1.052-0.304-1.409,0.118
			c-0.356,0.422-0.304,1.053,0.118,1.409l1.715,1.45h-61.504c-0.553,0-1,0.447-1,1c0,0.553,0.447,1,1,1h61.847l-1.887,1.895
			c-0.39,0.392-0.388,1.025,0.004,1.415c0.194,0.194,0.45,0.291,0.705,0.291c0.257,0,0.514-0.099,0.709-0.295l3.576-3.592
			c0.196-0.197,0.302-0.469,0.29-0.748C391.458,313.805,391.33,313.544,391.116,313.363z"/>
	</g>
</g>
<g id="Scrum">
	<g>
		<path style="fill:#407BFF;" d="M417.415,217.512H305.847c-4.69,0-8.493-3.802-8.493-8.493V97.451c0-4.69,3.802-8.493,8.493-8.493
			h111.568c4.69,0,8.493,3.802,8.493,8.493v111.568C425.908,213.709,422.106,217.512,417.415,217.512z M431.065,142.144
			c0,16.71,0,33.42,0,50.13c0,0.965,1.5,0.967,1.5,0c0-16.71,0-33.42,0-50.13C432.565,141.179,431.065,141.177,431.065,142.144
			L431.065,142.144z M432.319,197.705c0,1.671,0,3.342,0,5.013c0,0.392,0.345,0.768,0.75,0.75c0.406-0.018,0.75-0.329,0.75-0.75
			c0-1.671,0-3.342,0-5.013c0-0.392-0.345-0.768-0.75-0.75C432.662,196.973,432.319,197.284,432.319,197.705L432.319,197.705z"/>
		<path style="fill:#FFFFFF;" d="M337.471,203.598c-0.544-0.158-0.98-0.363-1.31-0.615l0.579-1.282
			c0.314,0.231,0.689,0.417,1.124,0.557c0.435,0.14,0.869,0.21,1.304,0.21c0.484,0,0.842-0.072,1.072-0.215
			c0.231-0.144,0.348-0.335,0.348-0.573c0-0.175-0.068-0.321-0.205-0.436c-0.137-0.116-0.313-0.209-0.526-0.279
			c-0.214-0.07-0.503-0.147-0.867-0.231c-0.561-0.133-1.02-0.267-1.377-0.399c-0.357-0.133-0.664-0.347-0.92-0.642
			c-0.256-0.294-0.384-0.686-0.384-1.177c0-0.428,0.116-0.815,0.347-1.162c0.231-0.347,0.58-0.622,1.047-0.826
			c0.466-0.203,1.035-0.305,1.708-0.305c0.47,0,0.929,0.056,1.377,0.168c0.448,0.112,0.841,0.273,1.178,0.483l-0.525,1.293
			c-0.681-0.385-1.36-0.578-2.04-0.578c-0.477,0-0.829,0.077-1.057,0.231c-0.228,0.154-0.342,0.357-0.342,0.61
			c0,0.252,0.132,0.439,0.394,0.562c0.263,0.123,0.664,0.244,1.204,0.363c0.561,0.133,1.02,0.267,1.377,0.399
			c0.357,0.133,0.664,0.344,0.92,0.631c0.256,0.288,0.384,0.677,0.384,1.167c0,0.42-0.117,0.804-0.353,1.151
			c-0.234,0.347-0.587,0.622-1.057,0.825c-0.47,0.203-1.04,0.305-1.713,0.305C338.576,203.834,338.014,203.755,337.471,203.598z
			 M344.935,203.345c-0.607-0.326-1.083-0.778-1.43-1.356c-0.348-0.578-0.52-1.232-0.52-1.961c0-0.729,0.173-1.382,0.52-1.96
			c0.347-0.579,0.823-1.03,1.43-1.357c0.606-0.326,1.288-0.489,2.045-0.489c0.638,0,1.214,0.112,1.73,0.336
			c0.515,0.225,0.947,0.547,1.298,0.967l-1.093,1.009c-0.498-0.575-1.115-0.862-1.851-0.862c-0.456,0-0.862,0.1-1.22,0.3
			c-0.357,0.2-0.636,0.479-0.836,0.836c-0.199,0.357-0.3,0.764-0.3,1.219c0,0.456,0.101,0.862,0.3,1.22
			c0.2,0.357,0.479,0.636,0.836,0.835c0.357,0.2,0.764,0.3,1.22,0.3c0.735,0,1.353-0.29,1.851-0.873l1.093,1.009
			c-0.351,0.428-0.785,0.753-1.304,0.978c-0.518,0.225-1.097,0.336-1.734,0.336C346.219,203.834,345.541,203.671,344.935,203.345z
			 M355.842,203.708l-1.419-2.05h-0.085h-1.482v2.05h-1.703v-7.359h3.185c0.652,0,1.218,0.109,1.698,0.326
			c0.48,0.217,0.85,0.525,1.109,0.925c0.259,0.399,0.389,0.873,0.389,1.419c0,0.547-0.131,1.018-0.395,1.414
			c-0.263,0.396-0.636,0.699-1.119,0.91l1.65,2.365H355.842z M355.411,198.068c-0.267-0.221-0.656-0.332-1.167-0.332h-1.388v2.566
			h1.388c0.511,0,0.9-0.112,1.167-0.337c0.266-0.224,0.399-0.54,0.399-0.946C355.81,198.605,355.677,198.289,355.411,198.068z
			 M359.694,202.961c-0.585-0.581-0.878-1.412-0.878-2.492v-4.121h1.703v4.058c0,1.318,0.547,1.977,1.64,1.977
			c0.533,0,0.939-0.159,1.22-0.479c0.28-0.319,0.421-0.818,0.421-1.498v-4.058h1.682v4.121c0,1.08-0.293,1.91-0.878,2.492
			c-0.585,0.582-1.403,0.873-2.454,0.873C361.098,203.834,360.279,203.544,359.694,202.961z M373.86,203.708l-0.011-4.415
			l-2.165,3.638h-0.768l-2.155-3.543v4.321h-1.598v-7.359h1.408l2.755,4.573l2.712-4.573h1.398l0.021,7.359H373.86z"/>
		<path style="fill:#FFFFFF;" d="M357.53,179.203h-33.167c-0.553,0-1-0.448-1-1c0-0.552,0.447-1,1-1h33.167
			c13.479,0,24.446-10.967,24.446-24.446c0-13.479-10.967-24.446-24.446-24.446c-13.48,0-24.447,10.967-24.447,24.446
			c0,6.183,2.347,12.105,6.507,16.604l-0.468-1.844c-0.137-0.535,0.188-1.08,0.723-1.215c0.528-0.137,1.079,0.187,1.215,0.723
			l1.228,4.837c0.069,0.271,0.022,0.558-0.131,0.792c-0.152,0.234-0.396,0.394-0.671,0.44l-4.997,0.846
			c-0.057,0.01-0.112,0.014-0.168,0.014c-0.479,0-0.902-0.345-0.985-0.833c-0.092-0.544,0.275-1.061,0.819-1.153l2.73-0.462
			c-4.975-4.95-7.802-11.691-7.802-18.748c0-14.583,11.864-26.446,26.447-26.446c6.065,0,11.656,2.057,16.122,5.504
			c-0.393-1.196-0.612-2.469-0.612-3.795c0-6.73,5.476-12.205,12.205-12.205c3.351,0,6.505,1.383,8.777,3.734l-0.026-2.724
			c-0.005-0.552,0.438-1.004,0.99-1.009c0.004,0,0.007,0,0.01,0c0.548,0,0.995,0.441,1,0.991l0.055,5.767
			c0.003,0.267-0.102,0.523-0.289,0.713c-0.162,0.164-0.378,0.25-0.605,0.275c-0.005,0.001-0.01,0.003-0.015,0.003
			c-0.031,0.003-0.06,0.018-0.091,0.018h-6.133c-0.553,0-1-0.448-1-1c0-0.552,0.447-1,1-1h4.221
			c-1.92-2.349-4.802-3.767-7.894-3.767c-5.627,0-10.205,4.578-10.205,10.205c0,5.627,4.578,10.205,10.205,10.205
			c5.627,0,10.205-4.578,10.205-10.205c0-0.552,0.447-1,1-1c0.553,0,1,0.448,1,1c0,6.73-5.476,12.205-12.205,12.205
			c-1.811,0-3.526-0.407-5.074-1.119c2.413,3.988,3.804,8.66,3.804,13.651C383.977,167.339,372.113,179.203,357.53,179.203z
			 M394.901,177.433c-0.014-0.102-0.033-0.201-0.076-0.29c-0.021-0.043-0.052-0.077-0.079-0.117
			c-0.051-0.077-0.105-0.148-0.176-0.208c-0.016-0.014-0.023-0.034-0.04-0.047l-6.786-5.137c-0.441-0.334-1.068-0.247-1.4,0.194
			c-0.334,0.44-0.247,1.067,0.193,1.401l4.411,3.34h-18.343c-0.553,0-1,0.448-1,1c0,0.552,0.447,1,1,1h18.62l-4.736,4.061
			c-0.419,0.36-0.467,0.991-0.107,1.41c0.197,0.231,0.478,0.349,0.759,0.349c0.23,0,0.463-0.079,0.651-0.241l6.786-5.821
			c0.009-0.008,0.012-0.02,0.021-0.028c0.086-0.079,0.152-0.174,0.207-0.278c0.01-0.02,0.029-0.035,0.038-0.056
			c0.053-0.122,0.083-0.256,0.083-0.397c0-0.005-0.003-0.01-0.003-0.015c0-0.005,0.003-0.01,0.003-0.015
			C394.927,177.501,394.907,177.469,394.901,177.433z"/>
	</g>
</g>
<g id="Agile">
	<g>
		<path style="fill:#407BFF;" d="M279.076,217.512H165.503c-4.137,0-7.49-3.354-7.49-7.49V96.449c0-4.137,3.354-7.49,7.49-7.49
			h113.573c4.137,0,7.49,3.354,7.49,7.49v113.573C286.566,214.158,283.213,217.512,279.076,217.512z"/>
		<path style="opacity:0.3;" d="M279.076,217.512H165.503c-4.137,0-7.49-3.354-7.49-7.49V96.449c0-4.137,3.354-7.49,7.49-7.49
			h113.573c4.137,0,7.49,3.354,7.49,7.49v113.573C286.566,214.158,283.213,217.512,279.076,217.512z"/>
		<path style="fill:#FFFFFF;" d="M194.824,150.194c0-16.145,12.058-29.858,28.048-31.899c0.543-0.065,1.049,0.317,1.119,0.866
			c0.07,0.548-0.318,1.048-0.866,1.119c-14.994,1.914-26.301,14.774-26.301,29.915c0,10.44,5.285,19.994,14.136,25.555
			c0.467,0.294,0.608,0.911,0.314,1.379c-0.19,0.302-0.515,0.468-0.848,0.468c-0.182,0-0.366-0.049-0.531-0.153
			C200.458,171.513,194.824,161.326,194.824,150.194z M226.983,182.353h-36.67v3.175c0,0.552-0.448,1-1,1h-8.932
			c-0.552,0-1-0.448-1-1v-8.932c0-0.552,0.448-1,1-1h8.932c0.552,0,1,0.448,1,1v3.757h36.67c16.63,0,30.16-13.529,30.16-30.159
			c0-15.744-12.129-28.701-27.531-30.038l1.697,1.677c0.393,0.388,0.396,1.021,0.008,1.415c-0.196,0.198-0.454,0.297-0.711,0.297
			c-0.254,0-0.508-0.096-0.703-0.289l-3.405-3.365c-0.302-0.172-0.514-0.484-0.514-0.856c0-0.421,0.262-0.778,0.631-0.925
			l3.366-2.699c0.43-0.346,1.059-0.277,1.406,0.155c0.345,0.431,0.276,1.06-0.155,1.406l-1.485,1.191
			c16.443,1.407,29.396,15.232,29.396,32.033C259.143,167.926,244.716,182.353,226.983,182.353z M188.313,184.528v-2.742
			c-0.065-0.132-0.108-0.276-0.108-0.433c0-0.157,0.043-0.3,0.108-0.433v-3.325h-6.932v6.932H188.313z M270.751,180.49l-3.2-3.172
			c-0.393-0.389-1.025-0.386-1.414,0.006s-0.387,1.025,0.006,1.414l1.475,1.462h-22.841c-0.552,0-1,0.448-1,1c0,0.552,0.448,1,1,1
			h23.114l-1.553,1.835c-0.356,0.421-0.304,1.052,0.117,1.409c0.188,0.159,0.418,0.237,0.645,0.237c0.284,0,0.566-0.12,0.765-0.354
			l2.946-3.481C271.147,181.448,271.121,180.857,270.751,180.49z"/>
		<path style="fill:#FFFFFF;" d="M214.527,200.259h-3.417l-0.652,1.577h-1.745l3.28-7.359h1.682l3.29,7.359h-1.787L214.527,200.259z
			 M213.991,198.966l-1.167-2.817l-1.167,2.817H213.991z M222.601,198.041h1.556v2.986c-0.399,0.301-0.862,0.533-1.388,0.694
			c-0.526,0.161-1.055,0.242-1.588,0.242c-0.764,0-1.451-0.163-2.061-0.489c-0.609-0.326-1.088-0.778-1.435-1.356
			c-0.347-0.578-0.52-1.232-0.52-1.961c0-0.728,0.173-1.382,0.52-1.96c0.347-0.579,0.829-1.03,1.446-1.357
			c0.617-0.326,1.311-0.489,2.082-0.489c0.645,0,1.23,0.109,1.756,0.326c0.525,0.218,0.967,0.533,1.325,0.946l-1.094,1.009
			c-0.525-0.554-1.16-0.83-1.903-0.83c-0.469,0-0.887,0.098-1.251,0.294c-0.364,0.196-0.649,0.473-0.852,0.831
			c-0.203,0.357-0.305,0.768-0.305,1.23c0,0.456,0.102,0.862,0.305,1.22c0.203,0.357,0.485,0.636,0.846,0.835
			c0.361,0.2,0.773,0.3,1.235,0.3c0.491,0,0.932-0.105,1.325-0.315V198.041z M225.734,194.477h1.703v7.359h-1.703V194.477z
			 M229.182,194.477h1.703v5.972h3.69v1.388h-5.393V194.477z M241.23,200.47v1.367h-5.698v-7.359h5.562v1.367h-3.869v1.598h3.417
			v1.325h-3.417v1.703H241.23z"/>
	</g>
</g>
<g id="Plant">
	<g>
		<g>
			<path style="fill:#407BFF;" d="M433.325,300.836c-17.333,20.275-22.395,50.286-12.672,75.124
				c10.803-9.642,18.411-24.339,18.892-37.194C440.026,325.912,436.662,313.259,433.325,300.836z"/>
		</g>
		<g>
			<path style="fill:#407BFF;" d="M430.301,378.304c-5.881,9.012-8.696,19.985-7.88,30.715c9.37-3.262,17.63-13.846,22.583-22.444
				s7.721-18.254,10.241-27.85C445.094,362.297,436.182,369.292,430.301,378.304z"/>
		</g>
		<g>
			<path style="fill:#407BFF;" d="M408.639,392.345c4.904,7.514,7.251,16.665,6.57,25.611c-7.813-2.72-14.701-11.546-18.83-18.714
				c-4.129-7.169-6.438-15.221-8.539-23.222C396.304,378.999,403.735,384.831,408.639,392.345z"/>
		</g>
		<path style="fill:#263238;" d="M452.112,394.708c-11.02,11.338-22.272,22.447-33.292,33.784c0.124,2.285,0.265,4.569,0.444,6.85
			c0.038,0.482-0.712,0.478-0.75,0c-0.292-3.728-0.512-7.461-0.659-11.197c-0.015-0.022-0.033-0.039-0.044-0.065
			c-5.81-13.82-13.514-26.631-22.332-38.729c-0.285-0.391,0.366-0.765,0.648-0.379c8.501,11.662,15.925,23.991,21.67,37.234
			c-0.098-2.992-0.162-5.986-0.164-8.98c-0.023-25.988,3.524-51.954,10.49-76.99c0.129-0.465,0.853-0.266,0.723,0.199
			c-1.957,7.033-3.652,14.138-5.066,21.3c-3.814,19.309-5.6,39-5.364,58.673c7.092-16.66,16.298-32.287,26.958-46.91
			c0.282-0.387,0.932-0.012,0.648,0.379c-10.809,14.828-20.16,30.689-27.274,47.622c-0.061,0.144-0.181,0.215-0.307,0.236
			c0.054,3.248,0.163,6.494,0.328,9.739c10.868-11.168,21.954-22.123,32.815-33.297
			C451.919,393.831,452.449,394.362,452.112,394.708z"/>
		<g>
			<path style="fill:#407BFF;" d="M452.514,389.484c-9.566,9.225-18.281,19.332-26,30.15l1.75,0.001
				c7.281-0.342,14.349-3.933,18.917-9.613C451.749,404.342,453.742,396.668,452.514,389.484z"/>
		</g>
		<path style="fill:#263238;" d="M407.217,367.492c4.107,6.717,7.977,13.576,11.603,20.565c0.222,0.429,0.87,0.05,0.648-0.379
			c-3.626-6.989-7.495-13.848-11.603-20.565C407.613,366.702,406.964,367.079,407.217,367.492L407.217,367.492z"/>
		<g>
			<path style="fill:#407BFF;" d="M397.327,333.569c-1.566,7.046-3.12,16.208-3.136,23.545c-0.016,7.337,2.223,14.495,6.392,19.411
				c4.169,4.916,12.585,7.07,15.978,4.257L397.327,333.569z"/>
		</g>
		<polygon style="fill:#263238;" points="438.9,431.772 397.113,431.772 397.113,439.517 401.754,439.517 406.184,467.106 
			432.132,467.106 435.632,439.517 438.9,439.517 		"/>
		<polygon style="opacity:0.2;" points="401.777,439.66 435.614,439.66 435.192,442.985 402.311,442.985 		"/>
	</g>
</g>
<g id="Speech_bubble">
	<path style="fill:#407BFF;" d="M91.621,87.073c0.057,0.126,0.002,0.274-0.124,0.331c-0.033,0.015-0.069,0.023-0.104,0.023
		c-0.095,0-0.186-0.054-0.228-0.147c-0.523-1.147-0.81-2.421-0.83-3.684c-0.002-0.138,0.108-0.252,0.246-0.254
		c0.14-0.01,0.252,0.108,0.254,0.246C90.854,84.783,91.126,85.987,91.621,87.073z M99.585,58.799
		c0.109-0.084,0.129-0.241,0.045-0.351c-0.085-0.11-0.242-0.129-0.351-0.045c-6.44,4.975-10.131,13.426-9.405,21.53
		c0.012,0.13,0.121,0.228,0.248,0.228c0.008,0,0.015-0.001,0.023-0.001c0.137-0.012,0.239-0.134,0.227-0.271
		C89.661,71.95,93.277,63.672,99.585,58.799z M139.468,92.937c-5.846,8.846-16.371,12.714-26.14,10.545l-6.064,4.361l-1.9-7.66
		c-0.117-0.074-0.239-0.133-0.355-0.21c-11.459-7.572-14.609-23.001-7.036-34.459c7.573-11.459,23.001-14.609,34.459-7.037
		C143.89,66.05,147.041,81.478,139.468,92.937z M131.489,74.992l-3.464-3.548l-11.696,11.421l-7.039-6.424l-3.343,3.663l10.498,9.58
		L131.489,74.992z"/>
</g>
<g id="Character">
	<g>
		<path style="fill:#263238;" d="M109.653,161.583c0.158-0.225,0.303-0.458,0.437-0.689c1.681-2.87,1.706-6.688,0.704-10.01
			c-0.008-0.041-0.023-0.114-0.023-0.114c1.24-3.609,3.062-5.488,1.518-11.182c-1.696-6.018-4.84-11.551-9.183-16.161
			c-2.403-2.601-5.139-4.954-8.428-6.014c-3.289-1.061-7.034-0.677-9.495,1.727c0,0-1.997,1.849-4.152,6.575
			c-3.927,8.78-0.623,20.113,2.246,26.452c-0.935,0.012-1.868,0.121-2.78,0.347c-1,0.244-1.963,0.619-2.866,1.114
			c-0.348,0.176-0.685,0.371-1.01,0.585c-0.598,0.395-1.157,0.846-1.669,1.348c-0.693,0.676-1.299,1.437-1.801,2.265
			c-2.402,3.884-3.49,8.87-1.314,12.876c6.024-4.203,4.587,1.292,9.616,1.301c8.727,0.013,17.101,0.965,17.101,0.965
			c0.032-0.184,0.031-0.374,0.016-0.567c1.806,0.37,3.773,0.465,5.847,0.021c1.271-0.262,2.497-0.702,3.639-1.307
			C109.556,170.343,114.524,165.366,109.653,161.583z"/>
		<path style="fill:#B97964;" d="M95.642,123.684c-10.177-4.953-20.745,2.626-20.512,13.434c0.235,10.466,0.128,15.073,4.794,20.686
			c-0.031,0.184-0.048,0.372-0.05,0.56c-0.005,0.168,0.003,0.336,0.022,0.503c0.975,5.723,0.858,9.477-1.817,12.616
			c0,0-4.173,6.809,9.928,11.879c2.369,0.969,3.991,1.581,5.766-0.251c6.024-6.175,5.905-8.905,4.81-9.531
			c-1.806-0.913-6.236-4.758-6.387-7.377c0-0.225,0.017-0.477-0.028-0.704c-0.011-0.223,0.03-0.468-0.015-0.696
			c-0.004-0.339-0.003-0.701-0.002-1.074c5.303-0.197,10.164-3.548,11.846-9.534C106.598,144.657,105.819,128.638,95.642,123.684z"
			/>
		<path style="fill:#263238;" d="M96.641,125.13c-0.876-3.083-4.22-5.716-10.34-7.063l-0.295-0.065
			c-5.836-1.223-12.096-3.105-14.585,3.333c-6.525,16.804-16.118,14.495-14.028,19.645c0.659,1.336,2.036,2.166,3.525,2.125
			c0.372-0.001,0.74-0.074,1.084-0.217c-0.429,0.39-0.934,0.795-1.39,1.225c-2.502,2.371-4.929,5.168-5.92,8.556
			c-0.219,0.555-0.334,1.146-0.339,1.742c-0.023,2.68,2.131,4.871,4.811,4.893c-0.223,0.236-2.781,2.89-3.187,3.568
			c-4.481,7.467-1.126,17.313,9.279,12.979c2.831-1.175,10.591-4.128,10.591-4.128s3.013,2.863,2.975-2.665l0.212,0.104
			c-0.011-0.031-0.018-0.064-0.02-0.097c-1.881-4.26-2.603-8.941-2.093-13.57c0.026-0.264,0.063-0.531,0.1-0.798
			c0.119-0.813,0.332-1.723,0.464-2.415c0.132-0.691,0.319-1.281,0.512-1.895c0.375-1.183,0.829-2.34,1.359-3.462
			c0.321-0.65,0.657-1.281,1.008-1.892l0.273-0.438c1.567-2.731,3.841-4.989,6.583-6.535
			C94.529,134.356,97.948,129.299,96.641,125.13z"/>
		<path style="fill:#B97964;" d="M70.35,146.365c1.092,2.33,3.053,3.901,4.92,4.541c2.807,0.962,4.678-3.524,3.942-6.48
			c-0.663-2.661-3.336-4.612-6.175-4.284C70.241,140.465,69.102,143.7,70.35,146.365z"/>
		<path style="opacity:0.2;enable-background:new    ;" d="M92.148,163.729c-0.002,0.369-0.002,0.727,0.001,1.064
			c-0.012,0.232-0.007,0.465,0.015,0.696c0.013,0.244,0.043,0.486,0.089,0.726c-4.797-1.305-9.079-4.048-12.269-7.861
			c0.001-0.146,0.018-0.29,0.035-0.434c0.117,0.139,0.222,0.275,0.344,0.415C83.723,162.163,88.066,163.88,92.148,163.729z
			 M76.71,146.304c0.02-1.103-0.408-2.191-1.173-2.986c-0.765-0.795-1.836-1.264-2.939-1.287c-0.002,0-0.004,0-0.005,0
			c-0.136,0-0.247,0.108-0.25,0.245c-0.003,0.138,0.107,0.252,0.245,0.255c0.972,0.02,1.916,0.434,2.589,1.134
			c0.674,0.7,1.051,1.659,1.033,2.631c-0.003,0.138,0.107,0.252,0.246,0.254c0.001,0,0.003,0,0.004,0
			C76.596,146.55,76.707,146.441,76.71,146.304z"/>
		<path style="fill:#263238;" d="M80.067,122.121c-1.14,3.542-4.307,3.375-6.293,6.522c-1.986,3.147-3.141,7.459-0.933,10.444
			c0.725,0.788,1.406,1.615,2.04,2.478c1.463,2.582-0.198,5.777-0.258,8.742c-0.046,2.759-0.206,6.015,2.016,7.487
			c1.854,1.235,2.986,3.299,3.032,5.526c0.022,0.696-2.15,5.436-2.263,6.122c-0.147,0.996,2.667-2.12,3.664-1.973
			c0.732,0.108,1.458-0.237,1.835-0.874c0.06-0.105,0.114-0.214,0.16-0.325c1.725-3.355,1.865-7.305,0.382-10.773
			c-0.854-1.96-1.799-3.867-2.653-5.827c-0.966-1.927-1.334-4.099-1.055-6.236c0.932-4.808,12.359-15.648,3.25-24.445
			c-0.121-0.121-0.284-0.189-0.455-0.191c-0.788,0.05-1.494,0.502-1.869,1.197C80.389,120.679,80.187,121.392,80.067,122.121z"/>
		<path style="fill:#A24E3F;" d="M97.02,141.863c0,0,1.352,4.199,3.05,6.889c0.297,0.47,0.035,1.098-0.501,1.245
			c-1.38,0.379-2.908-0.199-2.908-0.199L97.02,141.863z"/>
		<path style="fill:#263238;" d="M95.957,152.762c-0.896,1.004-2.098,3.031-2.098,3.031c-0.204-0.076-0.407-0.151-0.606-0.238
			c-2.731-1.097-3.636-2.509-3.81-3.741c-0.093-0.674,0.041-1.299,0.214-1.784c0.194-0.562,0.461-0.919,0.461-0.919
			c1.1,1.447,3.568,2.666,4.913,3.262C95.593,152.629,95.957,152.762,95.957,152.762z"/>
		<path style="fill:#FFFFFF;" d="M95.032,152.374l-0.642,0.878c-2.57-1.04-4.24-2.117-4.732-3.221
			c0.194-0.562,0.461-0.919,0.461-0.919C91.219,150.559,93.687,151.778,95.032,152.374z"/>
		<path style="fill:#DE5753;" d="M93.254,155.556c-2.731-1.097-3.636-2.509-3.81-3.741c0.916,0.41,1.976,1.006,2.791,1.82
			C92.861,154.254,93.138,154.934,93.254,155.556z"/>
		<path style="fill:#263238;" d="M87.667,137.491c-0.116,0.09-0.259,0.118-0.396,0.091c-0.128-0.025-0.25-0.099-0.338-0.216
			c-0.182-0.243-0.149-0.581,0.073-0.755c2.233-1.744,4.534-0.861,4.63-0.823c0.275,0.109,0.427,0.423,0.339,0.701
			c-0.088,0.279-0.383,0.413-0.655,0.308C91.3,136.788,89.466,136.087,87.667,137.491z M103.993,136.57
			c-2.359-1.602-4.284-0.699-4.365-0.658c-0.229,0.111-0.307,0.414-0.175,0.678c0.132,0.263,0.424,0.386,0.652,0.276
			c0.075-0.037,1.579-0.712,3.455,0.562c0.121,0.082,0.257,0.106,0.375,0.076c0.112-0.027,0.21-0.101,0.268-0.216
			C104.322,137.051,104.228,136.729,103.993,136.57z"/>
		<path style="fill:#263238;" d="M90.189,139.876c-0.54,0.201-0.959,0.947-0.995,1.89c-0.044,1.151,0.498,2.145,1.209,2.22
			c0.711,0.075,1.323-0.797,1.367-1.948c0.026-0.68-0.156-1.3-0.453-1.713c0.728-0.141,1.368-0.871,1.368-0.871l-2.536,0.377
			C90.162,139.848,90.176,139.86,90.189,139.876z M100.989,140.766c-0.597,0.12-1.071,0.889-1.107,1.871
			c-0.04,1.115,0.503,2.08,1.212,2.155c0.709,0.075,1.316-0.769,1.357-1.884c0.023-0.645-0.152-1.234-0.439-1.635
			c0.783-0.066,1.506-0.893,1.506-0.893l-2.536,0.377C100.983,140.761,100.986,140.763,100.989,140.766z"/>
		<path style="fill:#407BFF;" d="M59.689,446.423l1.118,1.558l2.219-0.956l1.383,6.841l9.359,13.074c0,0,3.562,0.57,0.756-6.858
			c-0.127-0.338-0.229-0.711-0.297-1.125c-0.833-4.444,1-12.962,1-12.962l-5.136-7.173c0,0-0.535,0.009-1.446,0.159
			C66.52,439.333,62.265,440.371,59.689,446.423z"/>
		<path style="opacity:0.2;" d="M59.689,446.423l1.118,1.558l2.219-0.956l1.383,6.841l9.359,13.074c0,0,3.562,0.57,0.756-6.858
			c-0.127-0.338-0.229-0.711-0.297-1.125c-0.833-4.444,1-12.962,1-12.962l-5.136-7.173c0,0-0.535,0.009-1.446,0.159
			C66.52,439.333,62.265,440.371,59.689,446.423z"/>
		<path style="fill:#A24E3F;" d="M68.646,438.978c-0.011,0.008-0.022,0.016-0.022,0.016c1.725,0.185,0.212,7.842,0.906,12.138
			c0.625,3.833,2.278,7.448,4.698,7.823c-0.833-4.444,2.172-14.57,2.172-14.57l-4.13-5.769
			C72.27,438.616,69.557,438.828,68.646,438.978z"/>
		<path style="fill:#407BFF;" d="M74.016,466.452l1.907-0.003l0.53-2.373l6.312,2.873h15.993c0,0,2.543-2.577-5.073-4.631
			c-0.346-0.094-0.706-0.228-1.079-0.416c-4.061-1.92-9.841-8.404-9.841-8.404H73.99c0,0-0.306,0.443-0.719,1.275
			C72.312,456.719,70.656,460.805,74.016,466.452z"/>
		<path style="fill:#B97964;" d="M73.27,454.773c0,0.013,0,0.027,0,0.027c1.159-1.302,6.432,4.417,10.293,6.363
			c3.449,1.732,7.324,2.497,9.042,0.738c-4.061-1.92-10.51-10.737-10.51-10.737l-7.051,0.215
			C75.044,451.38,73.683,453.941,73.27,454.773z"/>
		<path style="fill:#263238;" d="M130.91,337.207v-0.112l-6.578-39.893C122.037,279.258,114.162,248,114.162,248l-3.358-12.556
			l-31.518,0.025c0,0-0.002,0.072-0.003,0.215l-10.768-0.215c0,0-14.557,9.856-12.609,45.729c0.81,14.911,5.929,52.342,5.442,58.081
			c-5.621,44.024,5.496,112.626,5.496,112.626l16.528-0.803c-0.079-1.35-0.126-2.945-0.146-4.738c0.2,0.024,0.386,0.033,0.544,0.015
			c2.358-6.498,6.139-15.852,10.784-26.555c4.409-10.155,9.571-21.506,15.04-32.829c4.158-8.579,11.733-18.03,16.016-25.991
			C129.529,353.72,131.357,345.491,130.91,337.207z M88.553,377.488c-0.902,2.487-1.758,4.98-2.577,7.465
			c1.669-25.102,3.476-47.192,3.476-47.192c0.419-5.604,1.793-16.998,3.511-30.198c3.126,10.879,6.961,23.051,11.676,36.577
			C98.236,353.69,92.906,365.491,88.553,377.488z"/>
		<path style="opacity:0.2;" d="M85.976,384.953c0.819-2.484,1.675-4.978,2.577-7.465c2.219,12.433,4.702,28.144,5.999,42.336
			c-4.646,10.704-8.427,20.057-10.784,26.555c-0.158,0.018-0.344,0.009-0.544-0.015C83.068,432.847,84.465,407.67,85.976,384.953z
			 M96.893,278.352c-1.401,10.163-2.849,20.863-4.099,30.512c1.478,3.781,3.053,7.936,4.559,12.942
			c5.491-26.91,0.987-45.01,0.987-45.01C97.903,277.242,97.413,277.771,96.893,278.352z M55.726,271.551v4.234l23.559,2.809
			l2.627-41.195L55.726,271.551z"/>
		<path style="fill:#FFFFFF;" d="M113.46,193.129c-0.516-7.905-10.085-19.102-10.085-19.102c-0.53-0.056-4.062-0.11-4.606-0.166
			c-0.558-0.046-1.12-0.091-1.681-0.136l-4.539-6.236l-2.353,4.04l-7.128-5.258l-3.837,1.805l1.882,5.523
			c-2.435,0.148-4.953,0.348-7.652,0.572c-0.991,0.084-1.981,0.183-2.944,0.296c-0.879,0.098-9.575,0.323-9.575,0.323
			s-3.525,7.384-1.446,13.925c6.39,20.113,10.101,39.264,11.022,49.715l39.397-0.711c0.474-10.085,5.681-20.535,5.723-27.709
			C115.872,199.446,113.739,197.546,113.46,193.129z"/>
		<path style="fill:#407BFF;" d="M83.219,219.205c0.246-4.598,0.391-8.885,0.388-12.579c1.336-27.311-4.227-38.301-4.227-38.301
			l-0.15-0.249c-1.098,0.889-2.933,2.162-4.527,3.235l-11.129,1.371c0,0-0.009,0.012-0.01,0.013
			c-6.33,1.088-19.911,29.44-25.294,43.436c-1.633,4.247,1.96,9.691,5.118,10.562c3.335,0.92,12.97,1.841,22.227,2.557
			l-15.382,43.098l27.725,2.897c0,0,2.875-23.218,4.524-44.844c2.132,0.128,3.425,0.2,3.425,0.2l1.345-10.552L83.219,219.205z
			 M57.108,213.736l4.917-7.417c0.596,2.301,1.208,4.632,1.807,6.895c0.198,0.744,0.387,1.413,0.572,2.05L57.108,213.736z"/>
		<path style="fill:#B97964;" d="M140.398,198.582c0,0-1.613-2.568-1.026-5.005c0.587-2.438,0.406-4.54,0.968-6.322
			c0.562-1.782,1.561,0.533,1.842,1.873c0.282,1.339,0.615,2.855,1.587,2.48c0.972-0.374,6.619-7.326,8.026-7.692
			c1.406-0.366,0.845,1.044,0.845,1.044s1.417-1.652,2.224-1.268c0.21,0.1,0.536,0.671,0.008,1.525
			c-1.188,1.921-3.887,5.824-3.887,5.824c0.15-0.227,3.827-4.807,4.467-5.421c0.837-0.802,1.641-0.754,2.09-0.254
			c0.64,0.712-3.725,6.545-3.737,6.92c0,0,2.4-3.442,3.628-3.309c1.228,0.133-0.165,2.383-1.77,4.133
			c-1.471,1.604-3.937,5.137-5.591,6.622c-2.038,1.831-3.817,2.603-6.171,1.573C141.547,200.273,140.398,198.582,140.398,198.582z"
			/>
		<path style="opacity:0.3;" d="M149.293,189.591c-0.048,0-0.097-0.014-0.14-0.043c-0.115-0.077-0.145-0.232-0.068-0.347
			c0.982-1.456,2.036-2.875,3.133-4.22c0.087-0.108,0.244-0.122,0.352-0.036c0.106,0.087,0.123,0.245,0.035,0.352
			c-1.087,1.332-2.132,2.739-3.104,4.183C149.452,189.552,149.373,189.591,149.293,189.591z"/>
		<path style="opacity:0.3;" d="M152.918,193.904c-0.078,0-0.154-0.036-0.203-0.104c-1.278-1.786-3.112-3.199-5.165-3.979
			c-0.129-0.049-0.194-0.193-0.145-0.322c0.049-0.128,0.192-0.195,0.323-0.144c2.144,0.813,4.06,2.289,5.394,4.154
			c0.08,0.112,0.055,0.269-0.058,0.349C153.019,193.889,152.968,193.904,152.918,193.904z"/>
		<path style="opacity:0.3;" d="M144.286,198.02c-0.053,0-0.105-0.017-0.151-0.051c-0.11-0.083-0.132-0.239-0.049-0.35
			c0.515-0.682,0.788-1.563,0.749-2.417c-0.04-0.854-0.392-1.707-0.967-2.34c-0.093-0.102-0.085-0.26,0.017-0.352
			c0.103-0.093,0.261-0.087,0.353,0.017c0.652,0.718,1.052,1.684,1.096,2.652c0.044,0.969-0.265,1.969-0.849,2.741
			C144.436,197.986,144.361,198.02,144.286,198.02z"/>
		<path style="fill:#407BFF;" d="M114.342,232.391c1.907,2.336,4.221,3.798,6.922,3.078c2.905-0.774,26.772-32.297,26.772-32.297
			l-10.219-8.223l-16.185,14.987c0,0-1.883-15.062-5.163-24.878c-1.829-5.472-5.758-9.99-10.939-12.529l-0.581-0.284l-4.594-0.317
			c-0.138-0.093-0.277-0.186-0.415-0.279c-2.202-1.491-6.523-3.747-7.091-3.573c0,0,0.413,0.523,1.103,1.428l-0.151-0.061
			c0,0,0.745,0.9,1.925,2.422c5.174,6.989,15.52,21.845,15.59,28.978c0.089,9.176,0.182,11.204,0.182,11.204l0.001-0.002
			c-0.706,9.226-2.32,19.644-1.996,23.449c0.853,10.031,5.285,22.308,11.029,40.291l3.8-0.539l-10.464-39.803
			C113.869,235.444,114.055,234.289,114.342,232.391z"/>
		<path style="opacity:0.3;" d="M111.317,200.843c-0.093-9.514-18.467-32.767-18.467-32.767c0.568-0.174,4.888,2.082,7.091,3.573
			c3.223,2.183,6.693,4.313,6.693,4.313l-0.947,6.483l7.195,5.317c0,0,0.099,4.731,0.526,11.072
			c0.427,6.341-1.908,13.213-1.908,13.213S111.407,210.019,111.317,200.843z M116.813,234.953v-25.982l-2.471,23.43
			C115.271,233.662,116.813,234.953,116.813,234.953z"/>
		<path style="opacity:0.2;" d="M66.752,199.191L66.752,199.191c0.447,3.455,0.533,7.812-0.896,11.478
			c-0.461,1.182-1.172,1.997-2.023,2.546c-0.599-2.263-1.211-4.594-1.807-6.895L66.752,199.191z M79.23,168.076
			c-2.25,1.822-7.606,5.266-7.606,5.266l5.007,10.004l-3.773,6.121l10.423,22.398c2.373-31.158-3.901-43.54-3.901-43.54
			L79.23,168.076z M57.108,213.736c0,0-4.465-0.692-7.299,1.67c0,0,3.056-4.89,8.54-3.541L57.108,213.736z M82.482,230.402
			l-16.867-1.151l-0.995,2.788l17.555,2.235L82.482,230.402z"/>
		<polygon style="opacity:0.3;" points="97.716,174.594 95.694,179.596 90.667,174.594 87.246,180.467 82.137,177.965 
			87.583,182.277 90.734,175.842 96.498,181.271 		"/>
		<path style="fill:#B97964;" d="M102.29,221.384l-3.205-2.52c-0.729-0.574-1.687-0.761-2.577-0.505l-9.387,2.709l-1.215,9.533
			c0,0-0.185-0.01-0.528-0.03c1.66,4.386,10.333,0.603,10.333,0.603l2.144,1.362c1.741,1.105,5.882-0.112,6.237-2.155l0.247-5.229
			C104.525,224.09,103.134,222.048,102.29,221.384z"/>
	</g>
</g>
</svg>
