<?xml version="1.0" encoding="utf-8"?>
<!-- Generator: Adobe Illustrator 27.5.0, SVG Export Plug-In . SVG Version: 6.00 Build 0)  -->
<svg version="1.1" xmlns="http://www.w3.org/2000/svg" xmlns:xlink="http://www.w3.org/1999/xlink" x="0px" y="0px"
	 viewBox="0 0 750 500" style="enable-background:new 0 0 750 500;" xml:space="preserve">
<g id="BACKGROUND">
	<g>
		<!-- <rect style="fill:#AFB0F1;" width="750" height="500"/> -->
		<g>
			<g>
				<path style="fill:#989BE2;" d="M102.013,140.1c3.159-1.155,6.923-1.306,9.722,0.854c1.465,1.131,2.39,2.835,3.806,4.026
					c4.682,3.937,12.279,0.791,17.658,3.704c3.871,2.096,5.621,6.809,9.227,9.333c3.501,2.451,8.327,2.543,11.609,5.28
					c5.079,4.236,4.618,13.187,10.303,16.568c1.982,1.179,4.36,1.418,6.609,1.926c10.399,2.352,18.904,11.519,20.472,22.065
					c0.267,1.798,0.375,3.697,1.329,5.243c1.524,2.468,4.652,3.266,7.27,4.515c8.365,3.992,12.568,14.987,8.999,23.541
					c-0.714,1.711-1.712,3.43-1.549,5.277c0.203,2.304,2.114,4.017,3.734,5.669c3.931,4.009,6.714,10.783,2.969,14.967
					c-1.211,1.353-3.059,2.382-3.33,4.177c-0.139,0.92,0.19,1.841,0.531,2.707c1.669,4.243,3.558,9.62,0.355,12.865
					c-2.686,2.721-7.778,2.306-9.829,5.533c-2.728,4.291,2.247,11.464-1.85,14.475c-2.65,1.948-7.626,0.434-8.775,3.516
					c-0.386,1.035-0.081,2.181-0.056,3.285c0.113,5.061-5.598,8.303-10.644,8.708c-0.858,0.069-1.813,0.132-2.4,0.761
					c-0.734,0.787-0.524,2.02-0.485,3.095c0.102,2.866-1.491,6.19-6.221,7.919L102.013,140.1z"/>
				<path style="fill:#989BE2;" d="M171.466,330.11c-2.812,1.142-9.254-0.329-11.546-2.318c-0.68-0.59-1.288-1.307-2.123-1.641
					c-1.781-0.712-3.666,0.559-5.324,1.524c-1.641,0.955-3.483,1.669-5.381,1.636c-1.898-0.033-3.853-0.919-4.811-2.558
					c-0.307-0.525-0.51-1.115-0.895-1.585c-1.416-1.727-4.149-0.928-6.248-0.164c-3.758,1.367-8.686,1.809-11.084-1.392
					c-1.171-1.563-1.493-3.757-3.033-4.959c-1.969-1.537-4.779-0.691-7.254-0.353c-4.267,0.582-9.197-1.065-10.957-4.995
					c-1.126-2.515-0.769-5.404-0.703-8.159c0.014-0.604-0.014-1.279-0.443-1.704c-0.38-0.376-0.961-0.441-1.495-0.484
					c-2.597-0.212-5.266-0.45-7.598-1.614c-2.332-1.164-4.278-3.484-4.209-6.089c0.041-1.537,0.76-2.98,0.933-4.508
					c0.404-3.56-2.157-6.742-4.817-9.141c-3.269-2.949-6.953-5.462-9.868-8.761c-2.915-3.3-5.042-7.676-4.324-12.02
					c0.489-2.961,2.22-5.541,3.48-8.265c1.26-2.724,2.036-6.013,0.61-8.654c-1.641-3.037-3.979-4.528-5.325-7.707
					c-1.347-3.178-1.922-6.81-0.883-10.102c1.795-5.695,8.027-9.509,8.692-15.443c0.428-3.823-1.608-7.42-3.078-10.975
					c-1.47-3.555-2.284-8.006,0.181-10.959c1.177-1.41,2.917-2.218,4.278-3.452c2.815-2.55,3.683-7.011,2.031-10.431
					c-0.482-0.999-1.165-1.947-1.27-3.051c-0.241-2.523,2.437-4.191,4.615-5.486c2.506-1.49,5-3.575,5.483-6.45
					c0.444-2.639-0.922-5.234-1.11-7.902c-0.249-3.528-0.119-6.679,14.024-11.848L171.466,330.11z"/>
				<path style="fill:#AFB0F1;" d="M189.24,265.589c-2.62,4.503-5.512,8.841-8.574,13.05c-3.023,4.237-6.286,8.298-9.58,12.323
					l-5.08,5.924l-2.594,2.866l-16.317-42.111c3.36-3.661,6.483-7.507,9.303-11.558c3.088-4.517,5.971-9.159,8.55-13.961
					c2.581-4.799,4.962-9.698,7.132-14.684c2.16-4.989,4.156-10.049,5.854-15.207c-1.905,5.083-4.102,10.05-6.454,14.932
					c-2.363,4.878-4.928,9.652-7.681,14.306c-2.75,4.658-5.788,9.13-9.004,13.448c-2.697,3.558-5.626,6.916-8.72,10.09
					l-18.395-47.472c1.649-2.92,3.227-5.872,4.49-8.959c1.347-3.121,2.486-6.321,3.435-9.569c1.918-6.484,3.204-13.147,3.632-19.856
					c-0.865,6.661-2.579,13.183-4.885,19.439c-1.143,3.133-2.466,6.195-3.978,9.15c-1.143,2.344-2.475,4.579-3.867,6.766
					l-16.797-43.348l9.813,28.536c-4.957-1.104-9.873-2.582-14.74-4.175c-5.295-1.751-10.551-3.645-15.757-5.672
					c5.078,2.332,10.218,4.536,15.419,6.604c5.177,2.039,10.405,3.967,15.835,5.445l15.585,45.321
					c-3.936-0.198-7.875-0.472-11.794-0.99c-4.669-0.551-9.316-1.331-13.931-2.283c-4.619-0.934-9.204-2.061-13.741-3.363
					c-4.537-1.301-9.04-2.751-13.441-4.482c4.317,1.935,8.757,3.597,13.244,5.113c4.488,1.518,9.039,2.865,13.642,4.02
					c4.598,1.174,9.247,2.179,13.94,2.956c4.292,0.772,8.633,1.256,12.986,1.663l15.942,46.359
					c-4.413-0.354-8.825-0.802-13.205-1.513c-5.512-0.816-10.99-1.896-16.42-3.191c-5.436-1.271-10.827-2.763-16.153-4.464
					c-5.327-1.698-10.606-3.571-15.758-5.766c5.063,2.396,10.274,4.479,15.546,6.392c5.271,1.915,10.622,3.625,16.036,5.118
					c5.409,1.516,10.882,2.822,16.413,3.864c4.771,0.967,9.6,1.625,14.445,2.189l23.098,67.169l7.444-2.721l-19.721-50.895
					l3.336-4.014l4.863-6.18c3.148-4.194,6.256-8.416,9.118-12.808c2.899-4.363,5.624-8.846,8.064-13.481
					c2.417-4.634,4.7-9.386,6.122-14.421C194.309,256.453,191.838,261.083,189.24,265.589z"/>
			</g>
			<g>
				<path style="fill:#989BE2;" d="M672.936,288.699c-7.755,1.914-15.362,4.45-23.172,6.138c-2.797,0.587-5.741,1.078-8.508,0.327
					c-1.376-0.373-2.809-1.201-3.189-2.572c-0.151-0.552-0.134-1.141-0.004-1.697c0.415-1.871,1.897-3.389,3.608-4.264
					c1.711-0.874,3.646-1.209,5.548-1.432c6.495-0.732,13.089-0.385,19.573-1.137c7.809-0.919,15.405-3.475,22.195-7.442
					c0.169-1.279,0.279-2.593,0.378-3.927c0.871-12.962,0.226-22.106-1.382-28.949c-1.906,1.708-3.722,3.53-5.464,5.392
					c-1.818,1.944-3.577,3.923-5.324,5.923c-1.314,1.481-2.632,2.979-3.946,4.46c-1.344,1.525-2.688,3.05-4.197,4.421
					c-2.12,1.959-4.543,3.584-7.085,4.963c-2.454,1.318-5.049,2.402-7.693,3.297c-2.429,0.819-5.16,1.478-7.512,0.448
					c-2.396-1.06-3.818-3.755-3.762-6.362c0.056-2.606,1.4-5.076,3.254-6.904c1.87-1.824,4.215-3.069,6.616-4.088
					c4.859-2.056,10.029-3.216,15.035-4.879c4.989-1.668,9.958-3.919,13.63-7.691c1.508-1.546,2.765-3.307,3.87-5.148
					c0.131-0.206,0.246-0.417,0.361-0.627c-2.095-4.906-4.861-8.314-7.84-11.418c-1.527-1.572-3.642-3.581-6.026-5.861
					c-3.518,4.727-6.706,9.815-10.507,14.318c-1.489,1.779-3.135,3.494-5.154,4.644c-2.015,1.134-4.496,1.657-6.706,0.914
					c-1.239-0.42-2.393-1.304-2.833-2.536c-0.582-1.694,0.296-3.532,1.328-5.009c3.161-4.466,7.828-7.646,12.66-10.2
					c1.345-0.703,2.713-1.364,3.913-2.285c1.309-0.993,2.392-2.228,3.475-3.463c0.021-0.011,0.03-0.043,0.051-0.055
					c-8.595-8.46-18.222-19.044-16.248-25.698l-32.72,110.326c0,0,7.627,12.492,28.051,16.975
					c17.122,3.766,33.757-9.399,39.861-31.336C682.31,286.635,677.577,287.558,672.936,288.699z M674.156,267.608
					c1.039-1.307,9.711-8.892,9.26-3.499c-0.073,0.876-0.555,1.656-0.955,2.439c-0.716,1.403-1.199,2.916-1.932,4.311
					c-0.733,1.395-1.777,2.71-3.229,3.319s-3.361,0.312-4.251-0.988c-0.575-0.84-0.642-1.953-0.372-2.934
					C672.948,269.275,673.523,268.405,674.156,267.608z M665.381,304.137c-0.386,0.883-1.089,1.585-1.812,2.222
					c-1.8,1.585-3.89,2.928-6.235,3.432c-1.999,0.43-4.073,0.23-6.108,0.029c-1.621-0.16-3.284-0.332-4.74-1.061
					c-1.609-0.806-3.866-2.835-4.632-4.499c-0.874-1.898,2.543-3.139,4.049-3.605c4.384-1.357,9.144,1.328,13.646,0.44
					c0.98-0.193,1.929-0.554,2.924-0.644c0.995-0.09,2.1,0.153,2.714,0.94C665.779,302.151,665.768,303.254,665.381,304.137z"/>
				<path style="fill:#989BE2;" d="M625.542,202.982c-0.003,0.716,0.053,1.415,0.14,2.122c0.661,5.023,3.672,9.378,5.333,14.155
					c0.414,1.137,0.736,2.352,0.618,3.576c-0.13,1.203-0.789,2.424-1.897,2.917c-0.768,0.349-1.666,0.31-2.508,0.201
					c-1.023-0.146-2.041-0.43-2.959-0.93c-0.973-0.551-1.796-1.372-2.495-2.261c-3.857-4.921-4.161-11.796-2.667-17.893
					c-0.058,0.018-0.095,0.024-0.152,0.042c-4.801,1.269-12.227,4.435-19.922,9.568c1.073,8.292,5.985,15.729,11.533,22.079
					c1.323,1.494,2.683,2.982,4.267,4.186c1.394,1.078,2.956,1.943,4.243,3.147c2.651,2.5,3.865,6.427,3.087,9.991
					c-0.206,0.988-0.586,1.977-1.333,2.665c-1.539,1.415-3.976,1.024-5.945,0.353c-5.201-1.805-9.95-5.189-12.703-9.94
					c-1.418-2.414-2.266-5.096-3.098-7.774c-2.01-6.489-3.911-13.051-5.311-19.709c-0.075-0.337-0.134-0.669-0.193-1.001
					c-6.806,5.378-13.379,12.33-18.078,20.921c-0.619,1.145-1.207,2.3-1.739,3.506c1.427,1.735,3.225,3.16,5.026,4.516
					c2.421,1.802,4.882,3.529,7.358,5.26c4.247,2.956,8.505,5.932,12.752,8.888c2.895,2.03,5.861,4.116,7.905,7.013
					c2.048,2.881,3.006,6.785,1.56,10.011c-0.099,0.216-0.214,0.426-0.372,0.607c-0.312,0.345-0.774,0.487-1.227,0.598
					c-3.894,0.926-7.986-0.55-11.378-2.675c-5.479-3.461-9.709-8.598-13.321-13.988c-3.479-5.194-6.479-10.7-10.109-15.798
					c-7.124,19.833-4.027,44.359,11.751,51.591c17.982,8.236,35.449,1.7,35.449,1.7l32.72-110.326
					C650.888,193.642,637.306,199.284,625.542,202.982z M591.856,246.919c-0.294,0.628-0.844,1.279-1.531,1.19
					c-0.289-0.037-0.544-0.204-0.772-0.385c-1.905-1.513-2.502-4.091-3.586-6.27c-0.33-0.663-0.718-1.316-0.834-2.048
					c-0.16-1.01,0.221-2.02,0.595-2.972c0.991-2.524,2.23-3.062,3.79-0.507c1.019,1.669,2.016,3.379,2.563,5.257
					C592.626,243.063,592.685,245.149,591.856,246.919z M594.687,289.412c-0.465,0.759-1.129,1.385-1.872,1.876
					c-1.721,1.138-4.065,1.528-5.859,0.509c-0.81-0.46-1.457-1.17-1.952-1.96c-1.393-2.224-1.966-7.14,0.466-9.014
					c2.322-1.789,7.27,0.937,9.083,2.474c0.614,0.52,1.205,1.155,1.335,1.95c0.097,0.594-0.078,1.195-0.251,1.772
					C595.39,287.843,595.137,288.678,594.687,289.412z"/>
				<path style="fill:#AFB0F1;" d="M658.36,277.06c-3.533,0.561-7.102,0.834-10.67,0.916c-3.569,0.003-7.138-0.109-10.678-0.531
					c-1.776-0.136-3.529-0.489-5.292-0.722c-1.255-0.213-2.502-0.467-3.75-0.718l6.573-23.837l2.3-0.262l1.517-0.173l1.498-0.291
					l2.99-0.589l2.938-0.796c3.891-1.133,7.693-2.557,11.313-4.348c3.633-1.759,7.137-3.77,10.475-6.019
					c3.33-2.259,6.532-4.712,9.473-7.449c-3.033,2.632-6.311,4.965-9.701,7.097c-3.398,2.122-6.946,3.995-10.598,5.609
					c-3.64,1.647-7.437,2.918-11.287,3.895l-2.902,0.679l-2.938,0.473l-1.468,0.233l-1.481,0.116l-1.662,0.131l6.599-23.929
					c3.008-1.79,5.886-3.784,8.6-5.975c2.769-2.243,5.41-4.648,7.779-7.301c-2.47,2.556-5.197,4.849-8.036,6.969
					c-2.561,1.907-5.253,3.63-8.033,5.181l5.963-21.623l-5.524,17.392c-0.891-1.055-1.767-2.124-2.588-3.236
					c-0.965-1.294-1.87-2.632-2.721-4.005c-0.839-1.38-1.627-2.794-2.324-4.255c-0.688-1.463-1.324-2.96-1.755-4.524
					c0.363,1.583,0.936,3.112,1.564,4.611c0.637,1.497,1.367,2.954,2.153,4.38c0.798,1.42,1.653,2.81,2.571,4.158
					c0.881,1.308,1.83,2.568,2.802,3.812l-6.56,20.653c-2.807-1.504-5.576-3.108-8.111-5.063c-2.85-2.068-5.473-4.45-7.907-7.008
					c-2.451-2.547-4.668-5.325-6.649-8.266c-1.982-2.938-3.76-6.033-5.134-9.315c1.245,3.335,2.905,6.51,4.782,9.543
					c1.876,3.036,4.002,5.926,6.381,8.603c2.362,2.687,4.933,5.213,7.757,7.438c2.59,2.163,5.453,3.965,8.372,5.669l-8.055,25.359
					c-2.467-0.959-4.917-1.978-7.284-3.182c-2.81-1.366-5.533-2.915-8.186-4.579c-2.66-1.655-5.231-3.459-7.713-5.38
					c-2.481-1.922-4.887-3.952-7.117-6.172c2.13,2.317,4.45,4.458,6.853,6.497c2.405,2.039,4.909,3.968,7.515,5.754
					c2.599,1.797,5.281,3.483,8.066,4.994c2.382,1.347,4.864,2.508,7.375,3.613l-6.704,21.106c-1.233,0.036-2.47,0.044-3.708-0.018
					c-1.779-0.065-3.561-0.212-5.336-0.437c-3.55-0.441-7.086-1.13-10.538-2.148c3.365,1.283,6.856,2.252,10.402,2.975
					c1.774,0.366,3.566,0.656,5.373,0.863c1.101,0.141,2.21,0.227,3.322,0.288l-10.957,34.496l4.822,1.43l9.528-34.55
					c1.496,1.153,3.07,2.192,4.716,3.084c2.343,1.266,4.804,2.312,7.363,2.958c-2.472-0.912-4.779-2.2-6.924-3.672
					c-1.7-1.17-3.276-2.497-4.723-3.936l4.455-16.156c1.321,0.213,2.642,0.43,3.968,0.602c1.801,0.168,3.587,0.454,5.394,0.523
					c3.602,0.288,7.219,0.26,10.82,0.117c3.599-0.223,7.184-0.639,10.714-1.341c3.522-0.716,7.02-1.638,10.313-3.072
					C665.403,275.704,661.885,276.484,658.36,277.06z"/>
			</g>
			<path style="fill:#989BE2;" d="M695.465,422.265H64.752c0.81-4.211,1.321-8.473,1.595-12.585
				c1.283-19.014,1.645-40.595,15.837-53.292c17.693-15.837,45.205-8.286,68.754-11.314c31.611-4.062,56.469-27.836,79.993-49.342
				c23.537-21.493,51.51-43.112,83.32-41.205c45.903,2.754,76.766,52.606,122.058,60.58c24.21,4.261,48.756-4.224,71.246-14.142
				s44.868-21.593,69.315-24.185c24.446-2.592,52.145,6.442,63.21,28.396c7.214,14.317,6.542,32.109,15.911,45.118
				c6.392,8.859,16.547,14.167,24.247,21.93C693.147,385.234,697.508,403.849,695.465,422.265z"/>
			<g>
				<path style="fill:#AFB0F1;" d="M592.028,351.509c1.487-4.691,1.492-9.785,0.19-14.516c-1.182-4.29-3.488-8.323-6.859-11.267
					c-0.394,4.544,0.148,9.167,1.206,13.577C587.601,343.624,589.237,347.985,592.028,351.509z M555.33,369.537
					c0.74-4.428,0.33-9.096-1.512-13.218c-2.275,3.998-3.738,8.459-4.655,12.939c-0.901,4.398-1.284,9.091-0.242,13.513
					C552.31,379.114,554.509,374.443,555.33,369.537z M585.795,363.18c3.794,2.815,8.77,4.134,13.286,3.944
					c5.783-0.244,10.668-1.794,15.964-4.584c-4.269-2.077-9.302-2.567-13.904-2.28C595.952,360.584,590.789,361.371,585.795,363.18z
					 M565.321,363.701c0.283-4.44-0.585-9.002-2.811-12.883c-1.848,4.168-2.843,8.713-3.291,13.224
					c-0.439,4.425-0.332,9.088,1.149,13.337C563.324,373.43,565.008,368.61,565.321,363.701z M578.816,347.464
					c0.612,4.437,1.815,8.974,4.256,12.793c1.961-4.547,2.472-9.647,1.632-14.513c-0.763-4.418-2.682-8.687-5.768-11.974
					C578.101,338.275,578.194,342.951,578.816,347.464z M572.927,373.684c3.397,3.286,8.163,5.238,12.667,5.636
					c5.763,0.509,10.809-0.389,16.421-2.461c-3.959-2.618-8.883-3.763-13.482-4.078
					C583.343,372.425,578.118,372.535,572.927,373.684z M568.068,357.183c0.025,4.481,0.622,9.139,2.541,13.246
					c2.545-4.253,3.722-9.248,3.522-14.186c-0.181-4.48-1.529-8.961-4.16-12.622C568.558,347.98,568.042,352.628,568.068,357.183z
					 M594.522,353.693c4.021,2.394,9.057,3.201,13.488,2.564c5.474-0.786,10.659-2.585,15.279-6.108
					c-4.416-1.623-9.428-1.603-13.937-0.861C604.271,350.124,599.263,351.413,594.522,353.693z M601.751,344.24
					c3.981,1.186,8.083,0.309,11.732-0.794c4.293-1.298,8.46-4.237,11.604-7.731c-4.084-0.358-8.115,0.896-11.798,2.179
					C609.246,339.302,605.234,341.544,601.751,344.24z M590.372,386.298c-3.638-2.979-8.374-4.606-12.876-5.377
					c-5.084-0.872-10.249-1.282-15.486-0.662c3.025,3.577,7.533,5.974,11.935,6.816
					C579.374,388.112,584.859,388.108,590.372,386.298z M600.208,330.138c-0.689-3.404-2.191-7.242-5.039-9.979
					c-0.651,3.953-0.351,8.067,0.322,11.763c0.647,3.552,1.731,7.458,3.946,10.648C600.976,338.462,600.978,333.946,600.208,330.138
					z M550.534,386.427c2.681,3.909,6.989,6.764,11.338,8.044c5.576,1.641,10.73,1.76,16.669,0.84
					c-3.362-3.361-7.973-5.462-12.425-6.68C561.063,387.25,555.885,386.327,550.534,386.427z M606.976,321.077
					c-1.043-3.419-2.777-6.157-4.719-7.821c-0.24,2.875,0.086,6.253,1.029,9.701c0.942,3.448,2.349,6.365,4.042,8.315
					C608.119,328.155,607.898,324.1,606.976,321.077z M620.438,300.778c-2.504,3.625-4.488,7.708-5.901,11.794
					c-1.368,3.956-2.595,8.134-3.02,12.348c-0.011,0.11-0.023,0.217-0.031,0.325c0.081-0.073,0.158-0.147,0.237-0.225
					c3.1-3.02,5.401-6.893,6.888-10.954C620.155,309.855,620.934,305.264,620.438,300.778z M626.915,323.542
					c-2.62-0.036-5.894,0.91-9.319,2.541c-3.051,1.453-6.329,3.628-8.748,6.046c2.551,0.431,5.871-0.057,9.357-1.62
					C621.372,329.091,624.845,326.388,626.915,323.542z"/>
				<path style="fill:#AFB0F1;" d="M585.734,363.342c0.168,0.055,0.333,0.101,0.497,0.16l0.006,0l0.002,0.003
					c0.528,0.173,1.055,0.346,1.607,0.476c1.424,0.399,2.929,0.664,4.435,0.847c1.512,0.184,3.093,0.248,4.691,0.188
					c1.599-0.06,3.239-0.228,4.911-0.626c-1.661,0.335-3.285,0.447-4.858,0.449c-1.571,0.002-3.127-0.121-4.603-0.356
					c-1.47-0.234-2.952-0.592-4.316-0.996c-0.545-0.162-1.096-0.355-1.624-0.552c-0.141-0.052-0.282-0.103-0.42-0.152
					c-0.424-0.153-0.847-0.342-1.263-0.522c2.883-2.837,5.614-5.697,8.314-8.709c0.57,0.147,1.139,0.294,1.719,0.417
					c0.082,0.013,0.162,0.031,0.241,0.048l0.005-0.001c0.636,0.124,1.274,0.267,1.93,0.344c1.464,0.232,2.992,0.348,4.509,0.368
					c1.524,0.02,3.11-0.075,4.694-0.296c1.585-0.221,3.204-0.557,4.828-1.121c-1.622,0.505-3.221,0.771-4.792,0.934
					c-1.568,0.162-3.128,0.202-4.623,0.126c-1.49-0.077-3.001-0.277-4.412-0.528c-0.686-0.122-1.372-0.295-2.058-0.448l-0.066-0.017
					c-0.494-0.127-0.978-0.271-1.464-0.415c2.388-2.763,4.674-5.685,6.783-8.667c0.523,0.012,1.044,0.013,1.572,0.004l0.005-0.001
					c0.619-0.008,1.251-0.043,1.879-0.095c1.235-0.101,2.513-0.284,3.778-0.534c1.268-0.251,2.547-0.595,3.819-1.014
					c1.273-0.42,2.551-0.921,3.811-1.557c-1.264,0.579-2.544,1.019-3.808,1.377c-1.265,0.358-2.533,0.642-3.785,0.831
					c-1.252,0.189-2.509,0.317-3.72,0.363c-0.495,0.019-0.994,0.029-1.484,0.02c-0.532-0.009-1.067-0.031-1.593-0.063
					c2.623-3.723,5.044-7.589,7.246-11.575c0.322-0.047,0.648-0.102,0.973-0.163c1.618-0.305,3.271-0.759,4.898-1.386
					c1.993-0.767,5.882-3.013,5.882-3.013c0,0-3.911,2.132-5.897,2.837c-1.486,0.527-2.98,0.91-4.457,1.166
					c-0.398,0.069-0.796,0.129-1.193,0.181c1.433-2.614,2.112-3.946,3.391-6.652c1.211-2.564,1.782-3.865,2.851-6.506
					c-0.473,1.096-0.716,1.641-1.213,2.722c0.473-1.093,0.703-1.642,1.151-2.749c-1.128,2.614-1.727,3.901-2.995,6.431
					c-1.337,2.671-2.045,3.983-3.531,6.557c-0.163-0.366-0.321-0.734-0.475-1.104c-0.573-1.374-1.091-2.792-1.542-4.241
					c-0.603-1.938-1.513-5.957-1.513-5.957s0.811,4.062,1.365,6.036c0.452,1.611,0.99,3.198,1.582,4.725
					c0.119,0.306,0.241,0.612,0.366,0.913c-2.282,3.917-4.779,7.71-7.474,11.355c-0.198-0.488-0.392-0.984-0.58-1.477
					c-0.173-0.453-0.336-0.918-0.495-1.379c-0.39-1.128-0.748-2.3-1.086-3.47c-0.338-1.169-0.631-2.36-0.897-3.555
					c-0.266-1.193-0.504-2.407-0.664-3.638c0.11,1.246,0.298,2.478,0.512,3.698c0.215,1.219,0.457,2.44,0.742,3.641
					c0.284,1.199,0.596,2.407,0.935,3.574c0.172,0.592,0.353,1.19,0.547,1.771l0,0.005c0.163,0.497,0.328,0.988,0.499,1.481
					c-2.163,2.911-4.501,5.759-6.936,8.447c-0.207-0.461-0.419-0.918-0.619-1.384l-0.027-0.062
					c-0.256-0.649-0.539-1.292-0.781-1.933c-0.498-1.324-1.002-2.718-1.43-4.089c-0.429-1.373-0.81-2.796-1.135-4.218
					c-0.326-1.424-0.616-2.862-0.768-4.335c0.102,1.483,0.337,2.948,0.612,4.392c0.275,1.443,0.608,2.897,0.986,4.303
					c0.377,1.403,0.797,2.826,1.276,4.202c0.189,0.62,0.43,1.219,0.647,1.824l-0.001,0.006c0.029,0.076,0.057,0.151,0.082,0.229
					c0.205,0.551,0.425,1.094,0.641,1.64c-2.744,2.921-5.514,5.692-8.435,8.436c-0.151-0.427-0.314-0.859-0.444-1.288
					c-0.042-0.14-0.086-0.283-0.131-0.424c-0.171-0.533-0.344-1.085-0.491-1.625c-0.37-1.354-0.729-2.795-1.018-4.199
					c-0.29-1.406-0.523-2.861-0.697-4.304c-0.174-1.443-0.305-2.909-0.304-4.385c-0.055,1.485,0.026,2.962,0.147,4.425
					c0.121,1.463,0.298,2.937,0.535,4.374c0.237,1.434,0.501,2.89,0.853,4.301c0.113,0.545,0.262,1.072,0.406,1.604l0.002,0.002
					l-0.001,0.005c0.051,0.166,0.087,0.332,0.132,0.501c0.134,0.508,0.294,1.013,0.447,1.52c-4.014,3.533-8.118,6.817-12.445,9.959
					c-0.018-0.385-0.038-0.772-0.05-1.157c-0.016-0.485-0.018-0.978-0.018-1.465c0-1.193,0.042-2.418,0.103-3.632
					c0.061-1.214,0.171-2.435,0.307-3.648c0.136-1.212,0.304-2.435,0.55-3.646c-0.298,1.21-0.52,2.432-0.713,3.654
					c-0.193,1.22-0.36,2.451-0.482,3.679c-0.122,1.225-0.221,2.468-0.281,3.681c-0.031,0.616-0.055,1.24-0.062,1.853l-0.002,0.005
					c-0.006,0.378-0.005,0.754-0.007,1.131c-3.011,2.1-6.172,4.081-9.375,5.874c-0.036-0.405-0.076-0.809-0.105-1.216l-0.005-0.068
					c-0.028-0.698-0.083-1.399-0.1-2.086c-0.035-1.415-0.052-2.901-0.006-4.338c0.046-1.439,0.154-2.911,0.314-4.363
					c0.159-1.454,0.356-2.909,0.694-4.351c-0.388,1.436-0.646,2.899-0.861,4.354c-0.214,1.455-0.377,2.94-0.483,4.395
					c-0.106,1.452-0.177,2.936-0.178,4.396c-0.026,0.649,0.004,1.295,0.009,1.939l-0.002,0.005c0.002,0.081,0.004,0.161,0.002,0.244
					c0.009,0.489,0.034,0.975,0.054,1.463c-3.583,1.921-7.142,3.684-10.84,5.373c0-0.39-0.009-0.787,0.008-1.172
					c0.007-0.146,0.014-0.296,0.018-0.445c0.017-0.561,0.038-1.141,0.079-1.701c0.103-1.405,0.245-2.888,0.441-4.313
					c0.196-1.428,0.461-2.883,0.778-4.308c0.317-1.425,0.682-2.857,1.174-4.257c-0.545,1.39-0.961,2.818-1.336,4.244
					c-0.374,1.427-0.7,2.883-0.956,4.323c-0.256,1.436-0.494,2.903-0.633,4.356c-0.076,0.553-0.111,1.102-0.153,1.653l0.001,0.003
					l-0.002,0.005c-0.008,0.173-0.029,0.342-0.044,0.518c-0.038,0.463-0.053,0.931-0.076,1.398
					c-7.124,2.913-14.271,5.222-21.747,7.036c0.163,0.714,0.245,1.071,0.409,1.786c7.566-1.899,14.795-4.297,21.995-7.309
					c0.359,0.302,0.717,0.607,1.091,0.889c0.142,0.107,0.284,0.204,0.42,0.313l0.006,0.001l0.001,0.003
					c0.446,0.335,0.89,0.67,1.373,0.972c1.224,0.839,2.571,1.578,3.944,2.24c1.379,0.664,2.864,1.237,4.404,1.698
					c1.541,0.461,3.158,0.833,4.878,0.999c-1.69-0.221-3.271-0.641-4.768-1.149c-1.496-0.507-2.936-1.128-4.263-1.828
					c-1.321-0.698-2.615-1.518-3.78-2.343c-0.465-0.33-0.926-0.692-1.364-1.05c-0.116-0.095-0.234-0.189-0.349-0.281
					c-0.304-0.242-0.595-0.514-0.885-0.776c3.732-1.74,7.322-3.555,10.935-5.53c0.409,0.269,0.818,0.537,1.241,0.791
					c0.073,0.04,0.143,0.082,0.213,0.124l0.005,0.001c0.563,0.325,1.12,0.667,1.717,0.953c1.312,0.695,2.721,1.302,4.152,1.815
					c1.438,0.514,2.971,0.941,4.542,1.248c1.573,0.307,3.214,0.517,4.934,0.514c-1.699-0.052-3.299-0.321-4.839-0.679
					c-1.537-0.358-3.028-0.827-4.418-1.386c-1.386-0.557-2.753-1.239-4.007-1.935c-0.61-0.338-1.204-0.725-1.804-1.093l-0.057-0.037
					c-0.343-0.226-0.675-0.462-1.007-0.698c3.227-1.841,6.41-3.872,9.44-6.022c0.356,0.128,0.712,0.255,1.075,0.373l0.006,0
					c0.587,0.194,1.196,0.368,1.806,0.524c1.199,0.308,2.465,0.553,3.74,0.732c1.279,0.178,2.597,0.273,3.933,0.295
					c1.337,0.022,2.704-0.03,4.096-0.215c-1.378,0.129-2.727,0.124-4.035,0.047c-1.309-0.077-2.597-0.225-3.84-0.457
					c-1.243-0.232-2.471-0.522-3.63-0.875c-0.474-0.144-0.949-0.298-1.408-0.466c-0.365-0.134-0.726-0.278-1.086-0.423
					c4.349-3.212,8.471-6.566,12.501-10.171C584.737,362.981,585.231,363.177,585.734,363.342z"/>
			</g>
			
				<line style="fill:none;stroke:#989BE2;stroke-width:4;stroke-linecap:round;stroke-miterlimit:10;" x1="25" y1="422.27" x2="721" y2="422.27"/>
			<path style="fill:#FFFFFF;" d="M561.822,164.88v22.224c0,2.837,2.3,5.137,5.138,5.137h6.657v6.654l6.654-6.654h21.916
				c2.837,0,5.138-2.3,5.138-5.137V164.88c0-2.837-2.3-5.138-5.138-5.138h-35.226C564.122,159.743,561.822,162.043,561.822,164.88z
				 M593.735,175.992c0-1.41,1.143-2.554,2.554-2.554c1.411,0,2.554,1.143,2.554,2.554c0,1.41-1.143,2.554-2.554,2.554
				C594.879,178.546,593.735,177.403,593.735,175.992z M582.019,175.992c0-1.41,1.143-2.554,2.554-2.554
				c1.41,0,2.554,1.143,2.554,2.554c0,1.41-1.143,2.554-2.554,2.554C583.162,178.546,582.019,177.403,582.019,175.992z
				 M570.302,175.992c0-1.41,1.143-2.554,2.554-2.554c1.41,0,2.554,1.143,2.554,2.554c0,1.41-1.143,2.554-2.554,2.554
				C571.445,178.546,570.302,177.403,570.302,175.992z"/>
			<path style="fill:#FFFFFF;" d="M350.333,95.74v17.261c0,2.204,1.786,3.99,3.99,3.99h5.171v5.168l5.168-5.168h17.021
				c2.204,0,3.99-1.786,3.99-3.99V95.74c0-2.204-1.787-3.99-3.99-3.99h-27.359C352.119,91.75,350.333,93.536,350.333,95.74z
				 M375.119,104.37c0-1.095,0.888-1.983,1.983-1.983c1.096,0,1.983,0.888,1.983,1.983s-0.888,1.983-1.983,1.983
				C376.007,106.354,375.119,105.466,375.119,104.37z M366.019,104.37c0-1.095,0.888-1.983,1.983-1.983
				c1.095,0,1.983,0.888,1.983,1.983s-0.888,1.983-1.983,1.983C366.907,106.354,366.019,105.466,366.019,104.37z M356.919,104.37
				c0-1.095,0.888-1.983,1.983-1.983c1.096,0,1.984,0.888,1.984,1.983s-0.888,1.983-1.984,1.983
				C357.807,106.354,356.919,105.466,356.919,104.37z"/>
			<g>
				<path style="fill:#989BE2;" d="M552.184,156.239h-18.223v-18.222h18.223V156.239z M537.065,153.135h12.014v-12.013h-12.014
					V153.135z"/>
			</g>
			<g>
				<path style="fill:#AFB0F1;" d="M626.993,406.975H608.77v-18.222h18.223V406.975z M611.874,403.87h12.014v-12.013h-12.014V403.87
					z"/>
			</g>
			<polygon style="fill:#FFFFFF;" points="442.875,130.427 442.875,123.821 439.209,123.821 439.209,130.427 432.602,130.427 
				432.602,134.093 439.209,134.093 439.209,140.699 442.875,140.699 442.875,134.093 449.48,134.093 449.48,130.427 			"/>
			<polygon style="fill:#989BE2;" points="80.104,310.266 80.104,302.798 75.959,302.798 75.959,310.266 68.49,310.266 
				68.49,314.411 75.959,314.411 75.959,321.88 80.104,321.88 80.104,314.411 87.572,314.411 87.572,310.266 			"/>
			<path style="fill:#AFB0F1;" d="M640.675,370.428c-0.557,0-1.102,0.226-1.496,0.619c-0.393,0.394-0.619,0.939-0.619,1.495
				c0,0.557,0.226,1.102,0.619,1.495c0.394,0.394,0.939,0.619,1.496,0.619c0.557,0,1.102-0.226,1.495-0.619s0.619-0.939,0.619-1.495
				c0-0.557-0.226-1.102-0.619-1.495C641.776,370.654,641.232,370.428,640.675,370.428z M651.585,370.428h-0.01
				c-1.168,0-2.115,0.947-2.115,2.115c0,1.168,0.947,2.115,2.115,2.115h0.01c1.168,0,2.115-0.947,2.115-2.115
				C653.7,371.375,652.753,370.428,651.585,370.428z M640.675,359.626c-0.557,0-1.102,0.226-1.496,0.619
				c-0.393,0.394-0.619,0.939-0.619,1.496c0,0.557,0.226,1.102,0.619,1.495c0.394,0.394,0.939,0.62,1.496,0.62
				c0.557,0,1.102-0.226,1.495-0.62c0.394-0.394,0.619-0.938,0.619-1.495c0-0.557-0.226-1.102-0.619-1.496
				C641.776,359.852,641.232,359.626,640.675,359.626z M651.575,363.856h0.01c1.168,0,2.115-0.947,2.115-2.115
				c0-1.168-0.947-2.115-2.115-2.115h-0.01c-1.168,0-2.115,0.947-2.115,2.115C649.46,362.909,650.406,363.856,651.575,363.856z"/>
			<path style="fill:#AFB0F1;" d="M85.236,387.43c-0.646-0.646-1.54-1.016-2.453-1.016c-0.914,0.001-1.807,0.371-2.453,1.016
				c-0.646,0.646-1.016,1.54-1.016,2.453c0,0.914,0.37,1.807,1.016,2.453c0.646,0.646,1.54,1.016,2.453,1.016
				c0.914,0,1.807-0.37,2.453-1.016c0.646-0.646,1.016-1.539,1.016-2.453C86.253,388.969,85.882,388.076,85.236,387.43z
				 M97.892,400.085l-0.012-0.012c-1.355-1.355-3.551-1.355-4.906,0c-1.355,1.355-1.355,3.551,0,4.906l0.012,0.012
				c1.355,1.355,3.552,1.355,4.906,0C99.247,403.637,99.247,401.44,97.892,400.085z M97.766,374.9
				c-0.646-0.646-1.54-1.016-2.453-1.016c-0.913,0-1.807,0.37-2.453,1.016c-0.646,0.646-1.016,1.54-1.016,2.453
				c0,0.914,0.37,1.807,1.016,2.453c0.646,0.646,1.54,1.016,2.453,1.016c0.914,0,1.807-0.37,2.453-1.016
				c0.646-0.646,1.016-1.54,1.016-2.453C98.782,376.44,98.412,375.546,97.766,374.9z M105.503,392.45l0.012,0.012
				c1.355,1.355,3.552,1.355,4.906,0c1.355-1.355,1.355-3.551,0-4.906l-0.012-0.012c-1.355-1.355-3.551-1.355-4.906,0
				C104.149,388.898,104.148,391.095,105.503,392.45z"/>
			<g>
				<path style="fill:#F7F9FA;" d="M61.627,362.441c-6.459,0-11.714-5.255-11.714-11.714c0-6.459,5.255-11.714,11.714-11.714
					c6.46,0,11.715,5.255,11.715,11.714C73.342,357.185,68.087,362.441,61.627,362.441z M61.627,341.69
					c-4.982,0-9.036,4.054-9.036,9.036c0,4.982,4.054,9.036,9.036,9.036c4.983,0,9.037-4.054,9.037-9.036
					C70.664,345.744,66.61,341.69,61.627,341.69z"/>
			</g>
			<g>
				<path style="fill:#F7F9FA;" d="M257.865,139.493c-3.4,0-5.106-1.955-6.611-3.68c-1.385-1.589-2.479-2.842-4.767-2.842
					c-2.29,0-3.384,1.254-4.77,2.842c-1.505,1.724-3.21,3.68-6.612,3.68c-3.4,0-5.104-1.955-6.609-3.68
					c-1.384-1.589-2.478-2.842-4.766-2.842c-2.29,0-3.385,1.254-4.771,2.842c-1.505,1.724-3.212,3.68-6.614,3.68
					c-3.404,0-5.111-1.954-6.617-3.679c-1.387-1.588-2.483-2.843-4.775-2.843c-2.292,0-3.388,1.255-4.775,2.842
					c-1.507,1.725-3.214,3.68-6.618,3.68c-0.675,0-1.223-0.548-1.223-1.223s0.548-1.223,1.223-1.223
					c2.293,0,3.389-1.255,4.775-2.843c1.506-1.725,3.213-3.679,6.617-3.679c3.404,0,5.111,1.954,6.618,3.68
					c1.387,1.588,2.482,2.842,4.775,2.842c2.291,0,3.385-1.255,4.772-2.842c1.505-1.725,3.211-3.68,6.613-3.68
					c3.401,0,5.105,1.955,6.61,3.681c1.385,1.587,2.478,2.842,4.765,2.842c2.289,0,3.383-1.254,4.769-2.842
					c1.505-1.725,3.211-3.68,6.612-3.68c3.4,0,5.106,1.955,6.611,3.68c1.385,1.588,2.479,2.842,4.767,2.842
					c0.675,0,1.223,0.548,1.223,1.223S258.54,139.493,257.865,139.493z"/>
			</g>
			<path style="fill:#FFFFFF;" d="M606.335,296.105c0,2.815-2.282,5.098-5.098,5.098c-2.815,0-5.098-2.282-5.098-5.098
				s2.282-5.098,5.098-5.098C604.052,291.007,606.335,293.29,606.335,296.105z"/>
			<circle style="fill:#989BE2;" cx="679.255" cy="355.735" r="5.098"/>
			<circle style="fill:#FFFFFF;" cx="274.227" cy="118.413" r="3.745"/>
			<path style="fill:#989BE2;" d="M175.146,164.431c0,2.815-2.282,5.098-5.098,5.098c-2.815,0-5.098-2.282-5.098-5.098
				c0-2.816,2.282-5.098,5.098-5.098C172.864,159.333,175.146,161.615,175.146,164.431z"/>
			<path style="fill:#989BE2;" d="M197.065,164.431c0,2.815-2.282,5.098-5.098,5.098c-2.816,0-5.098-2.282-5.098-5.098
				c0-2.816,2.282-5.098,5.098-5.098C194.782,159.333,197.065,161.615,197.065,164.431z"/>
			<g>
				<g>
					<path style="fill:#989BE2;" d="M477.526,126.821c-9.234,0-16.747-7.513-16.747-16.747s7.513-16.747,16.747-16.747
						c9.234,0,16.747,7.513,16.747,16.747S486.76,126.821,477.526,126.821z M477.526,96.328c-7.58,0-13.747,6.166-13.747,13.747
						s6.167,13.747,13.747,13.747c7.58,0,13.747-6.166,13.747-13.747S485.106,96.328,477.526,96.328z"/>
				</g>
				<g>
					<path style="fill:#989BE2;" d="M473.148,117.438c-0.37,0-0.74-0.136-1.03-0.41c-0.602-0.569-0.629-1.519-0.059-2.121
						l4.649-4.92V99.484c0-0.829,0.672-1.5,1.5-1.5c0.828,0,1.5,0.671,1.5,1.5v11.1c0,0.383-0.146,0.752-0.41,1.03l-5.06,5.353
						C473.943,117.28,473.545,117.438,473.148,117.438z"/>
				</g>
			</g>
		</g>
	</g>
</g>
<g id="OBJECTS">
	<g>
		<g>
			<g>
				<path style="fill:#FFC6AD;" d="M352.791,138.632c-7.659-4.483-14.496-6.646-16.631-2.84c-2.135,3.806,3.274,8.513,11.092,12.713
					c7.818,4.2,26.869,12.682,28.618,9.565C377.619,154.952,360.45,143.115,352.791,138.632z"/>
				<path style="fill:#FFC6AD;" d="M409.034,139.757c1.296,2.893-19.199,13.031-25.086,15.67c-5.887,2.638-12.301,4.98-13.754,1.737
					c-1.454-3.243,4.562-6.472,10.449-9.11C386.531,145.415,407.738,136.865,409.034,139.757z"/>
				<g>
					<path style="fill:#FFC6AD;" d="M404.128,137.163c-0.971,1.71-1.271,3.731-0.283,5.499c1.827,3.269,8.176-0.915,9.976-2.296
						c1.605-1.232,3.006-6.143,2.144-7.29c-0.546-0.727-2.504,0.533-3.011,0.81c-1.655,0.904-3.036,2.181-4.873,2.659
						c-0.15-0.568,0.239-1.131,0.646-1.555c0.407-0.423,0.883-0.856,0.962-1.438c-0.251-0.184-0.573-0.25-0.885-0.245
						C406.893,133.332,404.987,135.651,404.128,137.163z"/>
				</g>
				<path style="fill:#EA807D;" d="M318.542,106.252c-0.062,1.08,0.249,2.178,0.35,3.27c0.087,0.942-0.048,1.937-0.59,2.731
					c-0.499,0.732-0.939,1.08-0.988,2.063c-0.065,1.305,0.933,2.625,0.436,3.833c-0.514,1.251-1.915,1.558-1.736,3.026
					c0.176,1.446,0.59,2.551-0.533,3.836c-0.908,1.039-0.897,2.401-1.138,3.761c-0.04,0.227-0.077,0.473,0.031,0.676
					c0.1,0.186,0.301,0.292,0.494,0.376c1.591,0.693,3.393,0.635,5.127,0.588c5.177-0.141,10.36-0.079,15.532,0.187
					c2.874,0.148,5.798,0.355,8.596-0.318c0.826-0.199,1.794-0.679,1.79-1.528c-0.003-0.652-0.61-1.169-0.667-1.818
					c-0.07-0.799,0.699-1.443,0.8-2.239c0.153-1.205-1.007-2.25-1.097-3.465c-0.091-1.236,0.99-2.916,0.121-4.021
					c-0.47-0.598-1.205-1.555-1.11-2.38c0.067-0.583,0.597-1.047,0.618-1.634c0.018-0.508-0.346-0.936-0.561-1.397
					c-0.38-0.813-0.298-1.756-0.425-2.644c-0.222-1.554-1.101-2.954-2.204-4.071c-1.103-1.117-2.428-1.985-3.742-2.844
					c-1.162-0.76-2.43-1.265-3.648-1.915c-0.985-0.525-1.783-1.245-2.967-1.337c-0.843-0.066-1.681,0.137-2.502,0.337
					c-1.298,0.317-2.597,0.635-3.895,0.952c-1.021,0.25-2.064,0.508-2.947,1.078c-0.816,0.526-1.449,1.29-2.004,2.087
					c-0.467,0.672-0.895,1.393-1.063,2.194C318.579,105.841,318.554,106.047,318.542,106.252z"/>
				<path style="fill:#FFC6AD;" d="M349.497,151.827c-0.035-5.009-8.495-18.685-8.495-18.685l-12.252-3.765l-8.316,1.978
					c-5.204,0.993-5.361,5.93-5.361,11.228c0,6.063,0.965,11.386,2.129,16.16h29.755C348.134,156.621,349.51,153.73,349.497,151.827
					z"/>
				<path style="fill:#FFC6AD;" d="M324.768,119.112V131.6c0,0,2.236,1.336,7.469,1.336c2.821,0,3.454-1.336,3.454-1.336v-3.912
					L324.768,119.112z"/>
				<path style="fill:#FFC6AD;" d="M324.547,112.526c0.025,0.385,0.037,0.746,0.062,1.094c0,0.124-0.013,0.249-0.013,0.385
					c-0.261,6.315,0.411,11.202,7.583,13.736c1.305,0.161,5.869,1.149,7.597-0.753c2.026-2.238,3.627-8.002,3.627-10.016v-0.087
					c-0.025-1.964-0.308-2.504-0.308-3.635c0-0.882,0.474-3.644,0.483-4.843c0.014-1.962-0.741-4.375-1.618-6.092
					c-1.643-3.215-4.479-5.135-8.871-5.135C322.982,97.181,324.261,105.739,324.547,112.526z"/>
				<path style="fill:#AB8451;" d="M328.058,107.328c0-0.012,0-0.037,0-0.05"/>
				<g>
					<path style="fill:#FFC6AD;" d="M324.687,112.915c-0.802-0.188-2.693-0.846-2.346,1.962c0.6,4.852,3.444,4.548,3.444,4.548
						c-0.169-0.689-0.422-1.659-0.633-2.785c0.772-0.462,0.078-1.011,0.041-1.576c-0.042-0.094-0.078-0.348-0.078-0.473
						C325.031,114.027,324.73,113.541,324.687,112.915z"/>
					<path style="fill:#F2B096;" d="M324.856,114.668c0,0-0.888-0.862-1.56-0.518c-0.672,0.344-0.194,1.899,0.336,2.824
						c0.531,0.925,1.121,1.004,1.224,0.748c0.104-0.256-1.079-0.8-0.66-1.237c0.418-0.436,0.848-0.513,0.809-0.768
						C324.966,115.462,324.856,114.668,324.856,114.668z"/>
					<path style="fill:#112B46;" d="M327.016,110.075c-0.252,1.829-1.732,5.715-1.732,5.715l-0.903-3.47L327.016,110.075z"/>
				</g>
				<path style="fill:#F2B096;" d="M334.436,128.05c-2.045-0.28-5.6-1.483-7.289-3.393c0,0,0.383,1.846,2.196,2.804
					C331.155,128.419,334.436,128.05,334.436,128.05z"/>
				<path style="fill:#EA807D;" d="M328.042,112.151c-0.105,0.485-0.043,1.041-0.072,1.55c-0.056,0.989-0.578,2.039-1.228,2.773
					c-0.594,0.671-1.278,1.346-1.437,2.228c-0.156,0.866,0.232,1.724,0.445,2.578c0.402,1.62-0.818,2.708-0.777,4.235
					c0.035,1.297,1.414,2.517,0.877,3.84c-0.295,0.727-1.139,1.096-1.924,1.114c-1.51,0.035-2.904-0.977-3.675-2.275
					c-0.771-1.299-1.013-2.844-1.088-4.353c-0.146-2.952,0.285-5.888,0.432-8.831c0.146-2.919-0.563-5.827-0.325-8.722
					c0.638-7.782,5.738-6.776,5.738-6.776c2.166-2.943,5.575-3.017,8.891-3.435c0.664-0.084,1.36-0.164,1.987,0.071
					c0.475,0.178,0.867,0.52,1.279,0.816c1.25,0.895,2.751,1.386,4.014,2.264c1.951,1.357,3.221,3.647,3.337,6.021
					c0.043,0.886-0.063,1.794,0.182,2.647c0.121,0.421,0.323,0.812,0.486,1.218c0.363,0.9,0.534,1.919,0.238,2.844
					c-0.481,1.505-2.122,2.614-2.051,4.192c0.067-0.819-0.105-1.859-0.207-2.686c-0.098-0.794-0.354-1.607-1.025-2.101
					c-0.36-0.265-0.799-0.405-1.158-0.67c-0.928-0.684-1.176-2.074-2.178-2.643c-0.629-0.357-1.398-0.298-2.12-0.354
					c-0.746-0.057-1.481-0.252-2.16-0.566c-0.406-0.188-1.114-0.954-1.521-0.963c-0.855-0.018-1.701,1.631-1.842,2.289
					c-0.159,0.74-0.31,1.561-0.905,2.029c-0.569,0.448-1.426,0.462-1.9,1.009C328.187,111.688,328.094,111.911,328.042,112.151z"/>
				<path style="fill:#56548A;" d="M324.768,130.313c2.592,2.981,8.208,3.625,9.668,3.223c1.46-0.403,1.255-1.935,1.255-1.935
					c1.615,0.407,3.22,0.879,4.797,1.416c2.334,0.794,8.101,10.752,8.698,14.103c0.23,1.293,0.462,2.597,0.426,3.91
					c-0.123,4.418-3.429,7.971-3.772,12.275c-0.133,1.67,0.204,7.717,0.204,11.55h-28.749l-2.22-21.588
					c0,0-9.457,11.274-11.712,13.529c-2.255,2.255-0.966,2.416-2.094,9.583c-1.128,7.167-5.959,23.756-5.959,23.756
					s-3.491,0.644-6.779-0.242c0,0,1.383-18.975,3.236-27.647c1.852-8.672,7.167-16.725,11.194-23.409
					c4.026-6.684,9.744-13.56,12.885-15.9C318.984,130.596,324.768,130.313,324.768,130.313z"/>
				<path style="fill:#404077;" d="M315.073,153.265c3.507-3.053,4.561-4.104,4.561-4.104l-0.315,24.947l-2.545-0.833
					L315.073,153.265z"/>
				<path style="fill:#56548A;" d="M340.488,133.016c6.814,1.622,11.275,4.001,17.124,7.867c5.849,3.866,14.611,8.278,14.611,8.278
					l27.918-9.17c0,0,2.423,4.267,3.095,6.297c0,0-23.616,12.043-28.275,13.331c-4.659,1.289-29.388-9.12-29.388-9.12
					L340.488,133.016z"/>
				<path style="fill:#404077;" d="M349.487,152.097c0.028-2.556-1.69-6.588-1.69-6.588l22.497,13.697c0,0-9.859-2.919-13.455-4.277
					C353.242,153.571,349.487,152.097,349.487,152.097z"/>
			</g>
		</g>
		<g>
			<path style="fill:#F7F9FA;" d="M197.059,223.13v187.173c0,6.609,5.358,11.967,11.967,11.967h327.948
				c6.609,0,11.967-5.358,11.967-11.967V223.13H197.059z"/>
			<path style="fill:#606BEF;" d="M548.935,187.657v35.474h-351.87v-35.474c0-8.46,6.853-15.313,15.301-15.313h321.269
				C542.082,172.344,548.935,179.197,548.935,187.657z"/>
			<g>
				<g>
					<g>
						<g>
							<path style="fill:#344BBF;" d="M242.945,190.952c0,3.366-2.729,6.095-6.095,6.095c-3.366,0-6.095-2.729-6.095-6.095
								s2.729-6.095,6.095-6.095C240.216,184.857,242.945,187.586,242.945,190.952z"/>
							<path style="fill:#F9CF5B;" d="M236.85,156.036c8.992,0,16.308,7.315,16.308,16.307h4.605
								c0-11.531-9.381-20.912-20.912-20.912c-11.531,0-20.911,9.381-20.911,20.912c0,11.531,9.38,20.912,20.911,20.912
								c1.271,0,2.302-1.031,2.302-2.302c0-1.271-1.031-2.302-2.302-2.302c-8.991,0-16.306-7.315-16.306-16.307
								C220.543,163.351,227.858,156.036,236.85,156.036z"/>
						</g>
					</g>
				</g>
				<g>
					<g>
						<g>
							<path style="fill:#344BBF;" d="M296.372,190.952c0,3.366-2.729,6.095-6.095,6.095s-6.095-2.729-6.095-6.095
								s2.729-6.095,6.095-6.095S296.372,187.586,296.372,190.952z"/>
							<path style="fill:#F9CF5B;" d="M290.277,156.036c8.992,0,16.308,7.315,16.308,16.307h4.605
								c0-11.531-9.381-20.912-20.912-20.912c-11.531,0-20.911,9.381-20.911,20.912c0,11.531,9.38,20.912,20.911,20.912
								c1.271,0,2.302-1.031,2.302-2.302c0-1.271-1.031-2.302-2.302-2.302c-8.991,0-16.306-7.315-16.306-16.307
								C273.97,163.351,281.285,156.036,290.277,156.036z"/>
						</g>
					</g>
				</g>
				<g>
					<g>
						<g>
							<path style="fill:#344BBF;" d="M349.799,190.952c0,3.366-2.729,6.095-6.095,6.095c-3.366,0-6.095-2.729-6.095-6.095
								s2.729-6.095,6.095-6.095C347.07,184.857,349.799,187.586,349.799,190.952z"/>
							<path style="fill:#F9CF5B;" d="M343.703,156.036c8.992,0,16.307,7.315,16.307,16.307h4.605
								c0-11.531-9.381-20.912-20.912-20.912c-11.531,0-20.911,9.381-20.911,20.912c0,11.531,9.38,20.912,20.911,20.912
								c1.271,0,2.302-1.031,2.302-2.302c0-1.271-1.031-2.302-2.302-2.302c-8.991,0-16.306-7.315-16.306-16.307
								C327.397,163.351,334.712,156.036,343.703,156.036z"/>
						</g>
					</g>
				</g>
				<g>
					<g>
						<g>
							<path style="fill:#344BBF;" d="M403.226,190.952c0,3.366-2.729,6.095-6.095,6.095s-6.095-2.729-6.095-6.095
								s2.729-6.095,6.095-6.095S403.226,187.586,403.226,190.952z"/>
							<path style="fill:#F9CF5B;" d="M397.13,156.036c8.992,0,16.308,7.315,16.308,16.307h4.605
								c0-11.531-9.381-20.912-20.912-20.912c-11.531,0-20.911,9.381-20.911,20.912c0,11.531,9.38,20.912,20.911,20.912
								c1.271,0,2.302-1.031,2.302-2.302c0-1.271-1.031-2.302-2.302-2.302c-8.991,0-16.306-7.315-16.306-16.307
								C380.824,163.351,388.139,156.036,397.13,156.036z"/>
						</g>
					</g>
				</g>
				<g>
					<g>
						<g>
							<path style="fill:#344BBF;" d="M456.652,190.952c0,3.366-2.729,6.095-6.095,6.095s-6.095-2.729-6.095-6.095
								s2.729-6.095,6.095-6.095S456.652,187.586,456.652,190.952z"/>
							<path style="fill:#F9CF5B;" d="M450.557,156.036c8.992,0,16.308,7.315,16.308,16.307h4.605
								c0-11.531-9.381-20.912-20.912-20.912c-11.531,0-20.911,9.381-20.911,20.912c0,11.531,9.38,20.912,20.911,20.912
								c1.272,0,2.302-1.031,2.302-2.302c0-1.271-1.031-2.302-2.302-2.302c-8.991,0-16.306-7.315-16.306-16.307
								C434.25,163.351,441.566,156.036,450.557,156.036z"/>
						</g>
					</g>
				</g>
				<g>
					<g>
						<g>
							<path style="fill:#344BBF;" d="M510.079,190.952c0,3.366-2.729,6.095-6.095,6.095c-3.366,0-6.095-2.729-6.095-6.095
								s2.729-6.095,6.095-6.095C507.35,184.857,510.079,187.586,510.079,190.952z"/>
							<path style="fill:#F9CF5B;" d="M503.984,156.036c8.992,0,16.307,7.315,16.307,16.307h4.605
								c0-11.531-9.381-20.912-20.912-20.912c-11.531,0-20.911,9.381-20.911,20.912c0,11.531,9.38,20.912,20.911,20.912
								c1.271,0,2.302-1.031,2.302-2.302c0-1.271-1.031-2.302-2.302-2.302c-8.991,0-16.306-7.315-16.306-16.307
								C487.677,163.351,494.992,156.036,503.984,156.036z"/>
						</g>
					</g>
				</g>
			</g>
			<rect x="197.059" y="210.432" style="fill:#4F61E6;" width="351.881" height="12.698"/>
			<g>
				<path style="fill:#F9CF5B;" d="M273.803,298.978h-33.59c-6.979,0-12.689-5.71-12.689-12.689v-33.591
					c0-6.979,5.71-12.689,12.689-12.689h33.59c6.979,0,12.689,5.71,12.689,12.689v33.591
					C286.493,293.267,280.783,298.978,273.803,298.978z"/>
				<path style="fill:#DAE6ED;" d="M351.131,298.978h-33.591c-6.979,0-12.689-5.71-12.689-12.689v-33.591
					c0-6.979,5.71-12.689,12.689-12.689h33.591c6.979,0,12.689,5.71,12.689,12.689v33.591
					C363.821,293.267,358.111,298.978,351.131,298.978z"/>
				<g>
					<path style="fill:#F7F9FA;" d="M394.868,297.478c-6.169,0-11.189-5.02-11.189-11.189v-33.59c0-6.17,5.02-11.189,11.189-11.189
						h33.591c6.17,0,11.189,5.02,11.189,11.189v33.59c0,6.17-5.02,11.189-11.189,11.189H394.868z"/>
					<path style="fill:#BCDFF2;" d="M428.459,243.009c5.343,0,9.689,4.347,9.689,9.689v33.591c0,5.343-4.346,9.689-9.689,9.689
						h-33.59c-5.343,0-9.689-4.347-9.689-9.689v-33.591c0-5.343,4.347-9.689,9.689-9.689H428.459 M428.459,240.009h-33.59
						c-6.979,0-12.689,5.71-12.689,12.689v33.591c0,6.979,5.71,12.689,12.689,12.689h33.59c6.979,0,12.689-5.71,12.689-12.689
						v-33.591C441.148,245.719,435.438,240.009,428.459,240.009L428.459,240.009z"/>
				</g>
				<path style="fill:#DAE6ED;" d="M505.787,298.978h-33.59c-6.979,0-12.689-5.71-12.689-12.689v-33.591
					c0-6.979,5.71-12.689,12.689-12.689h33.59c6.979,0,12.689,5.71,12.689,12.689v33.591
					C518.476,293.267,512.766,298.978,505.787,298.978z"/>
			</g>
			<g>
				<g>
					<path style="fill:#F7F9FA;" d="M240.213,371.33c-6.17,0-11.189-5.02-11.189-11.19v-33.59c0-6.17,5.02-11.19,11.189-11.19
						h33.591c6.17,0,11.189,5.02,11.189,11.19v33.59c0,6.17-5.02,11.19-11.189,11.19H240.213z"/>
					<path style="fill:#BCDFF2;" d="M273.803,316.861c5.343,0,9.689,4.347,9.689,9.689v33.591c0,5.343-4.347,9.689-9.689,9.689
						h-33.59c-5.343,0-9.689-4.347-9.689-9.689V326.55c0-5.343,4.347-9.689,9.689-9.689H273.803 M273.803,313.861h-33.59
						c-6.979,0-12.689,5.71-12.689,12.689v33.591c0,6.979,5.71,12.689,12.689,12.689h33.59c6.979,0,12.689-5.71,12.689-12.689
						V326.55C286.493,319.571,280.783,313.861,273.803,313.861L273.803,313.861z"/>
				</g>
				<g>
					<path style="fill:#F7F9FA;" d="M317.541,371.33c-6.17,0-11.189-5.02-11.189-11.19v-33.59c0-6.17,5.02-11.19,11.189-11.19
						h33.591c6.169,0,11.189,5.02,11.189,11.19v33.59c0,6.17-5.02,11.19-11.189,11.19H317.541z"/>
					<path style="fill:#AFB0F1;" d="M351.131,316.861c5.343,0,9.689,4.347,9.689,9.689v33.591c0,5.343-4.347,9.689-9.689,9.689
						h-33.591c-5.343,0-9.689-4.347-9.689-9.689V326.55c0-5.343,4.347-9.689,9.689-9.689H351.131 M351.131,313.861h-33.591
						c-6.979,0-12.689,5.71-12.689,12.689v33.591c0,6.979,5.71,12.689,12.689,12.689h33.591c6.979,0,12.689-5.71,12.689-12.689
						V326.55C363.821,319.571,358.111,313.861,351.131,313.861L351.131,313.861z"/>
				</g>
				<path style="fill:#BCDFF2;" d="M428.459,372.83h-33.591c-6.979,0-12.689-5.71-12.689-12.689V326.55
					c0-6.979,5.71-12.689,12.689-12.689h33.591c6.979,0,12.689,5.71,12.689,12.689v33.591
					C441.148,367.12,435.438,372.83,428.459,372.83z"/>
				<path style="fill:#EA807D;" d="M505.787,372.83h-33.59c-6.979,0-12.689-5.71-12.689-12.689V326.55
					c0-6.979,5.71-12.689,12.689-12.689h33.59c6.979,0,12.689,5.71,12.689,12.689v33.591
					C518.476,367.12,512.766,372.83,505.787,372.83z"/>
			</g>
			<polyline style="fill:none;stroke:#EA807D;stroke-width:6;stroke-miterlimit:10;" points="396.86,267.316 407.698,278.77 
				426.468,255.932 			"/>
			<polyline style="fill:none;stroke:#F7F9FA;stroke-width:6;stroke-miterlimit:10;" points="476.652,267.316 487.491,278.77 
				506.26,255.932 			"/>
			<polyline style="fill:none;stroke:#EA807D;stroke-width:6;stroke-miterlimit:10;" points="319.532,343.31 330.371,354.765 
				349.14,331.927 			"/>
			<rect x="227.524" y="383.832" style="fill:#DAE6ED;" width="290.706" height="7.823"/>
			<rect x="227.524" y="397.314" style="fill:#DAE6ED;" width="290.706" height="7.823"/>
		</g>
		<g>
			<path style="fill:#FFC6AD;" d="M537.471,282.176c-3.464-0.893-0.139-21.495,1.922-30.133c2.06-8.638,5.228-15.077,9.456-13.986
				c4.229,1.091,3.887,8.258,1.513,16.815C547.987,263.429,540.935,283.069,537.471,282.176z"/>
			<path style="fill:#FFC6AD;" d="M506.438,252.727c2.092-2.384,20.214,12.353,25.169,16.699c4.955,4.346,9.864,9.299,7.519,11.973
				c-2.345,2.674-7.896-1.548-12.851-5.894S504.346,255.111,506.438,252.727z"/>
			<path style="fill:#FFC6AD;" d="M511.013,255.619c0.234-3.74-6.409-3.403-8.671-3.206c-3.684,0.321-7.744,3.422-7.64,4.854
				c0.104,1.432,8.445,0.213,8.749,0.52c0.303,0.307-3.696,1.281-3.457,2.616c0.239,1.334,5.702,0.711,7.772-0.366
				C509.835,258.959,510.866,257.963,511.013,255.619z"/>
			<path style="fill:#FFC6AD;" d="M557.118,415.288l0.212,4.445c0,0.628-0.514,1.142-1.15,1.142h-11.971
				c-1.09,0-1.551-1.377-0.681-2.028c1.809-1.339,4.336-2.921,6.674-3.345c0.206-0.04,1.911-37.547,3.718-37.566
				C555.561,377.92,557.118,415.288,557.118,415.288z"/>
			<path style="fill:#FFC6AD;" d="M583.253,415.025c0,0,0,0.219,0,0.553v3.641c0,0.386-0.897,2.024-1.742,2.379
				c-3.015,1.283-8.805,0.522-9.034-0.522c-0.229-1.043,1.387-3.328,2.681-4.955c0,0,0.011,0,0.011-0.01
				c0.834-1.043,1.533-1.815,1.533-1.815s1.627-36.409,3.338-36.357C581.907,378,583.253,415.025,583.253,415.025z"/>
			<path style="fill:#FFC6AD;" d="M554.163,357.858c-5.007,0-7.701-27.794-7.927-39.67c-0.227-11.877,1.815-21.274,7.927-21.274
				c6.112,0,8.154,9.397,7.927,21.274C561.864,330.064,559.17,357.858,554.163,357.858z"/>
			<path style="fill:#FFC6AD;" d="M554.163,416.908c-4.439,0-5.658-39.215-5.658-48.031c0-8.815,0.681-18.121,5.658-18.121
				c4.977,0,5.658,9.306,5.658,18.121C559.821,377.693,558.602,416.908,554.163,416.908z"/>
			<path style="fill:#FFC6AD;" d="M575.646,357.837c-4.986,0.457-10.203-26.975-11.513-38.782
				c-1.309-11.806-0.133-21.351,5.954-21.908c6.087-0.558,8.978,8.614,9.835,20.462C580.78,329.457,580.632,357.38,575.646,357.837z
				"/>
			<path style="fill:#FFC6AD;" d="M580.303,416.674c-4.421,0.405-8.482-38.569-9.286-47.348c-0.804-8.779-0.975-18.108,3.982-18.562
				c4.957-0.454,6.483,8.75,7.287,17.529C583.09,377.073,584.724,416.269,580.303,416.674z"/>
			<path style="fill:#FFC6AD;" d="M579.526,306.066h-33.04l-1.361-53.139l2.46-14.992l16.012-4.92l9.24,1.763
				c5.252,1.002,8.989,5.684,8.802,11.028l-3.368,37.608L579.526,306.066z"/>
			<path style="fill:#FFC6AD;" d="M588.898,279.952c-3.436,1.097-11.659-18.274-14.538-26.754
				c-2.879-8.48-3.632-15.677,0.563-17.016c4.195-1.339,7.752,4.962,10.32,13.542C587.81,258.303,592.334,278.855,588.898,279.952z"
				/>
			<path style="fill:#FFC6AD;" d="M567.059,225.911v10.677c0,0-2.256,1.348-7.536,1.348c-2.847,0-3.486-1.348-3.486-1.348v-3.947
				L567.059,225.911z"/>
			<path style="fill:#FFC6AD;" d="M568.302,217.938c-0.025,0.387-0.037,0.749-0.062,1.098c0,0.125,0.012,0.249,0.012,0.387
				c0.262,6.338-3.805,13.126-9.932,14.049c0,0-0.05,0.013-0.137,0.025c-0.05,0-0.125,0.012-0.212,0.012
				c-1.31,0.162-6.052,0.549-7.786-1.36c-2.034-2.246-3.842-6.363-3.842-9.176c0-2.813,0.511-3.479,0.511-4.614
				c0-0.885-0.476-3.658-0.485-4.861c-0.041-5.656,3.766-11.269,10.529-11.269C567.042,202.23,568.59,211.126,568.302,217.938z"/>
			<g>
				<path style="fill:#FFC6AD;" d="M565.331,218.023c0.805-0.189,2.703-0.849,2.355,1.969c-0.602,4.871-3.457,4.565-3.457,4.565
					c0.169-0.691,0.424-1.665,0.636-2.796c-0.775-0.464,0.217-1.067,0.254-1.634c0.042-0.094,0.042-0.22,0.042-0.346
					C565.246,219.217,565.288,218.651,565.331,218.023z"/>
				<path style="fill:#F2B096;" d="M565.161,219.782c0,0,0.892-0.865,1.567-0.52c0.674,0.345,0.195,1.906-0.338,2.834
					c-0.533,0.929-1.125,1.007-1.229,0.751c-0.104-0.257,1.083-0.803,0.663-1.241c-0.42-0.438-0.851-0.515-0.812-0.771
					C565.051,220.579,565.161,219.782,565.161,219.782z"/>
			</g>
			<path style="fill:#F2B096;" d="M554.562,233.627c3.072,0.144,7.166-2.858,8.296-4.223c1.131-1.365,1.719-4.861,1.719-4.861
				s0.903,0.125,1.6-0.813c0,0-0.083,1.528-0.681,2.048c-0.598,0.52-0.988,0.631-1.118,1.004c-0.13,0.373-0.832,5.182-3.379,6.534
				C558.452,234.668,554.562,233.627,554.562,233.627z"/>
			<path style="fill:#565586;" d="M557.33,416.11v4.168c0,0.419-0.34,0.759-0.76,0.759h-13.411c-1.177,0-1.675-1.487-0.735-2.19
				c1.953-1.447,5.075-2.906,7.385-4.019c0.548,0.482,1.376,1.976,2.34,2.156C553.104,417.164,557.33,416.11,557.33,416.11z"/>
			<path style="fill:#565586;" d="M583.253,415.577v3.641c0,0.386-0.897,2.024-1.742,2.379c-3.015,1.283-8.805,0.522-9.034-0.522
				c-0.229-1.043,1.387-3.328,2.681-4.955c0,0,0.011,0,0.011-0.01c0.626-0.532,3.807-0.24,4.339,0.021
				c0.542,0.261,1.784,1.022,2.044,0.98C581.823,417.069,583.253,415.577,583.253,415.577z"/>
			<polygon style="fill:#565586;" points="562.896,312.374 562.896,314.93 575.111,412.527 584.573,412.527 580.327,312.374 			"/>
			<polygon style="fill:#565586;" points="545.663,312.374 549.627,412.527 558.953,412.527 562.896,314.93 562.896,312.374 			"/>
			<path style="fill:#AAD1E2;" d="M539.852,248.585c-1.961,6.426-3.13,13.655-3.13,13.655s1.346,2.264,7.229,3.338h0.052
				c-0.073-7.219-0.083-12.967,0.031-14.97c0.407-7.167,3.119-12.904,3.119-12.904C544.192,238.789,541.814,242.159,539.852,248.585
				z"/>
			<path style="fill:#C9E7F4;" d="M575.935,235.264c-4.256,0.438-6.478,4.34-5.049,10.38c1.659,6.989,7.26,19.935,7.26,19.935
				c0.355-0.063,0.699-0.136,1.033-0.209c8.512-1.763,9.712-4.475,9.712-4.475c-2.389-10.379-6.436-21.677-9.743-24.107
				C578.272,236.14,577.135,235.65,575.935,235.264z"/>
			<path style="fill:#6EB8AB;" d="M556.042,236.787"/>
			<path style="fill:#BCDFF2;" d="M556.042,235.264l-8.888,2.441c0,0-2.712,5.737-3.119,12.904
				c-0.115,2.003-0.104,7.751-0.031,14.97c0.198,18.526,0.803,46.796,0.803,46.796h0.856h17.233h17.431h0.741
				c0,0-1.607-21.051-1.888-27.487c-0.271-6.426,1.148-17.014,1.148-17.014l-1.148-2.504c-0.334,0.073-0.678,0.146-1.033,0.209
				c0,0-5.601-12.946-7.26-19.935c-1.429-6.04,0.793-9.941,5.049-10.38c-3.328-1.064-7.125-1.252-7.125-1.252
				s-1.544,4.865-8.441,4.94C553.473,239.027,556.042,235.264,556.042,235.264z"/>
			<path style="fill:#565586;" d="M567.044,226.159c0.533,0.342,1.169,0.383,1.555,0.1c0.544-0.398,0.657-1.488-0.1-2.258
				c0.15-0.025,1.398-0.255,1.957-1.355c0.537-1.057,0.214-2.474-0.853-3.361c0.403-0.185,1.063-0.568,1.505-1.305
				c0.744-1.238,0.562-2.955-0.451-4.365c0.116-0.096,0.599-0.522,0.652-1.204c0.057-0.73-0.401-1.457-1.154-1.806
				c0.153-0.153,0.907-0.936,0.853-2.057c-0.058-1.191-1.006-2.274-2.358-2.609c0.494-0.996,0.475-2.147-0.1-2.96
				c-0.814-1.151-2.661-1.508-4.164-0.552c-0.004-0.959-0.556-1.825-1.405-2.208c-1.164-0.524-2.237,0.154-2.308,0.201
				c-0.217-0.437-0.484-0.695-0.702-0.853c-1.061-0.767-2.843-0.502-4.465,0.652c-0.437-0.578-0.896-0.832-1.204-0.953
				c-1.454-0.574-3.45,0.25-4.917,2.107c-0.907-0.609-2.094-0.561-2.91,0.101c-0.727,0.59-1.042,1.574-0.803,2.508
				c-0.826,0.101-1.508,0.702-1.706,1.505c-0.203,0.822,0.14,1.691,0.853,2.157c-0.148,0.85,0.218,1.692,0.903,2.107
				c0.831,0.503,1.991,0.291,2.659-0.552c0.034,0.067,0.346,0.647,1.003,0.753c0.566,0.091,1.154-0.208,1.455-0.753
				c0.176,0.274,0.762,1.106,1.806,1.355c1.323,0.315,2.846-0.436,3.662-1.907c0.082,0.205,0.386,0.896,1.154,1.305
				c1.066,0.566,2.125,0.11,2.258,0.05c-0.101,0.273-0.29,0.906-0.101,1.656c0.34,1.344,1.599,1.891,1.756,1.957
				c-0.445,0.809-0.357,1.778,0.201,2.408c0.619,0.699,1.534,0.66,1.656,0.652c0,0,0.288,4.362,0.777,4.401
				c0.489,0.039,1.578-3.083,1.578-3.083s1.571-0.482,2.01,0.53c0.439,1.012,0.034,2.922-0.537,3.891
				c-0.572,0.969-0.882,1.316-0.882,1.316L567.044,226.159z"/>
			<path style="fill:#FFC6AD;" d="M584.09,316.556c-3.188-0.264-2.121-23.795-1.572-30.419c0.548-6.624,1.616-13.575,5.19-13.279
				c3.574,0.296,3.484,7.328,2.935,13.952C590.096,293.433,587.278,316.82,584.09,316.556z"/>
			<path style="fill:#FFC6AD;" d="M584.438,310.471c3.779,0.032,2.965,6.69,2.604,8.951c-0.587,3.683-4.78,6.916-6.212,6.709
				c-1.433-0.207,0.525-8.445,0.238-8.772c-0.287-0.327-0.905,4.189-2.23,3.853c-1.325-0.336-0.307-5.787,0.924-7.791
				C580.994,311.416,582.069,310.451,584.438,310.471z"/>
		</g>
		<g>
			<path style="fill:#FFC6AD;" d="M432.137,254.031c1.031-3.426-18.317-11.261-26.775-13.977
				c-8.458-2.715-15.608-3.343-16.868,0.839c-1.259,4.183,5.05,7.606,13.601,10.011S431.106,257.458,432.137,254.031z"/>
			<path style="fill:#5162E0;" d="M397.925,237.647c5.109,0.994,16.403,5.281,19.536,6.435c0,0,0,6.348-3.38,10.8l-16.586-3.298
				l-1.214-11.478L397.925,237.647z"/>
			<path style="fill:#FFC6AD;" d="M465.074,240.973c-0.902-3.042-23.535,2.76-29.856,4.634c-6.321,1.874-12.854,4.318-11.843,7.729
				c1.011,3.411,7.821,1.899,14.142,0.025C443.837,251.487,465.976,244.014,465.074,240.973z"/>
			<path style="fill:#FFC6AD;" d="M461.133,241.631c-0.712-3.68,5.921-4.199,8.19-4.293c3.696-0.154,8.121,2.402,8.202,3.835
				c0.08,1.434-8.351,1.295-8.613,1.638c-0.262,0.343,3.831,0.797,3.765,2.151c-0.066,1.354-5.566,1.438-7.757,0.635
				C462.73,244.793,461.579,243.938,461.133,241.631z"/>
			<path style="fill:#FFC6AD;" d="M387.958,415.286l-0.212,4.447c0,0.628,0.515,1.143,1.15,1.143h11.975
				c1.09,0,1.552-1.378,0.681-2.029c-1.809-1.34-4.337-2.922-6.676-3.346c-0.206-0.04-1.911-37.559-3.719-37.578
				C389.516,377.906,387.958,415.286,387.958,415.286z"/>
			<path style="fill:#FFC6AD;" d="M361.815,415.022c0,0,0,0.219,0,0.553v3.642c0,0.386,0.898,2.024,1.743,2.379
				c3.016,1.284,8.807,0.522,9.036-0.522c0.23-1.043-1.388-3.329-2.682-4.957c0,0-0.01,0-0.01-0.01
				c-0.835-1.044-1.534-1.816-1.534-1.816s-1.628-36.421-3.339-36.368C363.161,377.986,361.815,415.022,361.815,415.022z"/>
			<path style="fill:#FFC6AD;" d="M390.914,357.837c5.008,0,7.703-27.802,7.93-39.682c0.227-11.88-1.816-21.281-7.93-21.281
				c-6.114,0-8.157,9.4-7.93,21.281C383.211,330.035,385.906,357.837,390.914,357.837z"/>
			<path style="fill:#FFC6AD;" d="M390.914,416.906c4.441,0,5.66-39.227,5.66-48.046c0-8.818-0.681-18.126-5.66-18.126
				c-4.979,0-5.66,9.308-5.66,18.126C385.254,377.679,386.473,416.906,390.914,416.906z"/>
			<path style="fill:#FFC6AD;" d="M369.424,357.817c4.987,0.457,10.206-26.984,11.516-38.794c1.31-11.81,0.133-21.357-5.956-21.915
				c-6.089-0.558-8.98,8.617-9.838,20.468C364.289,329.428,364.437,357.36,369.424,357.817z"/>
			<path style="fill:#FFC6AD;" d="M364.766,416.672c4.422,0.405,8.485-38.581,9.289-47.362c0.804-8.782,0.975-18.113-3.983-18.567
				c-4.958-0.454-6.486,8.753-7.29,17.535C361.978,377.059,360.344,416.267,364.766,416.672z"/>
			<path style="fill:#FFC6AD;" d="M365.543,306.03h33.05l1.361-53.155l-2.461-14.996l-16.016-4.922l-9.243,1.764
				c-5.254,1.003-8.992,5.686-8.804,11.031l3.369,37.62L365.543,306.03z"/>
			<path style="fill:#FFC6AD;" d="M356.168,279.908c3.438,1.097,11.662-18.28,14.543-26.763c2.88-8.483,3.633-15.682-0.563-17.022
				c-4.197-1.34-7.754,4.964-10.323,13.546C357.256,258.251,352.731,278.81,356.168,279.908z"/>
			<g>
				<g>
					<path style="fill:#F2B096;" d="M390.588,216.216c1.087,0.296,1.516,3.917,1.321,3.901c-0.195-0.016-0.877-2.895-1.833-3.338
						C389.12,216.337,390.588,216.216,390.588,216.216z"/>
					<path style="fill:#F2B096;" d="M394.649,216.349c-0.596,0.729-0.128,3.381-0.108,3.615c0.02,0.234,0.298-3.204,0.298-3.204
						L394.649,216.349z"/>
					<g>
						<path style="fill:#212F47;" d="M385.999,216.356v0.426c0,0,4.557,0.014,4.588-0.018c0.032-0.032,0.166-0.405,0-0.549
							C389.717,215.46,385.999,216.356,385.999,216.356z"/>
						<path style="fill:#212F47;" d="M397.918,216.341v0.457c0,0-3.19-0.018-3.212-0.049c-0.044,0-0.119-0.407,0-0.549
							C395.324,215.464,397.918,216.341,397.918,216.341z"/>
						<path style="fill:#212F47;" d="M387.695,219.199c0,0.507,0.411,0.918,0.918,0.918c0.507,0,0.918-0.411,0.918-0.918
							s-0.411-0.918-0.918-0.918C388.106,218.281,387.695,218.692,387.695,219.199z"/>
						<path style="fill:#212F47;" d="M386.711,218.461c0.477-0.254,1.145-0.529,1.902-0.529c0.758,0,1.426,0.276,1.902,0.529
							H386.711z"/>
						<path style="fill:#212F47;" d="M395.249,219.199c0,0.507,0.411,0.918,0.918,0.918c0.507,0,0.918-0.411,0.918-0.918
							s-0.411-0.918-0.918-0.918C395.66,218.281,395.249,218.692,395.249,219.199z"/>
						<path style="fill:#212F47;" d="M394.839,218.461c0.333-0.254,0.799-0.529,1.328-0.529c0.529,0,0.995,0.276,1.328,0.529
							H394.839z"/>
					</g>
					<path style="fill:#D3B993;" d="M393.451,223.824c-0.918,0-1.662-0.076-1.662,0.174s0.744,0.551,1.662,0.551
						c0.917,0,1.661-0.3,1.661-0.551S394.368,223.824,393.451,223.824z"/>
					<path style="fill:#F2B096;" d="M393.451,227.58c-0.673,0-1.218-0.056-1.218,0.128s0.546,0.605,1.218,0.605
						c0.673,0,1.218-0.421,1.218-0.605S394.124,227.58,393.451,227.58z"/>
					<g>
						<path style="fill:#F2B096;" d="M396.544,226.092c0.092,0,0.175,0.06,0.202,0.153c0.032,0.112-0.033,0.227-0.144,0.259
							c-0.064,0.019-1.59,0.449-3.125,0.449c-1.534,0-3.109-0.43-3.176-0.448c-0.112-0.031-0.177-0.147-0.147-0.258
							c0.031-0.112,0.144-0.176,0.258-0.147c0.016,0.004,1.589,0.433,3.064,0.433c1.476,0,2.994-0.428,3.01-0.432
							C396.506,226.094,396.525,226.092,396.544,226.092z"/>
					</g>
				</g>
				<path style="fill:#FFC6AD;" d="M378.013,225.849v10.681c0,0,2.257,1.348,7.539,1.348c2.848,0,3.487-1.348,3.487-1.348v-3.949
					L378.013,225.849z"/>
				<path style="fill:#FFC6AD;" d="M376.77,217.874c0.025,0.387,0.037,0.749,0.062,1.098c0,0.125-0.013,0.25-0.013,0.387
					c-0.262,6.34,3.807,13.13,9.935,14.053c0,0,0.05,0.013,0.137,0.025c0.05,0,0.125,0.013,0.212,0.013
					c1.311,0.162,6.053,0.549,7.788-1.361c2.034-2.247,3.844-6.364,3.844-9.178c0-2.814-0.511-3.48-0.511-4.615
					c0-0.885,0.476-3.659,0.485-4.863c0.041-5.658-3.767-11.273-10.532-11.273C378.031,202.161,376.483,211.06,376.77,217.874z"/>
				<path style="fill:#565586;" d="M381.446,218.461c0.453-2.323,2.351-3.181,2.596-4.589c0.245-1.409,0.367-3.363,0.919-4.743
					c0.551-1.38,5.601-1.074,7.271-0.768c1.67,0.306,5.092,0.458,6.504-0.261c1.412-0.719,2.495-4.148,1.219-5.679l-0.608,0.608
					c0,0-2.409-2.812-4.999-3.18l0.491,1.408c0,0-7.184-0.796-9.817-0.429c-2.633,0.367-4.958,2.694-4.958,2.694
					s-3.064-1.102-4.411,2.082c-0.757,1.788-4.035,10.622,2.361,21.968l2.05-8.863L381.446,218.461z"/>
				<g>
					<path style="fill:#FFC6AD;" d="M379.742,217.959c-0.805-0.189-2.704-0.849-2.355,1.97c0.602,4.872,3.458,4.567,3.458,4.567
						c-0.169-0.692-0.424-1.666-0.636-2.797c0.775-0.464-0.217-1.067-0.254-1.634c-0.042-0.094-0.042-0.22-0.042-0.346
						C379.827,219.153,379.785,218.587,379.742,217.959z"/>
					<path style="fill:#F2B096;" d="M379.912,219.719c0,0-0.892-0.865-1.567-0.52c-0.675,0.345-0.195,1.906,0.338,2.835
						c0.533,0.929,1.125,1.008,1.229,0.751c0.104-0.257-1.083-0.803-0.663-1.242c0.42-0.438,0.851-0.515,0.812-0.771
						C380.022,220.516,379.912,219.719,379.912,219.719z"/>
					<path style="fill:#565586;" d="M381.558,215.906c-0.253,1.837,0,8.17,0,8.17l-0.822-0.024l-1.3-6.69L381.558,215.906z"/>
				</g>
				<path style="fill:#F2B096;" d="M390.515,233.568c-3.073,0.144-7.168-2.859-8.299-4.224c-1.131-1.365-1.72-4.863-1.72-4.863
					s-0.904,0.125-1.601-0.813c0,0,0.083,1.529,0.681,2.049c0.598,0.52,0.988,0.631,1.118,1.005c0.13,0.374,0.832,5.184,3.38,6.536
					C386.624,234.61,390.515,233.568,390.515,233.568z"/>
			</g>
			<path style="fill:#565586;" d="M387.746,416.108v4.17c0,0.419,0.34,0.76,0.76,0.76h13.415c1.177,0,1.676-1.488,0.736-2.191
				c-1.954-1.447-5.076-2.907-7.388-4.02c-0.548,0.482-1.376,1.977-2.34,2.156C391.973,417.163,387.746,416.108,387.746,416.108z"/>
			<path style="fill:#565586;" d="M361.815,415.575v3.642c0,0.386,0.898,2.024,1.743,2.379c3.016,1.284,8.807,0.522,9.036-0.522
				c0.23-1.043-1.388-3.329-2.682-4.957c0,0-0.01,0-0.01-0.01c-0.626-0.532-3.809-0.24-4.341,0.021
				c-0.543,0.261-1.784,1.023-2.045,0.981C363.245,417.068,361.815,415.575,361.815,415.575z"/>
			<polygon style="fill:#56548A;" points="382.178,312.339 382.178,314.896 369.959,412.524 360.495,412.524 364.742,312.339 			"/>
			<polygon style="fill:#56548A;" points="399.417,312.339 395.452,412.524 386.123,412.524 382.178,314.896 382.178,312.339 			"/>
			<polygon style="fill:#606BEF;" points="390.516,233.953 389.034,236.729 389.034,236.551 389.034,233.838 389.618,233.755 			"/>
			<path style="fill:#6D7DF2;" d="M383.034,233.504l-1.482,4.382c-2.274-1.815-5.29-3.934-5.29-3.934l1.753-2.838L383.034,233.504z"
				/>
			<polygon style="fill:#5162E0;" points="390.819,235.393 391.329,237.887 389.034,236.791 389.034,236.729 390.516,233.953 			"/>
			<path style="fill:#6D7DF2;" d="M369.135,235.205c4.258,0.438,6.48,4.341,5.051,10.383c-1.659,6.991-7.263,19.941-7.263,19.941
				c-0.355-0.063-0.7-0.135-1.033-0.209c-8.515-1.763-9.715-4.476-9.715-4.476c2.39-10.383,6.438-21.684,9.746-24.115
				C366.798,236.082,367.935,235.591,369.135,235.205z"/>
			<path style="fill:#606BEF;" d="M391.329,237.887l-0.511-2.494l7.106,2.254c0,0,2.712,5.739,3.12,12.908
				c0.115,2.003,0.104,7.753,0.032,14.974c-0.199,18.532-0.803,46.81-0.803,46.81h-0.856h-17.238h-17.437h-0.741
				c0,0,1.607-21.057,1.889-27.495c0.271-6.428-1.148-17.02-1.148-17.02l1.148-2.504c0.334,0.073,0.678,0.146,1.033,0.209
				c0,0,5.603-12.95,7.263-19.941c1.429-6.042-0.793-9.945-5.051-10.383c3.329-1.064,7.127-1.252,7.127-1.252
				s3.016,2.118,5.29,3.934l1.482-4.382l3.829,7.805l2.171-4.758v0.177v0.063L391.329,237.887z"/>
			<path style="fill:#FFC6AD;" d="M396.005,292.382c1.154-2.984-20.49-12.297-26.691-14.695c-6.201-2.398-12.923-4.472-14.217-1.126
				c-1.294,3.346,5.074,6.335,11.275,8.733C372.572,287.691,394.851,295.366,396.005,292.382z"/>
			<path style="fill:#FFC6AD;" d="M390.376,290.038c-1.621,3.415,4.727,5.589,6.919,6.252c3.571,1.08,13.671-2.206,5.122-4.246
				c-1.408-0.336-4.271-1.665-4.44-2.065c-0.17-0.401,4.235,1.048,4.511-0.291c0.276-1.339-5.074-2.803-7.415-2.57
				C392.731,287.351,391.392,287.897,390.376,290.038z"/>
		</g>
		<g>
			<path style="fill:#BCDFF2;" d="M312.515,269.039h-33.591c-6.979,0-12.689-5.71-12.689-12.689V222.76
				c0-6.979,5.71-12.689,12.689-12.689h33.591c6.979,0,12.689,5.71,12.689,12.689v33.591
				C325.204,263.329,319.494,269.039,312.515,269.039z"/>
			<g>
				<path style="fill:#FFC6AD;" d="M290.459,207.262c3.121,0.55,8.026-22.272,9.169-28.758c1.143-6.486,1.87-13.417-1.63-14.034
					c-3.5-0.617-5.185,6.146-6.328,12.632C290.528,183.589,287.338,206.712,290.459,207.262z"/>
				<g>
					<path style="fill:#FFC6AD;" d="M295.397,205.348c-0.676-2.231-1.463-3.428-3.738-4.005c-3.63-0.921-4.957,6.566-5.191,8.823
						c-0.209,2.012,2.395,6.406,3.82,6.568c1.425,0.162,2.255-7.495,2.681-7.559c0.368-0.055,0.492,0.333,0.547,0.864h2.104
						C295.804,208.391,295.735,206.464,295.397,205.348z"/>
				</g>
			</g>
			<path style="fill:#56548A;" d="M322.438,133.081c0.414,0.351,0.771,0.776,1.07,1.23c1.602,2.435,1.584,5.678,0.549,8.403
				c-1.036,2.725-2.968,5.011-5.033,7.069c-1.8,1.794-3.964,3.333-5.508,5.332c-1.106,1.432-2.35,2.778-3.525,4.154
				c-2.162,2.532-4.273,5.169-6.629,7.525c-2.255,2.255-0.966,2.416-2.094,9.583c-1.128,7.167-5.959,23.756-5.959,23.756
				s-3.491,0.644-6.779-0.242c0,0,1.383-18.975,3.236-27.647c1.852-8.672,7.167-16.725,11.194-23.409
				c2.285-3.793,4.902-7.408,7.774-10.778c2.28-2.674,4.994-6.159,8.876-6.007c0.678,0.027,1.359,0.16,1.968,0.46
				C321.888,132.664,322.175,132.857,322.438,133.081z"/>
		</g>
		<g>
			<rect x="179.119" y="272.335" style="fill:#DB6F6F;" width="18.439" height="13.578"/>
			<rect x="174.267" y="266.453" style="fill:#EA807D;" width="28.144" height="8.159"/>
			
				<ellipse transform="matrix(0.7071 -0.7071 0.7071 0.7071 -192.4926 235.7582)" style="fill:#EA807D;" cx="188.339" cy="350.238" rx="72.032" ry="72.032"/>
			
				<ellipse transform="matrix(0.7071 -0.7071 0.7071 0.7071 -192.4926 235.7582)" style="fill:#DB6F6F;" cx="188.339" cy="350.238" rx="64.325" ry="64.325"/>
			
				<ellipse transform="matrix(0.7071 -0.7071 0.7071 0.7071 -192.4926 235.7582)" style="fill:#FFFFFF;" cx="188.339" cy="350.238" rx="60.285" ry="60.285"/>
			
				<line style="fill:none;stroke:#EA807D;stroke-width:4;stroke-miterlimit:10;" x1="203.303" y1="310.998" x2="188.339" y2="350.238"/>
			<g>
				
					<line style="fill:none;stroke:#112B46;stroke-width:2;stroke-linecap:round;stroke-miterlimit:10;" x1="188.339" y1="302.414" x2="188.339" y2="295.482"/>
				
					<line style="fill:none;stroke:#EEF3F5;stroke-width:2;stroke-linecap:round;stroke-miterlimit:10;" x1="164.427" y1="308.822" x2="160.961" y2="302.818"/>
				
					<line style="fill:none;stroke:#EEF3F5;stroke-width:2;stroke-linecap:round;stroke-miterlimit:10;" x1="146.922" y1="326.326" x2="140.918" y2="322.86"/>
				
					<line style="fill:none;stroke:#112B46;stroke-width:2;stroke-linecap:round;stroke-miterlimit:10;" x1="140.515" y1="350.238" x2="133.582" y2="350.238"/>
				
					<line style="fill:none;stroke:#EEF3F5;stroke-width:2;stroke-linecap:round;stroke-miterlimit:10;" x1="146.922" y1="374.15" x2="140.918" y2="377.616"/>
				
					<line style="fill:none;stroke:#EEF3F5;stroke-width:2;stroke-linecap:round;stroke-miterlimit:10;" x1="164.427" y1="391.655" x2="160.961" y2="397.659"/>
				
					<line style="fill:none;stroke:#112B46;stroke-width:2;stroke-linecap:round;stroke-miterlimit:10;" x1="188.339" y1="398.062" x2="188.339" y2="404.995"/>
				
					<line style="fill:none;stroke:#EEF3F5;stroke-width:2;stroke-linecap:round;stroke-miterlimit:10;" x1="212.251" y1="391.655" x2="215.717" y2="397.659"/>
				
					<line style="fill:none;stroke:#EEF3F5;stroke-width:2;stroke-linecap:round;stroke-miterlimit:10;" x1="229.755" y1="374.15" x2="235.759" y2="377.616"/>
				
					<line style="fill:none;stroke:#112B46;stroke-width:2;stroke-linecap:round;stroke-miterlimit:10;" x1="236.163" y1="350.238" x2="243.095" y2="350.238"/>
				
					<line style="fill:none;stroke:#EEF3F5;stroke-width:2;stroke-linecap:round;stroke-miterlimit:10;" x1="229.755" y1="326.326" x2="235.759" y2="322.86"/>
				
					<line style="fill:none;stroke:#EEF3F5;stroke-width:2;stroke-linecap:round;stroke-miterlimit:10;" x1="212.251" y1="308.822" x2="215.717" y2="302.818"/>
			</g>
			<circle style="fill:#112B46;" cx="188.339" cy="350.238" r="5.161"/>
		</g>
	</g>
</g>
</svg>
