<?xml version="1.0" encoding="utf-8"?>
<!-- Generator: Adobe Illustrator 27.5.0, SVG Export Plug-In . SVG Version: 6.00 Build 0)  -->
<svg version="1.1" xmlns="http://www.w3.org/2000/svg" xmlns:xlink="http://www.w3.org/1999/xlink" x="0px" y="0px"
	 viewBox="0 0 2500 2500" style="enable-background:new 0 0 2500 2500;" xml:space="preserve">
<g id="Background">
	<rect style="fill:#FFFFFF;" width="2500" height="2500"/>
</g>
<g id="Illustration">
	<g id="Value_added_tax_system_1_">
		<circle style="fill:#F2E6DC;" cx="1250" cy="1250" r="915"/>
		<g>
			<g>
				<g>
					<path style="fill:#FFFFFF;" d="M778.893,1065.246c-0.098,0-0.197-0.006-0.296-0.02l-54.042-7.318
						c-1.207-0.164-2.052-1.274-1.888-2.48l1.916-14.161c-6.409-2.185-12.712-4.82-18.782-7.851l-8.735,11.297
						c-0.744,0.964-2.13,1.14-3.093,0.395l-43.143-33.359c-0.462-0.357-0.764-0.884-0.838-1.465
						c-0.074-0.58,0.085-1.165,0.443-1.628l8.758-11.326c-4.452-5.105-8.587-10.536-12.323-16.183l-13.247,5.43
						c-1.127,0.462-2.414-0.078-2.877-1.204l-20.683-50.461c-0.222-0.541-0.22-1.148,0.007-1.687
						c0.226-0.54,0.657-0.967,1.197-1.189l13.213-5.416c-1.307-6.659-2.171-13.435-2.573-20.194l-14.16-1.917
						c-0.579-0.078-1.103-0.384-1.458-0.849c-0.354-0.465-0.509-1.052-0.431-1.632l7.319-54.041c0.162-1.207,1.28-2.05,2.48-1.889
						l14.159,1.917c2.187-6.413,4.822-12.715,7.853-18.783l-11.298-8.735c-0.462-0.357-0.764-0.884-0.838-1.464
						c-0.074-0.58,0.085-1.166,0.442-1.629l33.36-43.143c0.357-0.462,0.884-0.764,1.464-0.838c0.585-0.074,1.167,0.085,1.629,0.443
						l11.326,8.758c5.102-4.45,10.533-8.585,16.183-12.323l-5.43-13.247c-0.222-0.542-0.22-1.148,0.007-1.688
						c0.226-0.54,0.657-0.967,1.197-1.189l50.461-20.683c1.13-0.461,2.416,0.079,2.877,1.204l5.416,13.213
						c6.659-1.308,13.436-2.172,20.194-2.574l1.917-14.16c0.078-0.579,0.383-1.104,0.848-1.458c0.465-0.354,1.043-0.511,1.632-0.431
						l54.042,7.318c0.579,0.079,1.103,0.384,1.458,0.849c0.354,0.465,0.509,1.052,0.431,1.632l-1.917,14.16
						c6.412,2.187,12.714,4.822,18.784,7.852l8.734-11.296c0.357-0.463,0.884-0.764,1.464-0.839
						c0.583-0.073,1.166,0.086,1.629,0.443l43.143,33.359c0.462,0.357,0.764,0.884,0.838,1.464c0.074,0.58-0.085,1.166-0.443,1.629
						l-8.758,11.326c4.452,5.105,8.586,10.535,12.323,16.184l13.248-5.43c1.128-0.462,2.416,0.078,2.877,1.204l20.682,50.46
						c0.462,1.127-0.078,2.414-1.204,2.876l-13.213,5.416c1.308,6.659,2.171,13.436,2.573,20.195l14.16,1.917
						c0.579,0.079,1.103,0.384,1.458,0.849c0.354,0.465,0.509,1.052,0.431,1.631l-7.319,54.042
						c-0.077,0.579-0.383,1.104-0.848,1.458c-0.465,0.354-1.051,0.51-1.632,0.431l-14.159-1.918
						c-2.187,6.412-4.822,12.715-7.852,18.783l11.298,8.735c0.462,0.358,0.764,0.884,0.838,1.464
						c0.074,0.58-0.085,1.166-0.442,1.629l-33.359,43.142c-0.744,0.964-2.128,1.14-3.093,0.395l-11.327-8.757
						c-5.104,4.452-10.534,8.586-16.183,12.323l5.43,13.247c0.222,0.542,0.22,1.148-0.006,1.688
						c-0.226,0.54-0.657,0.967-1.197,1.189l-50.461,20.682c-1.128,0.462-2.415-0.078-2.877-1.204l-5.416-13.213
						c-6.657,1.309-13.435,2.172-20.194,2.574l-1.916,14.16c-0.078,0.579-0.384,1.104-0.849,1.458
						C779.843,1065.089,779.373,1065.246,778.893,1065.246z M727.332,1053.834l49.672,6.726l1.867-13.783
						c0.142-1.054,1.017-1.856,2.081-1.906c7.744-0.365,15.527-1.357,23.135-2.948c1.037-0.219,2.089,0.338,2.491,1.322
						l5.271,12.859l46.381-19.01l-5.285-12.893c-0.403-0.983-0.047-2.114,0.846-2.69c6.522-4.202,12.762-8.953,18.546-14.122
						c0.796-0.708,1.98-0.75,2.818-0.1l11.024,8.523l30.661-39.653l-10.995-8.502c-0.841-0.65-1.098-1.808-0.612-2.753
						c3.556-6.907,6.582-14.146,8.996-21.518c0.331-1.011,1.336-1.64,2.391-1.499l13.782,1.867l6.727-49.672l-13.784-1.866
						c-1.054-0.143-1.856-1.018-1.907-2.081c-0.364-7.744-1.356-15.527-2.948-23.136c-0.218-1.041,0.339-2.088,1.322-2.491
						l12.86-5.271l-19.009-46.38l-12.894,5.285c-0.983,0.404-2.113,0.048-2.69-0.846c-4.202-6.521-8.953-12.762-14.122-18.547
						c-0.708-0.792-0.75-1.977-0.1-2.818l8.524-11.023l-39.654-30.661l-8.501,10.994c-0.649,0.841-1.807,1.099-2.753,0.612
						c-6.908-3.556-14.148-6.583-21.52-8.995c-1.011-0.331-1.642-1.337-1.499-2.392l1.867-13.783l-49.672-6.726l-1.867,13.783
						c-0.142,1.054-1.017,1.856-2.081,1.906c-7.743,0.365-15.526,1.356-23.135,2.948c-1.04,0.219-2.089-0.339-2.491-1.321
						l-5.271-12.86l-46.381,19.011l5.285,12.893c0.403,0.984,0.047,2.114-0.846,2.69c-6.524,4.204-12.764,8.955-18.546,14.122
						c-0.793,0.709-1.978,0.751-2.819,0.1l-11.023-8.524l-30.662,39.654l10.996,8.502c0.841,0.65,1.098,1.808,0.611,2.753
						c-3.556,6.906-6.583,14.146-8.997,21.518c-0.331,1.011-1.324,1.643-2.391,1.499l-13.782-1.866l-6.727,49.671l13.784,1.866
						c1.054,0.143,1.856,1.018,1.907,2.081c0.364,7.744,1.356,15.527,2.948,23.136c0.218,1.04-0.339,2.088-1.322,2.491l-12.86,5.271
						l19.01,46.38l12.893-5.285c0.987-0.402,2.115-0.047,2.69,0.846c4.2,6.52,8.952,12.76,14.122,18.547
						c0.708,0.792,0.75,1.977,0.1,2.818l-8.524,11.023l39.655,30.662l8.502-10.995c0.65-0.841,1.808-1.098,2.753-0.612
						c6.909,3.558,14.149,6.584,21.517,8.995c1.011,0.331,1.642,1.337,1.499,2.392L727.332,1053.834z M766.6,747.442h0.022H766.6z
						 M774.126,995.415c-5.512,0-11.073-0.462-16.641-1.398c-50.864-8.548-86.566-55.433-81.279-106.739
						c2.814-27.308,16.372-51.49,38.173-68.091c21.803-16.601,48.717-23.238,75.79-18.687
						c50.864,8.548,86.566,55.433,81.279,106.739c-2.814,27.308-16.371,51.49-38.173,68.091
						C815.958,988.515,795.412,995.415,774.126,995.415z M773.543,803.511c-20.331,0-39.953,6.589-56.491,19.183
						c-20.823,15.855-33.771,38.952-36.459,65.035c-5.048,48.998,29.048,93.774,77.623,101.938
						c25.856,4.346,51.567-1.993,72.389-17.848c20.822-15.855,33.77-38.952,36.458-65.035
						c5.048-48.998-29.048-93.774-77.623-101.938C784.12,803.953,778.807,803.511,773.543,803.511z"/>
				</g>
			</g>
			<g>
				<g>
					<path style="fill:#E6D0BE;" d="M541.751,1052.905l3.303,23.335c-11.082,3.704-21.725,8.254-31.872,13.557l-14.521-18.54
						l-62.821,49.191l14.554,18.582c-7.646,8.662-14.603,17.912-20.802,27.661l-21.9-8.814l-29.816,73.995l21.851,8.793
						c-2.277,11.218-3.693,22.703-4.173,34.374l-23.341,3.311l11.178,78.973l23.341-3.311c3.7,11.078,8.247,21.717,13.548,31.86
						l-18.55,14.525l49.178,62.789l18.592-14.558c8.66,7.641,17.91,14.593,27.659,20.786l-8.824,21.899l74,29.781l8.804-21.849
						c11.219,2.272,22.706,3.683,34.38,4.158l3.303,23.335l0,0l78.993-11.206l-3.303-23.335
						c11.082-3.704,21.725-8.254,31.872-13.557l14.521,18.54l62.821-49.191l-14.554-18.583c7.646-8.662,14.603-17.912,20.802-27.661
						l21.9,8.813l29.816-73.995l0,0l-21.85-8.794c2.277-11.218,3.692-22.703,4.172-34.374l23.341-3.311l-11.178-78.973
						l-23.341,3.311c-3.7-11.078-8.247-21.717-13.547-31.86l18.55-14.525v0l-49.177-62.789l-18.592,14.558
						c-8.66-7.641-17.91-14.593-27.659-20.787l8.824-21.899l-74-29.781l-8.804,21.849c-11.219-2.272-22.706-3.683-34.379-4.158
						l-3.303-23.335L541.751,1052.905z M600.552,1152.811c68.849-7.536,132.572,40.353,144.459,108.564
						c13.126,75.322-39.973,145.932-115.998,154.253c-68.849,7.536-132.572-40.353-144.459-108.564
						C471.427,1231.743,524.526,1161.132,600.552,1152.811z"/>
				</g>
				<path style="fill:#FFFFFF;" d="M614.693,1462.012c-34.077,0-67.611-9.79-96.481-28.463
					c-35.562-23.003-61.776-57.903-73.811-98.274c-0.522-1.751,0.474-3.593,2.224-4.114c1.758-0.52,3.595,0.475,4.115,2.225
					c21.679,72.721,89.896,121.983,164.316,121.987c7.855,0,15.768-0.547,23.713-1.675
					c93.477-13.261,158.764-100.077,145.536-193.528c-10.929-77.215-72.621-137.278-150.022-146.062
					c-1.815-0.206-3.12-1.844-2.913-3.659c0.207-1.815,1.856-3.124,3.658-2.913c80.397,9.124,144.475,71.509,155.827,151.708
					c13.738,97.061-54.071,187.232-151.157,201.004C631.372,1461.428,623.015,1462.012,614.693,1462.012z"/>
			</g>
		</g>
		<g>
			<g>
				<g>
					<path style="fill:#E6D0BE;" d="M425.582,741.573c-4.002-16.215,6.353-32.648,23.127-36.705
						c16.775-4.056,84.233,10.742,84.233,10.742s-52.966,43.921-69.741,47.977C446.426,767.644,429.583,757.788,425.582,741.573z"/>
					<path style="fill:#F7F1EB;" d="M451.511,737.507c-0.995,0-1.897-0.678-2.141-1.687c-0.285-1.184,0.441-2.375,1.626-2.661
						l296.697-71.749c1.176-0.283,2.375,0.441,2.661,1.625c0.285,1.183-0.441,2.375-1.626,2.661l-296.697,71.749
						C451.858,737.487,451.683,737.507,451.511,737.507z"/>
					<path style="fill:#E6D0BE;" d="M518.077,803.556c-10.434-9.255-11.059-25.039-1.395-35.255
						c9.664-10.215,63.246-30.125,63.246-30.125s-15.796,53.426-25.46,63.641C544.804,812.032,528.512,812.811,518.077,803.556z"/>
					<path style="fill:#F7F1EB;" d="M534.69,788.201c-0.545,0-1.09-0.2-1.515-0.603c-0.885-0.837-0.924-2.233-0.087-3.117
						l86.837-91.792c0.839-0.885,2.236-0.922,3.117-0.086c0.885,0.837,0.924,2.232,0.087,3.117l-86.837,91.793
						C535.858,787.969,535.275,788.201,534.69,788.201z"/>
					<path style="fill:#E6D0BE;" d="M561.042,660.22c14.467,5.05,76.117-2.315,76.117-2.315s-42.209-43.616-56.676-48.665
						c-14.467-5.049-30.547,2.269-35.915,16.347C539.199,639.665,546.575,655.171,561.042,660.22z"/>
					<path style="fill:#F7F1EB;" d="M690.928,678.878c-0.241,0-0.487-0.04-0.727-0.124l-119.813-41.819
						c-1.15-0.401-1.756-1.658-1.355-2.808c0.402-1.149,1.659-1.757,2.809-1.355l119.813,41.819c1.15,0.401,1.756,1.658,1.355,2.808
						C692.692,678.308,691.839,678.878,690.928,678.878z"/>
				</g>
				<g>
					<path style="fill:#E6D0BE;" d="M593.585,399.716c12.627,16.366,27.127,97.599,27.127,97.599s-76.152-36.26-88.779-52.626
						c-12.627-16.366-9.062-39.701,7.963-52.119C556.92,380.151,580.958,383.35,593.585,399.716z"/>
					<path style="fill:#F7F1EB;" d="M782.758,709.546c-0.66,0-1.312-0.295-1.746-0.858L557.669,419.216
						c-0.744-0.964-0.566-2.349,0.398-3.092c0.96-0.744,2.348-0.566,3.092,0.399l223.342,289.472
						c0.744,0.964,0.566,2.349-0.398,3.092C783.703,709.396,783.229,709.546,782.758,709.546z"/>
					<path style="fill:#E6D0BE;" d="M551.613,505.612c16.462,5.525,64.904,54.357,64.904,54.357s-69.738,9.17-86.2,3.645
						c-16.462-5.525-25.04-22.987-19.159-39.004C517.039,508.593,535.151,500.087,551.613,505.612z"/>
					<path style="fill:#F7F1EB;" d="M687.378,585.956c-0.232,0-0.468-0.037-0.702-0.115l-147.922-49.644
						c-1.154-0.387-1.775-1.637-1.389-2.792c0.389-1.154,1.637-1.775,2.793-1.389l147.922,49.644
						c1.154,0.387,1.775,1.637,1.389,2.792C689.159,585.374,688.3,585.956,687.378,585.956z"/>
					<path style="fill:#E6D0BE;" d="M698.533,500.651c0.922,18.35,38.533,82.237,38.533,82.237s30.991-67.851,30.069-86.202
						c-0.922-18.35-17.027-32.339-35.971-31.244C712.22,466.538,697.611,482.301,698.533,500.651z"/>
					<path style="fill:#F7F1EB;" d="M740.491,653.295c-1.167,0-2.14-0.916-2.199-2.094l-7.636-151.974
						c-0.061-1.216,0.875-2.252,2.091-2.313c1.203-0.053,2.252,0.875,2.312,2.091l7.636,151.974
						c0.061,1.216-0.875,2.252-2.091,2.313C740.566,653.295,740.529,653.295,740.491,653.295z"/>
				</g>
			</g>
			<g>
				<g>
					<path style="fill:#E6D0BE;" d="M1163.204,346.758c15.187-6.95,33.26,0.165,40.368,15.891
						c7.108,15.727,5.122,84.761,5.122,84.761s-53.011-43.867-60.119-59.593C1141.468,372.091,1148.017,353.708,1163.204,346.758z"
						/>
					<path style="fill:#F7F1EB;" d="M1299.908,651.434c-0.84,0-1.642-0.482-2.01-1.297l-125.716-278.159
						c-0.502-1.11-0.009-2.416,1.101-2.917c1.108-0.502,2.415-0.009,2.917,1.101l125.716,278.159
						c0.502,1.11,0.009,2.416-1.101,2.917C1300.52,651.371,1300.211,651.434,1299.908,651.434z"/>
					<path style="fill:#E6D0BE;" d="M1119.519,449.174c7.152-11.975,22.544-15.526,34.379-7.932
						c11.836,7.594,41.37,56.534,41.37,56.534s-55.432-5.576-67.268-13.17C1116.165,477.012,1112.368,461.148,1119.519,449.174z"/>
					<path style="fill:#F7F1EB;" d="M1246.213,532.669c-0.408,0-0.82-0.113-1.189-0.349l-106.35-68.236
						c-1.025-0.658-1.323-2.021-0.665-3.046c0.659-1.025,2.024-1.322,3.047-0.665l106.35,68.236
						c1.025,0.658,1.323,2.021,0.665,3.046C1247.65,532.311,1246.938,532.669,1246.213,532.669z"/>
					<path style="fill:#E6D0BE;" d="M1268.346,464.711c-2.269,15.154,16.441,74.356,16.441,74.356s34.998-49.589,37.267-64.743
						c2.269-15.154-7.915-29.591-22.746-32.245C1284.477,439.424,1270.615,449.556,1268.346,464.711z"/>
					<path style="fill:#F7F1EB;" d="M1276.359,597.594c-0.109,0-0.219-0.008-0.329-0.024c-1.205-0.18-2.035-1.303-1.854-2.507
						l18.789-125.503c0.18-1.204,1.302-2.034,2.506-1.854c1.205,0.18,2.035,1.303,1.854,2.507l-18.789,125.503
						C1278.372,596.809,1277.431,597.594,1276.359,597.594z"/>
				</g>
				<g>
					<path style="fill:#E6D0BE;" d="M1530.355,448.201c-13.73,15.453-90.844,44.817-90.844,44.817s21.454-81.57,35.184-97.023
						c13.73-15.453,37.32-16.293,52.691-1.877C1542.756,408.535,1544.085,432.749,1530.355,448.201z"/>
					<path style="fill:#F7F1EB;" d="M1263.313,693.527c-0.521,0-1.043-0.183-1.463-0.557c-0.911-0.809-0.993-2.202-0.184-3.113
						l242.847-273.315c0.808-0.91,2.202-0.993,3.112-0.184c0.911,0.809,0.993,2.202,0.184,3.113l-242.847,273.315
						C1264.526,693.277,1263.921,693.527,1263.313,693.527z"/>
					<path style="fill:#E6D0BE;" d="M1418.498,426.671c-2.364,17.202-41.328,73.887-41.328,73.887s-21.989-66.813-19.624-84.015
						c2.364-17.202,17.926-28.88,34.757-26.083C1409.135,393.256,1420.863,409.469,1418.498,426.671z"/>
					<path style="fill:#F7F1EB;" d="M1366.996,576.813c-0.1,0-0.201-0.007-0.304-0.021c-1.206-0.166-2.05-1.278-1.884-2.484
						l21.246-154.577c0.166-1.207,1.276-2.05,2.485-1.884c1.206,0.166,2.05,1.278,1.884,2.484l-21.246,154.577
						C1369.026,576.012,1368.081,576.813,1366.996,576.813z"/>
					<path style="fill:#E6D0BE;" d="M1450.717,570.101c-17.858,4.321-73.629,53.166-73.629,53.166s72.434,17.822,90.292,13.501
						c17.858-4.321,28.605-22.748,24.003-41.158C1486.782,577.2,1468.575,565.78,1450.717,570.101z"/>
					<path style="fill:#F7F1EB;" d="M1310.713,641.533c-0.994,0-1.897-0.677-2.141-1.687c-0.286-1.184,0.441-2.375,1.625-2.661
						l147.897-35.788c1.174-0.287,2.375,0.44,2.662,1.624c0.286,1.184-0.441,2.375-1.625,2.662l-147.897,35.788
						C1311.06,641.513,1310.885,641.533,1310.713,641.533z"/>
				</g>
			</g>
		</g>
		<g>
			<g>
				<rect x="765.08" y="542.48" style="fill:#FFFFFF;" width="1271.202" height="943.177"/>
				<rect x="766.333" y="542.48" style="fill:#EFBC73;" width="1269.624" height="95.718"/>
				<path style="fill:#D3BBA3;" d="M2038.487,1487.862H762.875V540.275h1275.612V1487.862z M767.284,1483.452h1266.792V544.685
					H767.284V1483.452z"/>
				
					<ellipse transform="matrix(0.1222 -0.9925 0.9925 0.1222 142.2042 1339.5863)" style="fill:#FFFFFF;" cx="828.406" cy="589.401" rx="21.232" ry="21.232"/>
				
					<ellipse transform="matrix(0.3827 -0.9239 0.9239 0.3827 9.2027 1192.5754)" style="fill:#FFFFFF;" cx="897.008" cy="589.401" rx="21.232" ry="21.232"/>
				
					<ellipse transform="matrix(0.3827 -0.9239 0.9239 0.3827 51.552 1255.9557)" style="fill:#FFFFFF;" cx="965.61" cy="589.401" rx="21.232" ry="21.232"/>
			</g>
			<g>
				<g>
					<rect x="915.168" y="1108.658" style="fill:#FFFFFF;" width="678.624" height="92.285"/>
					<path style="fill:#363E44;" d="M1593.792,1203.147H915.168c-1.218,0-2.205-0.987-2.205-2.205v-92.285
						c0-1.218,0.987-2.205,2.205-2.205h678.625c1.218,0,2.205,0.987,2.205,2.205v92.285
						C1595.997,1202.16,1595.01,1203.147,1593.792,1203.147z M917.373,1198.738h674.215v-87.875H917.373V1198.738z"/>
				</g>
				<rect x="913.798" y="972.815" style="fill:#E6D0BE;" width="550.727" height="70.878"/>
				<rect x="1138.832" y="1252.64" style="fill:#D3BBA3;" width="212.777" height="86.102"/>
				<rect x="913.798" y="718.798" style="fill:#E6D0BE;" width="785.355" height="70.878"/>
				<rect x="913.8" y="847.978" style="fill:#E6D0BE;" width="814.645" height="70.878"/>
			</g>
		</g>
		<g>
			<g>
				<g>
					<path style="fill:#E2A18D;" d="M1539.698,1755.952c0,0-113.38,63.322-342.62,90.092
						c-254.044,29.667-6.339-234.663-6.339-234.663s183.682-71.875,276.489-108.403
						C1546.714,1471.691,1539.698,1755.952,1539.698,1755.952z"/>
					<g>
						<path style="fill:#E2A18D;" d="M1369.278,1644.248c0,0,79.85-236.09,118.229-329.176
							c40.307-97.759,114.033-236.218,133.246-225.643c10.944,6.024,4.789,26.988-15.385,81.928
							c3.794-1.757,16.601-4.231,25.837,3.022c13.667,10.734,8.035,24.171,8.102,25.585c1.238-0.7,15.77-7.917,26.134-2.283
							c11.674,6.347,14.559,17.26,13.609,27.655c3.127-1.641,17.533-6.404,27.213-0.492c12.585,7.686,12.329,24.022,7.521,35.216
							c-8.824,20.534-34.33,76.042-44.074,107.122c-19.176,61.16-45.03,297.461-109.201,368.565
							C1445.861,1862.787,1348.984,1705.951,1369.278,1644.248z"/>
						<path style="fill:#363E44;" d="M1594.789,1358.427c-0.041,0-0.082-0.001-0.123-0.003c-1.216-0.067-2.148-1.106-2.081-2.322
							c1.242-22.713-6.213-39.647-12.203-53.254c-6.189-14.06-11.078-25.165-1.66-34.502c6.099-6.046,10.449-16.454,12.582-30.102
							c0.581-3.722-1.525-6.344-3.69-7.557c-2.192-1.227-5.569-1.661-8.478,0.811l-52.358,44.485
							c-0.927,0.787-2.319,0.676-3.108-0.253c-0.788-0.928-0.675-2.319,0.253-3.107l52.358-44.484
							c3.816-3.242,9.109-3.751,13.489-1.297c4.345,2.435,6.657,7.179,5.89,12.085c-2.311,14.792-6.965,25.745-13.833,32.553
							c-6.943,6.882-3.886,14.881,2.591,29.594c6.179,14.037,13.869,31.506,12.57,55.272
							C1596.924,1357.518,1595.952,1358.427,1594.789,1358.427z"/>
						<path style="fill:#363E44;" d="M1686.488,1292.26c-0.29,0-0.583-0.057-0.866-0.178c-15.925-6.806-24.696-23.909-21.53-40.507
							l-4.164,6.871c-6.05,9.988-18.358,14.218-29.266,10.055c-6.136-2.343-10.953-6.955-13.563-12.987
							c-2.613-6.039-2.676-12.717-0.179-18.804l4.039-9.845c-5.902,4.516-14.146,5.533-21.114,1.932
							c-8.94-4.62-12.979-15.201-9.395-24.612l8.958-23.524c0.433-1.139,1.709-1.709,2.845-1.276
							c1.138,0.433,1.709,1.708,1.276,2.845l-8.958,23.524c-2.785,7.314,0.352,15.535,7.298,19.125
							c7.376,3.81,16.579,0.965,20.527-6.336l8.255-15.266c0.558-1.031,1.825-1.444,2.883-0.944
							c1.059,0.502,1.541,1.745,1.096,2.829l-13.63,33.221c-2.043,4.979-1.992,10.44,0.145,15.379
							c2.135,4.932,6.072,8.702,11.088,10.617c8.915,3.403,18.975-0.054,23.924-8.22l13.977-23.065
							c0.585-0.965,1.806-1.331,2.822-0.853c1.021,0.479,1.516,1.651,1.148,2.717l-4.486,12.971
							c-5.496,15.884,2.295,33.497,17.738,40.097c1.12,0.479,1.64,1.774,1.161,2.894
							C1688.158,1291.758,1687.343,1292.26,1686.488,1292.26z"/>
					</g>
				</g>
				<path style="fill:#E2A18D;" d="M346.864,1979.406c5.108-12.784,66.251-266.447,267.702-358.923
					c0,0,28.651,216.014,28.651,223.685c0,7.67-99.594,163.63-99.594,163.63L346.864,1979.406z"/>
				<g>
					<path style="fill:#8B865C;" d="M1357.075,1518.734c0,0-224.357,34.74-436.905,18.036
						c-99.999-7.859-287.855-8.72-351.174,32.857c-141.559,92.95-179.589,244.514-179.589,244.514l246.005,45.061l-34.783,248.309
						h669.405l-41.376-233.885l153.771-33.362L1357.075,1518.734z"/>
					<path style="fill:#363E44;" d="M1222.636,1857.66c-1.039,0-1.964-0.737-2.164-1.795l-13.534-71.42
						c-0.227-1.197,0.559-2.35,1.756-2.577c1.199-0.227,2.349,0.56,2.576,1.755l13.534,71.42c0.227,1.197-0.559,2.35-1.756,2.577
						C1222.909,1857.647,1222.771,1857.66,1222.636,1857.66z"/>
				</g>
				<g>
					<path style="fill:#E2A18D;" d="M1101.807,1921.325c-24.525-12.385-118.249-80.261-166.218-55.662
						c-48.313,24.775-72.033,79.947-76.453,134.115c0.138,0.173,0.29,0.365,0.426,0.536c5.175,14.125,15.079,34.463,34.96,49.424
						c22.664,17.054,36.584,10.785,63.299,25.053c45.091,24.083,49.255,66.912,66.342,60.92
						c11.728-4.111,10.381-29.172,3.212-51.709c-7.36-23.14-21.848-35.002-19.112-37.887c3.002-3.166,16.162,10.791,34.119,26.643
						c8.342,7.365,18.812,41.711,35.662,38.458c13.435-2.593,11.475-41.027-7.613-68.626c-13.505-19.524-35.772-25.39-33.861-29.281
						c1.434-2.92,14.618,0.903,24.999,7.587c17.132,11.026,28.219,46.05,43.671,42.755c15.139-3.229,12.838-36.766-3.114-63.263
						c-13.449-22.342-38.593-27.695-36.245-32.544c1.651-3.411,13.406-3.357,36.881,4.069c19.593,6.2,53.704,30.905,63.245,11.345
						C1174.034,1966.808,1138.824,1940.017,1101.807,1921.325z"/>
					<path style="fill:#E2A18D;" d="M377.721,1904.448c0,0-112.411,148.878,33.138,220.175
						c145.549,71.297,497.258-119.385,497.258-119.385l53.74-144.874C766.635,1835.887,552.907,1848.036,377.721,1904.448z"/>
					<path style="fill:#363E44;" d="M474.755,1880.679c-1.067,0-2.006-0.777-2.176-1.866c-0.187-1.203,0.636-2.33,1.839-2.518
						l147.588-23.019c1.199-0.185,2.331,0.635,2.519,1.839c0.187,1.203-0.636,2.33-1.839,2.518l-147.588,23.019
						C474.983,1880.67,474.868,1880.679,474.755,1880.679z"/>
				</g>
			</g>
			<g>
				<path style="fill:#E2A18D;" d="M859.135,1555.421c46.234,28.681,90.364,34.079,131.592,7.408l62.53-159.424l-116.527-45.814
					L859.135,1555.421z"/>
				<g>
					<path style="fill:#E2A18D;" d="M1127.437,1419.389c-13.643,32.145-110.809,27.524-110.809,27.524l-89.533-57.884
						c-25.713-41.851-12.67-96.646,29.131-122.39c41.802-25.743,96.532-12.685,122.244,29.167
						C1078.47,1295.805,1141.333,1386.648,1127.437,1419.389z"/>
					<path style="fill:#E2A18D;" d="M1082.015,1321.087c0,0,34.911,9.195,37.393,15.769c2.964,7.848-18.055,26.692-18.055,26.692
						S1082.612,1320.793,1082.015,1321.087z"/>
					<g>
						<path style="fill:#FFFFFF;" d="M1011.717,1359.909c0,0,8.479-14.627,23.755-24.033c3.25-2.001,13.115,27.812,9.125,28.237
							C1027.05,1365.984,1011.717,1359.909,1011.717,1359.909z"/>
						<g>
							<defs>
								<path id="SVGID_1_" d="M1011.717,1359.909c0,0,12.471-21.513,34.411-29.137c21.94-7.624,45.041,1.529,45.041,1.529
									s-12.471,21.513-34.411,29.137C1034.818,1369.062,1011.717,1359.909,1011.717,1359.909z"/>
							</defs>
							<clipPath id="SVGID_00000070086080495322019330000013806192263047400099_">
								<use xlink:href="#SVGID_1_"  style="overflow:visible;"/>
							</clipPath>
							<path style="clip-path:url(#SVGID_00000070086080495322019330000013806192263047400099_);fill:#363E44;" d="
								M1035.707,1334.808c3.888-16.336,20.268-26.424,36.585-22.53c16.317,3.893,26.392,20.292,22.503,36.628
								c-3.888,16.336-20.268,26.423-36.584,22.53C1041.894,1367.544,1031.819,1351.144,1035.707,1334.808z"/>
						</g>
					</g>
					<path style="fill:#363E44;" d="M1084.173,1392.259c-0.117,0-0.235-0.002-0.353-0.004c-5.536-0.134-10.624-3.49-12.963-8.548
						c-0.511-1.105-0.029-2.416,1.077-2.927c1.104-0.51,2.416-0.03,2.926,1.076c1.639,3.546,5.199,5.897,9.068,5.991
						c4.012,0.106,7.746-2.202,9.501-5.858c0.526-1.099,1.844-1.559,2.941-1.034c1.098,0.527,1.561,1.844,1.033,2.942
						C1094.951,1389.006,1089.786,1392.259,1084.173,1392.259z"/>
					<path style="fill:#363E44;" d="M1030.411,1450.674c-7.484,0-12.422-0.221-13.084-0.253c-1.217-0.058-2.155-1.091-2.098-2.307
						c0.058-1.217,1.12-2.165,2.307-2.098c0.558,0.026,56.393,2.512,88.454-10.133c1.131-0.447,2.413,0.109,2.859,1.242
						c0.447,1.132-0.109,2.413-1.242,2.86C1084.046,1449.279,1049.201,1450.674,1030.411,1450.674z"/>
				</g>
				<path style="fill:#84524D;" d="M1030.881,1271.731c14.787-3.732,26.078-15.737,28.79-30.763
					c4.845-26.829,8.427-68.326-10.127-88.206c-3.533-3.785-6.734-5.743-11.341-6.953c-25.652-6.726-39.072,40.958-87.725,70.567
					c-46.882,28.531-86.976,16.234-100.557,46.789c-5.971,13.435-3.097,27.136-2.525,30.484
					c7.553,44.23,48.457,55.492,48.457,55.492s-27.383-5.057-29.164,31.82c-1.777,36.876,111.739,16.05,111.739,16.05l10.611-16.536
					l-21.156-33.242c-16.088-25.281-2.737-58.912,26.294-66.239L1030.881,1271.731z"/>
				<path style="fill:#E2A18D;" d="M912.597,1398.372c2.52,16.758,18.132,28.299,34.871,25.776
					c16.739-2.522,28.266-18.153,25.746-34.911c-2.52-16.759-18.132-28.299-34.87-25.776
					C921.605,1365.983,910.078,1381.613,912.597,1398.372z"/>
				<path style="fill:#EFBC73;" d="M964.365,1205.852c0,0,2.822,130.709-48.587,205.16c-37.606,6.497-45.784-6.22-45.784-6.22
					s49.914-138.914,45.755-191.614C934.387,1200.959,964.365,1205.852,964.365,1205.852z"/>
				<path style="fill:#EFBC73;" d="M918.409,1219.576c-42.078,4.323-77.142,28.019-88.438,61.423
					c-10.865,32.132,3.471,63.751,5.551,68.178c0,0,4.736,10.076,39.979,51.546l0,0
					C875.502,1400.723,932.856,1269.351,918.409,1219.576z"/>
				<path style="fill:#E0AA63;" d="M891.511,1362.503c-0.308,0-0.62-0.065-0.918-0.201c-1.107-0.508-1.592-1.817-1.084-2.923
					c26.428-57.603,24.454-131.336,24.432-132.074c-0.038-1.217,0.918-2.234,2.135-2.273c1.219-0.044,2.234,0.918,2.273,2.135
					c0.024,0.749,2.023,75.517-24.832,134.05C893.146,1362.026,892.347,1362.503,891.511,1362.503z"/>
			</g>
			<g>
				<g>
					<path style="fill:#FFFFFF;" d="M1663.614,2106.972c-10.424,22.306-32.8,36.557-57.397,36.557h-394.938l176.875-378.475h435.25
						L1663.614,2106.972z"/>
					<path style="fill:#FFFFFF;" d="M952.036,2105.533L952.036,2105.533c0,21.087,17.074,38.181,38.136,38.181h364.168
						l17.843-38.181H952.036z"/>
					<ellipse style="fill:#F2E6DC;" cx="1543.353" cy="1934.326" rx="26.011" ry="26.042"/>
				</g>
				<path style="fill:#363E44;" d="M1375.863,2164.899h-364.168c-22.244,0-40.34-18.116-40.34-40.384
					c0-1.218,0.987-2.205,2.205-2.205h275.597l158.523-339.209c0.362-0.776,1.141-1.271,1.997-1.271h435.25
					c0.754,0,1.456,0.385,1.86,1.021c0.405,0.636,0.456,1.434,0.137,2.117l-159.79,341.918
					c-10.739,22.98-34.053,37.829-59.395,37.829h-251.082C1376.402,2164.831,1376.132,2164.899,1375.863,2164.899z
					 M975.832,2126.719c1.141,18.814,16.79,33.77,35.864,33.77h363.459c0.255-0.116,0.525-0.184,0.795-0.184h251.791
					c23.636,0,45.382-13.851,55.4-35.286l158.323-338.78h-430.382l-158.524,339.209c-0.362,0.776-1.141,1.271-1.997,1.271H975.832z"
					/>
			</g>
		</g>
		<g>
			<g>
				<g>
					<g>
						<ellipse style="fill:#E0AA63;" cx="1789.839" cy="1645.971" rx="104.876" ry="33.2"/>
						<rect x="1684.963" y="1612.896" style="fill:#E0AA63;" width="209.751" height="34.206"/>
						<ellipse style="fill:#EFBC73;" cx="1789.839" cy="1613.546" rx="104.876" ry="33.2"/>
						<path style="fill:#FFFFFF;" d="M1802.194,1648.951c-60.045,0-107.08-15.552-107.08-35.405
							c0-19.854,47.036-35.405,107.08-35.405s107.08,15.552,107.08,35.405C1909.274,1633.399,1862.239,1648.951,1802.194,1648.951z
							 M1802.194,1582.55c-61.415,0-102.671,16.027-102.671,30.995c0,14.969,41.255,30.996,102.671,30.996
							s102.671-16.027,102.671-30.996C1904.865,1598.577,1863.609,1582.55,1802.194,1582.55z"/>
					</g>
					<g>
						<ellipse style="fill:#E0AA63;" cx="1811.461" cy="1591.929" rx="104.876" ry="33.2"/>
						<rect x="1706.585" y="1558.855" style="fill:#E0AA63;" width="209.751" height="34.206"/>
						<ellipse style="fill:#EFBC73;" cx="1811.461" cy="1559.504" rx="104.876" ry="33.2"/>
						<path style="fill:#FFFFFF;" d="M1823.816,1594.909c-60.045,0-107.08-15.552-107.08-35.405
							c0-19.854,47.035-35.405,107.08-35.405c60.046,0,107.081,15.552,107.081,35.405
							C1930.897,1579.358,1883.862,1594.909,1823.816,1594.909z M1823.816,1528.509c-61.415,0-102.67,16.027-102.67,30.996
							s41.255,30.995,102.67,30.995c61.415,0,102.672-16.026,102.672-30.995S1885.231,1528.509,1823.816,1528.509z"/>
					</g>
					<g>
						<ellipse style="fill:#E0AA63;" cx="1789.839" cy="1537.888" rx="104.876" ry="33.2"/>
						<rect x="1684.963" y="1504.813" style="fill:#E0AA63;" width="209.751" height="34.206"/>
						<ellipse style="fill:#EFBC73;" cx="1789.839" cy="1505.463" rx="104.876" ry="33.2"/>
						<path style="fill:#FFFFFF;" d="M1802.194,1540.868c-60.045,0-107.08-15.552-107.08-35.405
							c0-19.854,47.036-35.405,107.08-35.405s107.08,15.552,107.08,35.405C1909.274,1525.316,1862.239,1540.868,1802.194,1540.868z
							 M1802.194,1474.467c-61.415,0-102.671,16.027-102.671,30.996s41.255,30.996,102.671,30.996s102.671-16.027,102.671-30.996
							S1863.609,1474.467,1802.194,1474.467z"/>
					</g>
					<g>
						<ellipse style="fill:#E0AA63;" cx="1823.816" cy="1489.828" rx="104.876" ry="33.2"/>
						<rect x="1718.941" y="1456.754" style="fill:#E0AA63;" width="209.751" height="34.206"/>
						<ellipse style="fill:#EFBC73;" cx="1823.816" cy="1457.403" rx="104.876" ry="33.2"/>
						<path style="fill:#FFFFFF;" d="M1836.172,1492.808c-60.045,0-107.08-15.552-107.08-35.405
							c0-19.854,47.036-35.405,107.08-35.405s107.08,15.552,107.08,35.405C1943.252,1477.257,1896.217,1492.808,1836.172,1492.808z
							 M1836.172,1426.408c-61.415,0-102.671,16.027-102.671,30.995c0,14.969,41.255,30.995,102.671,30.995
							c61.415,0,102.671-16.026,102.671-30.995C1938.842,1442.435,1897.587,1426.408,1836.172,1426.408z"/>
					</g>
				</g>
				<g>
					<g>
						<ellipse style="fill:#E0AA63;" cx="2016.816" cy="1646.909" rx="104.876" ry="33.2"/>
						<rect x="1911.941" y="1613.835" style="fill:#E0AA63;" width="209.751" height="34.206"/>
						<ellipse style="fill:#EFBC73;" cx="2016.816" cy="1614.484" rx="104.876" ry="33.2"/>
						<path style="fill:#FFFFFF;" d="M2029.172,1649.89c-60.046,0-107.081-15.552-107.081-35.405s47.035-35.405,107.081-35.405
							c60.045,0,107.08,15.552,107.08,35.405S2089.217,1649.89,2029.172,1649.89z M2029.172,1583.489
							c-61.415,0-102.672,16.027-102.672,30.996c0,14.969,41.256,30.996,102.672,30.996c61.415,0,102.671-16.027,102.671-30.996
							C2131.843,1599.516,2090.587,1583.489,2029.172,1583.489z"/>
					</g>
					<g>
						<ellipse style="fill:#E0AA63;" cx="2038.438" cy="1592.687" rx="104.876" ry="33.109"/>
						<rect x="1933.563" y="1559.704" style="fill:#E0AA63;" width="209.751" height="34.112"/>
						<ellipse style="fill:#EFBC73;" cx="2038.438" cy="1560.352" rx="104.876" ry="33.109"/>
						<path style="fill:#FFFFFF;" d="M2050.794,1595.666c-60.046,0-107.081-15.512-107.081-35.314s47.035-35.314,107.081-35.314
							c60.045,0,107.08,15.512,107.08,35.314S2110.839,1595.666,2050.794,1595.666z M2050.794,1529.448
							c-61.415,0-102.672,15.979-102.672,30.904c0,14.924,41.256,30.904,102.672,30.904c61.415,0,102.671-15.98,102.671-30.904
							C2153.465,1545.427,2112.209,1529.448,2050.794,1529.448z"/>
					</g>
					<g>
						
							<ellipse transform="matrix(0.7103 -0.7039 0.7039 0.7103 -481.5982 1822.9197)" style="fill:#E0AA63;" cx="1973.942" cy="1496.574" rx="33.204" ry="104.863"/>
						
							<rect x="1968.187" y="1380.471" transform="matrix(0.7103 -0.7039 0.7039 0.7103 -470.4084 1827.5842)" style="fill:#E0AA63;" width="34.211" height="209.725"/>
						
							<ellipse transform="matrix(0.7103 -0.7039 0.7039 0.7103 -458.8619 1832.5267)" style="fill:#EFBC73;" cx="1996.984" cy="1473.754" rx="33.204" ry="104.863"/>
						<path style="fill:#FFFFFF;" d="M2069.17,1562.726c-19.887,0-54.873-21.19-88.65-55.279
							c-19.869-20.053-36.09-41.383-45.675-60.06c-9.959-19.408-11.567-33.938-4.525-40.912
							c14.107-13.971,58.261,8.489,100.517,51.138c19.869,20.053,36.091,41.382,45.676,60.06
							c9.959,19.409,11.567,33.938,4.525,40.912C2078.207,1561.389,2074.163,1562.726,2069.17,1562.726z M1942.292,1406.674
							c-3.874,0-6.887,0.972-8.869,2.934c-5.481,5.429-3.532,18.465,5.345,35.766c9.385,18.287,25.324,39.229,44.884,58.97
							c43.222,43.622,83.644,61.641,94.283,51.109l0,0c5.481-5.429,3.532-18.464-5.345-35.766
							c-9.385-18.287-25.325-39.229-44.885-58.97C1992.535,1425.221,1959.215,1406.674,1942.292,1406.674z"/>
					</g>
				</g>
			</g>
			<g>
				
					<ellipse transform="matrix(0.7071 -0.7071 0.7071 0.7071 201.3922 1534.2303)" style="fill:#D87355;" cx="1952.676" cy="524.013" rx="185.705" ry="185.705"/>
				<g>
					<path style="fill:#FFFFFF;" d="M1960.495,717.786c-103.614,0-187.91-84.296-187.91-187.91s84.297-187.91,187.91-187.91
						c103.614,0,187.909,84.296,187.909,187.91S2064.109,717.786,1960.495,717.786z M1960.495,346.376
						c-101.183,0-183.501,82.318-183.501,183.5s82.318,183.5,183.501,183.5c101.182,0,183.5-82.318,183.5-183.5
						S2061.677,346.376,1960.495,346.376z"/>
				</g>
				<g>
					<path style="fill:#FFFFFF;" d="M1882.85,551.797l18.791-68.68h25.399l-31.748,94.338h-24.879l-31.49-94.338h25.205
						L1882.85,551.797z"/>
					<path style="fill:#FFFFFF;" d="M1982.631,559.832h-31.165l-5.443,17.623h-24.298l34.601-94.338h21.381l34.857,94.338h-24.425
						L1982.631,559.832z M1956.907,542.273h20.28l-10.171-32.72L1956.907,542.273z"/>
					<path style="fill:#FFFFFF;" d="M2085.717,500.676h-28.316v76.779h-22.741v-76.779h-27.795v-17.559h78.852V500.676z"/>
				</g>
			</g>
			<g>
				<rect x="1832.779" y="1177.961" style="fill:#D87355;" width="66.145" height="132.289"/>
				<polygon style="fill:#D87355;" points="1864.565,1358.573 1807.791,1291.142 1920.972,1291.142 				"/>
			</g>
			<g>
				<g>
					
						<ellipse transform="matrix(0.1602 -0.9871 0.9871 0.1602 595.5762 2897.9336)" style="fill:#E6D0BE;" cx="2000.844" cy="1098.959" rx="80.311" ry="80.311"/>
					<path style="fill:#FFFFFF;" d="M2007.708,1181.474c-45.499,0-82.516-37.016-82.516-82.516c0-45.5,37.017-82.516,82.516-82.516
						c45.499,0,82.516,37.016,82.516,82.516C2090.225,1144.458,2053.208,1181.474,2007.708,1181.474z M2007.708,1020.852
						c-43.068,0-78.106,35.038-78.106,78.106c0,43.068,35.038,78.106,78.106,78.106c43.068,0,78.106-35.038,78.106-78.106
						C2085.815,1055.891,2050.777,1020.852,2007.708,1020.852z"/>
					<g>
						<path style="fill:#84524D;" d="M1965.058,1098.081h10.29v8.721h-10.29v11.799h-9.506v-11.799h-10.321v-8.721h10.321v-11.468
							h9.506V1098.081z"/>
						<path style="fill:#84524D;" d="M1980.176,1101.544l2.686-22.476h25.682v7.907h-17.412l-0.996,8.728
							c0.723-0.425,1.674-0.798,2.852-1.121c1.177-0.323,2.327-0.486,3.455-0.486c4.365,0,7.72,1.293,10.065,3.878
							c2.343,2.585,3.515,6.212,3.515,10.879c0,2.817-0.629,5.367-1.886,7.65c-1.257,2.283-3.023,4.039-5.296,5.266
							c-2.274,1.228-4.96,1.841-8.058,1.841c-2.756,0-5.341-0.568-7.756-1.704c-2.414-1.135-4.305-2.693-5.672-4.673
							c-1.368-1.98-2.042-4.216-2.022-6.709h10.199c0.1,1.606,0.614,2.881,1.539,3.824c0.925,0.944,2.142,1.416,3.651,1.416
							c3.42,0,5.131-2.53,5.131-7.589c0-4.677-2.093-7.016-6.277-7.016c-2.374,0-4.145,0.763-5.311,2.289L1980.176,1101.544z"/>
						<path style="fill:#84524D;" d="M2015.394,1087.519c0-2.716,0.885-4.909,2.656-6.579c1.77-1.67,4.144-2.505,7.122-2.505
							c3.018,0,5.401,0.83,7.152,2.49c1.751,1.66,2.626,3.908,2.626,6.745v2.173c0,2.716-0.875,4.899-2.626,6.548
							c-1.75,1.65-4.115,2.474-7.091,2.474c-2.957,0-5.337-0.819-7.137-2.459c-1.801-1.64-2.701-3.887-2.701-6.745V1087.519z
							 M2021.943,1089.834c0,1.04,0.291,1.885,0.874,2.534c0.584,0.65,1.389,0.974,2.415,0.974c2.112,0,3.168-1.339,3.168-4.018
							v-1.799c0-1.039-0.282-1.894-0.845-2.563c-0.563-0.67-1.357-1.005-2.383-1.005c-0.986,0-1.771,0.325-2.354,0.975
							c-0.583,0.65-0.874,1.534-0.874,2.654V1089.834z M2027.163,1119.718l-4.738-2.384l21.456-34.342l4.738,2.384
							L2027.163,1119.718z M2036.276,1112.234c0-2.736,0.89-4.929,2.671-6.579c1.781-1.649,4.149-2.474,7.107-2.474
							c2.998,0,5.382,0.815,7.153,2.444c1.77,1.629,2.656,3.903,2.656,6.82v2.113c0,2.736-0.875,4.929-2.626,6.578
							c-1.75,1.65-4.125,2.474-7.122,2.474c-2.958,0-5.338-0.819-7.138-2.459c-1.801-1.64-2.701-3.887-2.701-6.745V1112.234z
							 M2042.795,1114.55c0,0.939,0.322,1.764,0.966,2.474c0.644,0.709,1.429,1.064,2.354,1.064c1.951,0,3.007-0.919,3.168-2.759
							l0.03-3.088c0-1.06-0.292-1.914-0.875-2.564c-0.583-0.65-1.378-0.975-2.385-0.975c-0.966,0-1.74,0.305-2.323,0.915
							c-0.583,0.609-0.896,1.435-0.936,2.474V1114.55z"/>
					</g>
				</g>
				<g>
					<circle style="fill:#D3BBA3;" cx="1858.032" cy="910.223" r="73.696"/>
					<path style="fill:#FFFFFF;" d="M1864.331,986.125c-41.852,0-75.902-34.049-75.902-75.902c0-41.852,34.05-75.901,75.902-75.901
						s75.901,34.049,75.901,75.901C1940.232,952.075,1906.182,986.125,1864.331,986.125z M1864.331,838.732
						c-39.421,0-71.492,32.071-71.492,71.491c0,39.421,32.071,71.492,71.492,71.492s71.492-32.071,71.492-71.492
						C1935.823,870.803,1903.751,838.732,1864.331,838.732z"/>
					<g>
						<path style="fill:#84524D;" d="M1825.192,909.417h9.444v8.003h-9.444v10.828h-8.722V917.42h-9.471v-8.003h9.471v-10.523h8.722
							V909.417z"/>
						<path style="fill:#84524D;" d="M1839.066,912.596l2.464-20.624h23.566v7.255h-15.978l-0.914,8.009
							c0.665-0.389,1.537-0.732,2.617-1.029c1.08-0.297,2.137-0.445,3.171-0.445c4.006,0,7.085,1.186,9.236,3.558
							c2.15,2.373,3.225,5.701,3.225,9.983c0,2.585-0.577,4.925-1.73,7.02c-1.154,2.096-2.774,3.706-4.861,4.832
							s-4.551,1.689-7.394,1.689c-2.529,0-4.901-0.522-7.116-1.563c-2.216-1.042-3.951-2.472-5.206-4.289
							c-1.255-1.817-1.874-3.869-1.855-6.156h9.36c0.092,1.474,0.563,2.644,1.412,3.51c0.848,0.866,1.966,1.299,3.35,1.299
							c3.138,0,4.708-2.321,4.708-6.964c0-4.292-1.921-6.439-5.76-6.439c-2.179,0-3.803,0.7-4.875,2.1L1839.066,912.596z"/>
						<path style="fill:#84524D;" d="M1871.382,899.725c0-2.492,0.812-4.504,2.437-6.037c1.624-1.533,3.802-2.299,6.535-2.299
							c2.769,0,4.957,0.761,6.563,2.284c1.606,1.523,2.409,3.586,2.409,6.189v1.994c0,2.492-0.803,4.496-2.409,6.009
							c-1.606,1.514-3.776,2.27-6.507,2.27c-2.714,0-4.897-0.752-6.55-2.257c-1.652-1.505-2.478-3.567-2.478-6.189V899.725z
							 M1877.392,901.85c0,0.954,0.267,1.729,0.803,2.325c0.535,0.596,1.274,0.894,2.216,0.894c1.938,0,2.907-1.229,2.907-3.687
							v-1.651c0-0.954-0.258-1.737-0.775-2.352c-0.517-0.614-1.246-0.922-2.188-0.922c-0.904,0-1.625,0.298-2.16,0.895
							c-0.536,0.596-0.803,1.408-0.803,2.435V901.85z M1882.182,929.272l-4.348-2.188l19.689-31.513l4.347,2.188L1882.182,929.272z
							 M1890.545,922.405c0-2.511,0.817-4.523,2.45-6.037c1.634-1.514,3.808-2.271,6.522-2.271c2.75,0,4.938,0.748,6.563,2.243
							c1.625,1.495,2.437,3.582,2.437,6.258v1.938c0,2.511-0.803,4.524-2.409,6.037c-1.606,1.514-3.785,2.271-6.535,2.271
							c-2.714,0-4.897-0.752-6.55-2.257c-1.653-1.505-2.478-3.567-2.478-6.189V922.405z M1896.527,924.531
							c0,0.862,0.295,1.619,0.886,2.27c0.591,0.651,1.311,0.977,2.161,0.977c1.79,0,2.759-0.844,2.907-2.531l0.028-2.834
							c0-0.972-0.268-1.756-0.803-2.352c-0.535-0.596-1.265-0.895-2.188-0.895c-0.886,0-1.597,0.28-2.133,0.839
							c-0.535,0.56-0.821,1.317-0.858,2.27V924.531z"/>
					</g>
				</g>
				<g>
					<circle style="fill:#E6D0BE;" cx="2057.106" cy="805.643" r="70.389"/>
					<path style="fill:#FFFFFF;" d="M2063.123,878.237c-40.029,0-72.594-32.565-72.594-72.594c0-40.029,32.565-72.594,72.594-72.594
						c40.028,0,72.594,32.566,72.594,72.594C2135.716,845.672,2103.151,878.237,2063.123,878.237z M2063.123,737.459
						c-37.597,0-68.185,30.588-68.185,68.185c0,37.597,30.588,68.184,68.185,68.184c37.596,0,68.184-30.587,68.184-68.184
						C2131.306,768.047,2100.719,737.459,2063.123,737.459z"/>
					<g>
						<path style="fill:#84524D;" d="M2025.74,804.874h9.02v7.644h-9.02v10.342h-8.332v-10.342h-9.045v-7.644h9.045v-10.05h8.332
							V804.874z"/>
						<path style="fill:#84524D;" d="M2038.992,807.91l2.353-19.698h22.509v6.929h-15.262l-0.873,7.65
							c0.635-0.372,1.468-0.699,2.5-0.983c1.031-0.283,2.041-0.425,3.029-0.425c3.826,0,6.766,1.134,8.822,3.399
							c2.054,2.266,3.081,5.445,3.081,9.535c0,2.469-0.551,4.704-1.654,6.705c-1.101,2.001-2.649,3.54-4.641,4.615
							c-1.993,1.076-4.347,1.614-7.062,1.614c-2.416,0-4.682-0.498-6.798-1.493c-2.116-0.995-3.773-2.361-4.973-4.096
							c-1.199-1.735-1.789-3.695-1.772-5.88h8.94c0.088,1.408,0.537,2.525,1.349,3.352c0.811,0.828,1.877,1.241,3.2,1.241
							c2.997,0,4.496-2.217,4.496-6.652c0-4.1-1.833-6.15-5.501-6.15c-2.081,0-3.632,0.669-4.655,2.006L2038.992,807.91z"/>
						<path style="fill:#84524D;" d="M2069.858,795.617c0-2.381,0.776-4.302,2.328-5.766c1.551-1.464,3.632-2.195,6.242-2.195
							c2.645,0,4.735,0.727,6.269,2.182c1.534,1.455,2.301,3.426,2.301,5.911v1.904c0,2.38-0.767,4.294-2.301,5.74
							c-1.534,1.446-3.606,2.169-6.216,2.169c-2.591,0-4.677-0.718-6.255-2.156c-1.578-1.437-2.367-3.407-2.367-5.911V795.617z
							 M2075.597,797.647c0,0.911,0.256,1.651,0.768,2.221c0.511,0.569,1.217,0.854,2.115,0.854c1.852,0,2.778-1.174,2.778-3.522
							v-1.577c0-0.911-0.248-1.66-0.741-2.246c-0.494-0.587-1.19-0.881-2.09-0.881c-0.863,0-1.551,0.285-2.063,0.854
							c-0.511,0.57-0.768,1.345-0.768,2.325V797.647z M2080.174,823.838l-4.152-2.09l18.804-30.099l4.154,2.09L2080.174,823.838z
							 M2088.161,817.279c0-2.397,0.781-4.32,2.341-5.766c1.56-1.446,3.637-2.169,6.228-2.169c2.628,0,4.718,0.714,6.269,2.142
							c1.552,1.429,2.328,3.421,2.328,5.978v1.852c0,2.398-0.766,4.32-2.301,5.766s-3.615,2.169-6.242,2.169
							c-2.593,0-4.678-0.719-6.256-2.156c-1.578-1.437-2.367-3.407-2.367-5.911V817.279z M2093.874,819.309
							c0,0.824,0.282,1.546,0.846,2.168c0.564,0.622,1.252,0.933,2.064,0.933c1.709,0,2.635-0.806,2.776-2.418l0.027-2.706
							c0-0.929-0.256-1.678-0.768-2.247c-0.511-0.57-1.208-0.854-2.09-0.854c-0.846,0-1.525,0.268-2.036,0.802
							c-0.513,0.534-0.785,1.257-0.821,2.168V819.309z"/>
					</g>
				</g>
			</g>
		</g>
	</g>
</g>
</svg>
