<?xml version="1.0" standalone="no"?>
<!DOCTYPE svg PUBLIC "-//W3C//DTD SVG 20010904//EN"
 "http://www.w3.org/TR/2001/REC-SVG-20010904/DTD/svg10.dtd">
<svg version="1.0" xmlns="http://www.w3.org/2000/svg"
viewBox="2000 -2958 5958 6017.000000"
 preserveAspectRatio="xMidYMid meet">

<g transform="translate(0.000000,7017.000000) scale(0.200000,-0.200000)"
fill="#000000" stroke="none">
<path d="M19937 43239 c-2770 -2770 -5037 -5039 -5037 -5043 0 -3 291 -6 646
-6 l646 0 4394 4394 4394 4394 -2 648 -3 649 -5038 -5036z"/>
<path d="M25220 47624 l0 -647 4394 -4393 4394 -4394 648 2 649 3 -5036 5038
c-2770 2770 -5039 5037 -5043 5037 -3 0 -6 -291 -6 -646z"/>
<path d="M20882 42297 c-2316 -2316 -4212 -4217 -4212 -4222 0 -6 1897 -1907
4215 -4225 l4215 -4215 4215 4215 c2318 2318 4215 4219 4215 4225 0 10 -8420
8435 -8430 8435 -3 0 -1901 -1896 -4218 -4213z m6673 343 l2450 -2450 -733
-732 -732 -733 -2452 2452 -2453 2453 730 730 c401 401 732 730 735 730 3 0
1108 -1102 2455 -2450z m-5557 -3577 l-2453 -2453 -732 732 -733 733 2452
2452 2453 2453 732 -732 733 -733 -2452 -2452z m4500 404 l1392 -1392 -1395
-1395 -1395 -1395 -1395 1395 -1395 1395 1392 1392 c766 766 1395 1393 1398
1393 3 0 632 -627 1398 -1393z m3170 -3844 l-2453 -2453 -732 732 -733 733
2452 2452 2453 2453 732 -732 733 -733 -2452 -2452z m-5553 -653 l2450 -2450
-733 -732 -732 -733 -2452 2452 -2453 2453 730 730 c401 401 732 730 735 730
3 0 1108 -1102 2455 -2450z" />
<path d="M16430 36424 c1131 -1131 8515 -8513 8546 -8543 2 -2 4 287 4 643 l0
647 -4394 4395 -4395 4394 -648 0 -648 0 1535 -1536z" />
<path d="M29615 33564 l-4390 -4393 -3 -326 c-1 -180 -1 -470 0 -646 l3 -319
5040 5040 5040 5040 -650 -1 -650 -2 -4390 -4393z"/>
<path d="M24232 25540 c-174 -46 -285 -152 -316 -302 -31 -146 23 -279 147
-361 68 -45 164 -79 372 -132 270 -69 344 -104 386 -186 60 -119 -5 -263 -146
-322 -172 -72 -423 -38 -551 75 -41 36 -91 131 -101 192 l-6 39 -60 -7 c-33
-3 -71 -6 -83 -6 -29 0 -31 -27 -10 -107 50 -186 186 -311 393 -360 95 -22
302 -24 383 -4 297 73 449 332 340 579 -38 86 -144 174 -258 213 -31 11 -147
43 -257 70 -235 60 -310 91 -351 144 -26 34 -29 46 -29 111 0 65 3 76 31 116
77 106 297 149 482 93 93 -28 178 -128 198 -232 3 -18 9 -31 13 -29 4 3 41 6
84 7 88 4 88 3 63 94 -44 167 -172 280 -362 320 -99 21 -272 18 -362 -5z"/>
<path d="M27635 25545 c-120 -26 -203 -69 -295 -152 -250 -226 -311 -678 -137
-1008 40 -75 172 -211 247 -253 95 -53 244 -92 353 -92 62 0 196 23 253 43
160 58 291 172 363 318 102 207 118 469 44 698 -74 228 -259 397 -488 446 -85
18 -259 18 -340 0z m295 -146 c186 -43 331 -200 377 -409 22 -103 21 -293 -2
-385 -53 -214 -186 -355 -376 -400 -291 -68 -560 109 -624 410 -33 158 -11
390 50 522 57 123 189 231 321 262 54 12 200 13 254 0z"/>
<path d="M13410 25460 l0 -80 245 0 245 0 0 -655 0 -655 90 0 90 0 0 655 0
655 245 0 245 0 0 80 0 80 -580 0 -580 0 0 -80z"/>
<path d="M15140 24806 l0 -735 23 -3 c12 -2 257 -2 544 0 l521 2 4 75 3 75
-457 0 -458 0 0 265 0 265 409 0 410 0 3 28 c2 15 1 48 0 75 l-4 47 -409 0
-409 0 0 240 0 240 440 0 440 0 0 80 0 80 -530 0 -530 0 0 -734z"/>
<path d="M16880 24806 l0 -736 85 0 85 0 0 330 0 330 158 0 c293 0 317 -19
599 -462 104 -164 130 -198 149 -198 13 -1 62 -1 109 -1 47 0 87 0 90 1 7 0
-263 419 -310 480 -58 75 -99 112 -169 154 -58 35 -58 35 -30 41 165 37 244
74 305 144 152 173 115 465 -73 582 -94 57 -132 61 -585 66 l-413 5 0 -736z
m838 555 c205 -93 184 -387 -33 -458 -40 -13 -107 -17 -342 -21 l-293 -4 0
257 0 256 308 -3 c299 -3 308 -4 360 -27z"/>
<path d="M18510 25123 c1 -697 17 -799 152 -936 101 -102 221 -142 428 -141
209 0 325 39 430 144 66 66 101 133 125 240 15 64 18 148 22 593 l5 517 -91 0
-91 0 0 -472 c0 -260 -5 -503 -10 -541 -23 -154 -72 -237 -169 -281 -81 -36
-160 -49 -261 -43 -117 7 -190 36 -256 101 -95 96 -104 160 -104 779 l0 457
-90 0 -90 0 0 -417z"/>
<path d="M20096 25528 c4 -7 128 -193 275 -413 146 -220 271 -410 278 -422 7
-15 11 -118 11 -322 l0 -301 85 0 85 0 0 308 0 307 89 130 c186 270 264 382
318 460 31 44 85 122 120 173 l64 92 -104 0 -104 0 -114 -172 c-179 -273 -272
-418 -308 -481 -18 -32 -34 -57 -36 -55 -1 2 -32 53 -69 115 -36 61 -130 210
-209 330 -79 120 -149 228 -156 241 -11 21 -18 22 -122 22 -85 0 -109 -3 -103
-12z" />
<path d="M22103 25377 c-53 -140 -183 -480 -436 -1139 -36 -92 -63 -168 -62
-170 2 -2 45 -1 97 2 l93 5 63 180 c34 99 69 199 78 223 l16 42 321 -2 321 -3
26 -70 c15 -38 53 -139 85 -222 l57 -153 100 0 c91 0 100 2 95 18 -2 9 -127
316 -277 682 -150 366 -282 689 -294 717 l-21 53 -100 0 -100 0 -62 -163z
m189 -59 c14 -40 76 -203 136 -363 l110 -290 -134 -3 c-74 -1 -194 -1 -268 0
l-134 3 126 363 c70 199 129 362 132 362 3 0 17 -33 32 -72z"/>
<path d="M25530 24805 l0 -735 90 0 90 0 0 350 0 350 395 0 395 0 0 -349 0
-350 23 -3 c12 -2 52 -2 90 0 l67 4 0 734 0 734 -90 0 -90 0 0 -305 0 -305
-395 0 -395 0 0 305 0 305 -90 0 -90 0 0 -735z"/>
<path d="M28910 24805 l0 -735 90 0 90 0 0 253 0 252 123 123 c67 67 125 122
129 122 5 0 177 -241 472 -662 l61 -86 113 -4 c63 -1 115 -1 117 2 3 6 -66
104 -272 381 -83 112 -199 269 -257 349 l-106 145 212 205 c117 112 256 246
308 297 l95 93 -120 0 -120 0 -377 -377 -378 -378 0 378 0 377 -90 0 -90 0 0
-735z"/>
<path d="M30573 25023 c4 -444 7 -529 21 -593 47 -203 153 -312 356 -367 90
-24 311 -24 398 0 168 45 290 152 335 292 36 111 39 161 44 673 l5 512 -90 0
-91 0 -4 -507 c-3 -328 -8 -526 -16 -558 -20 -91 -68 -174 -119 -206 -79 -50
-135 -63 -267 -63 -151 0 -214 21 -291 98 -43 42 -55 63 -72 121 -30 102 -31
133 -32 648 l0 467 -91 0 -91 0 5 -517z"/>
<path d="M32340 24805 l0 -735 90 0 90 0 0 350 0 350 395 0 395 0 0 -350 0
-350 90 0 90 0 0 735 0 735 -90 0 -90 0 0 -305 0 -305 -395 0 -395 0 0 305 0
305 -90 0 -90 0 0 -735z"/>
<path d="M34180 24805 l0 -735 85 0 85 0 0 735 0 735 -85 0 -85 0 0 -735z"/>
<path d="M35020 24805 l0 -735 85 0 85 0 2 591 3 591 395 -591 395 -591 93 0
92 0 0 735 0 735 -82 0 -83 0 3 -590 c1 -324 -1 -590 -5 -590 -5 0 -186 266
-402 590 l-395 590 -93 0 -93 0 0 -735z"/>
<path d="M21402 22995 c-150 -34 -240 -130 -250 -267 -4 -59 -1 -75 22 -122
48 -99 116 -137 350 -197 240 -62 300 -104 298 -205 -1 -106 -104 -174 -263
-174 -90 0 -170 23 -226 66 -36 28 -83 112 -83 152 0 20 -5 22 -47 22 -27 0
-59 -3 -72 -7 -21 -5 -23 -10 -17 -52 3 -25 20 -74 36 -108 67 -136 202 -203
410 -203 239 0 400 129 400 319 0 82 -15 124 -66 180 -60 67 -116 92 -321 145
-94 25 -190 54 -212 65 -119 61 -83 220 60 261 51 15 181 12 228 -5 23 -8 55
-24 70 -35 31 -21 71 -96 71 -131 0 -20 4 -21 65 -17 35 2 67 7 71 11 14 13
-18 117 -49 164 -38 56 -108 106 -180 128 -74 23 -219 28 -295 10z"/>
<path d="M26718 22985 c-100 -20 -189 -91 -229 -181 -10 -22 -23 -73 -29 -111
-24 -169 44 -314 178 -380 48 -24 70 -28 137 -28 93 0 142 21 214 89 l43 41
-6 -72 c-20 -217 -108 -333 -253 -333 -77 0 -135 48 -163 133 -8 27 -16 37
-27 33 -8 -3 -35 -6 -59 -6 -42 0 -44 -2 -43 -27 2 -75 63 -166 140 -208 50
-28 62 -30 154 -30 89 0 106 3 156 28 155 76 229 252 229 541 -1 215 -34 331
-120 416 -83 84 -203 119 -322 95z m191 -134 c64 -37 95 -102 100 -203 6 -146
-64 -237 -188 -246 -102 -7 -181 46 -217 145 -33 93 -3 212 71 279 73 68 149
76 234 25z"/>
<path d="M22270 22915 l0 -75 65 0 65 0 0 75 0 75 -65 0 -65 0 0 -75z"/>
<path d="M25889 22968 c-35 -65 -210 -211 -279 -233 -17 -5 -20 -16 -20 -71 0
-63 1 -65 23 -58 38 12 100 45 175 96 l72 49 0 -416 0 -415 65 0 65 0 0 535 0
535 -45 0 c-36 0 -47 -4 -56 -22z"/>
<path d="M27654 22970 c-101 -40 -184 -155 -221 -305 -24 -101 -24 -385 1
-474 36 -131 104 -219 204 -264 64 -28 173 -34 243 -13 153 44 250 201 236
383 -10 132 -72 230 -181 283 -118 58 -258 35 -350 -57 -52 -53 -51 -54 -36
63 20 152 88 261 181 288 100 30 190 -15 222 -109 14 -40 14 -40 72 -43 32 -2
62 1 67 6 15 15 -10 92 -48 148 -23 34 -52 60 -87 80 -46 25 -64 29 -152 31
-81 3 -109 -1 -151 -17z m203 -491 c41 -13 99 -77 112 -126 16 -55 13 -152 -5
-205 -18 -55 -73 -113 -121 -129 -96 -31 -197 15 -248 115 -38 75 -41 176 -7
243 52 101 152 139 269 102z"/>
<path d="M28598 22975 c-146 -54 -225 -186 -216 -365 3 -74 9 -98 37 -154 94
-192 342 -235 492 -85 l42 42 -6 -79 c-17 -200 -95 -313 -226 -322 -44 -3 -67
1 -97 16 -50 25 -61 38 -84 99 l-18 48 -59 -4 c-32 -1 -60 -5 -62 -7 -11 -10
22 -102 51 -145 60 -88 153 -126 284 -116 87 6 178 49 225 106 84 102 119 234
119 459 1 236 -33 348 -133 437 -65 60 -137 85 -235 84 -42 0 -94 -7 -114 -14z
m222 -114 c116 -58 154 -258 72 -376 -60 -87 -189 -111 -279 -51 -96 64 -125
206 -67 323 57 115 168 157 274 104z"/>
<path d="M22987 22696 c-41 -15 -56 -25 -104 -70 l-33 -30 0 47 0 47 -60 0
-60 0 0 -385 0 -385 64 0 65 0 3 263 c3 250 4 264 26 309 26 52 64 81 134 99
56 15 111 2 157 -37 44 -37 51 -90 51 -379 l0 -255 66 0 65 0 -3 313 c-3 340
-4 343 -66 409 -55 60 -211 87 -305 54z"/>
<path d="M23883 22691 c-148 -51 -217 -156 -230 -351 -17 -256 107 -424 322
-438 165 -10 284 68 336 221 10 29 15 55 11 59 -4 4 -33 9 -65 10 l-58 3 -19
-55 c-57 -167 -279 -176 -360 -15 -23 46 -25 61 -25 180 0 123 2 133 28 182
36 70 90 105 166 111 36 3 69 -1 93 -11 39 -17 83 -67 93 -109 8 -30 14 -32
90 -21 l47 6 -5 34 c-9 51 -53 120 -99 154 -82 59 -221 76 -325 40z"/>
<path d="M24756 22691 c-137 -56 -205 -150 -226 -318 -20 -152 25 -312 107
-384 21 -17 62 -44 93 -58 49 -23 67 -26 165 -26 100 0 115 3 167 28 66 33
121 89 154 161 l24 51 -28 6 c-15 4 -46 9 -68 12 -37 4 -43 2 -53 -20 -22 -49
-66 -96 -106 -114 -51 -24 -129 -24 -180 0 -78 35 -117 93 -140 209 l-7 32
291 0 291 0 0 55 c0 161 -70 289 -194 353 -70 36 -216 42 -290 13z m252 -126
c44 -29 79 -87 89 -149 l6 -36 -217 0 -216 0 0 23 c0 31 43 118 71 144 67 61
189 70 267 18z"/>
<path d="M22270 22305 l0 -385 65 0 65 0 0 385 0 385 -65 0 -65 0 0 -385z" />
</g>
</svg>
